<?xml version="1.0" standalone="no"?>
<!DOCTYPE svg PUBLIC "-//W3C//DTD SVG 20010904//EN"
 "http://www.w3.org/TR/2001/REC-SVG-20010904/DTD/svg10.dtd">
<svg version="1.0" xmlns="http://www.w3.org/2000/svg"
 width="300.000000pt" height="168.000000pt" viewBox="0 0 300.000000 168.000000"
 preserveAspectRatio="xMidYMid meet">
<metadata>
Created by potrace 1.10, written by Peter Selinger 2001-2011
</metadata>
<g transform="translate(0.000000,168.000000) scale(0.100000,-0.100000)"
fill="#000000" stroke="none">
<path d="M2202 1557 c-8 -9 -4 -12 14 -12 27 0 32 10 10 18 -8 3 -19 0 -24 -6z"/>
<path d="M2160 1520 c0 -4 -10 -11 -22 -14 l-23 -7 23 -9 c32 -13 27 -19 -13
-17 -19 1 -33 -2 -32 -8 1 -5 10 -9 20 -8 9 2 17 -1 17 -6 0 -14 -26 -32 -34
-23 -4 4 -18 7 -31 7 -19 1 -22 -2 -13 -12 6 -8 19 -11 30 -7 17 5 19 3 13
-18 -7 -22 -6 -22 7 -4 11 14 17 16 22 7 4 -6 4 -18 -1 -24 -4 -7 -1 -5 8 5 9
9 18 15 21 13 2 -2 4 4 4 15 0 10 -4 17 -7 14 -4 -2 -10 0 -14 6 -3 5 10 19
29 31 20 12 36 23 36 26 0 2 -4 2 -8 -1 -4 -2 -14 -1 -22 5 -12 7 -11 9 5 10
48 3 55 5 57 14 2 5 -14 10 -34 10 -21 1 -38 -1 -38 -5z m-20 -111 c0 -6 -4
-7 -10 -4 -5 3 -10 11 -10 16 0 6 5 7 10 4 6 -3 10 -11 10 -16z"/>
<path d="M2246 1505 c-3 -8 -13 -15 -23 -16 -16 0 -16 -1 2 -9 27 -12 43 -12
25 0 -13 8 -12 10 3 10 18 0 23 15 8 24 -5 3 -11 -1 -15 -9z"/>
<path d="M2288 1482 c-20 -4 -23 -17 -7 -28 12 -7 33 10 28 23 -2 5 -12 7 -21
5z"/>
<path d="M2210 1456 c0 -2 7 -7 16 -10 8 -3 12 -2 9 4 -6 10 -25 14 -25 6z"/>
<path d="M2012 1428 c-7 -7 -12 -16 -12 -21 0 -5 7 -1 16 8 9 9 14 18 12 20
-2 3 -10 -1 -16 -7z"/>
<path d="M2270 1420 c0 -11 7 -23 15 -26 8 -4 15 -14 15 -23 0 -13 2 -13 9 -2
6 9 2 20 -11 33 -10 10 -16 23 -13 28 4 6 1 10 -4 10 -6 0 -11 -9 -11 -20z"/>
<path d="M2310 1430 c-19 -12 -7 -22 21 -18 19 2 20 5 8 15 -9 7 -20 9 -29 3z"/>
<path d="M2027 1404 c-3 -4 -3 -20 0 -38 6 -29 5 -30 -13 -16 -13 9 -15 10 -7
1 7 -8 10 -28 7 -45 -2 -17 -2 -25 2 -18 10 22 33 13 37 -15 l4 -28 2 28 c0
16 4 26 9 24 4 -3 8 8 9 24 1 16 -2 29 -7 29 -5 0 -6 -7 -3 -17 4 -11 3 -14
-5 -9 -8 5 -10 1 -5 -11 6 -15 5 -16 -9 -3 -10 9 -13 19 -7 26 5 6 5 15 1 19
-4 5 -2 5 5 1 17 -9 26 11 14 31 -6 10 -11 12 -11 6 0 -7 -5 -13 -11 -13 -6 0
-9 7 -5 15 6 16 3 19 -7 9z"/>
<path d="M2365 1400 c-3 -5 -1 -10 4 -10 6 0 11 5 11 10 0 6 -2 10 -4 10 -3 0
-8 -4 -11 -10z"/>
<path d="M2243 1358 c0 -20 1 -24 4 -10 5 25 13 28 31 10 7 -7 12 -9 12 -6 0
9 -30 38 -39 38 -4 0 -7 -15 -8 -32z"/>
<path d="M2321 1356 c-8 -9 -8 -21 -2 -37 5 -13 10 -18 10 -11 1 6 4 11 9 11
19 -3 32 2 32 13 0 9 -3 9 -11 1 -12 -12 -39 -7 -39 8 0 5 14 9 31 9 17 0 28
4 24 10 -9 14 -41 12 -54 -4z"/>
<path d="M390 1350 c0 -5 10 -10 23 -10 18 0 19 2 7 10 -19 13 -30 13 -30 0z"/>
<path d="M2748 1353 c7 -3 16 -2 19 1 4 3 -2 6 -13 5 -11 0 -14 -3 -6 -6z"/>
<path d="M2792 1351 c-11 -7 -11 -9 2 -14 20 -8 46 1 46 16 0 7 -4 7 -12 -1
-15 -15 -32 -16 -23 -2 7 12 4 12 -13 1z"/>
<path d="M2902 1348 c16 -10 45 -10 51 0 3 4 -10 7 -29 8 -21 0 -30 -3 -22 -8z"/>
<path d="M2875 1330 c-3 -6 1 -7 9 -4 18 7 21 14 7 14 -6 0 -13 -4 -16 -10z"/>
<path d="M350 1320 c0 -5 5 -10 11 -10 5 0 7 5 4 10 -3 6 -8 10 -11 10 -2 0
-4 -4 -4 -10z"/>
<path d="M392 1258 c-2 -39 -11 -95 -20 -123 -13 -39 -15 -60 -8 -90 6 -28 6
-40 -3 -43 -6 -2 -9 -7 -6 -11 8 -15 -16 -82 -27 -75 -7 4 -8 2 -4 -4 4 -7 4
-18 -1 -24 -10 -17 -10 -49 0 -70 5 -11 4 -18 -3 -18 -7 0 -10 -15 -9 -37 2
-22 -1 -37 -7 -36 -14 2 -5 -60 10 -69 8 -5 7 -8 -1 -8 -7 0 -13 -9 -13 -21 0
-11 5 -17 10 -14 6 4 8 10 5 15 -3 4 4 6 15 3 13 -3 22 1 26 11 4 11 10 13 18
8 6 -5 38 -10 71 -11 32 -1 62 -6 66 -12 4 -8 9 -8 13 -1 8 13 -29 25 -70 24
-28 -1 -31 2 -28 21 l5 22 -10 -22 c-13 -29 -16 -29 -17 1 -1 16 5 26 18 29
11 3 17 10 13 16 -4 8 -11 6 -21 -4 -9 -8 -19 -13 -23 -11 -4 3 -8 -1 -8 -9 0
-8 4 -15 9 -15 4 0 8 -5 8 -11 0 -6 -8 -9 -17 -7 -14 3 -18 14 -19 55 0 48 1
51 19 42 11 -6 16 -17 13 -25 -3 -9 -1 -12 5 -9 5 4 7 15 4 26 -5 14 -2 19 14
19 11 0 23 -5 26 -10 4 -6 11 -7 17 -4 6 4 8 1 6 -7 -3 -8 -11 -13 -18 -11
-11 3 -11 0 0 -12 7 -9 9 -16 6 -16 -4 0 -2 -9 4 -20 11 -20 40 -28 40 -10 0
5 7 7 15 4 19 -8 19 3 0 22 -19 20 -19 48 0 68 13 13 12 14 -12 11 -16 -2 -30
-4 -33 -5 -3 -2 -9 -1 -15 0 -5 1 -39 2 -75 1 -37 -1 -60 2 -53 7 8 5 11 22 8
44 -4 30 -2 36 13 34 9 -2 18 -13 20 -27 2 -13 7 -28 12 -33 5 -5 5 8 0 28
l-8 36 77 0 c42 0 81 4 87 8 6 4 11 22 11 40 0 20 -3 28 -8 20 -4 -7 -12 -9
-16 -4 -4 4 0 13 10 20 24 19 22 21 -20 21 -23 0 -38 5 -39 13 -1 6 -2 18 -3
25 -1 8 -4 8 -12 -3 -8 -12 -9 -10 -5 10 3 14 6 33 6 42 0 12 7 17 23 16 14
-1 23 -8 23 -19 0 -14 -3 -15 -13 -7 -8 6 -16 8 -20 4 -3 -3 -1 -6 5 -6 6 0
12 -17 14 -37 l3 -38 13 42 c14 46 6 115 -9 78 -6 -16 -8 -17 -8 -3 -1 11 -7
15 -19 11 -16 -4 -22 8 -40 69 -12 40 -22 92 -22 116 0 72 -16 46 -18 -30z
m33 -117 c3 -19 8 -38 10 -42 3 -4 -9 -9 -26 -11 -16 -3 -32 -1 -35 4 -3 4 0
8 6 8 6 0 9 4 6 8 -3 5 2 21 9 36 8 16 12 33 8 40 -4 7 -2 8 5 1 6 -5 14 -25
17 -44z m17 -107 c-4 -29 -8 -34 -31 -34 -23 0 -27 5 -29 31 -3 40 2 46 35 42
26 -4 28 -8 25 -39z m22 -59 c3 -8 1 -15 -4 -15 -6 0 -10 6 -11 13 0 8 -2 8
-6 -2 -5 -11 -7 -11 -14 0 -7 11 -9 11 -9 1 0 -7 14 -18 30 -23 17 -6 30 -15
30 -21 0 -15 -93 -5 -98 11 -3 9 0 11 9 7 8 -4 5 0 -5 8 -11 9 -14 16 -7 16 7
0 9 5 6 10 -4 6 10 10 33 10 26 0 42 -5 46 -15z m54 -47 c6 -18 8 -36 4 -40
-5 -5 -16 9 -25 32 -11 29 -12 40 -3 40 6 0 17 -14 24 -32z m-80 -19 c28 1 53
-2 57 -8 7 -13 9 -13 -82 -16 -40 -2 -73 1 -73 6 0 9 15 13 33 10 5 -1 6 3 2
9 -3 6 -11 8 -16 5 -10 -7 -12 8 -2 18 3 4 12 -1 18 -10 10 -13 25 -16 63 -14z
m-98 -149 c0 11 2 12 8 2 13 -20 2 -70 -17 -75 -11 -3 -17 2 -17 14 0 11 6 19
13 19 7 0 13 5 13 10 0 6 -4 10 -10 10 -5 0 -10 8 -10 18 0 14 2 15 10 2 9
-13 10 -13 10 0z m150 0 c0 -5 -2 -10 -4 -10 -3 0 -8 5 -11 10 -3 6 -1 10 4
10 6 0 11 -4 11 -10z m0 -30 c0 -5 -7 -10 -16 -10 -8 0 -12 5 -9 10 3 6 10 10
16 10 5 0 9 -4 9 -10z m10 -29 c0 -18 -18 -21 -30 -6 -10 13 -9 15 9 15 11 0
21 -4 21 -9z m-150 -41 c0 -11 -4 -20 -10 -20 -5 0 -10 9 -10 20 0 11 5 20 10
20 6 0 10 -9 10 -20z"/>
<path d="M396 1122 c-3 -6 -1 -14 5 -17 14 -9 20 -2 10 14 -6 8 -11 9 -15 3z"/>
<path d="M415 1040 c-4 -6 -11 -7 -17 -4 -6 4 -9 1 -6 -6 7 -22 25 -22 31 0 6
22 2 26 -8 10z"/>
<path d="M2758 1323 c7 -3 16 -2 19 1 4 3 -2 6 -13 5 -11 0 -14 -3 -6 -6z"/>
<path d="M2828 1281 c-2 -29 0 -41 9 -41 9 0 13 -18 13 -60 0 -36 4 -60 11
-60 5 0 7 5 4 10 -3 6 0 10 7 10 9 0 9 3 -2 10 -13 9 -13 10 0 10 13 0 13 1 0
10 -9 6 -11 10 -3 10 7 0 10 7 7 15 -4 10 -1 14 7 12 8 -2 11 -2 7 0 -5 3 -8
12 -8 21 0 15 -2 15 -10 2 -8 -13 -10 -12 -10 3 0 13 8 17 33 17 17 0 39 -5
47 -10 12 -8 9 -10 -11 -10 -23 0 -26 -3 -20 -27 5 -26 6 -26 9 -5 2 13 10 22
22 22 16 0 26 -18 36 -68 4 -24 12 -24 19 -2 4 14 1 28 -11 41 -9 10 -14 19
-9 19 4 0 2 6 -4 14 -7 8 -11 20 -10 28 5 37 -3 41 -91 50 -14 2 -28 7 -31 12
-4 4 -8 -10 -11 -33z m89 -8 c3 -8 -9 -12 -36 -11 -40 0 -54 11 -28 22 20 8
60 2 64 -11z m30 -15 c-3 -8 -6 -5 -6 6 -1 11 2 17 5 13 3 -3 4 -12 1 -19z"/>
<path d="M2360 1295 c-10 -12 -9 -16 5 -21 23 -9 40 10 22 25 -11 9 -17 8 -27
-4z"/>
<path d="M2780 1300 c-24 -8 -23 -8 8 -9 17 -1 32 4 32 9 0 11 -5 11 -40 0z"/>
<path d="M436 1280 c3 -14 11 -32 16 -40 6 -10 7 -7 2 10 -3 14 -11 32 -16 40
-6 10 -7 7 -2 -10z"/>
<path d="M465 1280 c-3 -5 -1 -10 4 -10 6 0 11 5 11 10 0 6 -2 10 -4 10 -3 0
-8 -4 -11 -10z"/>
<path d="M2327 1270 c-3 -11 -1 -20 4 -20 5 0 9 9 9 20 0 11 -2 20 -4 20 -2 0
-6 -9 -9 -20z"/>
<path d="M2716 1281 c-4 -5 -1 -13 5 -17 8 -4 9 -3 5 4 -4 7 -3 12 3 12 5 0
12 -4 16 -9 5 -9 63 -6 73 4 3 3 -11 5 -31 5 -19 0 -42 3 -50 6 -8 3 -18 1
-21 -5z"/>
<path d="M1338 1273 c7 -3 16 -2 19 1 4 3 -2 6 -13 5 -11 0 -14 -3 -6 -6z"/>
<path d="M1450 1266 c0 -8 4 -17 9 -20 5 -4 7 3 4 14 -6 23 -13 26 -13 6z"/>
<path d="M1830 1270 c8 -5 20 -10 25 -10 6 0 3 5 -5 10 -8 5 -19 10 -25 10 -5
0 -3 -5 5 -10z"/>
<path d="M2444 1264 c9 -8 20 -12 26 -9 6 4 10 -11 10 -39 0 -25 -5 -48 -10
-51 -7 -4 -8 8 -4 37 4 30 3 39 -4 29 -6 -8 -8 -20 -5 -27 2 -6 0 -15 -6 -18
-6 -4 -8 -13 -4 -21 7 -20 53 -20 53 0 0 9 10 20 23 26 l22 10 -22 -5 c-20 -4
-23 0 -23 26 0 34 -15 52 -48 56 -21 2 -22 1 -8 -14z"/>
<path d="M2570 1266 c0 -8 -6 -17 -12 -20 -10 -5 -10 -7 0 -12 17 -8 15 -43
-3 -50 -8 -4 -15 -11 -15 -16 0 -6 7 -4 17 3 14 12 16 12 11 -1 -3 -8 -17 -15
-32 -15 -16 0 -32 -8 -37 -17 -7 -12 -7 -18 1 -18 5 0 10 -6 10 -12 -1 -7 -9
-3 -19 10 -14 15 -30 22 -56 22 -24 0 -34 -4 -29 -11 4 -8 1 -8 -13 -1 -16 9
-19 7 -21 -18 -2 -32 22 -46 59 -35 15 5 19 4 15 -4 -4 -6 0 -11 9 -11 9 0 15
-5 13 -12 -6 -17 23 -48 44 -48 10 0 18 -6 18 -12 0 -9 3 -10 8 -2 4 6 14 14
22 17 8 3 -1 6 -20 6 -38 1 -71 33 -48 47 7 5 3 11 -13 18 -23 10 -22 10 14
14 20 2 35 7 32 13 -4 5 0 9 8 9 8 0 17 9 20 20 3 11 11 20 19 20 9 0 14 13
15 41 1 22 5 48 8 58 3 12 0 21 -10 25 -9 3 -15 0 -15 -8z m-120 -160 c0 -18
-31 -29 -54 -20 -20 8 -21 24 0 24 8 0 12 -4 9 -10 -3 -5 1 -10 10 -10 11 0
15 5 11 15 -3 9 0 15 9 15 8 0 15 -6 15 -14z m25 4 c3 -5 1 -10 -4 -10 -6 0
-11 5 -11 10 0 6 2 10 4 10 3 0 8 -4 11 -10z"/>
<path d="M1912 1250 c0 -14 2 -19 5 -12 2 6 2 18 0 25 -3 6 -5 1 -5 -13z"/>
<path d="M2410 1260 c0 -5 5 -10 11 -10 5 0 7 5 4 10 -3 6 -8 10 -11 10 -2 0
-4 -4 -4 -10z"/>
<path d="M2667 1264 c-9 -10 -9 -94 1 -94 4 0 7 16 7 37 0 20 5 38 12 40 9 3
12 -12 11 -51 -1 -39 -6 -56 -15 -56 -7 0 -13 4 -13 10 0 5 -7 7 -15 4 -27
-11 -16 -24 19 -24 24 0 36 5 39 18 4 13 5 11 6 -5 1 -24 -5 -26 -51 -23 -14
1 -29 -4 -34 -11 -5 -9 -2 -10 9 -6 10 3 17 2 17 -2 0 -5 10 -7 21 -4 15 4 27
0 35 -12 12 -17 14 -13 14 33 0 29 -4 52 -9 52 -6 0 -11 21 -13 47 -2 34 -8
49 -18 51 -9 1 -19 0 -23 -4z"/>
<path d="M1480 1246 c0 -9 5 -16 10 -16 6 0 10 4 10 9 0 6 -4 13 -10 16 -5 3
-10 -1 -10 -9z"/>
<path d="M1308 1243 c7 -3 16 -2 19 1 4 3 -2 6 -13 5 -11 0 -14 -3 -6 -6z"/>
<path d="M1830 1240 c8 -5 22 -9 30 -9 10 0 8 3 -5 9 -27 12 -43 12 -25 0z"/>
<path d="M2000 1240 c0 -5 9 -10 20 -10 19 0 20 -7 20 -102 0 -57 5 -110 10
-118 9 -14 11 -13 14 10 0 6 16 19 34 30 25 15 43 19 68 14 27 -5 34 -3 34 10
0 9 3 16 8 16 11 0 34 -16 33 -24 -2 -14 49 -117 56 -113 5 3 9 -6 9 -19 2
-28 34 -66 34 -40 0 9 -6 16 -12 17 -7 0 0 5 16 11 22 8 30 7 37 -3 6 -10 11
-11 17 -3 12 18 41 24 49 10 5 -7 15 -16 23 -19 9 -3 3 -6 -12 -6 -16 -1 -28
-5 -28 -9 0 -5 10 -8 22 -8 18 1 23 -5 23 -26 1 -51 15 -41 15 11 0 37 -4 53
-15 57 -8 4 -15 11 -15 17 0 6 3 7 6 4 4 -3 14 -2 24 3 13 7 23 3 41 -13 13
-12 28 -22 34 -22 5 0 11 -19 13 -43 2 -23 7 -40 12 -37 6 3 7 -1 4 -9 -3 -9
-10 -16 -16 -16 -5 0 -6 5 -3 10 3 6 -4 14 -17 19 -21 9 -21 10 -3 11 20 1 20
1 1 15 -10 8 -22 12 -26 10 -4 -2 -5 7 -2 20 3 17 0 25 -9 25 -10 0 -14 -15
-15 -55 0 -30 4 -55 9 -55 5 0 6 11 3 25 -4 14 -2 25 4 25 10 0 15 -24 10 -45
-1 -5 -3 -16 -3 -23 0 -7 -6 -11 -14 -8 -7 3 -13 1 -13 -4 0 -6 12 -10 26 -10
21 0 25 4 21 19 -6 25 8 49 16 26 5 -10 3 -14 -5 -9 -6 4 -8 3 -5 -3 3 -5 22
-7 41 -5 34 4 43 15 36 47 -1 5 7 2 18 -8 10 -9 22 -14 26 -10 4 4 4 0 0 -10
-4 -13 -1 -17 15 -17 15 0 21 -7 22 -22 1 -17 2 -19 6 -5 3 10 14 17 26 16 21
0 21 -1 3 -8 -14 -5 -16 -10 -8 -15 19 -11 29 0 30 34 0 17 -3 28 -8 25 -4 -3
-3 9 3 26 12 31 12 31 18 -27 3 -33 7 -50 9 -39 2 11 2 30 1 43 -1 12 3 22 9
22 5 0 10 -14 10 -32 0 -46 12 -26 16 27 l3 45 -40 0 c-30 0 -38 -3 -32 -12 4
-7 -5 -5 -20 5 -31 20 -37 21 -37 6 0 -5 4 -8 9 -4 5 3 12 1 16 -5 3 -6 -1
-13 -9 -16 -9 -3 -16 -16 -15 -28 0 -20 1 -20 9 -1 8 19 9 19 9 -3 2 -42 -24
-17 -27 26 -2 33 -7 42 -21 42 -15 0 -18 7 -16 33 2 17 8 31 14 29 15 -3 14
15 -1 21 -7 3 4 6 25 6 20 1 37 6 37 11 0 13 -67 13 -75 0 -4 -6 -11 -7 -17
-4 -6 4 -7 0 -1 -12 5 -11 8 -26 7 -34 -1 -8 -2 -23 -3 -32 -1 -22 -21 -24
-21 -3 0 10 -10 15 -30 15 -27 0 -30 3 -26 26 4 23 2 25 -16 21 -12 -3 -34 1
-49 9 -35 18 -40 18 -33 -1 4 -8 10 -12 15 -9 5 3 9 1 9 -5 0 -6 -16 -10 -35
-9 -19 1 -35 5 -35 10 0 4 -5 8 -12 8 -9 0 -9 -3 0 -12 7 -7 12 -16 12 -20 0
-13 -58 -9 -63 5 -3 7 -6 5 -6 -5 -1 -10 -6 -18 -11 -18 -7 0 -9 15 -5 38 3
20 2 30 -2 22 -19 -36 -54 -11 -55 39 -1 18 -6 31 -13 31 -7 0 -16 7 -19 16
-4 12 -1 14 14 9 11 -4 20 -2 20 4 0 6 7 11 15 11 8 0 15 -4 15 -10 0 -5 -6
-10 -12 -10 -8 0 -9 -3 -3 -8 15 -11 17 -34 4 -43 -9 -5 -8 -10 2 -22 12 -13
16 -12 31 6 10 11 18 35 18 54 0 31 -1 33 -16 19 -20 -21 -23 -20 -17 4 6 23
-2 24 -59 11 -26 -6 -38 -5 -38 2 0 7 -4 7 -12 -1 -18 -18 -31 -15 -24 5 5 13
1 12 -18 -6 -17 -16 -30 -21 -46 -16 -15 5 -20 3 -16 -3 4 -6 -2 -16 -13 -22
-21 -11 -29 -4 -36 30 -2 11 0 22 6 25 8 5 14 -15 10 -37 0 -5 4 -8 9 -8 6 0
10 7 10 15 0 8 4 15 9 15 5 0 7 10 3 22 -4 17 -7 19 -11 6 -5 -14 -8 -14 -19
-2 -7 8 -8 14 -3 14 5 0 9 9 8 19 0 11 -6 19 -12 18 -5 -1 -10 12 -10 28 1 29
-13 43 -42 44 -7 1 -13 -3 -13 -9z m333 -205 c-7 -21 -13 -19 -13 6 0 11 4 18
10 14 5 -3 7 -12 3 -20z m283 -140 c5 -22 26 -38 23 -17 -3 19 3 22 21 12 25
-13 26 -40 3 -39 -11 0 -13 3 -5 6 6 2 12 9 12 14 0 14 -49 -13 -53 -30 -3
-10 -5 -8 -6 7 0 12 -5 22 -9 22 -4 0 -9 11 -10 25 -1 14 3 25 8 25 5 0 12
-11 16 -25z m204 -19 c0 -3 -4 -8 -10 -11 -5 -3 -10 -1 -10 4 0 6 5 11 10 11
6 0 10 -2 10 -4z m-79 -43 c-8 -15 -10 -15 -11 -2 0 17 10 32 18 25 2 -3 -1
-13 -7 -23z"/>
<path d="M2760 1233 c-13 -15 -12 -16 4 -10 14 5 17 3 12 -8 -3 -8 -1 -15 4
-15 5 0 9 11 8 25 -3 29 -8 30 -28 8z"/>
<path d="M2992 1230 c0 -14 2 -19 5 -12 2 6 2 18 0 25 -3 6 -5 1 -5 -13z"/>
<path d="M123 1233 c9 -2 23 -2 30 0 6 3 -1 5 -18 5 -16 0 -22 -2 -12 -5z"/>
<path d="M2338 1233 c7 -3 16 -2 19 1 4 3 -2 6 -13 5 -11 0 -14 -3 -6 -6z"/>
<path d="M1440 1220 c0 -5 5 -10 10 -10 6 0 10 5 10 10 0 6 -4 10 -10 10 -5 0
-10 -4 -10 -10z"/>
<path d="M1880 1220 c0 -5 5 -10 11 -10 5 0 7 5 4 10 -3 6 -8 10 -11 10 -2 0
-4 -4 -4 -10z"/>
<path d="M2607 1224 c-7 -8 4 -37 17 -46 7 -5 3 -8 -8 -8 -14 0 -17 -3 -10
-10 17 -17 43 -2 37 21 -3 10 -10 19 -15 19 -5 0 -7 4 -3 9 6 11 -9 23 -18 15z"/>
<path d="M1500 1196 c0 -14 5 -28 10 -31 6 -3 10 -11 10 -17 0 -7 -5 -6 -15 2
-8 6 -20 8 -26 4 -8 -5 -11 -2 -7 7 6 15 -9 32 -31 37 -7 1 -10 -2 -6 -8 4 -7
-2 -9 -18 -4 -22 5 -25 3 -20 -15 3 -12 1 -21 -6 -21 -6 0 -11 -4 -11 -10 0
-5 12 -10 27 -10 21 0 24 3 15 12 -18 18 -15 26 13 26 17 0 25 -6 25 -18 0
-10 -6 -21 -12 -23 -7 -3 -5 -6 6 -6 10 -1 25 7 32 17 7 9 14 12 14 5 0 -6 -6
-18 -14 -25 -11 -12 -11 -17 -1 -32 10 -13 14 -14 18 -4 4 10 8 10 16 -2 15
-22 5 -28 -36 -23 -37 5 -63 24 -43 31 19 7 10 19 -12 17 -13 -1 -29 2 -36 8
-9 7 -11 6 -9 -4 2 -8 2 -11 0 -7 -2 4 -10 5 -18 2 -7 -3 -16 0 -21 7 -5 9 -2
10 9 6 10 -3 17 -2 17 4 0 6 -13 8 -30 5 -27 -4 -30 -1 -30 21 0 19 4 24 16
19 9 -3 20 -6 25 -6 6 0 7 -4 4 -10 -3 -5 -2 -10 3 -10 17 0 19 35 4 50 -14
13 -15 12 -9 -3 5 -14 3 -17 -11 -13 -9 3 -30 2 -47 -3 -16 -5 -23 -10 -13
-10 11 -1 15 -8 14 -24 -4 -35 -14 -47 -40 -47 -12 0 -26 -3 -30 -7 -10 -11
-37 -12 -30 -2 3 5 0 9 -5 9 -6 0 -11 -6 -11 -12 0 -10 -3 -9 -9 1 -5 7 -14
10 -20 7 -6 -4 -9 -12 -6 -17 3 -5 0 -6 -8 -3 -8 3 -17 -2 -20 -10 -4 -9 -16
-16 -28 -16 -32 0 -17 -10 22 -15 22 -3 29 -1 20 4 -24 16 -3 27 46 26 33 -2
52 3 61 14 7 9 11 10 7 4 -8 -16 7 -17 23 -1 7 7 12 8 12 2 0 -5 4 -4 8 2 9
14 57 30 48 16 -8 -13 67 -11 76 2 5 7 8 5 8 -4 0 -14 -39 -56 -48 -53 -2 1
-9 8 -15 16 -7 8 -21 17 -32 19 -15 4 -20 -1 -21 -19 -2 -18 3 -23 20 -22 17
1 17 2 3 6 -9 2 -15 9 -11 14 3 5 18 2 34 -8 28 -16 30 -16 49 1 11 10 25 15
30 11 18 -10 13 -21 -16 -32 -25 -10 -21 -11 35 -12 61 -1 63 0 56 21 -6 21
-6 22 12 8 10 -8 22 -19 26 -25 4 -5 8 4 8 21 0 16 -5 35 -10 40 -8 8 -6 15 5
24 13 10 15 9 16 -6 0 -11 3 -14 6 -6 2 6 11 12 18 12 12 0 12 -4 0 -27 -8
-15 -11 -31 -8 -37 4 -5 10 -1 14 10 5 13 8 14 8 4 1 -12 3 -12 10 -2 6 10 10
10 21 -3 7 -8 21 -15 31 -15 11 0 19 -4 19 -10 0 -5 5 -10 10 -10 6 0 10 7 10
15 0 10 -10 15 -29 15 -23 0 -34 8 -49 35 -13 21 -31 37 -49 41 -15 3 -32 7
-38 8 -18 5 -10 41 10 48 15 6 13 7 -8 4 -23 -3 -26 0 -22 14 3 10 1 21 -5 25
-6 4 -10 -4 -10 -19z m36 -93 c-6 -6 -36 9 -36 18 0 5 9 4 20 -3 10 -7 18 -14
16 -15z m-54 -60 c-6 -2 -10 -9 -6 -14 3 -5 1 -9 -4 -9 -6 0 -12 7 -16 15 -4
11 1 15 17 14 12 0 16 -3 9 -6z"/>
<path d="M1996 1205 c-3 -8 -1 -15 4 -15 6 0 10 7 10 15 0 8 -2 15 -4 15 -2 0
-6 -7 -10 -15z"/>
<path d="M2325 1210 c-3 -6 1 -7 9 -4 18 7 21 14 7 14 -6 0 -13 -4 -16 -10z"/>
<path d="M2377 1214 c-12 -12 -8 -24 7 -24 17 0 31 -18 22 -27 -3 -3 -12 0
-21 7 -13 11 -14 10 -9 -4 3 -9 17 -16 30 -16 22 0 23 1 10 32 -14 33 -27 44
-39 32z"/>
<path d="M80 1199 c0 -5 8 -9 18 -10 9 0 -2 -8 -25 -17 -24 -9 -43 -21 -43
-28 0 -6 -7 -17 -15 -24 -24 -20 -18 -47 13 -59 l27 -11 -28 4 c-22 3 -25 1
-16 -10 15 -19 36 -18 47 2 6 11 11 13 16 5 13 -20 22 -11 21 20 -1 32 -28 58
-40 39 -3 -5 -16 -10 -27 -10 -12 0 -18 3 -14 8 4 4 13 7 19 7 7 0 12 7 12 15
0 19 26 30 42 18 6 -5 15 -22 18 -38 6 -27 9 -29 50 -25 50 4 68 12 60 26 -4
5 -1 9 4 9 18 0 13 -15 -12 -36 -21 -19 -23 -26 -17 -82 4 -45 2 -63 -7 -66
-7 -3 -13 -1 -13 5 0 6 -7 4 -15 -5 -8 -8 -15 -17 -15 -20 0 -7 64 5 70 14 9
12 59 20 64 11 4 -5 3 -16 0 -25 -5 -12 -9 -13 -24 -3 -11 6 -22 8 -26 4 -11
-10 -1 -17 30 -19 14 -1 25 -7 22 -13 -2 -5 3 -17 12 -24 14 -13 15 -11 9 22
-3 19 -1 37 4 39 5 2 -2 16 -15 31 -15 17 -27 24 -31 17 -3 -6 -11 -8 -16 -4
-5 3 -16 0 -24 -6 -13 -11 -15 -4 -15 47 0 70 12 80 94 82 56 1 64 5 47 25 -8
10 -9 16 -1 21 16 10 12 25 -6 18 -10 -4 -14 -13 -10 -28 5 -21 4 -22 -19 -12
-17 8 -20 13 -10 15 8 2 15 9 15 17 0 7 7 18 15 25 23 19 0 30 -38 19 -19 -5
-35 -5 -43 2 -8 7 -14 7 -19 -1 -5 -8 -10 -8 -20 0 -10 9 -16 7 -24 -9 -18
-32 -13 -41 19 -39 16 1 27 5 24 8 -5 5 -9 6 -35 9 -5 0 -8 5 -5 10 7 11 59 1
68 -13 5 -7 12 -4 21 8 10 13 16 15 21 7 12 -18 -20 -42 -61 -44 -21 -1 -37
-7 -36 -13 1 -5 -14 -9 -33 -9 -19 1 -34 -3 -34 -8 0 -17 -10 -1 -15 23 -2 12
-9 28 -16 36 -17 20 18 19 38 -1 8 -9 18 -13 22 -9 3 4 0 9 -7 11 -10 4 -8 9
5 20 10 8 12 12 6 8 -7 -3 -13 -1 -13 6 0 8 -4 8 -15 -1 -8 -7 -15 -8 -15 -2
0 5 -9 12 -20 15 -11 3 -20 1 -20 -4z m210 -89 c11 -7 7 -10 -17 -10 -18 0
-33 5 -33 10 0 13 30 13 50 0z m-230 -30 c0 -5 -9 -10 -20 -10 -11 0 -20 5
-20 10 0 6 9 10 20 10 11 0 20 -4 20 -10z m24 -6 c3 -8 2 -12 -4 -9 -6 3 -10
10 -10 16 0 14 7 11 14 -7z"/>
<path d="M1277 1203 c-12 -11 -8 -23 9 -23 8 0 13 4 10 9 -4 5 0 12 6 14 9 4
8 6 -3 6 -9 1 -19 -2 -22 -6z"/>
<path d="M1813 1195 c-10 -11 -10 -17 3 -29 8 -9 12 -21 8 -27 -4 -8 -9 -7
-16 2 -8 12 -9 12 -6 0 2 -8 17 -15 34 -16 30 -3 79 -12 102 -20 6 -2 12 0 12
4 0 5 -6 11 -12 14 -7 2 -10 7 -7 11 3 3 16 -4 29 -17 22 -19 22 -22 6 -25
-17 -4 -17 -4 1 -19 17 -13 16 -14 -7 -10 -20 2 -26 -1 -26 -15 0 -12 4 -14
10 -8 18 18 27 11 14 -10 -17 -27 -38 -25 -38 3 0 32 -9 38 -34 26 -18 -9 -18
-7 3 11 14 12 31 18 40 15 13 -5 13 -4 4 6 -19 19 -68 -1 -68 -26 0 -14 6 -20
23 -19 23 1 31 -21 10 -29 -8 -3 -6 -6 5 -6 9 -1 17 -6 17 -12 0 -5 6 -7 13
-3 7 4 7 2 -2 -7 -10 -11 -15 -11 -18 -1 -3 6 -9 12 -14 12 -6 0 -7 -4 -4 -10
4 -6 -8 -10 -29 -10 -29 0 -34 3 -30 18 5 16 5 16 -9 0 -8 -10 -19 -18 -26
-18 -6 0 -11 -5 -11 -11 0 -6 7 -8 16 -5 9 3 45 6 80 6 50 0 64 3 64 15 0 9 9
15 25 15 14 0 25 5 25 11 0 6 -9 8 -22 3 -22 -6 -22 -6 2 14 14 12 21 21 15
22 -5 0 -10 18 -10 41 0 33 3 39 17 36 17 -5 36 28 24 41 -10 9 -46 10 -46 0
0 -4 9 -8 20 -8 11 0 20 -4 20 -9 0 -12 -46 -20 -62 -10 -10 7 -10 9 0 9 6 0
12 9 12 20 0 17 -4 19 -26 14 -19 -5 -25 -4 -20 5 5 7 -2 11 -21 11 l-28 0 27
-14 c15 -8 35 -17 45 -19 10 -3 -4 -5 -32 -4 -44 2 -50 5 -53 25 -4 25 -30 29
-49 7z m73 -51 c36 -7 47 -24 14 -21 -11 1 -20 5 -20 9 0 4 -9 8 -20 8 -11 0
-20 4 -20 9 0 5 -2 18 -5 28 -4 11 -1 9 6 -4 7 -14 25 -25 45 -29z"/>
<path d="M5 1189 c4 -6 14 -8 22 -5 8 3 11 1 8 -4 -3 -6 1 -10 9 -10 9 0 16 7
16 15 0 10 -10 15 -31 15 -19 0 -28 -4 -24 -11z"/>
<path d="M350 1191 c0 -5 5 -13 10 -16 6 -3 10 -2 10 4 0 5 -4 13 -10 16 -5 3
-10 2 -10 -4z"/>
<path d="M577 1193 c-3 -5 -32 -8 -65 -7 -59 2 -60 2 -41 -17 24 -24 29 -24
30 -1 0 9 3 12 5 6 3 -6 16 -9 29 -6 14 2 25 0 25 -7 0 -5 -7 -8 -15 -5 -8 4
-15 2 -15 -3 0 -5 -10 -9 -21 -10 -12 -1 -27 -7 -32 -12 -17 -17 25 -14 49 4
23 16 36 11 27 -10 -2 -8 -12 -11 -20 -8 -13 5 -13 3 -4 -16 7 -12 9 -26 6
-31 -3 -5 -1 -11 5 -15 5 -3 11 1 11 9 1 9 3 21 4 26 1 6 3 17 4 25 0 8 9 15
18 15 9 0 13 3 10 6 -4 4 3 15 15 25 24 21 32 24 23 9 -4 -6 -1 -18 7 -27 11
-15 10 -16 -12 -10 -23 6 -24 5 -6 -8 17 -13 17 -14 -10 -12 -20 1 -29 -3 -32
-16 -3 -14 1 -16 20 -8 13 4 29 6 36 4 6 -3 12 3 12 12 0 9 4 14 9 10 5 -3 12
-1 15 4 3 5 16 7 28 3 17 -4 20 -2 15 11 -6 16 2 21 30 18 6 -1 10 6 9 16 -2
15 -14 18 -74 20 -53 1 -72 -2 -76 -13 -3 -8 -11 -14 -17 -14 -8 0 -8 4 1 15
7 9 10 18 7 21 -3 3 -7 1 -10 -3z m123 -18 c0 -3 -9 -14 -21 -26 -19 -19 -22
-20 -37 -5 -14 13 -14 16 -2 17 8 1 18 1 23 0 4 0 7 4 7 9 0 6 7 10 15 10 8 0
15 -2 15 -5z m40 1 c0 -2 -7 -6 -15 -10 -8 -3 -15 -1 -15 4 0 6 7 10 15 10 8
0 15 -2 15 -4z"/>
<path d="M800 1189 c0 -6 -9 -8 -20 -4 -14 5 -20 2 -20 -10 0 -12 6 -15 19
-10 16 5 19 1 17 -18 -2 -15 2 -24 11 -24 11 0 13 8 9 28 -3 17 -1 29 6 31 7
3 5 7 -5 11 -9 3 -17 2 -17 -4z"/>
<path d="M905 1193 c-11 -3 -23 -10 -27 -16 -4 -7 -11 -7 -22 2 -13 11 -16 11
-16 -2 0 -8 -3 -22 -6 -31 -4 -12 0 -16 16 -16 18 0 20 3 11 13 -9 12 -3 13
32 11 23 -1 34 0 25 3 -22 6 -24 23 -3 23 8 0 15 5 15 10 0 6 -1 9 -2 9 -2 -1
-12 -4 -23 -6z"/>
<path d="M943 1173 c3 -30 1 -33 -24 -33 -15 0 -29 -7 -33 -16 -3 -9 -12 -14
-20 -11 -7 3 -18 1 -23 -4 -14 -14 -68 6 -67 24 1 10 -3 17 -10 17 -21 0 -38
-17 -34 -35 2 -11 -4 -19 -14 -20 -10 -2 -18 0 -18 4 0 4 -9 7 -21 8 -14 1
-19 -3 -15 -13 4 -10 -3 -14 -29 -14 -19 0 -35 -5 -35 -11 0 -6 -10 -8 -22 -5
-13 3 -17 3 -10 0 10 -5 10 -9 0 -22 -10 -14 -10 -15 2 -4 8 6 20 12 28 12 12
0 12 -3 2 -15 -9 -10 -9 -15 -1 -15 6 0 11 5 11 10 0 24 18 7 22 -20 7 -45 -6
-57 -33 -31 -12 11 -26 21 -31 21 -12 0 -10 -18 3 -26 8 -4 7 -9 -2 -16 -10
-7 -8 -8 8 -3 12 3 24 1 28 -5 5 -8 13 -6 25 5 15 13 22 14 40 5 12 -6 24 -9
28 -6 3 3 0 6 -7 6 -7 0 -10 4 -7 9 3 5 -4 11 -15 14 -33 9 -22 51 15 57 17 3
29 9 29 15 -2 13 -23 19 -23 6 0 -6 -4 -11 -10 -11 -15 0 -12 30 3 31 6 1 28
0 48 -1 21 -1 40 3 44 9 3 6 14 11 23 11 15 0 15 -2 2 -11 -11 -7 -4 -8 24 -3
27 5 41 3 47 -7 7 -12 9 -12 9 0 0 7 6 11 15 8 8 -4 17 -2 20 3 11 17 35 11
35 -9 0 -23 -16 -36 -25 -21 -3 5 -1 10 6 10 7 0 10 3 6 6 -3 4 -17 -3 -31
-14 -24 -18 -76 -20 -76 -3 0 4 -13 6 -30 3 -36 -5 -40 -22 -6 -22 16 0 26 -7
28 -17 2 -15 10 -17 48 -12 l45 6 -42 1 c-24 1 -43 7 -43 12 0 6 13 9 29 8 16
-1 36 4 45 11 13 11 17 11 22 -2 3 -9 3 -20 0 -25 -3 -5 6 -15 20 -22 20 -11
26 -11 37 0 8 8 8 11 0 6 -19 -10 -43 5 -43 28 1 19 2 19 11 4 7 -13 22 -18
50 -18 l39 0 -16 -25 c-15 -23 -15 -25 0 -25 9 0 16 8 16 17 0 20 13 9 16 -15
3 -18 1 -19 -101 -26 -47 -4 -63 -1 -72 11 -16 21 -23 14 -12 -14 7 -19 13
-21 68 -16 66 6 115 -5 72 -16 -13 -4 -50 -4 -83 -1 -37 4 -58 2 -58 -5 0 -11
132 -12 168 -1 12 4 22 14 22 22 0 13 14 18 48 17 6 -1 12 3 12 7 0 10 40 7
57 -3 6 -4 14 -3 17 1 8 14 -64 33 -84 22 -18 -10 -40 5 -40 27 0 16 -32 33
-65 33 -23 0 -25 2 -15 21 9 15 18 19 35 15 13 -3 27 -2 30 4 4 6 -1 7 -11 3
-14 -5 -16 -3 -11 10 5 15 3 16 -12 7 -12 -6 -21 -6 -23 0 -2 5 -14 11 -27 13
-14 2 -27 9 -29 16 -4 12 27 11 58 -2 8 -4 26 -8 40 -9 14 -2 31 -8 39 -12 11
-7 13 -5 8 7 -4 11 -2 14 9 10 19 -7 19 -7 -18 -43 -25 -24 -27 -29 -10 -20
12 6 27 8 32 5 5 -3 10 7 12 22 2 22 8 27 23 25 16 -2 17 -1 5 7 -8 5 -17 8
-21 6 -3 -3 -14 4 -23 14 -11 13 -14 21 -7 26 20 12 12 32 -11 30 -38 -4 -39
-5 -33 -14 7 -12 -29 -33 -40 -23 -5 4 -5 -2 -2 -13 6 -17 5 -18 -5 -4 -7 9
-20 14 -28 12 -16 -3 10 10 45 23 17 7 16 8 -10 12 -16 2 -31 -1 -33 -7 -2 -6
-8 -11 -13 -11 -6 0 -8 4 -5 8 2 4 0 14 -5 22 -8 11 -9 6 -6 -17z m127 -18
c-9 -10 -9 -15 -1 -15 6 0 11 -4 11 -8 0 -5 -13 -9 -28 -9 l-28 0 21 23 c22
24 45 33 25 9z m-303 -51 c-9 -9 -28 6 -21 18 4 6 10 6 17 -1 6 -6 8 -13 4
-17z m154 3 c-13 -13 -52 -17 -45 -5 3 4 12 8 20 8 8 0 12 4 9 10 -3 6 1 7 10
4 11 -5 13 -10 6 -17z m62 -37 c-6 -22 -23 -38 -23 -21 0 17 12 41 20 41 5 0
6 -9 3 -20z m-323 -9 c0 -18 -17 -20 -36 -6 -18 14 -18 14 9 15 15 0 27 -4 27
-9z m390 -121 c0 -5 -7 -10 -15 -10 -8 0 -15 5 -15 10 0 6 7 10 15 10 8 0 15
-4 15 -10z"/>
<path d="M1218 1174 c2 -13 11 -24 18 -24 20 0 17 23 -4 37 -17 10 -18 8 -14
-13z"/>
<path d="M1580 1178 c0 -22 -4 -25 -22 -21 -17 3 -19 2 -9 -5 11 -8 11 -11 0
-16 -8 -3 -4 -3 8 0 17 4 30 -3 52 -27 18 -19 39 -31 54 -31 19 0 24 -5 20
-16 -5 -12 -1 -14 15 -9 13 3 29 -1 37 -10 9 -8 22 -12 30 -9 9 3 15 0 15 -8
0 -9 -7 -12 -20 -9 -12 3 -22 0 -25 -9 -5 -12 -18 -13 -73 -6 -49 7 -68 6 -70
-2 -3 -9 -6 -9 -12 0 -11 18 -30 3 -29 -23 0 -12 3 -16 6 -9 2 6 9 9 14 6 17
-10 107 -15 113 -6 3 5 -9 7 -27 5 l-32 -2 30 7 c17 5 51 7 77 6 39 -1 49 2
53 17 8 24 50 25 64 2 9 -16 12 -16 20 -3 8 12 4 17 -17 23 -15 5 -36 9 -47 9
-11 0 -14 2 -7 5 20 8 13 25 -8 18 -11 -3 -20 -2 -20 3 0 14 21 20 53 17 15
-2 27 1 27 6 0 5 -5 9 -11 9 -6 0 -9 6 -6 13 4 10 -3 13 -24 12 -16 -1 -32 -5
-37 -10 -4 -4 1 -5 11 -2 9 4 17 2 17 -4 0 -5 -8 -12 -17 -15 -10 -3 -26 -10
-37 -16 -14 -7 -21 -6 -27 4 -7 10 -9 10 -9 1 0 -7 -4 -13 -8 -13 -5 0 -9 7
-9 15 0 8 6 15 14 15 7 0 13 5 13 10 0 7 7 7 20 0 11 -6 20 -7 19 -3 -4 22 2
32 16 27 9 -4 15 0 15 9 0 26 -16 28 -30 3 -9 -17 -18 -22 -33 -18 -20 5 -20
6 -1 13 17 7 16 8 -6 9 -23 1 -23 2 -5 10 13 6 5 7 -25 3 -35 -4 -49 -1 -60
12 -12 14 -12 18 1 26 8 5 10 9 4 9 -5 0 -17 -4 -25 -10 -9 -6 -17 -5 -22 3
-5 7 -8 1 -8 -15z m45 -18 c8 -13 -5 -13 -25 0 -13 8 -13 10 2 10 9 0 20 -4
23 -10z m-15 -19 c0 -5 9 -7 21 -4 15 4 22 0 26 -16 3 -11 9 -18 14 -16 4 3 6
12 2 20 -3 9 1 15 11 15 10 0 13 -6 10 -15 -4 -9 0 -15 7 -16 8 0 3 -5 -10
-10 -32 -13 -62 -3 -54 18 5 12 2 15 -10 10 -8 -3 -21 1 -27 9 -9 10 -9 14 -1
14 6 0 11 -4 11 -9z m154 -86 c3 -8 1 -15 -4 -15 -6 0 -10 7 -10 15 0 8 2 15
4 15 2 0 6 -7 10 -15z"/>
<path d="M1663 1193 c9 -2 15 -8 12 -13 -3 -5 -1 -11 5 -15 5 -3 10 3 10 14 0
15 -6 21 -22 20 -18 -1 -19 -2 -5 -6z"/>
<path d="M1760 1190 c0 -5 -7 -7 -16 -3 -11 4 -15 2 -12 -7 7 -22 26 -23 38
-1 7 14 7 21 0 21 -5 0 -10 -4 -10 -10z"/>
<path d="M2082 1193 c9 -2 21 -21 26 -41 10 -37 10 -37 11 -6 1 33 -14 55 -38
53 -13 -1 -13 -2 1 -6z"/>
<path d="M2180 1191 c0 -5 6 -11 13 -14 6 -2 9 -8 5 -12 -4 -4 -14 -3 -22 4
-11 10 -14 7 -12 -14 0 -14 6 -23 11 -21 6 1 26 -2 45 -9 38 -12 130 -8 130 6
0 7 -56 14 -82 10 -5 0 -8 8 -8 19 0 11 -7 20 -15 20 -8 0 -15 -5 -15 -11 0
-5 5 -7 10 -4 6 3 10 -1 10 -9 0 -10 -9 -16 -21 -16 -15 0 -19 5 -15 18 4 11
-2 22 -14 30 -11 7 -20 8 -20 3z"/>
<path d="M2288 1193 c7 -3 16 -2 19 1 4 3 -2 6 -13 5 -11 0 -14 -3 -6 -6z"/>
<path d="M1109 1162 c-5 -13 -9 -25 -9 -26 0 -3 48 -16 72 -20 3 -1 10 -4 14
-8 11 -12 56 -10 49 2 -6 10 6 14 37 11 12 -2 16 3 12 13 -4 12 -11 13 -32 5
-14 -6 -33 -16 -41 -22 -12 -10 -14 -9 -9 8 4 18 0 20 -43 19 -37 0 -46 2 -42
14 4 10 15 12 39 7 21 -3 34 -2 34 5 0 11 -2 12 -44 14 -21 2 -30 -4 -37 -22z"/>
<path d="M2316 1182 c-3 -3 -6 -10 -6 -15 0 -6 3 -7 7 -4 3 4 12 2 18 -3 9 -7
14 -6 18 4 6 14 -26 30 -37 18z"/>
<path d="M2743 1175 c0 -8 4 -15 9 -15 4 0 8 7 8 15 0 8 -4 15 -8 15 -5 0 -9
-7 -9 -15z"/>
<path d="M2800 1181 c0 -5 -8 -12 -17 -14 -14 -4 -12 -5 5 -6 13 -1 22 5 22
14 0 8 -2 15 -5 15 -3 0 -5 -4 -5 -9z"/>
<path d="M5 1161 c-3 -5 -1 -12 5 -16 5 -3 10 1 10 9 0 18 -6 21 -15 7z"/>
<path d="M450 1150 c0 -5 5 -10 10 -10 6 0 10 5 10 10 0 6 -4 10 -10 10 -5 0
-10 -4 -10 -10z"/>
<path d="M2132 1130 c0 -16 3 -30 7 -30 4 0 8 6 8 13 0 6 4 20 8 30 5 11 3 17
-7 17 -10 0 -15 -11 -16 -30z"/>
<path d="M2758 1143 c6 -2 18 -2 25 0 6 3 1 5 -13 5 -14 0 -19 -2 -12 -5z"/>
<path d="M2940 1135 c0 -8 5 -15 10 -15 6 0 10 7 10 15 0 8 -4 15 -10 15 -5 0
-10 -7 -10 -15z"/>
<path d="M146 1130 c-11 -3 -15 -9 -10 -13 10 -6 42 9 34 16 -3 3 -14 1 -24
-3z"/>
<path d="M2580 1133 c-9 -2 -21 -12 -27 -22 -10 -16 -8 -18 18 -19 16 0 31 3
34 9 4 5 -2 6 -11 2 -12 -4 -15 -3 -10 5 4 7 18 12 32 12 14 0 23 4 19 9 -5 9
-22 10 -55 4z"/>
<path d="M2778 1123 c6 -2 18 -2 25 0 6 3 1 5 -13 5 -14 0 -19 -2 -12 -5z"/>
<path d="M1257 1109 c7 -7 15 -10 18 -7 3 3 -2 9 -12 12 -14 6 -15 5 -6 -5z"/>
<path d="M1850 1110 c0 -5 5 -10 11 -10 5 0 7 5 4 10 -3 6 -8 10 -11 10 -2 0
-4 -4 -4 -10z"/>
<path d="M2975 1110 c-19 -7 -19 -8 -2 -15 19 -8 31 -2 26 13 -2 5 -13 6 -24
2z"/>
<path d="M2783 1103 c9 -2 17 -9 17 -14 0 -5 4 -9 8 -9 5 0 9 7 9 15 0 10 -9
15 -26 14 -17 -1 -20 -3 -8 -6z"/>
<path d="M2850 1085 c0 -19 5 -25 23 -24 21 0 21 1 2 9 -13 6 -15 9 -5 9 13 1
13 3 1 10 -11 7 -9 10 10 14 23 4 22 4 -3 6 -24 1 -28 -3 -28 -24z"/>
<path d="M2918 1103 c6 -2 18 -2 25 0 6 3 1 5 -13 5 -14 0 -19 -2 -12 -5z"/>
<path d="M2009 1087 c11 -14 11 -17 0 -17 -11 0 -11 -2 -2 -8 7 -4 11 -18 8
-30 -2 -12 0 -24 5 -27 5 -3 8 16 7 42 -1 31 -7 48 -17 51 -13 5 -13 3 -1 -11z"/>
<path d="M2751 1084 c0 -11 3 -14 6 -6 3 7 2 16 -1 19 -3 4 -6 -2 -5 -13z"/>
<path d="M1458 1073 c7 -3 16 -2 19 1 4 3 -2 6 -13 5 -11 0 -14 -3 -6 -6z"/>
<path d="M2516 1071 c-7 -11 33 -32 46 -24 4 2 5 -4 2 -14 -5 -17 -5 -17 9 0
12 14 31 17 121 17 100 0 107 -1 115 -22 l8 -22 5 22 c3 12 3 21 -1 20 -18 -2
-25 3 -13 11 7 4 -12 6 -43 3 -30 -2 -55 0 -55 5 0 5 -25 9 -55 9 -30 0 -55
-2 -55 -5 0 -11 -65 -9 -71 1 -4 7 -9 6 -13 -1z"/>
<path d="M2970 1070 c19 -13 30 -13 30 0 0 6 -10 10 -22 10 -19 0 -20 -2 -8
-10z"/>
<path d="M135 1060 c3 -5 14 -10 23 -10 15 0 15 2 2 10 -20 13 -33 13 -25 0z"/>
<path d="M240 1059 c0 -7 11 -8 30 -4 29 6 30 5 31 -32 2 -60 3 -66 15 -70 16
-5 26 40 11 49 -9 6 -9 8 1 8 19 0 14 38 -7 50 -26 13 -81 13 -81 -1z m90 -29
c0 -5 -2 -10 -4 -10 -3 0 -8 5 -11 10 -3 6 -1 10 4 10 6 0 11 -4 11 -10z"/>
<path d="M2210 1065 c-1 -5 -2 -12 -2 -15 1 -9 -45 -6 -54 3 -14 13 -34 7 -34
-10 0 -12 3 -14 8 -6 5 8 12 8 26 -2 18 -13 15 -35 -5 -35 -6 0 -8 4 -5 9 4 5
-3 7 -14 4 -40 -11 -18 -23 41 -23 50 0 60 -3 55 -15 -3 -8 -1 -15 5 -15 6 0
8 -4 5 -9 -4 -6 -20 -6 -39 -1 -17 5 -46 11 -63 13 -27 4 -31 2 -27 -14 4 -13
9 -16 17 -10 12 10 28 9 56 -2 8 -3 26 -8 40 -10 17 -3 13 -5 -13 -6 -50 -1
-38 -21 13 -21 39 0 39 0 33 33 -9 49 12 22 29 -37 8 -27 17 -43 20 -35 3 8
-6 38 -20 68 -15 31 -28 48 -31 40 -2 -8 -12 13 -22 46 -9 33 -18 56 -19 50z
m0 -44 c0 -5 -7 -11 -15 -15 -9 -3 -15 0 -15 9 0 8 7 15 15 15 8 0 15 -4 15
-9z"/>
<path d="M2360 1036 c0 -25 5 -35 20 -39 11 -3 21 -2 21 1 1 4 3 20 5 36 3 27
2 28 -17 11 -20 -19 -27 -7 -7 13 9 9 8 12 -5 12 -13 0 -17 -9 -17 -34z m37
-22 c-3 -3 -12 -4 -19 -1 -8 3 -5 6 6 6 11 1 17 -2 13 -5z"/>
<path d="M730 1042 c-13 -14 -12 -15 2 -9 9 3 19 1 21 -6 2 -7 7 -9 11 -6 3 3
0 13 -7 22 -11 15 -13 14 -27 -1z"/>
<path d="M1005 1050 c3 -5 14 -10 23 -10 15 0 15 2 2 10 -20 13 -33 13 -25 0z"/>
<path d="M1282 1030 c3 -19 0 -31 -9 -35 -8 -2 -12 -1 -9 4 3 4 -8 8 -24 9
-23 0 -28 -3 -25 -19 2 -10 7 -24 10 -29 3 -6 1 -10 -5 -10 -8 0 -11 -16 -8
-50 3 -28 1 -53 -4 -56 -5 -3 -4 -11 1 -18 6 -7 8 -16 5 -19 -7 -7 -6 -371 1
-407 6 -33 15 -37 15 -7 0 15 5 27 10 27 6 0 9 15 9 33 -1 23 -3 26 -6 10 -6
-31 -23 -29 -21 2 1 14 8 25 15 25 8 0 13 11 12 28 -1 16 -3 20 -6 10 -11 -43
-20 -11 -21 72 0 72 2 90 14 90 8 0 14 7 14 15 0 9 -6 12 -17 9 -15 -5 -15 -4
-4 4 12 8 13 16 4 35 -10 21 -9 26 3 31 9 4 19 -3 25 -17 l10 -22 -5 23 c-2
12 0 22 5 22 5 0 9 4 9 9 0 4 -11 6 -25 3 -22 -4 -25 -1 -25 22 0 23 4 26 35
26 24 0 35 5 35 15 0 8 -7 15 -16 15 -9 0 -12 -5 -8 -11 4 -7 2 -9 -7 -5 -8 3
-22 9 -31 12 -10 4 -18 15 -18 26 0 18 5 20 40 15 22 -3 40 -1 40 3 0 5 3 15
6 23 4 11 -1 13 -20 10 -14 -3 -26 -10 -26 -17 -1 -12 -30 23 -30 36 0 11 294
5 302 -7 4 -6 8 -2 8 8 0 9 -5 17 -11 17 -5 0 -8 4 -5 8 3 5 -27 4 -66 -1 -49
-6 -73 -6 -81 2 -6 6 -18 11 -26 11 -14 0 -14 -1 -1 -10 12 -8 11 -10 -7 -10
-13 0 -23 5 -23 10 0 6 -7 10 -16 10 -12 0 -15 7 -12 25 3 14 1 25 -5 25 -5 0
-7 -13 -5 -30z"/>
<path d="M1830 1049 c0 -5 5 -7 10 -4 6 3 10 8 10 11 0 2 -4 4 -10 4 -5 0 -10
-5 -10 -11z"/>
<path d="M1198 1033 c-39 -11 -45 -16 -41 -34 3 -11 11 -18 19 -15 7 3 15 0
18 -7 2 -7 5 -2 5 10 1 16 -3 21 -14 17 -8 -4 -15 -2 -15 4 0 11 34 22 73 22
15 0 27 4 27 8 0 12 -19 11 -72 -5z"/>
<path d="M2500 1040 c8 -5 22 -10 30 -10 13 0 13 1 0 10 -8 5 -22 10 -30 10
-13 0 -13 -1 0 -10z"/>
<path d="M2848 1003 c-4 -64 8 -102 33 -100 10 1 19 7 19 13 0 7 3 20 6 28 5
12 2 15 -9 10 -9 -3 -22 -2 -29 2 -9 6 -6 10 12 15 24 7 24 7 3 8 -13 1 -23 5
-23 11 0 5 8 7 18 4 14 -5 14 -3 -3 12 -16 13 -17 16 -3 11 10 -3 20 -2 23 3
4 6 0 10 -7 10 -9 0 -9 3 2 10 8 5 10 10 5 10 -6 0 -17 -6 -24 -12 -11 -10
-13 -10 -7 0 4 6 3 12 -3 12 -5 0 -11 -21 -13 -47z m42 -74 c0 -4 -7 -6 -15
-3 -8 4 -15 10 -15 15 0 4 7 6 15 3 8 -4 15 -10 15 -15z"/>
<path d="M2923 1043 c9 -2 23 -2 30 0 6 3 -1 5 -18 5 -16 0 -22 -2 -12 -5z"/>
<path d="M126 1015 c5 -27 -13 -34 -34 -13 -13 13 -16 0 -4 -19 12 -19 52 -4
53 21 0 20 1 20 8 1 5 -11 7 -23 5 -27 -3 -4 0 -9 6 -13 6 -4 10 8 10 28 0 23
-6 37 -16 41 -27 10 -33 7 -28 -19z"/>
<path d="M220 1014 c0 -14 4 -23 9 -20 5 3 7 15 4 26 -7 28 -13 25 -13 -6z"/>
<path d="M247 1020 c3 -11 10 -23 16 -27 6 -4 8 0 4 10 -4 10 0 20 11 26 14 9
13 10 -10 11 -21 0 -25 -4 -21 -20z"/>
<path d="M2090 1031 c-8 -3 -16 -12 -17 -18 -4 -19 24 -16 31 3 8 21 5 23 -14
15z"/>
<path d="M2590 1031 c0 -14 32 -23 43 -12 5 5 16 7 25 4 10 -4 13 -2 8 5 -8
14 -76 16 -76 3z"/>
<path d="M2690 1030 c18 -12 40 -13 40 -2 0 4 -12 9 -27 10 -22 1 -24 0 -13
-8z"/>
<path d="M2748 1033 c6 -2 18 -2 25 0 6 3 1 5 -13 5 -14 0 -19 -2 -12 -5z"/>
<path d="M2980 1025 c0 -8 5 -15 10 -15 6 0 10 7 10 15 0 8 -4 15 -10 15 -5 0
-10 -7 -10 -15z"/>
<path d="M4 1009 c0 -10 4 -19 9 -19 5 0 7 -26 6 -57 l-3 -57 42 -2 c23 -1 42
1 42 6 0 4 11 5 25 2 15 -2 25 0 25 7 0 6 -3 10 -8 10 -20 -3 -32 2 -32 16 0
9 -6 12 -15 9 -9 -4 -15 0 -15 9 0 8 6 18 13 20 7 3 5 6 -5 6 -13 1 -18 -7
-18 -29 0 -24 3 -28 18 -23 14 6 15 4 4 -9 -7 -9 -22 -13 -37 -10 -24 4 -25 7
-21 69 2 35 2 62 -1 59 -4 -3 -11 -2 -17 4 -8 6 -12 3 -12 -11z"/>
<path d="M60 1013 c0 -11 3 -14 8 -7 4 6 14 14 22 17 10 4 8 6 -7 6 -16 1 -23
-5 -23 -16z"/>
<path d="M788 1023 c7 -3 16 -2 19 1 4 3 -2 6 -13 5 -11 0 -14 -3 -6 -6z"/>
<path d="M2780 1020 c-9 -6 -10 -10 -3 -10 6 0 15 5 18 10 8 12 4 12 -15 0z"/>
<path d="M2915 1000 c0 -16 5 -30 10 -30 6 0 10 14 10 30 0 17 -4 30 -10 30
-5 0 -10 -13 -10 -30z"/>
<path d="M703 1013 c9 -2 23 -2 30 0 6 3 -1 5 -18 5 -16 0 -22 -2 -12 -5z"/>
<path d="M2425 1010 c-3 -5 1 -10 9 -10 9 0 16 5 16 10 0 6 -4 10 -9 10 -6 0
-13 -4 -16 -10z"/>
<path d="M771 986 c-12 -14 -12 -19 -2 -26 22 -13 3 -50 -25 -50 -13 0 -24 -4
-24 -10 0 -18 -30 -11 -30 8 -1 16 -1 16 -14 0 -7 -10 -18 -18 -24 -18 -6 0
-14 -5 -18 -12 -4 -7 -3 -8 4 -4 8 5 12 -1 12 -14 0 -25 22 -50 44 -50 9 0 16
6 16 14 0 9 -7 12 -19 9 -10 -3 -22 1 -26 7 -6 10 11 11 74 8 81 -5 81 -5 81
19 0 13 -4 22 -8 19 -13 -8 -39 13 -27 22 6 4 8 27 5 51 -5 40 -6 43 -19 27z
m39 -121 c0 -1 -34 -3 -75 -3 -41 0 -75 4 -75 9 0 5 12 9 28 10 15 0 36 4 46
8 17 6 76 -12 76 -24z"/>
<path d="M868 990 c-31 -3 -59 -8 -63 -11 -3 -4 -2 -22 3 -40 l8 -34 6 27 c3
18 1 26 -6 22 -6 -3 -2 2 8 10 23 19 86 22 86 4 0 -6 3 -8 7 -5 3 4 13 1 21
-6 13 -11 14 -9 2 13 -7 14 -13 25 -14 25 0 0 -27 -2 -58 -5z"/>
<path d="M1090 990 c0 -5 7 -10 15 -10 8 0 15 5 15 10 0 6 -7 10 -15 10 -8 0
-15 -4 -15 -10z"/>
<path d="M2603 993 c4 -6 0 -13 -8 -17 -20 -7 -19 -28 2 -24 19 3 26 35 11 45
-6 3 -8 1 -5 -4z"/>
<path d="M2968 993 c6 -2 18 -2 25 0 6 3 1 5 -13 5 -14 0 -19 -2 -12 -5z"/>
<path d="M52 960 c0 -19 2 -27 5 -17 2 9 2 25 0 35 -3 9 -5 1 -5 -18z"/>
<path d="M716 981 c-12 -5 -16 -10 -9 -14 6 -4 9 -16 6 -27 -3 -11 -1 -20 4
-20 6 0 9 11 8 24 -3 28 21 26 28 -2 4 -14 5 -14 6 -1 2 26 -22 48 -43 40z"/>
<path d="M2081 983 c-1 -7 -8 -10 -16 -7 -15 6 -21 -11 -7 -20 13 -8 35 11 29
25 -4 9 -6 10 -6 2z"/>
<path d="M2745 980 c3 -6 25 -10 47 -10 51 0 47 6 -10 14 -27 3 -41 2 -37 -4z"/>
<path d="M967 973 c-13 -12 -7 -23 13 -23 11 0 20 7 20 15 0 15 -21 21 -33 8z"/>
<path d="M1984 968 c10 -5 20 -7 23 -4 4 3 12 1 20 -5 10 -9 13 -8 13 4 0 11
-11 15 -37 15 -30 0 -33 -2 -19 -10z"/>
<path d="M2370 964 c0 -8 5 -12 10 -9 6 3 10 10 10 16 0 5 -4 9 -10 9 -5 0
-10 -7 -10 -16z"/>
<path d="M2714 965 c3 -8 1 -15 -3 -15 -5 0 -11 4 -13 9 -1 5 -9 3 -16 -5 -11
-12 -8 -14 15 -15 17 -1 21 -3 11 -6 -10 -2 -18 -8 -18 -13 0 -4 8 -7 18 -6
20 3 31 66 12 66 -7 0 -10 -7 -6 -15z"/>
<path d="M2960 965 c0 -9 9 -15 23 -14 20 1 20 2 2 7 -20 5 -20 5 0 13 19 7
19 8 -2 8 -14 1 -23 -5 -23 -14z"/>
<path d="M1700 962 c0 -4 9 -8 20 -8 11 0 20 4 20 8 0 4 -9 8 -20 8 -11 0 -20
-4 -20 -8z"/>
<path d="M1 944 c0 -11 3 -14 6 -6 3 7 2 16 -1 19 -3 4 -6 -2 -5 -13z"/>
<path d="M133 953 c-7 -3 -13 -11 -13 -20 0 -12 2 -12 16 2 18 17 16 25 -3 18z"/>
<path d="M839 958 c-1 -2 -3 -28 -4 -58 -1 -30 0 -49 3 -41 4 11 6 11 13 0 6
-10 40 -13 141 -12 73 1 150 2 170 3 29 0 36 3 31 15 -4 12 -18 15 -59 13 -30
-2 -54 -7 -54 -12 0 -4 -8 -5 -17 0 -26 11 -177 12 -184 1 -15 -21 -36 18 -31
55 2 21 2 38 -2 38 -3 0 -7 -1 -7 -2z"/>
<path d="M1320 948 c0 -4 28 -8 62 -8 34 0 59 2 57 4 -8 8 -119 12 -119 4z"/>
<path d="M1876 948 c3 -5 10 -6 15 -3 13 9 11 12 -6 12 -8 0 -12 -4 -9 -9z"/>
<path d="M1947 946 c-13 -10 -14 -15 -5 -18 7 -3 2 -7 -11 -11 -17 -4 -21 -2
-17 9 3 8 1 14 -4 14 -6 0 -10 -12 -10 -26 0 -40 -29 -82 -52 -76 -17 4 -19 0
-16 -39 3 -40 5 -44 27 -41 18 3 22 0 18 -11 -3 -9 0 -18 8 -21 9 -3 12 0 8
10 -4 10 0 12 11 8 9 -3 14 -10 11 -14 -2 -4 23 -8 57 -9 34 -1 64 -3 66 -6 3
-2 13 0 24 6 26 14 6 39 -31 38 -20 -1 -22 -2 -6 -6 28 -7 39 -19 24 -28 -8
-5 -10 -4 -5 4 5 8 0 10 -18 7 -14 -2 -27 1 -30 7 -3 9 -5 9 -5 0 -1 -18 -31
-16 -31 2 0 13 -22 19 -67 18 -7 -1 -13 3 -13 8 0 14 -28 11 -33 -3 -2 -7 -4
2 -3 19 1 18 2 33 4 33 9 0 48 -24 54 -34 5 -8 8 -7 8 2 0 7 -7 15 -15 18 -8
4 -15 10 -15 16 0 5 4 7 9 4 5 -4 7 3 4 14 -4 14 0 20 11 20 9 0 15 6 14 13
-2 6 5 11 15 9 9 -2 17 2 17 8 0 12 24 40 34 40 3 0 6 -7 6 -15 0 -8 7 -15 16
-15 11 0 14 6 8 23 -12 38 -36 46 -67 23z"/>
<path d="M2772 935 c0 -16 2 -22 5 -12 2 9 2 23 0 30 -3 6 -5 -1 -5 -18z"/>
<path d="M2920 950 c0 -5 5 -10 10 -10 6 0 10 5 10 10 0 6 -4 10 -10 10 -5 0
-10 -4 -10 -10z"/>
<path d="M1478 943 c-16 -2 -28 -9 -28 -15 0 -7 -22 -9 -65 -6 -38 4 -65 2
-65 -4 0 -5 3 -7 8 -5 4 3 32 1 62 -4 40 -6 56 -5 62 4 6 9 10 9 16 -1 5 -7
16 -10 26 -6 11 4 22 1 27 -7 6 -9 9 -10 9 -2 0 6 -4 15 -10 18 -19 12 -10 25
15 23 23 -2 37 -18 15 -18 -5 0 -10 -4 -10 -10 0 -5 7 -10 15 -10 9 0 15 9 15
25 0 22 -4 25 -32 24 -18 -1 -45 -4 -60 -6z"/>
<path d="M1590 940 c0 -5 7 -10 16 -10 8 0 12 5 9 10 -3 6 -10 10 -16 10 -5 0
-9 -4 -9 -10z"/>
<path d="M1750 940 c-13 -8 -13 -10 2 -10 9 0 20 5 23 10 8 13 -5 13 -25 0z"/>
<path d="M2068 944 c-21 -20 46 -135 93 -159 38 -20 47 -17 38 15 -4 16 -7 19
-8 8 -1 -10 -8 -18 -16 -18 -13 0 -14 4 -5 20 7 14 7 20 0 20 -5 0 -10 -7 -10
-15 0 -12 -3 -12 -18 3 -18 17 -25 42 -11 42 4 0 10 -6 12 -12 4 -10 6 -10 6
-1 1 7 -8 17 -19 23 -11 6 -20 18 -21 28 0 14 -2 13 -8 -3 -8 -19 -8 -19 -16
5 -5 15 -4 25 4 28 6 2 11 8 11 13 0 10 -23 12 -32 3z"/>
<path d="M560 929 c0 -6 9 -13 20 -16 11 -3 20 -9 20 -14 0 -5 8 -9 18 -9 13
0 11 6 -12 25 -31 27 -46 31 -46 14z"/>
<path d="M630 925 c0 -8 2 -15 4 -15 2 0 6 7 10 15 3 8 1 15 -4 15 -6 0 -10
-7 -10 -15z"/>
<path d="M1700 933 c-8 -2 -24 -8 -35 -13 -11 -5 -27 -10 -34 -12 -13 -4 -12
-5 1 -10 8 -4 28 0 43 8 15 8 34 14 41 14 8 0 14 5 14 10 0 11 -6 11 -30 3z"/>
<path d="M1810 929 c0 -7 10 -9 25 -7 22 5 24 2 19 -18 -5 -18 -2 -24 9 -24 9
0 19 5 23 12 5 7 3 8 -6 3 -10 -6 -12 -4 -6 10 4 11 2 22 -6 27 -19 12 -58 10
-58 -3z"/>
<path d="M2034 921 c7 -9 11 -22 9 -28 -3 -7 0 -13 5 -13 6 0 9 8 7 18 -2 9
-4 22 -4 28 -1 6 -8 11 -16 11 -13 0 -13 -3 -1 -16z"/>
<path d="M2798 933 c7 -3 16 -2 19 1 4 3 -2 6 -13 5 -11 0 -14 -3 -6 -6z"/>
<path d="M2992 920 c0 -14 2 -19 5 -12 2 6 2 18 0 25 -3 6 -5 1 -5 -13z"/>
<path d="M1091 919 c-11 -5 -21 -10 -21 -12 0 -8 121 10 129 19 8 8 -83 2
-108 -7z"/>
<path d="M2920 914 c5 -43 0 -54 -22 -53 -21 1 -21 2 -3 7 20 5 20 5 1 12 -16
5 -24 -1 -38 -29 -20 -39 -24 -66 -8 -56 6 3 10 15 10 25 0 10 5 22 11 26 15
9 30 -16 26 -44 -3 -17 -1 -20 9 -11 9 7 10 18 4 33 -6 17 -5 23 7 23 14 0 15
-22 2 -66 -2 -7 4 -15 14 -16 17 -3 24 10 9 17 -4 2 -4 19 -1 38 l6 35 2 -35
c2 -19 5 -28 8 -20 4 8 12 20 18 25 16 13 26 55 14 55 -5 0 -9 -4 -9 -10 0 -5
-11 -10 -25 -10 -22 0 -24 3 -19 29 4 17 1 32 -6 36 -7 5 -11 1 -10 -11z"/>
<path d="M1585 910 c-3 -5 -1 -10 4 -10 6 0 11 5 11 10 0 6 -2 10 -4 10 -3 0
-8 -4 -11 -10z"/>
<path d="M2798 913 c6 -2 18 -2 25 0 6 3 1 5 -13 5 -14 0 -19 -2 -12 -5z"/>
<path d="M2956 904 c-8 -22 4 -40 15 -23 11 18 11 39 0 39 -5 0 -12 -7 -15
-16z"/>
<path d="M186 882 c-17 -33 -33 -45 -22 -16 4 10 2 13 -7 7 -6 -4 -21 -6 -32
-5 -14 2 -12 -1 9 -12 15 -9 35 -16 42 -16 11 0 12 -4 2 -19 -6 -10 -18 -17
-25 -14 -8 3 -23 -3 -33 -12 -19 -17 -26 -12 -21 18 2 10 -41 8 -59 -3 -13 -9
-13 -11 0 -20 13 -8 12 -10 -2 -10 -10 0 -18 -4 -18 -9 0 -5 9 -7 20 -4 11 3
20 14 20 24 0 19 11 25 23 12 4 -3 1 -13 -6 -21 -10 -13 -9 -14 1 -8 7 4 15 1
18 -9 9 -21 -5 -33 -16 -15 -9 13 -10 13 -10 0 0 -12 -2 -12 -9 -2 -5 9 -17
11 -35 6 -47 -11 -23 -28 37 -25 39 2 57 -1 57 -9 0 -7 -7 -10 -14 -7 -10 4
-13 1 -9 -9 3 -10 -2 -14 -18 -14 -19 0 -21 -2 -9 -10 12 -8 12 -10 -3 -16 -9
-3 -17 -14 -16 -23 0 -10 2 -11 6 -3 2 6 11 12 19 12 8 0 14 5 14 12 0 6 7 20
17 30 15 17 17 17 35 2 17 -16 18 -16 18 14 0 27 4 31 33 34 l32 4 -28 8 c-22
7 -31 4 -42 -10 -7 -10 -11 -22 -9 -26 3 -5 0 -8 -5 -8 -6 0 -11 8 -11 18 0
26 41 45 83 40 20 -2 33 0 30 5 -3 5 -28 7 -57 6 -39 -2 -54 -7 -63 -23 -15
-25 -17 -3 -3 24 7 13 18 17 35 14 14 -2 25 0 25 6 0 6 5 8 12 4 7 -4 8 -3 4
5 -4 6 -2 18 4 27 10 11 16 12 27 3 8 -7 12 -18 9 -25 -3 -7 2 -18 10 -24 17
-15 20 -55 3 -44 -7 4 -10 1 -7 -7 3 -8 11 -13 17 -11 6 1 11 -3 11 -9 0 -6
-7 -8 -16 -5 -12 4 -15 2 -10 -9 3 -8 9 -21 12 -29 4 -10 -2 -16 -18 -19 -21
-4 -21 -4 4 -6 21 -1 25 -5 21 -21 -3 -11 -9 -20 -14 -20 -5 0 -6 7 -3 15 9
21 -10 19 -30 -4 -10 -11 -24 -17 -32 -14 -12 4 -11 8 6 20 12 9 20 25 20 43
0 20 4 28 13 24 8 -3 13 3 13 16 0 16 -6 20 -31 19 -16 -1 -23 -3 -15 -5 24
-7 14 -81 -11 -87 -14 -4 -19 -14 -19 -42 0 -21 4 -34 10 -30 6 3 10 13 10 22
0 14 3 14 21 -3 11 -10 32 -19 47 -21 23 -2 24 -1 7 6 -11 5 -23 7 -26 5 -4
-2 -12 3 -18 10 -9 11 -9 16 0 21 6 4 14 3 18 -2 3 -5 16 -12 29 -16 l23 -5
-2 139 c-3 129 -4 138 -20 123 -15 -13 -17 -13 -23 1 -9 23 -8 25 9 19 8 -4
15 -1 15 6 0 6 -4 8 -10 5 -5 -3 -10 -1 -10 6 0 7 -3 9 -7 6 -3 -4 -12 1 -18
10 -11 15 -14 13 -29 -15z m24 -22 c-18 -11 -24 -6 -16 16 5 14 9 15 19 5 9
-9 9 -14 -3 -21z"/>
<path d="M1700 895 c-8 -10 -31 -15 -66 -15 -41 0 -54 -4 -54 -15 0 -12 18
-15 103 -15 l102 0 -1 -60 c-2 -70 11 -80 19 -16 6 42 -11 134 -20 108 -3 -6
-9 -10 -14 -6 -5 3 -9 0 -9 -7 0 -10 -3 -10 -12 -1 -7 7 -21 12 -32 13 -16 0
-13 3 8 9 16 5 33 7 37 4 4 -2 10 0 14 6 10 16 -61 12 -75 -5z"/>
<path d="M1810 876 c0 -28 22 -34 50 -16 12 8 9 10 -13 10 -16 0 -26 4 -22 9
3 5 1 12 -5 16 -6 4 -10 -5 -10 -19z"/>
<path d="M1960 888 c0 -4 7 -8 15 -8 8 0 15 -7 15 -15 0 -8 -4 -15 -10 -15 -5
0 -10 5 -10 10 0 6 -5 10 -12 10 -9 0 -9 -3 0 -12 14 -14 16 -68 3 -68 -12 0
-23 29 -15 41 3 5 0 17 -6 26 -10 16 -11 15 -6 -5 3 -16 1 -22 -8 -19 -7 3
-13 -1 -13 -9 0 -8 6 -14 14 -14 7 0 13 -7 13 -15 0 -19 49 -40 63 -26 5 5 15
7 21 5 6 -2 19 9 28 24 17 29 17 29 -7 26 -14 -1 -25 3 -25 9 -1 7 -7 -1 -14
-18 -7 -16 -11 -33 -9 -37 6 -11 -15 -10 -22 1 -3 5 -1 12 4 15 4 3 11 20 15
37 5 27 8 30 21 19 19 -16 29 -8 21 18 -5 14 -18 21 -41 24 -19 2 -35 0 -35
-4z"/>
<path d="M2120 896 c0 -9 40 -13 46 -5 3 5 -6 9 -20 9 -14 0 -26 -2 -26 -4z"/>
<path d="M2550 891 c0 -6 5 -13 10 -16 6 -3 10 1 10 9 0 9 -4 16 -10 16 -5 0
-10 -4 -10 -9z"/>
<path d="M1544 870 c0 -11 6 -20 14 -20 7 0 12 8 10 17 -4 24 -24 27 -24 3z"/>
<path d="M2256 882 c-4 -7 -27 -12 -52 -12 -32 0 -44 -4 -44 -15 0 -20 44 -20
74 0 22 15 24 14 29 -5 4 -17 2 -20 -14 -15 -11 4 -19 2 -19 -5 0 -6 5 -8 11
-4 8 4 9 -1 4 -17 l-7 -24 25 24 c19 17 24 28 18 40 -5 9 -10 23 -13 31 -3 10
-6 11 -12 2z"/>
<path d="M560 870 c0 -5 -7 -10 -16 -10 -8 0 -12 -5 -9 -10 5 -8 11 -7 20 0 8
7 18 9 24 6 5 -3 11 1 15 9 4 10 -1 15 -14 15 -11 0 -20 -4 -20 -10z"/>
<path d="M1310 865 c0 -12 19 -15 110 -15 91 0 110 3 110 15 0 12 -16 15 -88
15 -57 0 -93 -4 -101 -12 -11 -10 -13 -10 -7 0 4 7 1 12 -8 12 -9 0 -16 -7
-16 -15z"/>
<path d="M2385 869 c-3 -3 -17 -5 -32 -3 -16 2 -20 1 -10 -2 12 -4 16 -12 12
-24 -3 -10 -2 -21 3 -24 6 -3 13 -17 16 -32 4 -14 17 -37 29 -50 l23 -24 0 52
c-1 37 3 52 12 51 6 -2 13 3 13 10 1 6 7 -13 13 -43 l12 -55 5 42 c2 23 1 39
-3 37 -5 -3 -8 4 -8 15 0 23 -19 28 -37 10 -8 -8 -13 -8 -17 0 -4 6 0 11 9 11
10 0 13 5 9 12 -5 8 -2 9 9 5 10 -3 17 -3 17 2 0 11 -69 20 -75 10z m15 -29
c-14 -10 -27 -17 -29 -15 -8 8 22 35 38 35 12 0 10 -5 -9 -20z m11 -34 c-6 -7
-8 -16 -4 -19 3 -4 0 -7 -9 -7 -8 0 -15 7 -15 15 0 8 4 12 9 9 4 -3 8 2 8 11
0 9 5 13 10 10 8 -5 8 -11 1 -19z"/>
<path d="M2836 864 c-9 -24 -7 -28 9 -14 17 14 20 30 6 30 -5 0 -12 -7 -15
-16z"/>
<path d="M50 861 c0 -8 -8 -10 -22 -7 -13 3 -17 3 -10 0 10 -5 10 -9 1 -20 -8
-9 -8 -14 -1 -14 6 0 14 5 17 10 3 6 19 10 36 10 16 0 29 5 29 11 0 6 -6 9
-14 6 -7 -3 -19 0 -25 6 -8 8 -11 8 -11 -2z"/>
<path d="M2056 862 c-3 -5 1 -9 9 -9 8 0 12 4 9 9 -3 4 -7 8 -9 8 -2 0 -6 -4
-9 -8z"/>
<path d="M392 840 c4 -33 38 -41 37 -8 -1 17 -3 18 -6 6 -2 -10 -9 -18 -14
-18 -6 0 -8 4 -5 8 2 4 0 14 -5 22 -8 12 -9 9 -7 -10z"/>
<path d="M442 830 c0 -19 2 -27 5 -17 2 9 2 25 0 35 -3 9 -5 1 -5 -18z"/>
<path d="M462 835 c0 -16 2 -22 5 -12 2 9 2 23 0 30 -3 6 -5 -1 -5 -18z"/>
<path d="M482 835 c0 -16 2 -22 5 -12 2 9 2 23 0 30 -3 6 -5 -1 -5 -18z"/>
<path d="M2306 844 c-8 -20 12 -46 28 -37 6 4 6 0 -2 -9 -17 -21 -5 -49 16
-40 15 5 15 4 0 -12 -10 -9 -18 -21 -18 -26 0 -4 8 -7 18 -5 9 1 23 -2 30 -8
17 -13 15 -7 -14 57 -14 32 -30 53 -36 50 -6 -4 -8 1 -4 14 8 24 -9 39 -18 16z"/>
<path d="M352 820 c0 -19 2 -27 5 -17 2 9 2 25 0 35 -3 9 -5 1 -5 -18z"/>
<path d="M510 840 c0 -8 5 -22 10 -30 9 -13 10 -13 10 0 0 8 -5 22 -10 30 -9
13 -10 13 -10 0z"/>
<path d="M110 830 c0 -5 4 -10 9 -10 6 0 13 5 16 10 3 6 -1 10 -9 10 -9 0 -16
-4 -16 -10z"/>
<path d="M290 808 c0 -21 2 -38 4 -38 9 0 12 50 5 62 -6 8 -9 -1 -9 -24z"/>
<path d="M575 830 c-41 -6 -36 -13 18 -25 19 -4 26 -2 22 5 -3 5 1 10 9 10 9
0 16 5 16 10 0 11 -4 11 -65 0z"/>
<path d="M830 828 c0 -4 5 -8 10 -8 6 0 10 -4 10 -8 0 -4 -33 -9 -72 -10 -97
-3 -149 -11 -166 -28 -7 -8 -22 -14 -33 -14 -16 0 -19 -5 -14 -20 4 -11 2 -20
-4 -20 -6 0 -11 5 -11 11 0 5 -4 8 -9 5 -5 -4 -11 0 -14 6 -2 7 -8 10 -11 6
-4 -3 2 -16 14 -28 13 -13 21 -32 20 -48 -4 -52 0 -73 11 -67 16 10 81 8 88
-2 3 -5 14 -14 24 -20 16 -8 15 -11 -10 -21 -26 -11 -27 -11 -9 3 11 8 15 15
9 15 -7 0 -15 -4 -18 -10 -3 -5 -13 -10 -21 -10 -8 0 -12 5 -9 10 14 22 -15 8
-35 -17 l-21 -28 5 35 c2 19 2 29 -1 23 -2 -7 -9 -13 -14 -13 -6 0 -8 3 -6 8
3 4 -1 12 -8 19 -10 10 -14 9 -19 -3 -3 -8 -2 -12 3 -9 12 7 21 -22 23 -71 1
-22 6 -42 12 -46 8 -5 8 -8 0 -8 -12 0 -10 -116 4 -193 5 -26 5 -50 0 -53 -4
-3 -7 -20 -7 -37 l2 -32 7 35 c7 35 7 35 9 5 1 -24 4 -27 11 -14 6 10 6 29 0
49 -6 20 -6 38 -1 44 6 7 4 19 -5 30 -8 11 -14 39 -14 62 0 34 3 42 18 39 9
-1 11 0 5 2 -15 5 -14 3 -19 68 -4 66 15 89 68 81 23 -4 38 -2 38 4 0 5 5 10
11 10 6 0 9 -9 6 -19 -3 -14 -1 -18 9 -14 16 6 64 -22 64 -37 0 -6 -8 -10 -17
-10 -16 0 -16 2 -3 11 12 9 12 10 -3 5 -10 -3 -24 -6 -30 -6 -7 0 4 -8 23 -18
24 -12 39 -14 46 -7 22 19 -11 66 -61 86 -17 6 -24 13 -17 16 8 3 4 11 -13 25
-14 11 -25 26 -25 33 0 8 -9 16 -19 20 -11 3 -22 12 -25 20 -3 8 -15 15 -26
15 -13 0 -20 7 -20 20 0 11 4 20 10 20 5 0 9 3 9 8 -3 19 2 26 10 13 8 -12 15
-13 35 -3 15 7 26 7 28 1 2 -5 12 -3 23 6 20 15 20 15 1 30 -15 12 -16 15 -5
15 9 0 18 -3 22 -6 7 -8 106 -11 102 -4 -2 3 14 5 36 5 26 0 38 -4 35 -11 -3
-9 4 -10 27 -3 18 5 56 9 84 9 29 0 53 5 53 10 0 8 -17 11 -90 12 -3 1 -20 -2
-38 -6 -28 -5 -34 -2 -41 18 -9 21 -41 33 -41 14z m-160 -61 c0 -8 -9 -13 -22
-11 -31 3 -30 3 -23 14 9 15 45 12 45 -3z m-58 -121 c16 -12 13 -13 -20 -11
-45 3 -45 3 -37 15 9 14 37 12 57 -4z"/>
<path d="M1075 819 c5 -16 4 -19 -5 -14 -8 5 -11 3 -8 -6 3 -8 16 -14 29 -15
83 -4 80 -3 75 -29 -3 -13 -1 -27 4 -30 4 -3 10 15 11 39 l4 44 -41 -4 c-35
-4 -42 -2 -47 15 -3 12 -10 21 -17 21 -7 0 -9 -8 -5 -21z"/>
<path d="M1303 825 c4 -8 2 -17 -4 -20 -24 -16 10 -23 115 -24 107 -1 114 1
119 20 3 12 12 19 23 17 9 -2 19 3 21 10 3 7 -5 12 -21 12 -16 0 -26 -6 -26
-15 0 -9 -10 -15 -22 -16 -160 -5 -177 -4 -182 14 -2 9 -10 17 -16 17 -7 0
-10 -7 -7 -15z"/>
<path d="M728 823 c7 -3 16 -2 19 1 4 3 -2 6 -13 5 -11 0 -14 -3 -6 -6z"/>
<path d="M998 823 c12 -2 30 -2 40 0 9 3 -1 5 -23 4 -22 0 -30 -2 -17 -4z"/>
<path d="M2075 813 c-8 -17 -9 -29 -6 -53 0 -5 7 -10 14 -10 6 0 13 -14 14
-30 2 -21 -2 -30 -12 -30 -8 0 -15 4 -15 9 0 5 -9 7 -21 4 -14 -4 -18 -11 -13
-22 3 -9 7 -21 7 -28 0 -7 4 -10 8 -7 5 2 6 10 4 17 -4 9 16 12 71 13 41 1 73
-1 70 -4 -3 -3 -1 -11 4 -17 8 -9 4 -12 -15 -12 -14 0 -25 3 -25 8 0 5 -4 9
-9 9 -5 0 -7 -9 -4 -20 6 -22 -15 -28 -34 -9 -8 8 -13 8 -17 0 -8 -12 -76 -15
-76 -3 0 4 -14 8 -31 8 -20 1 -27 -1 -18 -6 7 -5 17 -6 21 -4 4 3 8 0 8 -5 0
-6 -9 -11 -20 -11 -29 0 -70 21 -70 37 0 8 -5 11 -11 7 -13 -7 -89 15 -89 27
0 4 6 9 13 12 6 2 -12 4 -41 4 -59 -1 -65 -16 -11 -29 19 -5 41 -12 49 -15 8
-3 24 -8 34 -10 11 -2 34 -12 51 -23 18 -11 45 -20 61 -20 28 -1 28 -1 9 -16
-12 -9 -21 -11 -23 -4 -2 5 -11 10 -20 10 -14 0 -14 -2 -3 -9 11 -7 11 -9 0
-14 -8 -3 3 -5 23 -4 21 0 35 4 32 9 -3 4 2 8 10 8 10 0 13 6 10 15 -5 13 8
15 97 11 57 -2 146 -5 197 -5 85 -1 92 -3 92 -21 0 -11 4 -20 9 -20 5 0 9 11
9 25 0 25 -2 25 -87 26 -47 1 -90 2 -96 4 -5 1 -14 3 -20 4 -5 1 -1 8 9 16 11
8 14 15 8 15 -7 0 -12 11 -12 24 0 14 -10 30 -25 40 -22 15 -25 15 -34 -2 -6
-9 -11 -12 -11 -7 0 6 -4 3 -10 -5 -5 -8 -13 -11 -17 -6 -4 4 0 14 10 21 17
12 17 14 1 23 -11 6 -15 16 -10 27 6 17 7 17 26 0 11 -10 20 -14 20 -9 0 5 -9
15 -20 21 -15 10 -22 10 -33 -1 -11 -12 -15 -11 -25 4 -13 22 -4 34 15 19 8
-7 13 -8 13 -1 0 5 -6 15 -14 21 -11 9 -15 8 -21 -6z m105 -113 c0 -5 -4 -10
-10 -10 -5 0 -10 5 -10 10 0 6 5 10 10 10 6 0 10 -4 10 -10z m5 -80 c-3 -5
-10 -10 -16 -10 -5 0 -9 5 -9 10 0 6 7 10 16 10 8 0 12 -4 9 -10z"/>
<path d="M2210 806 c0 -14 5 -26 10 -26 6 0 10 9 10 19 0 11 -4 23 -10 26 -6
4 -10 -5 -10 -19z"/>
<path d="M2868 805 c-5 -25 -4 -25 10 -11 12 11 13 19 5 27 -7 7 -12 3 -15
-16z"/>
<path d="M1573 805 c-26 -14 -34 -28 -21 -36 6 -4 19 3 29 14 10 12 18 16 19
10 0 -7 -4 -13 -10 -13 -5 0 -10 -6 -10 -14 0 -8 -4 -16 -9 -18 -5 -1 -3 -9 5
-16 10 -9 14 -9 14 -1 0 8 4 8 15 -1 8 -7 24 -10 34 -7 13 3 21 -1 24 -12 4
-13 5 -13 6 2 0 10 5 16 10 12 5 -3 12 -1 16 5 3 5 0 10 -7 10 -8 0 -14 11
-14 25 0 18 5 25 19 25 10 0 16 -4 12 -10 -3 -5 7 -5 25 1 16 6 30 15 30 19 0
12 -166 17 -187 5z m76 -12 c10 8 13 8 8 0 -4 -6 -1 -14 5 -16 7 -3 1 -6 -14
-6 -15 -1 -29 -5 -32 -9 -3 -5 9 -6 26 -4 21 3 29 1 24 -6 -7 -11 -61 -10 -72
1 -3 3 0 14 8 26 8 13 16 17 22 11 6 -6 15 -5 25 3z"/>
<path d="M2636 804 c-7 -19 0 -34 17 -34 7 0 6 4 -3 10 -10 6 -11 10 -2 10 6
0 12 7 12 15 0 20 -16 19 -24 -1z"/>
<path d="M2976 804 c-8 -22 -8 -24 7 -18 8 3 14 11 14 19 0 20 -13 19 -21 -1z"/>
<path d="M546 784 c-9 -24 -7 -31 4 -12 6 10 19 15 32 12 21 -4 22 -4 3 5 -28
13 -32 13 -39 -5z"/>
<path d="M2284 792 c-6 -4 -10 -15 -8 -25 1 -10 -4 -21 -11 -23 -19 -8 -29
-55 -13 -65 7 -5 19 -9 26 -9 10 0 10 3 0 14 -7 8 -17 11 -22 8 -5 -3 -6 0 -2
6 4 7 18 12 31 12 18 0 22 -4 18 -20 -4 -16 -1 -20 19 -18 14 1 25 7 25 14 0
6 -8 9 -17 7 -17 -5 -21 21 -7 44 9 14 -26 36 -39 25 -5 -4 -2 1 5 11 15 19
12 30 -5 19z m26 -57 c-7 -8 -16 -15 -20 -15 -3 0 -7 7 -7 15 0 8 9 15 20 15
16 0 17 -3 7 -15z"/>
<path d="M2439 736 c-3 -31 -9 -51 -18 -54 -8 -3 -11 0 -7 6 3 6 2 14 -4 17
-6 4 -10 3 -9 -2 4 -22 -3 -24 -22 -7 -21 19 -21 19 -18 -1 3 -11 11 -20 19
-20 8 -1 14 -7 12 -15 -3 -11 0 -11 12 -1 8 7 20 10 25 6 6 -3 19 -1 28 4 11
6 13 11 5 11 -9 0 -12 10 -9 28 2 15 1 38 -3 52 -6 20 -8 15 -11 -24z"/>
<path d="M2668 764 c-7 -38 4 -114 17 -114 7 0 16 -6 18 -12 3 -8 6 -6 6 5 1
9 -5 17 -12 17 -9 0 -13 17 -11 60 1 55 -10 83 -18 44z"/>
<path d="M1193 730 c0 -25 2 -35 4 -22 2 12 2 32 0 45 -2 12 -4 2 -4 -23z"/>
<path d="M1515 761 c-3 -5 -2 -12 3 -15 5 -3 9 1 9 9 0 17 -3 19 -12 6z"/>
<path d="M2220 759 c0 -5 9 -9 20 -9 11 0 20 4 20 8 0 4 -9 8 -20 9 -11 1 -20
-2 -20 -8z"/>
<path d="M2588 763 c6 -2 18 -2 25 0 6 3 1 5 -13 5 -14 0 -19 -2 -12 -5z"/>
<path d="M2975 760 c-19 -8 -19 -9 3 -9 12 -1 22 4 22 9 0 6 -1 10 -2 9 -2 0
-12 -4 -23 -9z"/>
<path d="M420 749 c0 -5 5 -7 10 -4 6 3 10 8 10 11 0 2 -4 4 -10 4 -5 0 -10
-5 -10 -11z"/>
<path d="M960 750 c0 -5 14 -7 33 -3 45 8 47 13 4 13 -20 0 -37 -4 -37 -10z"/>
<path d="M1713 753 c9 -2 23 -2 30 0 6 3 -1 5 -18 5 -16 0 -22 -2 -12 -5z"/>
<path d="M2175 750 c3 -5 10 -10 16 -10 5 0 9 5 9 10 0 6 -7 10 -16 10 -8 0
-12 -4 -9 -10z"/>
<path d="M2496 745 c4 -8 10 -15 14 -15 5 0 17 -3 27 -6 12 -3 10 -1 -5 8 -12
8 -19 17 -16 21 4 4 0 7 -9 7 -10 0 -14 -5 -11 -15z"/>
<path d="M1821 734 c0 -11 3 -14 6 -6 3 7 2 16 -1 19 -3 4 -6 -2 -5 -13z"/>
<path d="M2568 743 c7 -3 16 -2 19 1 4 3 -2 6 -13 5 -11 0 -14 -3 -6 -6z"/>
<path d="M2708 728 c5 -18 7 -20 10 -5 2 9 11 17 21 17 14 0 17 -8 15 -50 -2
-27 1 -50 7 -50 5 0 9 23 9 50 0 46 2 50 23 49 16 -1 18 -2 5 -6 -14 -3 -18
-15 -18 -54 0 -37 -4 -49 -15 -49 -9 0 -19 10 -24 22 -8 21 -8 21 -13 -5 -3
-16 -1 -28 6 -28 6 -1 22 -3 36 -4 14 -1 37 -5 53 -10 16 -4 27 -3 27 3 0 5
-7 9 -16 8 -9 0 -19 4 -21 10 -2 6 7 11 19 11 42 1 44 3 44 42 -1 58 -16 62
-17 5 -1 -36 -3 -43 -8 -24 -11 39 -1 82 18 78 11 -2 17 -16 19 -48 3 -41 17
-64 32 -55 4 2 7 23 8 47 0 24 -2 37 -5 31 -7 -18 -23 -16 -23 2 0 8 6 15 13
15 9 0 8 3 -2 9 -7 5 -57 9 -111 10 -98 2 -98 2 -92 -21z m127 -5 c-2 -10 -4
-34 -4 -53 -1 -23 -4 -30 -10 -22 -4 7 -7 25 -5 40 1 15 2 33 3 40 1 6 5 12
10 12 5 0 8 -8 6 -17z m-30 -43 c0 -22 -3 -40 -7 -40 -5 0 -8 18 -8 40 0 22 3
40 8 40 4 0 7 -18 7 -40z m102 -22 c-3 -7 -5 -2 -5 12 0 14 2 19 5 13 2 -7 2
-19 0 -25z"/>
<path d="M820 730 c0 -5 5 -10 10 -10 6 0 10 5 10 10 0 6 -4 10 -10 10 -5 0
-10 -4 -10 -10z"/>
<path d="M1136 725 c4 -8 8 -15 10 -15 2 0 4 7 4 15 0 8 -4 15 -10 15 -5 0 -7
-7 -4 -15z"/>
<path d="M1266 723 c-6 -14 -5 -15 5 -6 7 7 10 15 7 18 -3 3 -9 -2 -12 -12z"/>
<path d="M1722 728 c2 -6 13 -14 24 -18 15 -6 20 -3 21 11 1 14 -5 19 -23 19
-15 0 -24 -5 -22 -12z m35 -4 c-3 -3 -12 -4 -19 -1 -8 3 -5 6 6 6 11 1 17 -2
13 -5z"/>
<path d="M2945 730 c11 -5 14 -9 7 -9 -10 -1 -13 -14 -10 -50 2 -39 -1 -52
-15 -60 -16 -11 -16 -13 -2 -27 8 -9 15 -23 15 -32 -1 -15 -2 -15 -13 -2 -7 8
-21 17 -32 18 -11 2 -25 8 -32 13 -7 7 -14 6 -18 -1 -5 -8 -11 -8 -20 0 -7 6
-21 7 -30 3 -12 -4 -16 -3 -12 4 5 7 -5 11 -26 11 -46 -1 -60 4 -75 27 -12 19
-12 18 -6 -5 8 -32 6 -30 37 -32 15 -1 27 -6 27 -11 0 -4 5 -5 10 -2 6 3 10 3
10 -2 0 -4 22 -7 50 -7 32 1 47 -2 43 -9 -3 -6 -1 -7 6 -3 27 17 46 -3 46 -49
0 -24 6 -50 13 -57 9 -9 11 -7 7 10 -3 16 3 26 22 36 17 8 22 16 14 20 -21 14
-11 26 16 20 24 -6 25 -5 12 8 -7 9 -19 13 -26 11 -9 -4 -12 7 -9 40 2 25 7
51 11 58 5 8 4 10 -3 5 -8 -5 -12 3 -12 23 0 16 5 33 10 36 14 9 2 25 -18 24
-14 0 -13 -2 3 -9z m-15 -214 c0 -23 -16 -27 -17 -5 -1 10 2 19 8 19 5 0 9 -6
9 -14z"/>
<path d="M650 720 c-39 -4 -42 -6 -20 -12 35 -11 90 -10 90 1 0 14 -21 17 -70
11z"/>
<path d="M1453 723 c9 -2 23 -2 30 0 6 3 -1 5 -18 5 -16 0 -22 -2 -12 -5z"/>
<path d="M1840 720 c0 -5 5 -10 10 -10 6 0 10 5 10 10 0 6 -4 10 -10 10 -5 0
-10 -4 -10 -10z"/>
<path d="M2576 722 c-3 -4 4 -9 15 -9 23 -2 25 3 4 10 -8 4 -16 3 -19 -1z"/>
<path d="M2993 655 c0 -44 2 -61 4 -37 2 23 2 59 0 80 -2 20 -4 1 -4 -43z"/>
<path d="M2466 705 c-2 -7 1 -18 7 -24 9 -9 8 -14 -3 -21 -13 -8 -12 -10 3
-11 9 -1 20 -2 25 -4 61 -16 60 -16 58 -49 -2 -22 1 -33 11 -33 7 0 13 4 13 8
0 4 9 5 20 2 15 -4 17 -9 10 -23 -6 -10 -10 -29 -9 -42 1 -16 4 -12 11 15 13
46 37 50 39 5 l2 -33 6 35 c8 39 -3 62 -25 53 -8 -3 -21 0 -29 7 -8 6 -19 9
-25 5 -5 -3 -10 1 -10 11 0 13 7 16 35 11 38 -6 42 -1 20 29 -20 26 -19 33 4
27 11 -3 22 -15 24 -27 4 -18 4 -17 6 5 1 19 -6 29 -24 37 -27 13 -30 10 -37
-32 -2 -11 -8 -21 -15 -23 -9 -3 -10 4 -2 29 11 40 11 38 -1 38 -5 0 -10 -7
-10 -15 0 -8 -4 -15 -10 -15 -5 0 -10 -5 -10 -11 0 -5 5 -7 10 -4 6 3 10 1 10
-5 0 -8 -7 -9 -17 -5 -10 4 -28 10 -40 12 -14 3 -23 13 -23 25 0 16 5 18 38
12 25 -4 34 -3 27 4 -16 16 -83 22 -89 7z"/>
<path d="M175 697 c-4 -10 -5 -21 -1 -24 10 -10 18 4 13 24 -4 17 -4 17 -12 0z"/>
<path d="M750 700 c0 -5 5 -10 10 -10 6 0 10 5 10 10 0 6 -4 10 -10 10 -5 0
-10 -4 -10 -10z"/>
<path d="M1884 701 c18 -7 18 -8 2 -14 -25 -10 -38 -9 -31 3 3 6 1 10 -4 10
-19 0 -12 -19 10 -31 18 -9 24 -8 31 6 8 13 19 15 51 11 23 -3 34 -3 25 0 -10
3 -18 9 -18 12 0 4 -19 8 -43 9 -27 1 -35 -1 -23 -6z"/>
<path d="M1997 696 c-11 -29 -8 -40 7 -27 11 9 15 9 19 -1 3 -7 6 -8 6 -2 1 5
-5 18 -12 28 -13 18 -14 18 -20 2z"/>
<path d="M2731 694 c0 -11 3 -14 6 -6 3 7 2 16 -1 19 -3 4 -6 -2 -5 -13z"/>
<path d="M4 675 c9 -50 31 -61 38 -20 3 14 2 25 -3 25 -4 0 -10 -10 -12 -22
-3 -17 -5 -14 -6 10 0 17 -6 32 -11 32 -6 0 -8 -11 -6 -25z"/>
<path d="M1145 690 c3 -5 10 -10 16 -10 5 0 9 5 9 10 0 6 -7 10 -16 10 -8 0
-12 -4 -9 -10z"/>
<path d="M113 673 c-3 -10 -8 -22 -11 -26 -2 -5 4 -7 13 -5 19 3 29 34 14 44
-5 3 -12 -3 -16 -13z"/>
<path d="M650 670 c0 -5 5 -10 11 -10 5 0 7 5 4 10 -3 6 -8 10 -11 10 -2 0 -4
-4 -4 -10z"/>
<path d="M930 673 c-19 -2 -45 -9 -57 -15 -12 -6 -35 -9 -52 -6 -16 2 -28 1
-25 -4 6 -10 84 -11 84 0 0 4 26 8 58 8 31 1 68 7 82 12 23 10 22 11 -15 10
-22 -1 -56 -3 -75 -5z"/>
<path d="M1233 633 c0 -41 1 -43 7 -18 l8 30 1 -31 c0 -16 -5 -36 -11 -43 -11
-11 -10 -13 2 -9 11 3 15 19 15 58 0 67 -20 79 -22 13z"/>
<path d="M1923 665 c0 -17 12 -18 42 -5 16 7 17 9 3 9 -9 1 -23 3 -31 6 -8 4
-14 0 -14 -10z"/>
<path d="M150 655 c0 -9 6 -12 15 -9 8 4 15 7 15 9 0 2 -7 5 -15 9 -9 3 -15 0
-15 -9z"/>
<path d="M1175 598 c0 -64 -2 -73 -17 -70 -11 2 -18 -3 -18 -13 0 -8 6 -14 12
-13 9 2 12 -10 10 -39 -2 -44 2 -50 28 -33 13 9 13 10 0 10 -13 0 -15 8 -11
38 l5 37 7 -30 c7 -30 7 -30 8 -3 0 15 -3 29 -7 32 -4 2 -5 34 -2 70 5 66 4
86 -8 86 -4 0 -7 -33 -7 -72z"/>
<path d="M2346 661 c-3 -4 -18 -6 -32 -3 -16 3 -25 1 -21 -5 3 -5 -6 -8 -24
-5 -22 3 -29 0 -29 -12 0 -14 10 -16 66 -11 74 6 152 -10 173 -34 12 -15 13
-14 8 2 -7 19 5 22 34 7 11 -6 19 -7 19 -1 0 11 -56 32 -64 24 -3 -4 -6 -1 -6
6 0 8 -7 10 -21 6 -14 -5 -19 -3 -15 4 5 7 -2 9 -22 5 -21 -4 -31 -2 -35 10
-7 17 -23 21 -31 7z"/>
<path d="M1616 643 c-6 -14 -5 -15 5 -6 7 7 10 15 7 18 -3 3 -9 -2 -12 -12z"/>
<path d="M2098 653 c7 -3 16 -2 19 1 4 3 -2 6 -13 5 -11 0 -14 -3 -6 -6z"/>
<path d="M1128 643 c6 -2 18 -2 25 0 6 3 1 5 -13 5 -14 0 -19 -2 -12 -5z"/>
<path d="M97 618 c11 -13 19 -15 23 -7 5 7 9 7 12 -3 3 -7 -1 -19 -8 -26 -8
-7 -14 -8 -14 -2 0 5 -7 10 -16 10 -14 0 -14 -2 0 -15 18 -18 33 -19 38 -3 3
7 7 6 11 -5 3 -9 2 -17 -3 -17 -6 0 -10 -18 -10 -39 0 -22 -5 -43 -10 -46 -6
-3 -8 -25 -5 -47 6 -45 15 -63 15 -32 1 10 7 1 15 -21 18 -48 18 -55 5 -55 -5
0 -10 10 -11 23 0 12 -3 16 -6 9 -2 -6 -9 -10 -14 -6 -5 3 -9 0 -9 -5 0 -6 5
-11 10 -11 6 0 10 -18 10 -40 0 -32 4 -40 18 -39 10 0 12 3 5 6 -7 2 -13 9
-13 15 0 6 6 6 15 -2 21 -17 19 -30 -5 -30 -15 0 -20 -7 -20 -25 0 -17 4 -23
14 -19 8 3 12 13 10 22 -5 15 -4 14 6 -1 12 -19 6 -37 -15 -37 -8 0 -11 -7 -8
-21 4 -12 11 -18 20 -15 8 3 17 6 19 6 2 0 4 34 4 76 0 73 -1 75 -23 69 -21
-6 -21 -5 -2 6 11 7 23 17 28 23 4 7 10 8 15 1 10 -14 46 -19 37 -6 -3 6 -13
11 -21 11 -8 0 -14 5 -14 10 0 6 -9 10 -20 10 -13 0 -20 7 -20 18 0 10 -7 27
-15 38 -19 25 -19 34 0 34 8 0 15 4 15 9 0 5 8 12 18 14 14 4 13 5 -3 6 -12 0
-26 -4 -33 -11 -9 -9 -12 -8 -12 5 0 9 5 17 11 17 7 0 9 10 5 24 -8 32 3 64
15 44 12 -18 11 -31 -1 -23 -5 3 -10 2 -10 -4 0 -5 9 -9 19 -8 11 0 17 5 15 9
-3 5 -2 18 1 29 6 17 9 19 16 8 5 -8 9 -9 9 -3 0 18 -12 24 -26 13 -20 -16
-34 -2 -34 35 0 31 -3 34 -35 38 -33 4 -34 3 -18 -14z"/>
<path d="M363 624 c-3 -8 -3 -18 1 -21 3 -4 6 2 7 13 0 18 1 18 9 -1 6 -13 9
-15 9 -5 1 13 2 13 11 0 8 -13 10 -13 10 1 0 22 -39 32 -47 13z"/>
<path d="M954 629 c-9 -15 -2 -18 20 -9 17 6 18 7 3 13 -9 3 -19 2 -23 -4z"/>
<path d="M1538 633 c12 -2 32 -2 45 0 12 2 2 4 -23 4 -25 0 -35 -2 -22 -4z"/>
<path d="M1708 633 c12 -2 30 -2 40 0 9 3 -1 5 -23 4 -22 0 -30 -2 -17 -4z"/>
<path d="M2972 620 c0 -14 2 -19 5 -12 2 6 2 18 0 25 -3 6 -5 1 -5 -13z"/>
<path d="M440 615 c0 -8 5 -15 10 -15 6 0 10 7 10 15 0 8 -4 15 -10 15 -5 0
-10 -7 -10 -15z"/>
<path d="M471 614 c0 -11 3 -14 6 -6 3 7 2 16 -1 19 -3 4 -6 -2 -5 -13z"/>
<path d="M491 614 c0 -11 3 -14 6 -6 3 7 2 16 -1 19 -3 4 -6 -2 -5 -13z"/>
<path d="M687 621 c-17 -6 -17 -8 -4 -19 10 -9 17 -10 22 -2 3 5 3 10 -2 10
-4 0 -1 5 7 10 17 11 4 12 -23 1z"/>
<path d="M1120 621 c0 -5 5 -13 10 -16 6 -3 10 -2 10 4 0 5 -4 13 -10 16 -5 3
-10 2 -10 -4z"/>
<path d="M1150 616 c0 -9 5 -16 10 -16 6 0 10 4 10 9 0 6 -4 13 -10 16 -5 3
-10 -1 -10 -9z"/>
<path d="M3 599 c-2 -20 -1 -20 18 -4 18 17 19 17 19 -3 0 -12 -4 -22 -10 -22
-15 0 -35 -43 -21 -48 6 -2 8 -8 5 -14 -4 -7 5 -8 27 -3 44 9 56 21 30 28 -13
3 -24 -1 -30 -10 -6 -11 -10 -12 -15 -4 -12 19 13 42 34 31 9 -5 20 -7 23 -4
3 3 8 -4 12 -16 5 -15 2 -26 -6 -31 -11 -7 -11 -9 -1 -9 7 0 10 -5 7 -10 -4
-6 -11 -8 -16 -5 -5 4 -9 1 -9 -4 0 -6 -15 -11 -32 -12 -29 0 -30 -1 -12 -9
29 -11 48 -8 68 13 22 21 29 87 10 87 -18 0 -32 29 -27 51 3 11 1 19 -5 19 -6
0 -13 -15 -15 -32 l-4 -33 -1 33 c-2 26 -6 32 -25 32 -16 0 -23 -6 -24 -21z"/>
<path d="M318 603 c-2 -10 -1 -49 2 -88 7 -69 11 -66 14 9 0 22 6 41 13 43 7
3 10 -4 6 -19 -4 -22 -4 -22 11 -4 15 19 16 16 18 -45 l2 -64 6 75 c6 69 7 71
10 25 l3 -50 7 45 c4 25 8 40 8 33 2 -13 42 -5 42 9 0 5 7 3 15 -6 8 -8 15
-26 15 -40 0 -14 3 -26 8 -26 4 0 5 21 3 46 -2 32 -6 42 -12 33 -5 -8 -9 -9
-9 -3 0 11 -79 12 -97 1 -5 -3 -15 -2 -23 3 -7 4 -19 6 -27 3 -18 -7 -17 2 3
21 13 14 13 16 1 16 -8 0 -17 -8 -19 -17z"/>
<path d="M908 613 c6 -2 18 -2 25 0 6 3 1 5 -13 5 -14 0 -19 -2 -12 -5z"/>
<path d="M1018 613 c7 -3 16 -2 19 1 4 3 -2 6 -13 5 -11 0 -14 -3 -6 -6z"/>
<path d="M1538 613 c12 -2 32 -2 45 0 12 2 2 4 -23 4 -25 0 -35 -2 -22 -4z"/>
<path d="M2650 610 c0 -5 5 -10 10 -10 6 0 10 5 10 10 0 6 -4 10 -10 10 -5 0
-10 -4 -10 -10z"/>
<path d="M2863 606 c6 -17 34 -19 40 -3 3 9 -3 13 -19 13 -13 0 -23 -5 -21
-10z"/>
<path d="M1880 600 c0 -5 5 -10 11 -10 5 0 7 5 4 10 -3 6 -8 10 -11 10 -2 0
-4 -4 -4 -10z"/>
<path d="M280 566 c-6 -19 -16 -37 -23 -39 -7 -2 -9 -8 -5 -12 4 -4 14 -2 23
5 8 7 15 8 15 3 0 -16 -22 -32 -36 -26 -8 3 -14 1 -14 -4 0 -5 -18 -9 -40 -8
-52 1 -51 -11 2 -19 27 -4 44 -3 48 5 11 17 30 -48 23 -81 -3 -17 -1 -30 4
-30 5 0 7 -16 5 -36 -3 -25 -8 -34 -18 -30 -11 4 -14 -6 -14 -43 0 -33 4 -48
13 -47 6 0 12 -3 12 -9 0 -5 -6 -9 -12 -9 -7 1 -13 -7 -13 -18 0 -14 5 -18 15
-14 9 3 15 0 15 -10 0 -8 -4 -13 -9 -9 -5 3 -11 -7 -13 -22 -5 -42 3 -94 13
-87 5 3 9 -2 9 -10 0 -9 8 -16 18 -16 14 0 15 2 2 10 -13 9 -13 11 0 20 10 6
11 10 3 10 -7 0 -13 9 -13 20 0 11 -4 19 -9 18 -5 -2 -9 2 -10 7 0 6 10 9 23
7 20 -3 24 1 24 24 0 23 -2 25 -12 12 -8 -11 -10 31 -8 171 2 125 0 181 -7
171 -5 -8 -13 -11 -17 -7 -4 4 0 15 8 24 13 15 24 113 13 113 -2 0 -9 -15 -15
-34z m1 -319 c-13 -13 -26 -3 -16 12 3 6 11 8 17 5 6 -4 6 -10 -1 -17z"/>
<path d="M2434 584 c3 -9 6 -18 6 -20 0 -2 7 -4 15 -4 20 0 19 26 -1 34 -24 9
-27 8 -20 -10z"/>
<path d="M1028 583 c6 -2 18 -2 25 0 6 3 1 5 -13 5 -14 0 -19 -2 -12 -5z"/>
<path d="M1121 578 c-1 -21 18 -33 31 -20 6 6 6 12 -1 16 -6 4 -11 1 -12 -6 0
-7 -4 -4 -9 7 -7 16 -9 17 -9 3z"/>
<path d="M1538 583 c12 -2 32 -2 45 0 12 2 2 4 -23 4 -25 0 -35 -2 -22 -4z"/>
<path d="M2075 580 c3 -5 14 -10 23 -10 15 0 15 2 2 10 -20 13 -33 13 -25 0z"/>
<path d="M2263 575 c0 -17 13 -20 22 -5 3 6 11 10 17 10 6 0 6 -6 -2 -15 -11
-13 -10 -14 4 -9 27 10 19 34 -12 34 -19 0 -29 -5 -29 -15z"/>
<path d="M877 566 c-4 -10 -1 -13 9 -9 7 3 14 9 14 14 0 14 -17 10 -23 -5z"/>
<path d="M932 565 c-16 -19 -13 -19 29 0 31 13 32 14 9 14 -14 0 -31 -6 -38
-14z"/>
<path d="M1698 573 c12 -2 32 -2 45 0 12 2 2 4 -23 4 -25 0 -35 -2 -22 -4z"/>
<path d="M2215 570 c4 -6 11 -8 16 -5 14 9 11 15 -7 15 -8 0 -12 -5 -9 -10z"/>
<path d="M1020 560 c14 -4 34 -8 45 -8 16 0 15 2 -5 8 -14 4 -34 8 -45 8 -16
0 -15 -2 5 -8z"/>
<path d="M1815 560 c22 -4 46 -5 53 -1 8 4 -10 8 -40 8 -52 1 -53 1 -13 -7z"/>
<path d="M2680 549 c0 -9 -3 -24 -6 -33 -3 -9 -1 -16 5 -16 6 0 11 11 11 25 0
28 3 29 28 16 9 -5 44 -15 77 -21 33 -6 68 -13 78 -15 9 -2 17 0 17 4 0 9 -71
33 -115 38 -16 2 -37 6 -45 9 -31 13 -50 11 -50 -7z"/>
<path d="M1290 550 c0 -5 5 -10 10 -10 6 0 10 5 10 10 0 6 -4 10 -10 10 -5 0
-10 -4 -10 -10z"/>
<path d="M1321 544 c0 -11 3 -14 6 -6 3 7 2 16 -1 19 -3 4 -6 -2 -5 -13z"/>
<path d="M1350 550 c-11 -7 -3 -10 28 -10 26 0 41 4 37 10 -8 13 -45 13 -65 0z"/>
<path d="M1480 550 c-40 -5 -36 -7 38 -11 45 -2 82 -1 82 4 0 4 -11 7 -24 7
-13 0 -30 2 -38 3 -7 2 -33 1 -58 -3z"/>
<path d="M1658 553 c7 -3 16 -2 19 1 4 3 -2 6 -13 5 -11 0 -14 -3 -6 -6z"/>
<path d="M1703 553 c9 -2 23 -2 30 0 6 3 -1 5 -18 5 -16 0 -22 -2 -12 -5z"/>
<path d="M2000 556 c0 -2 18 -6 40 -8 22 -2 40 0 40 4 0 5 -18 8 -40 8 -22 0
-40 -2 -40 -4z"/>
<path d="M228 543 c7 -3 16 -2 19 1 4 3 -2 6 -13 5 -11 0 -14 -3 -6 -6z"/>
<path d="M443 525 c-1 -16 3 -41 7 -55 7 -21 8 -22 10 -5 1 20 1 20 10 0 6
-14 8 -6 8 30 -1 28 -3 38 -5 23 -6 -38 -21 -35 -26 5 -4 32 -4 32 -4 2z"/>
<path d="M840 544 c0 -2 9 -8 20 -14 11 -6 20 -7 20 -2 0 6 -9 12 -20 15 -11
3 -20 3 -20 1z"/>
<path d="M2370 540 c-12 -8 -11 -10 8 -10 12 0 22 -5 22 -12 0 -6 2 -9 5 -6 7
6 -5 38 -14 38 -3 0 -13 -5 -21 -10z"/>
<path d="M2450 540 c-12 -8 -12 -10 5 -9 11 0 29 4 40 9 18 8 18 9 -5 9 -14 0
-32 -4 -40 -9z"/>
<path d="M2565 541 c-3 -5 -1 -12 5 -16 5 -3 10 1 10 9 0 18 -6 21 -15 7z"/>
<path d="M780 529 c0 -5 5 -7 10 -4 6 3 10 8 10 11 0 2 -4 4 -10 4 -5 0 -10
-5 -10 -11z"/>
<path d="M2100 528 c0 -11 28 -10 35 1 3 6 -4 9 -15 8 -11 -1 -20 -5 -20 -9z"/>
<path d="M2328 533 c7 -3 16 -2 19 1 4 3 -2 6 -13 5 -11 0 -14 -3 -6 -6z"/>
<path d="M196 515 c6 -13 9 -14 15 -3 7 11 11 10 20 -2 9 -13 10 -13 6 0 -2 8
-13 16 -25 18 -17 3 -20 0 -16 -13z"/>
<path d="M820 520 c0 -5 5 -10 11 -10 5 0 7 5 4 10 -3 6 -8 10 -11 10 -2 0 -4
-4 -4 -10z"/>
<path d="M908 523 c7 -3 16 -2 19 1 4 3 -2 6 -13 5 -11 0 -14 -3 -6 -6z"/>
<path d="M1260 514 c0 -9 5 -14 12 -12 18 6 21 28 4 28 -9 0 -16 -7 -16 -16z"/>
<path d="M1300 521 c0 -14 38 -34 53 -27 7 2 5 5 -5 5 -9 1 -24 8 -32 17 -9 8
-16 11 -16 5z"/>
<path d="M1350 519 c0 -7 29 -12 129 -25 29 -4 39 -9 30 -15 -7 -4 -10 -12 -5
-16 5 -4 11 -2 13 5 3 6 10 12 16 12 15 0 17 -152 2 -162 -6 -5 -5 -8 3 -8 8
0 12 -16 12 -45 0 -25 4 -45 8 -45 9 0 7 95 -4 182 -4 38 -3 62 5 71 9 12 4
16 -26 21 -21 3 -50 6 -65 6 -16 0 -28 4 -28 9 0 5 -20 11 -45 13 -25 2 -45 0
-45 -3z"/>
<path d="M1898 523 c7 -3 16 -2 19 1 4 3 -2 6 -13 5 -11 0 -14 -3 -6 -6z"/>
<path d="M2480 515 c-7 -9 -11 -17 -9 -20 3 -2 10 5 17 15 14 24 10 26 -8 5z"/>
<path d="M590 510 c-8 -5 -11 -13 -6 -17 5 -4 11 -2 13 5 5 14 33 17 33 3 0
-5 -6 -12 -12 -14 -8 -4 -7 -6 3 -6 13 -1 29 17 29 33 0 6 -48 4 -60 -4z"/>
<path d="M1836 511 c-3 -4 6 -6 19 -3 14 2 25 6 25 8 0 8 -39 4 -44 -5z"/>
<path d="M2745 510 c3 -5 10 -10 16 -10 5 0 9 5 9 10 0 6 -7 10 -16 10 -8 0
-12 -4 -9 -10z"/>
<path d="M2987 505 c-4 -8 -2 -17 3 -20 6 -4 10 3 10 14 0 25 -6 27 -13 6z"/>
<path d="M790 501 c0 -20 13 -41 25 -41 7 0 18 -7 25 -15 16 -19 31 -20 24 -1
-3 8 1 18 8 22 17 11 69 14 63 4 -3 -4 1 -7 8 -7 23 1 77 -28 73 -39 -3 -7 2
-10 12 -7 9 2 26 -3 37 -12 20 -15 20 -15 0 -9 -20 7 -20 7 0 -9 16 -13 17
-18 7 -25 -9 -6 -22 -2 -38 13 -26 24 -135 85 -153 85 -27 0 -6 -17 55 -44 68
-31 97 -61 73 -78 -9 -5 -4 -7 16 -4 17 2 38 5 48 5 12 1 18 10 19 34 1 17 5
-8 8 -58 l6 -90 2 78 c1 43 5 76 10 74 4 -3 8 16 8 41 1 30 0 35 -3 15 -2 -18
-6 -33 -9 -33 -10 0 -170 84 -175 93 -4 5 -19 6 -35 3 -73 -15 -103 -15 -97 0
3 7 0 14 -6 14 -6 0 -11 -4 -11 -9z m55 -31 c3 -5 2 -10 -4 -10 -5 0 -13 5
-16 10 -3 6 -2 10 4 10 5 0 13 -4 16 -10z"/>
<path d="M1110 496 c0 -8 4 -17 9 -20 5 -4 7 3 4 14 -6 23 -13 26 -13 6z"/>
<path d="M2160 500 c0 -5 4 -10 9 -10 6 0 13 5 16 10 3 6 -1 10 -9 10 -9 0
-16 -4 -16 -10z"/>
<path d="M2220 500 c-13 -8 -12 -10 3 -10 9 0 17 5 17 10 0 12 -1 12 -20 0z"/>
<path d="M2791 494 c12 -15 10 -16 -20 -9 -29 6 -32 5 -21 -7 13 -13 49 -19
51 -8 0 3 2 13 4 23 2 10 -3 17 -12 17 -13 0 -13 -2 -2 -16z"/>
<path d="M346 482 c-4 -13 -5 -26 -2 -29 10 -11 18 4 14 29 l-4 23 -8 -23z"/>
<path d="M1272 492 c-10 -3 -10 -7 -1 -19 10 -12 10 -16 -2 -24 -10 -6 -10 -9
-1 -9 6 0 12 -10 12 -23 0 -14 6 -24 15 -24 11 0 15 12 14 46 -1 37 -2 41 -9
21 -7 -25 -7 -25 -11 6 -3 20 -9 29 -17 26z"/>
<path d="M2340 488 c0 -4 19 -8 42 -8 23 0 38 3 35 6 -10 10 -77 12 -77 2z"/>
<path d="M2435 490 c-3 -5 -1 -10 4 -10 6 0 11 5 11 10 0 6 -2 10 -4 10 -3 0
-8 -4 -11 -10z"/>
<path d="M2503 493 c9 -2 25 -2 35 0 9 3 1 5 -18 5 -19 0 -27 -2 -17 -5z"/>
<path d="M2630 490 c0 -6 7 -10 15 -10 8 0 15 2 15 4 0 2 -7 6 -15 10 -8 3
-15 1 -15 -4z"/>
<path d="M2706 491 c-3 -5 1 -11 9 -14 9 -4 12 -1 8 9 -6 16 -10 17 -17 5z"/>
<path d="M2840 490 c8 -5 22 -10 30 -10 13 0 13 1 0 10 -8 5 -22 10 -30 10
-13 0 -13 -1 0 -10z"/>
<path d="M10 479 c0 -11 27 -12 34 -1 2 4 -4 9 -15 9 -10 1 -19 -2 -19 -8z"/>
<path d="M660 469 c7 -11 14 -18 17 -15 8 8 -5 36 -17 36 -7 0 -7 -6 0 -21z"/>
<path d="M1898 483 c7 -3 16 -2 19 1 4 3 -2 6 -13 5 -11 0 -14 -3 -6 -6z"/>
<path d="M400 455 c0 -18 -5 -25 -20 -25 -11 0 -20 -4 -20 -9 0 -4 11 -6 25
-3 20 3 25 10 25 33 0 16 -2 29 -5 29 -3 0 -5 -11 -5 -25z"/>
<path d="M496 465 c-3 -9 0 -15 10 -15 8 0 13 4 10 9 -4 5 0 12 6 14 8 4 7 6
-3 6 -9 1 -19 -6 -23 -14z"/>
<path d="M1018 473 c6 -2 18 -2 25 0 6 3 1 5 -13 5 -14 0 -19 -2 -12 -5z"/>
<path d="M1058 467 c-14 -11 -12 -13 18 -13 36 0 45 10 18 20 -19 7 -16 8 -36
-7z"/>
<path d="M1330 465 c0 -9 6 -12 15 -9 8 4 12 10 9 15 -8 14 -24 10 -24 -6z"/>
<path d="M1435 470 c3 -5 8 -10 11 -10 2 0 4 5 4 10 0 6 -5 10 -11 10 -5 0 -7
-4 -4 -10z"/>
<path d="M1630 470 c0 -5 5 -10 10 -10 6 0 10 5 10 10 0 6 -4 10 -10 10 -5 0
-10 -4 -10 -10z"/>
<path d="M1665 470 c3 -5 13 -10 21 -10 8 0 14 5 14 10 0 6 -9 10 -21 10 -11
0 -17 -4 -14 -10z"/>
<path d="M1714 469 c-5 -8 146 -1 155 8 3 2 -30 3 -72 2 -43 -1 -80 -5 -83
-10z"/>
<path d="M694 445 c-4 -14 -4 -29 0 -32 3 -3 1 -12 -5 -20 -9 -9 -8 -13 0 -13
6 0 11 5 11 10 0 6 5 10 11 10 6 0 8 -9 4 -22 -5 -15 -4 -20 3 -13 13 14 24
75 12 75 -4 0 -11 -6 -13 -12 -2 -7 -3 -1 -1 15 4 34 -13 36 -22 2z"/>
<path d="M1576 447 c-4 -19 -2 -35 6 -45 7 -9 8 -13 2 -9 -7 4 -10 -10 -9 -46
2 -32 7 -51 14 -49 6 1 11 -2 11 -8 0 -5 -4 -10 -8 -10 -15 0 -6 -45 9 -48 11
-2 14 10 14 47 0 35 -3 47 -11 40 -8 -6 -10 6 -7 44 2 28 -1 66 -5 82 l-9 30
-7 -28z"/>
<path d="M1377 449 c-9 -18 -3 -122 8 -139 12 -20 24 0 15 25 -13 34 17 50 43
23 9 -10 12 -18 6 -18 -6 0 -8 -7 -5 -16 3 -8 2 -13 -3 -10 -5 3 -12 -1 -15
-10 -9 -24 -8 -26 14 -14 15 8 20 8 20 -1 0 -6 -9 -13 -20 -16 -23 -6 -27 -33
-5 -33 8 0 15 -8 14 -17 0 -11 -3 -13 -6 -5 -7 17 -23 15 -23 -3 0 -8 8 -15
18 -16 14 0 14 -2 -3 -9 -13 -6 -15 -9 -5 -9 12 -1 12 -3 2 -10 -8 -4 -12 -17
-10 -27 2 -15 -2 -18 -19 -16 -13 2 -23 -2 -23 -7 0 -6 5 -11 10 -11 12 0 9
-22 -5 -33 -6 -4 -4 -11 5 -18 12 -8 12 -10 -5 -7 -17 3 -20 10 -18 46 0 23
-3 40 -8 36 -10 -6 -12 26 -3 50 10 26 24 18 24 -14 0 -16 5 -30 11 -30 7 0 9
14 5 38 -3 20 -5 38 -6 40 0 1 -8 -2 -19 -7 -17 -10 -18 -7 -13 34 3 27 1 45
-5 45 -17 0 -16 -183 1 -224 8 -20 20 -35 27 -34 6 2 14 -4 16 -12 4 -13 3
-13 -6 0 -9 13 -11 12 -11 -3 0 -26 24 -16 28 12 3 17 9 21 30 19 15 -2 30 -7
33 -11 4 -5 22 -9 42 -10 19 0 34 -6 33 -11 -2 -6 -1 -8 1 -4 3 5 14 3 26 -3
13 -6 7 3 -13 20 -39 34 -60 41 -39 13 11 -14 11 -15 0 -5 -7 6 -21 9 -30 6
-12 -4 -11 -2 3 9 15 12 16 17 6 23 -9 5 -11 4 -6 -3 4 -7 2 -12 -3 -12 -6 0
-11 7 -11 16 0 8 -4 12 -10 9 -5 -3 -10 -1 -10 4 0 6 -7 11 -15 11 -8 0 -15 5
-15 10 0 21 31 8 106 -47 96 -68 123 -75 126 -30 0 18 1 40 0 49 -1 10 3 18 8
18 6 0 10 7 10 15 0 8 -3 14 -7 13 -5 -2 -8 2 -8 7 0 6 3 9 8 7 4 -1 7 7 7 18
0 11 -4 20 -9 20 -19 0 -29 -28 -29 -85 0 -84 -1 -87 -13 -80 -6 4 -8 13 -5
20 3 8 0 16 -7 19 -9 3 -9 5 1 5 8 1 12 17 12 49 -1 61 -19 34 -22 -32 -2 -44
-3 -45 -23 -32 -11 8 -19 21 -19 29 1 10 -5 14 -17 12 -16 -3 -19 3 -20 38 -1
23 -3 35 -6 25 -5 -18 -33 -33 -33 -18 0 5 -8 7 -17 4 -11 -3 -9 0 4 8 16 10
20 17 13 28 -8 13 -10 12 -10 -2 0 -10 -4 -18 -8 -18 -5 0 -7 57 -6 127 2 106
1 125 -10 111 -16 -22 -26 -13 -26 23 0 15 -5 31 -11 35 -7 4 -10 -5 -7 -27 2
-19 -2 -34 -9 -36 -8 -3 -13 11 -15 39 -3 29 -6 38 -11 27z m71 -314 c-3 -3
-9 2 -12 12 -6 14 -5 15 5 6 7 -7 10 -15 7 -18z m26 -74 c3 -5 -5 -7 -17 -6
-12 1 -28 3 -34 4 -7 0 -13 13 -13 27 l0 25 30 -21 c16 -11 32 -25 34 -29z"/>
<path d="M1420 76 c0 -2 7 -7 16 -10 8 -3 12 -2 9 4 -6 10 -25 14 -25 6z"/>
<path d="M2160 452 c0 -6 -8 -13 -17 -15 -16 -4 -16 -5 -1 -6 18 -1 34 16 24
26 -3 4 -6 1 -6 -5z"/>
<path d="M230 440 c-12 -8 -10 -10 8 -10 13 0 20 4 17 10 -7 12 -6 12 -25 0z"/>
<path d="M800 441 c0 -10 39 -36 45 -29 2 2 -8 11 -21 21 -13 10 -24 13 -24 8z"/>
<path d="M1075 440 c3 -5 11 -10 16 -10 6 0 7 5 4 10 -3 6 -11 10 -16 10 -6 0
-7 -4 -4 -10z"/>
<path d="M1142 430 c0 -14 2 -19 5 -12 2 6 2 18 0 25 -3 6 -5 1 -5 -13z"/>
<path d="M1347 443 c-4 -3 -7 -11 -7 -17 0 -6 5 -5 12 2 6 6 9 14 7 17 -3 3
-9 2 -12 -2z"/>
<path d="M328 433 c7 -3 16 -2 19 1 4 3 -2 6 -13 5 -11 0 -14 -3 -6 -6z"/>
<path d="M425 430 c-3 -5 -1 -10 4 -10 6 0 11 5 11 10 0 6 -2 10 -4 10 -3 0
-8 -4 -11 -10z"/>
<path d="M470 431 c0 -6 10 -8 21 -6 33 6 36 15 6 15 -15 0 -27 -4 -27 -9z"/>
<path d="M1631 424 c0 -11 3 -14 6 -6 3 7 2 16 -1 19 -3 4 -6 -2 -5 -13z"/>
<path d="M1648 415 c-4 -16 -2 -36 4 -42 7 -9 7 -13 -2 -13 -8 0 -11 -9 -8
-25 3 -13 1 -22 -3 -19 -5 2 -8 -16 -7 -41 1 -51 9 -57 26 -17 l12 27 -3 -26
c-3 -18 1 -25 14 -26 14 -1 15 4 8 35 -11 49 -10 47 -18 45 -4 -1 -5 13 -3 31
2 17 0 47 -5 66 l-9 35 -6 -30z m6 -130 c-4 -8 -8 -15 -10 -15 -2 0 -4 7 -4
15 0 8 4 15 10 15 5 0 7 -7 4 -15z"/>
<path d="M2088 433 c7 -3 16 -2 19 1 4 3 -2 6 -13 5 -11 0 -14 -3 -6 -6z"/>
<path d="M2400 430 c0 -5 9 -10 21 -10 11 0 17 5 14 10 -3 6 -13 10 -21 10 -8
0 -14 -4 -14 -10z"/>
<path d="M2712 420 c0 -14 2 -19 5 -12 2 6 2 18 0 25 -3 6 -5 1 -5 -13z"/>
<path d="M40 415 c0 -8 2 -15 4 -15 2 0 6 7 10 15 3 8 1 15 -4 15 -6 0 -10 -7
-10 -15z"/>
<path d="M80 420 c0 -5 5 -10 10 -10 6 0 10 5 10 10 0 6 -4 10 -10 10 -5 0
-10 -4 -10 -10z"/>
<path d="M875 419 c-4 -6 -5 -12 -2 -15 2 -3 7 2 10 11 7 17 1 20 -8 4z"/>
<path d="M317 414 c-9 -10 4 -34 19 -34 21 0 17 20 -3 21 -15 0 -15 2 2 9 15
6 16 9 4 9 -9 1 -18 -2 -22 -5z"/>
<path d="M1172 404 c-7 -8 -18 -12 -23 -8 -6 3 -10 0 -8 -7 1 -8 0 -27 -1 -44
-2 -29 -2 -30 -9 -5 -5 16 -8 -5 -9 -60 -1 -47 2 -90 6 -97 4 -7 6 20 4 59 -3
47 -1 69 6 64 6 -3 12 0 15 6 2 7 6 -2 9 -19 5 -34 -7 -46 -15 -15 -4 13 -2
-47 2 -91 1 -5 6 -5 11 -2 6 3 10 1 10 -5 0 -6 -7 -13 -16 -17 -8 -3 -13 -12
-10 -19 3 -7 -2 -20 -10 -28 -8 -9 -14 -18 -14 -21 1 -3 -1 -11 -3 -18 -3 -6
-6 4 -7 23 -1 33 -2 34 -13 12 -8 -18 -8 -28 1 -43 7 -11 10 -32 7 -47 -4 -24
-3 -23 12 8 15 32 17 33 21 12 2 -12 9 -22 17 -22 10 0 11 7 6 27 -5 16 -13
27 -19 26 -15 -4 -3 29 15 44 8 6 12 16 9 21 -3 5 3 12 14 15 22 6 27 41 10
67 -9 13 -11 13 -19 0 -6 -8 -13 -12 -16 -8 -3 3 1 13 11 22 13 14 19 14 32 4
13 -11 14 -10 4 9 -7 12 -9 29 -6 37 3 9 1 16 -5 16 -6 0 -11 9 -11 20 0 11
-5 20 -11 20 -14 0 -7 42 8 48 7 2 18 -9 25 -25 16 -39 15 -34 17 -128 1 -77
3 -85 21 -85 18 0 19 7 19 91 0 59 4 96 12 103 9 8 10 7 4 -4 -6 -11 -5 -12 4
-4 6 6 9 18 5 27 -4 13 -9 14 -19 4 -7 -7 -11 -16 -8 -20 3 -5 -3 -7 -13 -5
-22 3 -57 54 -49 69 10 15 -9 10 -23 -7z m75 -124 c-6 -70 -17 -75 -17 -7 0
33 4 57 11 57 6 0 8 -19 6 -50z m3 -85 c0 -8 -4 -15 -10 -15 -5 0 -10 7 -10
15 0 8 5 15 10 15 6 0 10 -7 10 -15z"/>
<path d="M1683 405 c0 -8 4 -12 9 -9 4 3 8 9 8 15 0 5 -4 9 -8 9 -5 0 -9 -7
-9 -15z"/>
<path d="M1710 411 c0 -8 121 -3 129 5 2 2 -26 3 -62 3 -37 -1 -67 -4 -67 -8z"/>
<path d="M236 402 c-3 -2 -20 -8 -38 -12 l-33 -8 38 -1 c23 -1 37 4 38 12 1 6
4 1 8 -13 l7 -25 5 26 c5 23 -11 36 -25 21z"/>
<path d="M432 390 c0 -14 2 -19 5 -12 2 6 2 18 0 25 -3 6 -5 1 -5 -13z"/>
<path d="M453 350 c0 -36 2 -50 4 -32 2 17 2 47 0 65 -2 17 -4 3 -4 -33z"/>
<path d="M472 348 l2 -63 3 60 c3 41 7 55 13 45 8 -13 10 -12 10 3 0 9 -7 17
-15 17 -12 0 -15 -13 -13 -62z"/>
<path d="M650 396 c7 -7 13 -7 20 0 6 6 3 10 -10 10 -13 0 -16 -4 -10 -10z"/>
<path d="M1246 401 c-4 -5 -2 -12 3 -15 5 -4 12 -2 15 3 4 5 2 12 -3 15 -5 4
-12 2 -15 -3z"/>
<path d="M2188 403 c7 -3 16 -2 19 1 4 3 -2 6 -13 5 -11 0 -14 -3 -6 -6z"/>
<path d="M60 390 c0 -5 5 -10 10 -10 6 0 10 5 10 10 0 6 -4 10 -10 10 -5 0
-10 -4 -10 -10z"/>
<path d="M360 383 c0 -15 2 -16 10 -3 9 13 10 13 10 0 0 -13 1 -13 10 0 8 12
10 11 10 -7 0 -12 -6 -24 -12 -26 -10 -4 -9 -6 1 -6 11 -1 11 -4 0 -18 -13
-15 -12 -15 9 -2 12 8 18 15 13 17 -6 2 -7 12 0 28 12 34 13 34 -21 34 -22 0
-30 -5 -30 -17z"/>
<path d="M1332 375 c0 -16 2 -22 5 -12 2 9 2 23 0 30 -3 6 -5 -1 -5 -18z"/>
<path d="M1480 392 c0 -5 7 -17 15 -28 13 -16 16 -17 25 -4 7 11 5 18 -7 28
-19 14 -33 16 -33 4z"/>
<path d="M2138 393 c7 -3 16 -2 19 1 4 3 -2 6 -13 5 -11 0 -14 -3 -6 -6z"/>
<path d="M2350 390 c0 -13 11 -13 30 0 12 8 11 10 -7 10 -13 0 -23 -4 -23 -10z"/>
<path d="M2460 390 c0 -5 5 -10 10 -10 6 0 10 5 10 10 0 6 -4 10 -10 10 -5 0
-10 -4 -10 -10z"/>
<path d="M2618 393 c7 -3 16 -2 19 1 4 3 -2 6 -13 5 -11 0 -14 -3 -6 -6z"/>
<path d="M2935 391 c-20 -4 -26 -9 -17 -14 6 -5 12 -5 12 0 0 4 6 -3 13 -17 8
-16 22 -26 37 -27 l25 -1 -25 5 -25 6 25 8 25 7 -27 1 c-35 1 -37 21 -3 21 14
0 25 5 25 10 0 11 -19 11 -65 1z"/>
<path d="M7 383 c7 -2 19 -2 26 0 6 3 1 5 -13 5 -14 0 -19 -2 -13 -5z"/>
<path d="M610 375 c-10 -12 -10 -18 0 -30 7 -8 19 -15 26 -15 8 0 14 -4 14
-10 0 -5 7 -7 15 -4 8 4 15 1 15 -5 0 -6 -5 -11 -11 -11 -6 0 -8 -9 -4 -20 4
-14 0 -26 -12 -38 -11 -9 -13 -13 -6 -8 20 13 24 3 10 -27 -13 -28 -31 -38
-21 -12 4 8 1 15 -5 15 -6 0 -11 -15 -11 -32 0 -22 3 -29 9 -20 6 10 10 8 16
-10 7 -20 9 -19 12 15 4 32 6 35 19 23 8 -8 14 -22 14 -31 0 -13 6 -16 25 -11
15 4 25 2 25 -4 0 -6 5 -8 10 -5 6 3 10 18 10 32 0 21 2 23 15 13 8 -7 12 -16
9 -21 -3 -5 -6 -30 -8 -55 l-3 -46 40 5 c45 6 87 -9 87 -31 0 -12 11 -14 65
-8 51 5 65 4 65 -7 0 -8 7 -14 15 -14 11 0 12 4 4 13 -7 8 -6 14 2 19 13 9 -7
25 -31 24 -10 0 -8 -3 5 -9 18 -8 17 -9 -7 -9 -16 -1 -28 4 -28 12 0 9 -3 8
-9 -2 -6 -8 -16 -11 -31 -6 -15 5 -20 4 -16 -4 4 -6 1 -11 -8 -11 -8 0 -18 9
-21 21 -8 24 3 39 14 20 7 -11 9 -11 13 0 4 12 8 11 23 -1 17 -14 18 -13 12 3
-5 14 -1 17 23 17 19 0 31 6 34 18 9 27 4 92 -7 99 -6 3 -7 1 -3 -6 4 -6 3
-18 -4 -25 -6 -8 -8 -25 -5 -39 8 -30 -2 -34 -72 -32 -29 1 -53 -2 -53 -6 0
-4 -20 -9 -44 -11 l-44 -3 4 49 c2 28 6 58 10 68 3 10 1 18 -4 18 -6 0 -12 -5
-14 -12 -3 -7 -11 -9 -24 -3 -10 4 -26 9 -34 9 -8 1 -17 12 -18 25 -3 16 0 21
8 16 8 -5 11 -3 8 5 -2 8 -10 16 -16 18 -8 2 -12 -11 -12 -42 0 -28 -5 -46
-11 -46 -9 0 -10 22 -6 75 6 70 5 75 -13 76 -41 3 -45 4 -45 19 0 16 37 15 43
-1 5 -12 32 -12 32 0 0 9 -9 13 -61 27 -9 2 -22 -2 -29 -11z m137 -196 c-1
-12 -7 -17 -15 -14 -7 3 -16 5 -18 5 -2 0 -4 9 -4 19 0 14 5 18 19 14 12 -3
19 -13 18 -24z m143 -109 c0 -5 -2 -10 -4 -10 -3 0 -8 5 -11 10 -3 6 -1 10 4
10 6 0 11 -4 11 -10z"/>
<path d="M964 383 c3 -4 2 -11 -4 -18 -6 -7 -6 -22 0 -41 l9 -29 -2 35 c-2 28
1 34 16 32 24 -4 21 15 -4 21 -12 3 -18 3 -15 0z"/>
<path d="M1709 358 c-2 -18 -1 -53 2 -78 5 -37 6 -32 7 33 2 79 -3 102 -9 45z"/>
<path d="M1731 374 c0 -11 3 -14 6 -6 3 7 2 16 -1 19 -3 4 -6 -2 -5 -13z"/>
<path d="M1900 380 c21 -7 18 -8 -19 -9 -24 -1 -42 -4 -38 -7 3 -3 40 -3 82 1
42 4 75 9 73 10 -2 1 -30 5 -63 8 -37 3 -51 2 -35 -3z"/>
<path d="M2840 383 c-19 -2 -143 -18 -275 -35 -132 -16 -258 -32 -280 -33 -22
-2 -40 -4 -40 -5 0 -3 -36 -8 -119 -19 -43 -6 -81 -13 -85 -17 -3 -3 5 -14 18
-25 13 -10 18 -19 12 -19 -17 0 -13 -27 5 -34 14 -5 15 -4 4 9 -10 12 -8 16
11 24 22 9 22 10 4 11 -20 1 -20 1 0 11 17 8 15 8 -7 4 -16 -3 -28 -2 -28 3 0
9 38 15 107 16 28 1 49 4 47 8 -2 4 10 6 28 6 18 0 51 4 73 10 68 19 367 53
410 48 32 -4 35 -4 15 4 -20 8 -14 9 28 6 31 -2 48 0 40 5 -8 5 6 7 34 6 29
-2 55 -10 68 -22 11 -10 20 -13 20 -7 0 7 -4 12 -9 12 -5 0 -13 9 -16 20 -3
11 -12 19 -18 18 -7 0 -28 -3 -47 -5z"/>
<path d="M91 371 c-7 -5 -12 -14 -10 -20 3 -6 9 -7 18 -2 7 5 12 14 10 20 -3
6 -9 7 -18 2z"/>
<path d="M1302 354 c-1 -14 2 -23 8 -19 6 3 10 1 10 -4 0 -6 -4 -11 -10 -11
-5 0 -10 -19 -10 -42 0 -32 3 -39 10 -28 7 11 10 4 10 -27 0 -28 -4 -43 -12
-43 -10 0 -9 -3 1 -9 11 -7 11 -9 0 -14 -10 -4 -10 -6 -1 -6 15 -1 16 -28 1
-33 -7 -2 -8 -14 -1 -38 6 -19 11 -28 12 -20 5 33 8 109 9 187 1 69 3 81 16
77 8 -4 15 -1 15 5 0 6 -3 10 -7 10 -23 -4 -33 3 -33 21 0 29 -15 24 -18 -6z"/>
<path d="M2098 373 c12 -2 32 -2 45 0 12 2 2 4 -23 4 -25 0 -35 -2 -22 -4z"/>
<path d="M2390 370 c-8 -5 -10 -10 -5 -10 6 0 17 5 25 10 8 5 11 10 5 10 -5 0
-17 -5 -25 -10z"/>
<path d="M1170 360 c0 -5 5 -10 10 -10 6 0 10 5 10 10 0 6 -4 10 -10 10 -5 0
-10 -4 -10 -10z"/>
<path d="M1610 360 c0 -5 5 -10 11 -10 5 0 7 5 4 10 -3 6 -8 10 -11 10 -2 0
-4 -4 -4 -10z"/>
<path d="M49 353 c-1 -5 -1 -11 0 -15 0 -5 -5 -8 -11 -8 -9 0 -8 -3 2 -9 8 -6
18 -7 22 -5 8 5 10 -20 10 -98 0 -34 3 -38 24 -38 17 0 24 6 24 20 0 13 -7 20
-20 20 -11 0 -20 5 -20 11 0 6 9 9 20 6 13 -3 20 0 20 10 0 9 -6 13 -14 10 -8
-3 -16 2 -19 14 -4 14 0 19 14 19 10 0 19 5 19 10 0 6 -7 10 -16 10 -20 0 -42
22 -36 38 2 6 -1 12 -7 12 -6 0 -12 -3 -12 -7z"/>
<path d="M234 344 c3 -19 26 -43 26 -26 0 7 -6 12 -12 12 -10 0 -10 2 0 9 11
7 11 9 -1 14 -9 3 -14 0 -13 -9z"/>
<path d="M510 346 c0 -8 -6 -17 -12 -19 -8 -4 -7 -6 4 -6 9 -1 18 -7 21 -13 2
-7 4 2 3 19 -1 31 -16 49 -16 19z"/>
<path d="M2328 353 c6 -2 18 -2 25 0 6 3 1 5 -13 5 -14 0 -19 -2 -12 -5z"/>
<path d="M333 339 c-29 -10 -30 -19 -3 -14 11 2 18 1 16 -4 -5 -8 11 -38 17
-31 2 3 1 17 -2 31 -5 23 -9 25 -28 18z"/>
<path d="M431 334 c0 -11 3 -14 6 -6 3 7 2 16 -1 19 -3 4 -6 -2 -5 -13z"/>
<path d="M754 341 c4 -5 0 -12 -6 -14 -7 -3 -2 -6 11 -6 20 -1 21 1 11 14 -14
16 -25 21 -16 6z"/>
<path d="M1410 339 c0 -5 5 -7 10 -4 6 3 10 8 10 11 0 2 -4 4 -10 4 -5 0 -10
-5 -10 -11z"/>
<path d="M1751 334 c0 -11 3 -14 6 -6 3 7 2 16 -1 19 -3 4 -6 -2 -5 -13z"/>
<path d="M1848 343 c6 -2 18 -2 25 0 6 3 1 5 -13 5 -14 0 -19 -2 -12 -5z"/>
<path d="M1963 343 c9 -2 23 -2 30 0 6 3 -1 5 -18 5 -16 0 -22 -2 -12 -5z"/>
<path d="M2098 343 c12 -2 32 -2 45 0 12 2 2 4 -23 4 -25 0 -35 -2 -22 -4z"/>
<path d="M2880 330 c14 -10 26 -17 29 -15 6 7 -27 35 -41 35 -7 0 -2 -9 12
-20z"/>
<path d="M1481 294 c-1 -30 2 -44 8 -39 13 7 15 85 3 85 -5 0 -9 -21 -11 -46z"/>
<path d="M1511 324 c0 -11 3 -14 6 -6 3 7 2 16 -1 19 -3 4 -6 -2 -5 -13z"/>
<path d="M2653 333 c9 -2 23 -2 30 0 6 3 -1 5 -18 5 -16 0 -22 -2 -12 -5z"/>
<path d="M2795 330 c-8 -13 18 -23 42 -17 11 3 7 5 -12 7 -30 2 -30 2 -5 10
23 7 23 8 3 9 -12 1 -25 -4 -28 -9z"/>
<path d="M4 317 c3 -10 6 -61 6 -113 0 -94 0 -94 25 -94 22 0 25 4 24 33 0 17
-3 26 -6 20 -7 -18 -33 -16 -33 2 0 8 9 15 20 15 13 0 20 7 20 20 0 11 -4 20
-10 20 -5 0 -10 -4 -10 -10 0 -5 -4 -10 -10 -10 -5 0 -10 7 -10 15 0 8 8 15
18 15 11 0 18 7 18 20 0 15 -5 18 -18 14 -12 -4 -18 0 -18 11 0 12 6 15 20 10
11 -4 20 -2 20 4 0 6 -7 11 -16 11 -9 0 -23 8 -31 18 -14 16 -14 16 -9 -1z
m43 -183 c-3 -3 -12 -4 -19 -1 -8 3 -5 6 6 6 11 1 17 -2 13 -5z"/>
<path d="M586 316 c21 -15 30 -14 19 3 -3 6 -14 11 -23 11 -13 0 -13 -2 4 -14z"/>
<path d="M713 317 c3 -9 1 -18 -6 -21 -7 -2 -4 -5 6 -5 19 -1 23 24 5 35 -7 5
-9 2 -5 -9z"/>
<path d="M1008 323 c-28 -4 -38 -26 -18 -38 6 -3 10 1 10 9 0 9 5 16 10 16 6
0 10 -12 10 -28 0 -19 -7 -30 -22 -37 -20 -9 -25 -6 -35 15 -13 25 -13 25 -7
1 5 -19 3 -23 -10 -18 -9 4 -16 4 -16 1 0 -10 46 -21 60 -14 9 5 23 3 34 -6
15 -10 19 -27 20 -78 1 -36 -3 -67 -8 -69 -6 -2 -2 -6 8 -10 16 -6 18 -1 15
55 -2 36 2 72 9 83 11 20 11 20 12 -2 0 -12 -6 -24 -12 -26 -7 -3 -8 -6 -3 -6
6 -1 9 -36 9 -88 -1 -49 0 -76 3 -60 2 15 9 25 14 22 5 -4 9 -1 9 4 0 6 -4 11
-10 11 -6 0 -7 42 -4 113 3 68 2 107 -3 99 -5 -7 -17 -10 -25 -7 -11 4 -18 0
-21 -12 -3 -10 -3 3 -1 30 3 26 3 46 2 46 -2 -1 -15 -4 -30 -6z m72 -83 c0 -5
-2 -10 -4 -10 -3 0 -8 5 -11 10 -3 6 -1 10 4 10 6 0 11 -4 11 -10z"/>
<path d="M1060 310 l-25 -20 28 0 c20 0 27 5 27 20 0 24 1 24 -30 0z"/>
<path d="M1840 320 c0 -5 7 -7 15 -4 8 4 15 8 15 10 0 2 -7 4 -15 4 -8 0 -15
-4 -15 -10z"/>
<path d="M2535 322 c-30 -5 -30 -5 -5 -12 14 -4 24 -12 23 -18 -2 -7 2 -12 8
-12 6 0 9 9 6 20 -3 12 0 20 8 20 8 0 11 -8 8 -20 -4 -15 0 -20 13 -20 14 0
16 2 6 9 -10 6 -9 10 7 14 13 3 21 0 21 -7 0 -9 11 -11 33 -7 l32 5 -30 8
c-21 5 -12 6 28 3 35 -2 57 0 57 7 0 6 8 7 18 3 14 -5 15 -4 5 6 -10 10 -16
10 -25 1 -13 -13 -32 -16 -24 -4 3 5 -17 5 -45 2 -27 -4 -49 -3 -49 2 0 8 -44
8 -95 0z"/>
<path d="M2944 288 c3 -42 1 -48 -16 -48 -10 0 -16 -4 -13 -10 9 -15 -4 -12
-20 4 -8 7 -33 17 -57 21 l-43 9 34 4 c19 2 45 -2 58 -9 28 -15 35 -9 40 33 3
25 1 30 -9 20 -7 -7 -26 -12 -42 -13 l-31 -1 33 -9 c17 -5 32 -14 32 -20 0 -6
-8 -5 -22 2 -13 7 -41 9 -75 5 -36 -4 -52 -3 -48 4 3 5 1 10 -4 10 -6 0 -11
-3 -11 -8 0 -4 -27 -8 -60 -8 -34 0 -66 -6 -72 -12 -6 -6 -16 -8 -23 -5 -10 3
-12 -2 -8 -16 4 -14 1 -21 -9 -21 -11 0 -14 8 -12 28 2 15 1 21 -2 15 -3 -7
-20 -13 -37 -14 l-32 -1 33 -14 c17 -8 32 -18 32 -22 0 -4 9 -8 20 -8 11 0 20
6 20 13 0 8 21 23 46 33 51 22 74 25 74 10 0 -6 12 -9 28 -8 15 1 41 1 57 -1
26 -2 28 -3 10 -11 -15 -7 -10 -9 23 -9 23 -1 42 -5 42 -11 0 -5 18 -10 40
-10 29 0 38 4 34 14 -4 9 2 13 18 11 13 -1 15 0 6 2 -20 5 -34 41 -21 53 4 4
17 10 28 13 16 4 14 5 -7 6 -14 0 -29 7 -32 14 -3 6 -4 -9 -2 -35z"/>
<path d="M411 304 c0 -11 3 -14 6 -6 3 7 2 16 -1 19 -3 4 -6 -2 -5 -13z"/>
<path d="M794 294 c-1 -16 3 -20 17 -17 11 3 19 0 19 -6 0 -6 7 -11 15 -11 24
0 17 13 -18 35 l-32 21 -1 -22z"/>
<path d="M915 310 c4 -6 11 -8 16 -5 14 9 11 15 -7 15 -8 0 -12 -5 -9 -10z"/>
<path d="M2008 295 c3 -18 0 -25 -9 -23 -8 2 -13 -3 -11 -10 2 -11 -12 -12
-73 -7 -64 6 -76 5 -81 -9 -5 -12 -18 -15 -58 -13 -51 2 -51 2 -48 -27 5 -36
19 -51 52 -53 18 -2 21 0 10 7 -8 5 -18 6 -24 3 -5 -4 -6 -1 -2 6 5 7 15 10
23 7 8 -3 12 -2 9 3 -3 5 0 11 7 14 9 3 13 -4 13 -24 0 -24 -4 -29 -23 -29
-14 0 -22 -4 -18 -10 4 -7 -2 -9 -19 -4 -16 4 -26 2 -26 -5 0 -6 9 -11 20 -11
11 0 23 -7 27 -16 3 -8 12 -13 19 -10 8 3 14 1 14 -4 0 -6 -7 -10 -15 -10 -18
0 -18 0 0 -41 11 -26 14 -29 15 -13 0 12 3 36 6 53 5 24 3 31 -10 31 -9 0 -16
7 -16 15 0 8 5 15 10 15 6 0 10 -5 10 -12 0 -28 13 6 17 43 3 27 0 45 -9 51
-9 7 -8 8 5 4 10 -3 16 -2 13 3 -4 5 4 7 16 3 20 -5 21 -6 3 -12 -18 -6 -17
-7 3 -12 12 -4 25 -2 28 4 4 6 24 8 48 4 29 -4 37 -3 26 4 -8 5 -31 10 -50 11
-20 1 -27 3 -16 6 11 3 47 -1 80 -8 56 -12 58 -14 31 -20 -16 -4 -47 -7 -67
-8 -20 0 -40 -6 -44 -12 -5 -8 0 -10 17 -6 13 3 45 9 72 12 38 6 47 4 47 -7 0
-11 -12 -15 -45 -13 -25 0 -51 -3 -58 -8 -7 -5 6 -6 35 -3 52 6 62 -1 52 -39
-5 -19 -10 -23 -17 -16 -13 13 -27 14 -27 2 0 -5 9 -13 21 -16 17 -6 20 -13
17 -46 -2 -21 -1 -39 3 -39 9 0 16 44 25 143 5 61 4 77 -7 78 -8 1 -18 2 -24
4 -5 1 -19 3 -30 4 -17 1 -15 4 10 17 27 14 31 14 41 0 18 -26 24 -18 8 12
-19 36 -18 53 3 45 11 -4 14 -3 9 5 -4 7 -15 12 -25 12 -14 0 -17 -6 -13 -25z
m-98 -49 c0 -2 -16 -6 -35 -8 -19 -2 -35 0 -35 4 0 4 16 8 35 8 19 0 35 -2 35
-4z m-110 -34 c0 -8 -34 -31 -47 -32 -7 0 -13 9 -13 19 0 11 6 21 13 24 14 4
47 -3 47 -11z"/>
<path d="M2070 310 c-18 -12 -2 -12 25 0 13 6 15 9 5 9 -8 0 -22 -4 -30 -9z"/>
<path d="M752 290 c-7 -11 -8 -20 -3 -20 9 0 24 30 18 36 -1 2 -8 -6 -15 -16z"/>
<path d="M1755 293 c-18 -14 -18 -15 -2 -9 10 3 25 6 33 6 8 0 14 5 14 10 0
15 -22 12 -45 -7z"/>
<path d="M2448 303 c6 -2 18 -2 25 0 6 3 1 5 -13 5 -14 0 -19 -2 -12 -5z"/>
<path d="M1273 285 c-3 -9 -3 -18 -1 -21 3 -3 8 4 11 16 6 23 -1 27 -10 5z"/>
<path d="M1883 293 c9 -2 23 -2 30 0 6 3 -1 5 -18 5 -16 0 -22 -2 -12 -5z"/>
<path d="M2375 292 c22 -3 26 -6 13 -11 -10 -3 22 -6 70 -7 98 0 76 10 -38 18
-41 3 -61 3 -45 0z"/>
<path d="M2518 293 c7 -3 16 -2 19 1 4 3 -2 6 -13 5 -11 0 -14 -3 -6 -6z"/>
<path d="M190 261 c0 -19 3 -22 11 -14 6 6 18 9 25 6 9 -3 14 2 14 15 0 15 -6
20 -25 18 -19 -1 -25 -6 -25 -25z"/>
<path d="M490 260 c0 -22 5 -30 18 -30 14 0 15 2 2 10 -13 8 -12 10 3 10 11 0
17 -8 17 -24 0 -19 -4 -23 -20 -19 -16 4 -20 0 -22 -23 -1 -18 -4 -10 -8 21
l-7 50 -1 -52 c-1 -29 -5 -53 -9 -53 -5 0 -8 21 -7 47 1 41 0 42 -3 9 -5 -48
-45 -86 -56 -54 -2 7 -3 5 -1 -6 1 -10 -8 -28 -22 -41 -21 -19 -22 -24 -9 -29
11 -4 14 -13 10 -25 -3 -10 -2 -26 1 -36 7 -17 8 -17 21 1 15 21 18 58 3 49
-16 -10 -12 11 5 25 11 9 19 10 26 3 8 -8 7 -13 0 -17 -6 -4 -11 -12 -11 -18
0 -17 40 23 40 41 1 10 7 5 16 -12 15 -27 12 -47 -6 -47 -5 0 -6 8 -3 17 6 14
3 14 -20 -3 -14 -10 -27 -23 -27 -29 0 -5 5 -4 12 3 7 7 17 12 22 12 6 0 2 -7
-8 -15 -10 -8 -23 -12 -27 -9 -5 3 -9 0 -9 -5 0 -19 30 -12 58 14 l27 25 13
-25 c16 -31 20 -31 18 -1 0 13 -4 22 -7 20 -8 -5 -40 66 -34 76 3 4 -1 10 -7
13 -7 2 -10 8 -6 12 11 12 78 -46 93 -82 13 -31 35 -45 35 -23 0 6 -4 10 -9
10 -5 0 -12 7 -15 16 -5 13 -3 14 6 6 10 -8 13 3 14 51 1 34 -1 54 -3 45 -3
-10 -8 -18 -12 -18 -5 0 -6 -11 -3 -25 2 -15 0 -25 -7 -25 -6 0 -11 10 -11 23
0 18 -2 19 -10 7 -8 -13 -10 -12 -11 5 -1 11 -1 23 0 28 0 4 -4 7 -10 7 -6 0
-8 -7 -5 -16 5 -12 2 -15 -10 -10 -8 3 -17 6 -18 6 -2 0 -1 11 2 25 5 28 12
31 30 13 9 -9 12 -6 12 14 0 15 3 33 6 42 5 12 0 16 -21 16 -15 0 -24 4 -20
10 4 6 15 8 26 5 11 -4 19 -2 19 4 0 6 -13 11 -30 11 -27 0 -30 -3 -30 -30z
m-36 -154 c-3 -9 -10 -13 -15 -10 -5 3 -6 10 -3 16 8 13 -12 2 -38 -20 -10 -9
-18 -10 -18 -4 0 6 15 22 32 36 26 20 34 22 40 11 5 -7 5 -20 2 -29z"/>
<path d="M1379 282 c7 -6 11 -15 7 -21 -5 -7 -1 -9 9 -5 21 8 14 28 -11 32
-15 2 -16 1 -5 -6z"/>
<path d="M1840 280 c0 -5 5 -10 10 -10 6 0 10 5 10 10 0 6 -4 10 -10 10 -5 0
-10 -4 -10 -10z"/>
<path d="M2303 283 c9 -2 15 -8 12 -13 -6 -10 103 -26 112 -16 4 3 -9 6 -28 6
-19 1 -45 7 -59 15 -14 8 -32 14 -40 13 -10 0 -10 -2 3 -5z"/>
<path d="M345 272 c-11 -4 -19 -14 -19 -22 1 -8 2 -39 3 -69 0 -30 4 -51 8
-47 4 4 6 27 4 51 -2 34 1 45 12 45 8 0 17 9 20 19 4 16 13 18 56 17 28 -1 51
1 51 6 0 9 -105 9 -135 0z m15 -22 c0 -5 -4 -10 -10 -10 -5 0 -10 5 -10 10 0
6 5 10 10 10 6 0 10 -4 10 -10z"/>
<path d="M620 270 c20 -13 43 -13 35 0 -3 6 -16 10 -28 10 -18 0 -19 -2 -7
-10z"/>
<path d="M1750 260 c-9 -6 -10 -10 -3 -10 6 0 15 5 18 10 8 12 4 12 -15 0z"/>
<path d="M2138 263 c12 -2 30 -2 40 0 9 3 -1 5 -23 4 -22 0 -30 -2 -17 -4z"/>
<path d="M2225 260 c-11 -5 -15 -9 -10 -10 6 0 1 -7 -9 -15 -17 -13 -17 -15
-4 -15 9 0 19 4 22 9 3 4 16 6 28 4 13 -2 34 0 48 6 21 8 18 9 -18 6 -35 -3
-43 -1 -38 11 3 8 4 14 3 13 -1 0 -11 -4 -22 -9z"/>
<path d="M2268 258 c9 -9 15 -9 24 0 9 9 7 12 -12 12 -19 0 -21 -3 -12 -12z"/>
<path d="M2448 263 c6 -2 18 -2 25 0 6 3 1 5 -13 5 -14 0 -19 -2 -12 -5z"/>
<path d="M2985 260 c-3 -5 -1 -10 4 -10 6 0 11 5 11 10 0 6 -2 10 -4 10 -3 0
-8 -4 -11 -10z"/>
<path d="M590 252 c0 -5 7 -15 15 -22 8 -7 15 -9 15 -6 0 4 -7 14 -15 22 -8 9
-15 11 -15 6z"/>
<path d="M751 247 c-9 -12 -7 -16 9 -20 21 -5 25 0 11 21 -6 10 -10 10 -20 -1z"/>
<path d="M870 245 c-7 -9 -10 -18 -6 -22 3 -3 6 -1 6 6 0 7 5 9 10 6 6 -3 10
1 10 9 0 20 -4 20 -20 1z"/>
<path d="M394 236 c-3 -8 -4 -25 -1 -38 3 -17 5 -15 7 12 3 34 3 34 10 -10 l7
-45 2 45 c2 35 4 41 11 25 8 -19 9 -19 9 3 1 16 -5 22 -19 22 -11 0 -23 -6
-26 -14z"/>
<path d="M1502 225 c0 -16 2 -22 5 -12 2 9 2 23 0 30 -3 6 -5 -1 -5 -18z"/>
<path d="M2160 233 c0 -10 4 -14 8 -8 4 6 11 13 16 18 5 4 2 7 -7 7 -10 0 -17
-8 -17 -17z"/>
<path d="M225 230 c-3 -5 -12 -7 -20 -4 -9 4 -12 0 -9 -13 8 -29 42 -27 42 3
0 26 -3 29 -13 14z"/>
<path d="M1524 225 c7 -20 -4 -46 -17 -38 -6 3 -7 1 -3 -5 4 -7 14 -12 22 -12
8 0 12 5 9 10 -3 6 -2 10 4 10 5 0 12 -8 14 -17 4 -17 5 -17 6 0 1 11 9 17 24
17 17 0 19 -2 8 -9 -16 -10 -24 -108 -10 -116 10 -7 23 80 15 94 -4 5 -2 12 4
16 6 4 8 10 5 15 -3 4 15 10 40 12 30 2 44 -1 41 -8 -2 -6 0 -17 5 -25 6 -10
9 -4 9 19 0 29 -3 32 -24 28 -13 -2 -49 -7 -80 -11 -53 -7 -56 -6 -56 14 0 11
-5 21 -11 21 -6 0 -9 -7 -5 -15z"/>
<path d="M2710 220 c0 -16 -7 -20 -36 -20 -19 0 -33 4 -29 9 3 5 0 13 -6 17
-8 4 -9 3 -5 -4 4 -7 1 -12 -8 -12 -9 0 -16 -5 -16 -10 0 -7 22 -10 56 -8 48
3 58 6 65 26 6 16 5 22 -6 22 -8 0 -15 -9 -15 -20z"/>
<path d="M921 195 c1 -40 1 -40 11 -12 7 21 7 32 -1 40 -8 8 -11 0 -10 -28z"/>
<path d="M2263 212 c-51 -12 -63 -19 -63 -35 0 -17 -2 -18 -16 -6 -10 8 -12
15 -5 17 13 4 15 22 2 22 -5 0 -17 -7 -26 -16 -15 -15 -14 -17 9 -29 26 -14
70 -9 61 5 -3 5 9 12 27 15 18 4 35 11 38 15 3 4 23 10 45 11 38 4 40 3 40
-23 -1 -16 3 -28 8 -28 5 0 4 -7 -3 -15 -18 -21 -7 -19 20 5 21 18 22 20 4 21
-15 1 -13 3 6 9 16 5 19 8 8 9 -9 1 -19 4 -21 9 -6 9 50 8 60 -1 10 -10 23 -8
23 3 0 6 -8 10 -17 11 -17 0 -17 1 -1 7 35 14 -140 9 -199 -6z"/>
<path d="M2490 222 c0 -10 41 -24 49 -17 6 7 0 11 -26 19 -13 4 -23 3 -23 -2z"/>
<path d="M822 195 c0 -16 2 -22 5 -12 2 9 2 23 0 30 -3 6 -5 -1 -5 -18z"/>
<path d="M980 200 c0 -11 4 -20 8 -20 4 0 8 9 9 20 1 11 -2 20 -8 20 -5 0 -9
-9 -9 -20z"/>
<path d="M2103 213 c9 -2 25 -2 35 0 9 3 1 5 -18 5 -19 0 -27 -2 -17 -5z"/>
<path d="M851 194 c0 -11 3 -14 6 -6 3 7 2 16 -1 19 -3 4 -6 -2 -5 -13z"/>
<path d="M881 201 c-10 -6 -11 -14 -3 -26 9 -17 10 -16 17 4 8 27 4 33 -14 22z"/>
<path d="M950 189 c-7 -11 -9 -23 -6 -27 3 -3 6 0 6 7 0 7 5 9 10 6 6 -4 7
-11 4 -17 -5 -7 -2 -8 5 -3 9 5 9 11 3 17 -6 6 -8 17 -5 24 8 22 -5 16 -17 -7z"/>
<path d="M1101 194 c0 -11 3 -14 6 -6 3 7 2 16 -1 19 -3 4 -6 -2 -5 -13z"/>
<path d="M1849 188 c-3 -6 -7 -55 -10 -115 -3 -65 5 -88 21 -63 13 20 13 60 0
60 -18 0 -11 16 8 17 15 1 17 -5 14 -33 -3 -20 0 -34 7 -34 5 0 10 12 9 28 0
15 2 37 5 50 3 12 2 22 -4 22 -5 0 -9 -4 -9 -10 0 -5 -9 -10 -20 -10 -30 0
-24 20 10 33 17 6 30 15 30 19 0 4 -11 3 -24 -2 -18 -7 -26 -5 -30 6 -3 8 -1
14 4 14 6 0 10 5 10 10 0 9 -18 15 -21 8z m9 -153 c-3 -3 -9 2 -12 12 -6 14
-5 15 5 6 7 -7 10 -15 7 -18z"/>
<path d="M2063 154 c4 -21 7 -59 7 -83 0 -62 12 -48 19 23 1 4 7 6 15 3 22 -9
38 54 17 67 -5 4 -8 -5 -7 -18 2 -17 -3 -26 -15 -29 -15 -4 -16 -2 -7 13 9 13
6 22 -12 40 l-23 23 6 -39z"/>
<path d="M2300 186 c0 -2 7 -7 16 -10 8 -3 12 -2 9 4 -6 10 -25 14 -25 6z"/>
<path d="M2470 181 c-25 -7 -25 -7 -3 -13 12 -3 24 -1 26 5 3 9 12 8 33 -2 16
-8 49 -17 74 -20 37 -5 45 -10 50 -31 l6 -25 7 28 c4 15 5 32 2 37 -4 6 3 10
14 10 15 0 21 -6 20 -22 0 -22 -1 -22 -10 -3 -8 17 -9 17 -4 -5 2 -14 5 -29 6
-35 1 -17 18 29 18 53 1 19 -4 22 -40 22 -24 0 -38 -4 -34 -10 4 -6 -5 -10
-19 -10 -16 0 -26 6 -26 15 0 8 -7 15 -16 15 -8 0 -12 -4 -9 -10 4 -7 -3 -7
-20 0 -29 11 -39 11 -75 1z"/>
<path d="M196 143 c2 -21 3 -61 3 -90 1 -44 3 -50 19 -46 21 5 25 63 5 63 -7
0 -13 4 -13 10 0 5 7 7 15 4 11 -5 15 1 15 22 -1 28 -1 28 -15 10 -15 -19 -15
-19 -15 2 0 13 6 22 15 22 8 0 15 9 15 20 0 25 -17 26 -23 3 -4 -17 -5 -17 -6
0 0 9 -5 17 -9 17 -5 0 -8 -17 -6 -37z"/>
<path d="M350 164 c0 -8 5 -12 10 -9 6 3 10 10 10 16 0 5 -4 9 -10 9 -5 0 -10
-7 -10 -16z"/>
<path d="M70 158 c0 -5 10 -8 23 -9 21 -1 21 -1 -3 -8 -15 -4 -20 -10 -13 -14
17 -11 43 3 43 23 0 13 -7 17 -25 16 -14 0 -25 -4 -25 -8z"/>
<path d="M1101 154 c0 -11 3 -14 6 -6 3 7 2 16 -1 19 -3 4 -6 -2 -5 -13z"/>
<path d="M2325 160 c-16 -4 -50 -9 -75 -10 l-45 -2 53 -8 c61 -9 79 -19 36
-21 -17 -1 -22 -3 -11 -6 9 -2 15 -9 12 -14 -4 -5 -2 -9 3 -9 6 0 13 8 16 17
5 12 9 14 18 5 14 -14 28 -16 28 -4 0 4 -15 14 -32 22 l-33 15 33 3 c17 2 32
7 32 13 0 5 -1 8 -2 8 -2 -1 -16 -5 -33 -9z"/>
<path d="M1720 150 c0 -5 5 -10 10 -10 6 0 10 5 10 10 0 6 -4 10 -10 10 -5 0
-10 -4 -10 -10z"/>
<path d="M2728 153 c6 -2 18 -2 25 0 6 3 1 5 -13 5 -14 0 -19 -2 -12 -5z"/>
<path d="M2800 151 c0 -6 -19 -12 -42 -14 l-43 -4 41 -1 c27 -1 46 3 54 13 9
10 9 15 1 15 -6 0 -11 -4 -11 -9z"/>
<path d="M367 143 c-4 -3 -7 -11 -7 -17 0 -6 5 -5 12 2 6 6 9 14 7 17 -3 3 -9
2 -12 -2z"/>
<path d="M1996 137 c3 -10 -3 -13 -24 -12 -15 1 -33 4 -39 8 -6 4 -11 -17 -12
-55 -1 -34 -5 -67 -7 -72 -3 -6 1 -3 10 8 9 11 14 35 13 61 -2 42 -2 42 33 41
26 -1 36 4 38 17 2 9 -1 17 -7 17 -6 0 -8 -6 -5 -13z"/>
<path d="M2150 140 c-3 -20 -3 -22 6 -44 6 -15 4 -17 -7 -11 -11 6 -12 5 -1
-6 6 -7 12 -29 13 -49 l1 -35 9 35 c4 19 6 41 4 49 -4 9 0 11 10 7 18 -7 47 3
40 14 -3 5 -14 6 -24 3 -10 -3 -22 1 -26 7 -5 9 -1 10 14 5 12 -4 21 -2 21 4
0 6 -11 11 -24 11 -13 0 -27 6 -29 13 -4 8 -6 8 -7 -3z"/>
<path d="M630 126 c0 -9 5 -16 11 -16 8 0 9 -17 4 -55 -4 -37 -3 -55 4 -55 18
0 14 115 -4 130 -12 10 -15 10 -15 -4z"/>
<path d="M1204 124 c-4 -10 -8 -22 -10 -25 -2 -3 3 -6 12 -6 9 0 13 7 9 21 -4
17 -3 16 7 -3 10 -19 10 -25 0 -29 -6 -2 -12 -12 -12 -23 0 -12 5 -16 15 -12
9 3 14 11 12 17 -2 6 -1 18 3 26 5 9 0 22 -11 34 -18 19 -19 19 -25 0z"/>
<path d="M1254 128 c-5 -7 -3 -8 6 -3 10 6 12 4 7 -8 -6 -16 13 -67 26 -67 10
0 9 6 -5 51 -11 40 -21 48 -34 27z"/>
<path d="M1546 125 c4 -8 8 -15 10 -15 2 0 4 7 4 15 0 8 -4 15 -10 15 -5 0 -7
-7 -4 -15z"/>
<path d="M155 117 c-25 -15 -21 -47 6 -47 14 0 19 7 19 30 0 17 -1 30 -2 29
-2 -1 -12 -6 -23 -12z m10 -27 c3 -5 1 -10 -4 -10 -6 0 -11 5 -11 10 0 6 2 10
4 10 3 0 8 -4 11 -10z"/>
<path d="M607 123 c-4 -7 -2 -15 3 -18 7 -4 8 -19 5 -37 -5 -21 -4 -28 4 -24
12 8 13 41 2 70 -5 13 -10 16 -14 9z"/>
<path d="M680 111 c0 -25 6 -27 13 -6 4 8 2 17 -3 20 -6 4 -10 -3 -10 -14z"/>
<path d="M970 120 c0 -5 5 -10 10 -10 6 0 10 5 10 10 0 6 -4 10 -10 10 -5 0
-10 -4 -10 -10z"/>
<path d="M1172 115 c-9 -11 -10 -24 -3 -47 5 -18 10 -26 11 -18 6 57 7 80 6
80 0 -1 -7 -7 -14 -15z"/>
<path d="M2230 120 c0 -5 4 -10 8 -10 5 0 9 -7 9 -15 0 -8 -5 -15 -11 -15 -7
0 -10 -16 -7 -42 3 -40 4 -41 13 -18 17 45 18 110 2 110 -8 0 -14 -4 -14 -10z"/>
<path d="M109 113 c-1 -5 -1 -11 0 -15 2 -12 -13 -10 -26 3 -9 9 -11 7 -8 -7
2 -11 4 -22 4 -26 1 -5 10 -8 21 -8 16 0 20 7 20 30 0 26 -8 43 -11 23z"/>
<path d="M506 95 c9 -14 20 -25 25 -25 5 0 9 -10 9 -23 0 -12 9 -28 20 -35 21
-13 21 -12 4 20 -24 48 -54 88 -65 88 -5 0 -2 -11 7 -25z"/>
<path d="M732 80 c-1 -22 3 -40 8 -40 12 0 13 67 2 74 -5 3 -9 -13 -10 -34z"/>
<path d="M2568 113 c6 -2 18 -2 25 0 6 3 1 5 -13 5 -14 0 -19 -2 -12 -5z"/>
<path d="M713 55 c0 -33 2 -45 4 -27 2 18 2 45 0 60 -2 15 -4 0 -4 -33z"/>
<path d="M2385 100 c3 -5 8 -10 11 -10 2 0 4 5 4 10 0 6 -5 10 -11 10 -5 0 -7
-4 -4 -10z"/>
<path d="M2671 94 c0 -11 3 -14 6 -6 3 7 2 16 -1 19 -3 4 -6 -2 -5 -13z"/>
<path d="M14 84 c3 -9 6 -18 6 -20 0 -2 9 -4 20 -4 13 0 20 7 20 20 0 15 -7
20 -26 20 -20 0 -25 -4 -20 -16z"/>
<path d="M1680 90 c0 -5 7 -10 15 -10 8 0 15 5 15 10 0 6 -7 10 -15 10 -8 0
-15 -4 -15 -10z"/>
<path d="M1726 62 c1 -54 3 -62 14 -62 6 0 10 13 10 30 0 17 7 33 18 39 15 8
14 11 -11 20 -16 6 -29 11 -30 11 -1 0 -2 -17 -1 -38z"/>
<path d="M1949 51 c-4 -50 3 -66 15 -36 3 8 12 15 21 15 8 0 15 5 15 11 0 6
-7 9 -15 5 -10 -3 -15 1 -15 12 0 9 -4 23 -9 31 -6 9 -10 -3 -12 -38z"/>
<path d="M2045 90 c-3 -5 -1 -10 4 -10 6 0 11 5 11 10 0 6 -2 10 -4 10 -3 0
-8 -4 -11 -10z"/>
<path d="M2099 83 c-1 -4 0 -20 1 -35 1 -16 -4 -28 -10 -28 -6 0 -8 -5 -4 -11
9 -15 21 0 29 38 3 18 2 34 -4 38 -6 3 -11 3 -12 -2z"/>
<path d="M2268 45 c-2 -25 0 -45 4 -45 5 0 8 8 9 18 0 9 2 27 3 40 2 13 -1 25
-5 27 -4 3 -9 -15 -11 -40z"/>
<path d="M311 64 c0 -11 3 -14 6 -6 3 7 2 16 -1 19 -3 4 -6 -2 -5 -13z"/>
<path d="M680 50 c0 -16 4 -30 8 -30 5 0 7 13 4 30 -2 17 -6 30 -8 30 -2 0 -4
-13 -4 -30z"/>
<path d="M998 73 c7 -3 16 -2 19 1 4 3 -2 6 -13 5 -11 0 -14 -3 -6 -6z"/>
<path d="M1251 52 c-1 -20 3 -31 9 -27 6 3 10 1 10 -6 0 -7 2 -10 6 -7 3 3 -2
21 -10 39 l-14 34 -1 -33z"/>
<path d="M2306 67 c3 -10 9 -15 12 -12 3 3 0 11 -7 18 -10 9 -11 8 -5 -6z"/>
<path d="M2790 70 c8 -5 22 -9 30 -9 10 0 8 3 -5 9 -27 12 -43 12 -25 0z"/>
<path d="M335 51 c-7 -24 2 -48 19 -48 8 0 12 6 9 14 -3 7 -10 10 -16 6 -6 -4
-8 3 -3 21 7 29 0 36 -9 7z"/>
<path d="M1686 59 c-13 -41 -12 -56 1 -56 8 0 12 6 8 15 -3 9 0 19 7 23 10 6
10 11 1 20 -10 10 -13 9 -17 -2z"/>
<path d="M2865 60 c19 -8 93 -14 84 -6 -2 2 -26 6 -54 9 -32 4 -43 3 -30 -3z"/>
<path d="M140 30 c0 -20 5 -26 23 -27 19 -2 20 -1 5 8 -22 12 -23 29 -3 29 8
0 15 4 15 9 0 6 -9 9 -20 8 -14 -1 -20 -8 -20 -27z"/>
<path d="M1761 34 c-1 -20 4 -31 13 -31 10 0 12 5 7 16 -5 9 -11 23 -14 31 -3
8 -6 1 -6 -16z"/>
<path d="M2040 33 c0 -25 4 -33 18 -32 10 0 12 3 4 6 -6 2 -10 9 -7 14 4 5 1
17 -4 26 -9 15 -10 13 -11 -14z"/>
<path d="M2137 48 c-2 -7 -1 -22 4 -33 6 -16 8 -14 8 13 1 33 -4 41 -12 20z"/>
<path d="M2968 53 c6 -2 18 -2 25 0 6 3 1 5 -13 5 -14 0 -19 -2 -12 -5z"/>
<path d="M80 40 c0 -5 9 -10 20 -10 11 0 20 5 20 10 0 6 -9 10 -20 10 -11 0
-20 -4 -20 -10z"/>
<path d="M760 38 c0 -7 5 -20 10 -28 8 -12 10 -11 10 7 0 12 -4 25 -10 28 -5
3 -10 0 -10 -7z"/>
<path d="M1341 34 c0 -11 3 -14 6 -6 3 7 2 16 -1 19 -3 4 -6 -2 -5 -13z"/>
<path d="M21 18 c0 -13 3 -17 6 -10 2 6 11 12 19 12 8 0 14 5 14 10 0 6 -9 10
-20 10 -14 0 -20 -6 -19 -22z"/>
<path d="M810 18 c11 -12 23 -19 26 -15 9 9 -15 37 -33 37 -10 0 -8 -6 7 -22z"/>
<path d="M850 31 c0 -5 9 -11 21 -14 16 -4 18 -3 8 9 -13 16 -29 19 -29 5z"/>
<path d="M621 14 c0 -11 3 -14 6 -6 3 7 2 16 -1 19 -3 4 -6 -2 -5 -13z"/>
<path d="M730 15 c0 -8 5 -15 10 -15 6 0 10 7 10 15 0 8 -4 15 -10 15 -5 0
-10 -7 -10 -15z"/>
<path d="M1202 14 c-10 -11 -10 -14 0 -14 7 0 19 4 26 9 11 7 11 9 0 13 -7 3
-19 -1 -26 -8z"/>
<path d="M1300 16 c0 -9 5 -16 10 -16 6 0 10 4 10 9 0 6 -4 13 -10 16 -5 3
-10 -1 -10 -9z"/>
<path d="M2291 14 c0 -11 3 -14 6 -6 3 7 2 16 -1 19 -3 4 -6 -2 -5 -13z"/>
<path d="M2968 23 c6 -2 18 -2 25 0 6 3 1 5 -13 5 -14 0 -19 -2 -12 -5z"/>
<path d="M80 11 c0 -5 9 -7 20 -4 26 7 26 13 0 13 -11 0 -20 -4 -20 -9z"/>
<path d="M1350 10 c-9 -6 -10 -10 -3 -10 6 0 15 5 18 10 8 12 4 12 -15 0z"/>
<path d="M1490 12 c0 -5 7 -9 15 -9 8 0 12 4 9 9 -3 4 -9 8 -15 8 -5 0 -9 -4
-9 -8z"/>
<path d="M1138 3 c7 -3 16 -2 19 1 4 3 -2 6 -13 5 -11 0 -14 -3 -6 -6z"/>
</g>
</svg>
