<?xml version="1.0" standalone="no"?>
<!DOCTYPE svg PUBLIC "-//W3C//DTD SVG 20010904//EN"
 "http://www.w3.org/TR/2001/REC-SVG-20010904/DTD/svg10.dtd">
<svg version="1.0" xmlns="http://www.w3.org/2000/svg"
 width="275.000000pt" height="183.000000pt" viewBox="0 0 275.000000 183.000000"
 preserveAspectRatio="xMidYMid meet">
<metadata>
Created by potrace 1.10, written by Peter Selinger 2001-2011
</metadata>
<g transform="translate(0.000000,183.000000) scale(0.100000,-0.100000)"
fill="#000000" stroke="none">
<path d="M2270 1810 c0 -5 5 -10 10 -10 6 0 10 5 10 10 0 6 -4 10 -10 10 -5 0
-10 -4 -10 -10z"/>
<path d="M2297 1783 c-3 -5 -1 -30 3 -56 4 -26 3 -50 -2 -53 -4 -3 -8 -32 -8
-65 0 -33 -4 -59 -10 -59 -6 0 -8 -12 -6 -26 4 -21 3 -24 -9 -14 -8 7 -12 17
-8 23 3 5 1 7 -4 4 -6 -4 -9 -29 -7 -58 3 -41 1 -50 -11 -46 -11 5 -12 1 -6
-15 4 -12 13 -24 20 -26 8 -3 10 12 7 53 -4 47 -2 55 9 45 9 -8 13 -26 11 -51
-2 -28 1 -39 10 -39 17 0 19 61 3 77 -8 8 -8 17 0 31 6 11 11 53 11 93 0 40 2
70 4 68 9 -9 12 -148 4 -163 -6 -10 -5 -16 2 -16 5 0 10 5 10 10 0 7 5 6 13
-1 7 -7 11 -30 10 -57 -4 -64 -13 -66 -13 -3 0 32 -4 50 -10 46 -6 -4 -10 -59
-9 -137 0 -102 4 -136 16 -152 l15 -21 -5 22 c-2 11 -1 40 3 63 5 30 4 45 -6
55 -19 18 -18 29 2 21 8 -3 12 -2 9 4 -3 6 0 10 7 10 9 0 13 -17 11 -62 -1
-35 -4 -72 -8 -83 -6 -16 -5 -17 4 -5 8 12 11 7 11 -21 0 -30 4 -38 23 -42 20
-6 21 -5 4 7 -16 12 -16 14 -2 20 9 3 13 2 10 -4 -4 -6 6 -7 26 -3 29 5 31 4
24 -16 -6 -19 -3 -21 27 -21 28 0 33 3 33 24 0 22 -5 24 -54 28 -30 3 -57 10
-59 17 -2 6 -8 9 -13 5 -5 -3 -9 1 -9 9 0 7 7 14 14 14 8 0 14 -5 13 -10 -1
-7 39 -11 105 -11 101 -1 126 4 96 18 -10 5 -10 7 0 12 6 3 12 10 12 15 0 14
-114 11 -129 -3 -12 -11 -13 -9 -7 7 5 18 5 18 -7 3 -15 -19 -32 -12 -40 17
-4 16 -5 14 -6 -7 0 -14 5 -28 12 -31 6 -2 9 -8 4 -12 -13 -15 -36 29 -37 68
0 40 24 62 41 36 6 -9 9 -10 9 -2 0 17 -17 25 -40 18 -15 -5 -20 -15 -20 -45
0 -21 -4 -42 -10 -45 -6 -4 -10 15 -10 49 0 38 4 56 13 56 9 0 9 2 -1 8 -8 6
-10 25 -7 60 4 35 2 52 -6 52 -6 0 -9 -9 -6 -20 3 -11 1 -20 -4 -20 -6 0 -6
-7 0 -19 10 -17 6 -31 -9 -31 -14 0 -5 101 10 110 10 7 11 10 3 10 -7 0 -13
12 -14 28 0 19 -2 22 -7 11 -11 -27 -27 0 -28 46 -5 178 -11 224 -27 198z m43
-417 c0 -3 -4 -8 -10 -11 -5 -3 -10 -1 -10 4 0 6 5 11 10 11 6 0 10 -2 10 -4z
m235 -134 c-20 -5 -20 -5 0 -14 17 -7 16 -8 -5 -4 -14 3 -42 1 -63 -3 -21 -5
-39 -5 -43 0 -3 5 6 9 20 9 14 0 26 4 26 8 0 4 19 8 43 8 23 1 33 -1 22 -4z
m-78 -88 c-3 -3 -12 -4 -19 -1 -8 3 -5 6 6 6 11 1 17 -2 13 -5z"/>
<path d="M1858 1743 c12 -2 32 -2 45 0 12 2 2 4 -23 4 -25 0 -35 -2 -22 -4z"/>
<path d="M1738 1663 c7 -3 16 -2 19 1 4 3 -2 6 -13 5 -11 0 -14 -3 -6 -6z"/>
<path d="M2372 1650 c0 -14 2 -19 5 -12 2 6 2 18 0 25 -3 6 -5 1 -5 -13z"/>
<path d="M787 1575 c3 -8 9 -12 14 -9 12 7 11 11 -5 17 -10 4 -13 1 -9 -8z"/>
<path d="M851 1574 c0 -11 3 -14 6 -6 3 7 2 16 -1 19 -3 4 -6 -2 -5 -13z"/>
<path d="M2368 1583 c7 -3 16 -2 19 1 4 3 -2 6 -13 5 -11 0 -14 -3 -6 -6z"/>
<path d="M713 1572 c-14 -2 -23 -10 -22 -20 0 -11 3 -12 6 -4 7 18 20 15 26
-8 3 -11 1 -18 -3 -15 -12 7 0 -108 13 -120 7 -7 8 -5 4 7 -3 9 -1 19 6 22 9
3 9 5 0 5 -7 1 -13 9 -13 19 0 14 2 15 10 2 8 -13 10 -12 10 3 0 10 5 15 10
12 6 -4 8 -11 5 -16 -4 -5 -1 -9 5 -9 6 0 8 -5 4 -12 -12 -18 -12 -61 -1 -76
5 -7 7 -15 4 -18 -3 -3 -10 4 -17 15 -6 12 -17 21 -25 21 -16 0 -18 -11 -15
-74 1 -25 -2 -36 -9 -32 -7 5 -8 1 -5 -9 5 -12 9 -13 21 -4 7 7 12 18 9 25 -3
7 -1 16 4 19 4 3 10 0 12 -7 6 -18 -3 -58 -13 -58 -5 0 -9 -11 -9 -24 0 -27
-16 -44 -23 -24 -2 7 -3 6 -2 -2 0 -8 7 -14 13 -13 7 2 12 -9 12 -26 0 -21 -5
-30 -17 -30 -45 -2 -72 -7 -79 -13 -14 -15 -24 -8 -24 17 0 26 -13 31 -57 19
-23 -6 -33 -34 -12 -34 5 0 7 5 4 10 -3 6 -1 10 4 10 6 0 11 -7 11 -15 0 -10
-10 -15 -32 -15 -21 0 -28 3 -20 8 10 7 10 15 2 37 -11 28 -5 48 8 30 9 -13
105 -13 114 0 9 13 28 -6 32 -31 2 -11 7 -18 12 -16 5 1 8 29 6 62 -1 33 1 60
6 60 4 0 6 29 5 65 -1 35 2 67 7 70 6 3 10 17 10 31 0 14 -4 22 -10 19 -5 -3
-10 3 -10 14 0 12 5 21 10 21 6 0 10 5 10 10 0 6 -7 10 -15 10 -12 0 -15 -15
-16 -72 -1 -40 -3 -86 -5 -103 -8 -65 -8 -91 -1 -120 l7 -30 -23 28 c-22 26
-67 38 -67 17 0 -6 11 -8 28 -4 23 6 25 5 15 -7 -12 -15 -78 -26 -70 -12 3 5
-2 15 -11 22 -14 13 -15 12 -9 -8 4 -17 2 -21 -11 -19 -9 2 -17 10 -17 18 -1
8 -6 14 -13 12 -7 -1 -12 2 -12 8 0 5 14 10 30 10 17 0 30 4 30 10 0 9 -52 6
-70 -5 -5 -3 -10 -1 -10 5 0 6 -4 9 -9 5 -6 -3 -14 3 -20 12 -8 14 -9 11 -5
-14 5 -26 3 -33 -10 -33 -19 0 -21 16 -3 23 6 3 2 6 -10 6 -12 1 -25 -3 -28
-9 -3 -5 -31 -10 -61 -10 -30 0 -54 -5 -54 -10 0 -6 11 -8 26 -4 19 5 25 4 20
-5 -4 -6 -3 -11 3 -11 5 0 13 5 16 10 9 15 72 12 88 -5 10 -9 17 -11 19 -4 2
6 16 9 31 7 21 -2 24 -6 17 -18 -9 -13 -11 -13 -20 0 -7 11 -10 12 -10 2 0
-10 -12 -12 -45 -8 -26 3 -45 0 -45 -5 0 -6 -4 -8 -9 -5 -5 4 -12 0 -14 -6 -4
-8 -6 -7 -6 3 -1 13 -10 17 -36 15 -26 -1 -37 3 -41 16 -3 10 -10 18 -17 18
-8 0 -8 -3 1 -12 14 -14 16 -32 3 -23 -5 3 -12 1 -16 -5 -4 -6 10 -10 37 -10
31 0 51 -7 73 -25 l30 -24 -47 -1 c-32 0 -48 4 -48 13 0 8 -3 7 -10 -3 -7 -12
-11 -10 -18 10 -9 24 -10 24 -18 5 -4 -11 -8 -23 -10 -26 -2 -3 10 -5 26 -4
26 2 28 0 18 -18 -8 -16 -12 -17 -19 -6 -7 11 -9 11 -9 1 0 -7 -4 -10 -10 -7
-5 3 -10 -3 -10 -14 0 -12 -4 -21 -10 -21 -5 0 -10 9 -10 20 0 11 -5 20 -11
20 -6 0 -8 -9 -4 -20 6 -17 2 -20 -30 -20 -22 0 -34 4 -30 10 4 6 14 9 22 8 9
-2 18 2 20 8 2 7 -6 10 -23 6 -15 -3 -29 0 -34 7 -5 8 -18 1 -42 -23 -20 -20
-30 -36 -23 -36 7 0 18 7 25 15 8 10 16 12 19 6 4 -5 23 -12 43 -14 20 -2 45
-10 54 -18 16 -12 17 -12 11 4 -4 11 -1 17 9 17 9 0 12 -5 8 -12 -5 -8 -2 -9
10 -5 10 4 22 7 27 7 6 0 7 5 4 10 -4 6 19 10 62 10 84 0 116 8 109 26 -3 8
-1 14 4 14 6 0 10 -11 10 -25 0 -17 4 -23 14 -19 8 3 17 1 21 -5 3 -6 3 -11
-2 -12 -4 0 -19 -2 -32 -5 -18 -3 -22 -1 -17 11 3 8 2 15 -3 15 -5 0 -11 -9
-14 -19 -3 -14 2 -21 17 -25 38 -10 54 -6 59 16 6 22 6 22 27 -4 11 -14 20
-29 20 -31 0 -3 -44 -6 -97 -6 -53 0 -101 -5 -106 -10 -6 -6 10 -8 45 -4 50 5
56 4 61 -16 3 -11 10 -21 17 -21 6 0 8 5 4 11 -4 8 3 9 25 4 20 -4 31 -3 31 4
0 6 7 11 15 11 8 0 15 -4 15 -8 0 -5 14 -7 30 -4 30 4 41 -10 18 -24 -6 -4 -9
-3 -5 2 3 5 -15 9 -40 8 -27 0 -48 -6 -54 -15 -5 -8 -9 -9 -9 -4 0 12 -60 16
-60 4 0 -5 -11 -9 -24 -9 -16 0 -27 -7 -31 -20 -9 -29 -26 -24 -19 5 3 14 2
25 -2 24 -28 -5 -46 2 -40 16 8 21 -4 18 -34 -6 -18 -15 -20 -19 -7 -15 32 10
68 -4 62 -24 -6 -18 18 -35 43 -31 20 3 14 -17 -8 -24 -22 -7 -50 10 -50 30 0
7 -19 20 -43 29 -49 18 -71 21 -62 6 3 -6 -2 -10 -11 -10 -26 0 -11 -10 22
-14 55 -8 84 -18 84 -31 0 -13 36 -31 53 -27 5 1 6 -2 3 -7 -8 -12 22 -43 34
-36 13 8 20 -9 22 -54 1 -39 18 -61 18 -24 0 13 3 14 12 5 7 -7 19 -12 27 -12
13 1 12 4 -3 15 -11 8 -21 21 -22 29 -3 21 -34 64 -50 70 -9 4 -12 2 -8 -5 4
-7 2 -10 -5 -8 -7 3 -13 9 -14 14 -1 13 83 76 93 70 4 -3 11 2 14 11 3 8 11
12 17 9 15 -10 -39 -65 -57 -58 -16 6 -20 -22 -4 -32 5 -3 7 -12 3 -20 -3 -8
0 -15 6 -15 15 0 14 23 -1 39 -10 10 -10 12 -1 7 7 -4 18 2 24 13 13 20 44 18
32 -3 -4 -6 1 -4 12 4 16 13 16 15 2 18 -19 4 -22 18 -7 27 6 4 8 10 5 15 -3
4 12 11 33 15 56 12 72 12 72 4 0 -5 7 -6 15 -3 8 4 15 10 15 16 0 5 -4 7 -9
3 -5 -3 -12 -1 -16 5 -4 6 4 10 18 10 14 0 27 7 31 15 6 17 -3 19 -36 6 -33
-13 -83 10 -85 38 -1 12 2 19 8 16 5 -4 9 -12 9 -20 0 -20 128 -25 134 -5 3
12 4 12 5 -1 1 -10 12 -18 31 -21 27 -4 29 -2 26 22 -2 15 -7 33 -11 40 -5 9
-4 11 4 6 6 -4 19 -2 28 6 10 7 14 8 10 1 -5 -8 13 -12 64 -15 39 -2 73 1 76
5 3 4 11 3 18 -3 7 -5 21 -9 31 -9 11 1 49 1 86 1 l67 -2 4 -47 3 -48 2 46 2
47 67 -6 c45 -3 64 -2 59 6 -4 6 2 6 18 -1 21 -10 25 -20 28 -66 2 -31 -2 -65
-9 -78 -12 -23 -1 -33 13 -12 3 6 17 9 30 6 13 -2 21 -1 19 4 -3 4 1 13 8 21
10 9 12 27 8 56 -8 59 -25 57 -29 -3 -4 -66 -22 -84 -22 -23 0 26 -3 53 -6 62
-8 21 33 37 64 25 19 -7 22 -5 23 14 1 21 1 21 9 -3 6 -18 8 -20 9 -7 1 10 6
15 11 12 6 -3 10 -1 10 5 0 6 5 8 11 4 6 -3 22 -1 35 7 19 10 27 10 36 1 16
-16 39 -15 32 2 -4 10 2 12 21 8 16 -3 30 0 35 7 5 9 9 9 13 -3 5 -12 0 -16
-23 -16 -17 0 -30 -4 -30 -9 0 -10 49 -6 106 9 18 4 51 6 75 5 23 -2 51 1 60
6 14 7 19 4 24 -11 6 -17 12 -20 41 -14 22 4 40 2 51 -7 11 -9 9 -3 -5 15 -24
31 -28 46 -11 46 5 0 7 -5 4 -11 -4 -6 -1 -10 6 -8 34 4 41 -1 35 -28 -3 -16
-3 -22 0 -15 7 14 44 16 44 2 0 -15 47 -12 53 3 4 9 6 9 6 -1 1 -7 6 -10 11
-7 12 7 14 26 3 24 -20 -3 -26 2 -13 11 11 7 11 10 2 10 -7 0 -10 5 -7 10 3 6
1 10 -4 10 -6 0 -11 -5 -11 -11 0 -5 -4 -8 -9 -4 -5 3 -13 0 -17 -6 -4 -7 -3
-9 3 -6 6 4 16 0 23 -8 11 -13 8 -15 -14 -15 -16 0 -26 5 -26 15 0 8 -9 15
-21 15 -11 0 -18 4 -15 9 7 10 74 26 95 22 9 -2 12 3 7 16 -6 14 -5 16 5 6 7
-7 32 -13 56 -13 39 0 43 2 43 24 0 15 -7 26 -20 29 -11 3 -20 1 -20 -3 0 -5
8 -11 18 -13 16 -4 16 -5 -1 -6 -27 -2 -49 23 -34 38 9 9 8 14 -3 22 -12 9
-12 10 3 5 10 -3 21 -6 23 -6 3 0 2 -4 -1 -10 -3 -5 -2 -10 3 -10 5 0 9 12 9
28 0 15 -2 22 -4 16 -2 -7 -13 -9 -24 -7 -16 5 -18 8 -7 14 9 6 4 9 -14 9 -28
0 -34 -17 -13 -32 6 -5 4 -12 -5 -18 -11 -7 -11 -10 -2 -10 7 0 10 -5 7 -11
-4 -6 -12 -8 -19 -6 -6 2 -20 0 -31 -4 -14 -6 -8 -8 23 -7 32 2 46 -2 53 -15
8 -13 6 -17 -6 -17 -9 0 -14 4 -10 9 7 12 -73 5 -110 -9 -32 -12 -35 -12 -35
-2 0 4 14 13 32 20 17 6 29 15 25 18 -3 4 -12 4 -19 2 -7 -3 -17 -6 -22 -6 -5
0 -13 -6 -17 -14 -6 -9 -9 -7 -9 10 0 12 -5 22 -11 22 -5 0 -8 -4 -5 -9 6 -10
-33 -23 -46 -15 -4 3 -8 10 -8 15 0 6 5 7 10 4 6 -3 10 -1 10 4 0 6 7 11 15
11 21 0 19 18 -2 23 -10 3 -3 5 16 6 38 1 35 13 -4 17 -14 1 -28 -4 -33 -11
-6 -11 -21 -13 -72 -6 -36 5 -54 9 -40 10 19 1 21 4 11 10 -8 5 -20 7 -28 4
-7 -3 -13 1 -13 10 0 12 6 14 29 7 15 -4 35 -4 42 1 22 14 33 10 19 -6 -7 -9
-10 -18 -6 -22 3 -3 6 -1 6 6 0 9 13 12 44 9 41 -3 43 -2 29 14 -9 10 -24 15
-39 12 -13 -2 -24 0 -24 6 0 6 -5 8 -12 4 -15 -9 -112 -6 -116 4 -5 16 -60 0
-65 -19 -6 -24 8 -25 23 -1 11 16 11 16 6 0 -4 -14 0 -18 17 -17 12 0 16 3 10
6 -21 8 -15 22 7 16 25 -7 25 -17 3 -43 -17 -20 -39 -28 -29 -11 3 5 -1 12
-10 15 -25 10 -26 2 -4 -22 25 -27 25 -32 0 -32 -13 0 -18 5 -14 15 4 10 0 15
-10 15 -13 0 -15 -4 -7 -18 13 -24 -19 -47 -39 -29 -10 9 -11 9 -6 -1 5 -8 -3
-14 -23 -18 -17 -4 -31 -10 -31 -15 0 -5 -15 -8 -32 -8 l-33 1 30 7 30 7 -39
7 c-22 3 -43 4 -48 1 -16 -10 32 -36 68 -37 40 -1 45 -14 8 -23 -18 -5 -31 0
-49 16 -14 13 -29 19 -36 15 -8 -5 -10 -4 -5 3 4 7 1 12 -8 12 -9 0 -16 4 -16
10 0 5 6 7 13 4 8 -3 14 2 14 10 0 8 -8 13 -19 11 -10 -2 -18 0 -18 6 0 5 4 9
10 9 14 0 7 32 -13 64 -10 15 -16 30 -13 34 4 6 -175 6 -372 -1 -63 -2 -72 0
-72 16 0 9 -6 17 -14 17 -13 0 -26 96 -26 201 0 51 -5 58 -46 65 -32 6 -54
-11 -54 -41 0 -18 4 -22 20 -18 18 5 20 0 20 -45 0 -35 4 -52 15 -56 17 -6 20
9 4 20 -8 4 -7 9 2 15 10 6 11 9 2 9 -7 0 -13 5 -13 10 0 6 9 10 19 10 17 0
19 -5 14 -35 -3 -20 -1 -41 6 -49 11 -13 9 -75 -3 -95 -3 -5 2 -7 13 -4 10 3
22 0 25 -6 4 -6 -1 -12 -11 -12 -35 -3 -107 2 -112 7 -9 8 -19 116 -20 206 -1
85 -2 88 -28 101 -16 7 -38 11 -50 9z m50 -30 c15 -16 15 -18 -1 -19 -11 -1
-18 6 -19 18 -2 23 0 24 20 1z m87 -27 c0 -8 -7 -15 -15 -15 -9 0 -12 6 -9 15
4 8 10 15 15 15 5 0 9 -7 9 -15z m38 2 c8 -10 6 -13 -11 -14 -12 0 -16 1 -9 4
6 3 10 9 6 14 -8 14 2 11 14 -4z m-123 -17 c18 -8 17 -9 -7 -9 -16 -1 -28 4
-28 9 0 12 8 12 35 0z m135 -20 c0 -5 -9 -10 -20 -10 -11 0 -20 5 -20 10 0 6
9 10 20 10 11 0 20 -4 20 -10z m-150 -130 c0 -5 -2 -10 -4 -10 -3 0 -8 5 -11
10 -3 6 -1 10 4 10 6 0 11 -4 11 -10z m40 -41 c0 -24 -23 -21 -28 4 -2 10 3
17 12 17 10 0 16 -9 16 -21z m-3 -35 c-3 -3 -12 -4 -19 -1 -8 3 -5 6 6 6 11 1
17 -2 13 -5z m13 -24 c0 -5 -6 -10 -12 -11 -7 0 2 -5 20 -10 18 -5 30 -14 27
-19 -4 -6 -2 -10 3 -10 6 0 12 7 16 15 3 8 10 15 16 15 6 0 8 -6 4 -12 -6 -9
-3 -9 9 0 9 8 21 11 26 8 5 -4 13 -1 16 4 5 7 12 5 21 -7 8 -11 13 -13 14 -5
0 6 5 12 11 12 5 0 7 -4 4 -10 -4 -6 8 -10 29 -10 42 0 49 -20 9 -21 -16 0
-22 -3 -15 -6 19 -7 64 6 57 17 -3 6 2 10 12 10 11 0 24 5 31 12 8 8 21 9 49
0 27 -8 51 -8 82 -1 24 5 46 7 49 4 3 -3 -3 -5 -13 -5 -15 0 -16 -3 -7 -12 9
-9 15 -9 24 0 7 7 26 12 43 12 17 0 36 5 43 12 9 9 9 4 2 -23 -14 -48 -11 -61
4 -19 l13 35 11 -66 c7 -36 12 -77 12 -90 0 -17 3 -20 9 -11 9 15 62 12 62 -3
0 -5 -17 -13 -38 -17 -44 -7 -61 -12 -86 -23 -10 -4 -21 -5 -24 -1 -4 3 2 6
12 6 10 0 16 2 13 5 -3 3 -61 8 -129 10 -368 14 -457 20 -468 31 -6 6 506 -5
527 -11 6 -3 12 2 12 10 0 8 -9 15 -20 15 -11 0 -20 5 -20 10 0 6 -4 10 -10
10 -5 0 -10 -6 -10 -14 0 -11 -22 -14 -102 -14 -71 0 -92 3 -68 8 l35 7 -35 2
c-27 1 -31 4 -20 11 17 11 10 13 -14 4 -9 -3 -16 -14 -17 -23 0 -10 -2 -11 -6
-3 -2 6 -11 12 -19 12 -8 0 -14 6 -14 13 0 8 -3 7 -10 -3 -6 -10 -27 -15 -67
-16 -32 0 -50 1 -40 3 9 3 17 9 17 14 0 12 -44 2 -82 -18 -4 -2 -5 9 -2 24 l4
28 -15 -25 c-8 -14 -15 -23 -15 -20 -10 40 -9 60 2 60 9 0 9 3 -2 10 -13 9
-13 11 0 19 8 5 17 8 21 5 4 -2 11 1 15 7 4 8 3 9 -4 5 -7 -4 -12 -1 -13 6 0
10 -2 10 -6 1 -10 -25 -23 -12 -23 22 0 28 4 35 20 35 11 0 20 -4 20 -10z
m-48 -187 c-4 -20 -6 -20 -35 -8 -31 13 -47 53 -18 47 23 -5 42 20 41 52 -4
70 4 75 9 6 3 -41 4 -85 3 -97z m-275 151 c-3 -3 -12 -4 -19 -1 -8 3 -5 6 6 6
11 1 17 -2 13 -5z m1258 -52 c-8 -8 -25 10 -19 20 4 6 9 5 15 -3 4 -7 6 -15 4
-17z m41 2 c-5 -13 -2 -14 11 -8 32 13 93 17 93 5 0 -12 -10 -14 -54 -11 -17
1 -26 -2 -22 -9 4 -5 20 -8 37 -6 21 3 33 -2 41 -15 8 -13 18 -16 32 -11 15 5
27 1 43 -16 28 -29 15 -37 -31 -18 -43 18 -60 19 -50 3 5 -8 0 -7 -11 2 -17
14 -18 13 -12 -3 4 -10 7 -21 7 -23 0 -2 9 -4 20 -4 11 0 20 -4 20 -9 0 -4
-10 -6 -23 -4 -22 4 -67 58 -67 80 0 19 -66 37 -76 22 -7 -12 -24 -12 -24 0 0
5 11 12 25 15 14 4 23 11 20 16 -3 6 1 10 10 10 12 0 15 -5 11 -16z m-1286
-24 c-7 -4 -9 -13 -6 -19 4 -6 1 -14 -7 -17 -15 -5 -12 -44 4 -44 14 0 20 18
7 24 -7 3 13 4 45 1 58 -4 59 -4 53 20 -3 13 -2 27 4 30 6 4 10 -8 10 -29 0
-19 -4 -38 -10 -41 -5 -3 -10 -12 -9 -18 0 -8 3 -7 6 2 5 11 7 11 15 0 7 -11
8 -11 6 1 -4 19 34 58 50 52 17 -5 15 -22 -2 -22 -7 0 -19 -7 -26 -15 -15 -19
4 -47 26 -38 8 3 14 0 14 -7 0 -6 5 -8 11 -4 8 5 6 10 -5 16 -17 10 -22 38 -6
38 6 0 10 -7 10 -15 0 -8 3 -14 8 -14 34 6 44 -2 40 -31 -4 -24 -2 -27 9 -19
9 8 13 8 13 1 0 -20 -23 -25 -35 -9 -14 20 -35 22 -35 5 -1 -8 -6 -6 -14 4
-10 14 -30 18 -85 19 -59 1 -69 4 -60 15 9 11 7 14 -10 14 -33 0 -61 18 -55
35 7 16 5 17 -76 17 l-55 -1 54 10 c30 5 57 12 60 16 3 3 -6 3 -22 1 -29 -6
-42 4 -34 25 3 8 24 11 62 8 34 -2 53 -6 45 -11z m1190 -15 c0 -8 -4 -15 -10
-15 -5 0 -10 7 -10 15 0 8 5 15 10 15 6 0 10 -7 10 -15z m90 1 c0 -8 -10 -16
-22 -18 -16 -2 -25 -12 -29 -33 -4 -16 -7 -26 -8 -21 0 5 -8 3 -16 -4 -13 -11
-14 -10 -10 3 4 8 2 18 -4 22 -7 3 -11 -2 -11 -14 0 -11 -5 -23 -10 -26 -7 -4
-9 3 -5 22 5 19 4 24 -3 15 -8 -11 -10 -11 -15 1 -4 10 -13 13 -26 10 -12 -3
-19 -9 -16 -13 3 -5 1 -11 -4 -14 -5 -3 -12 1 -15 10 -8 21 20 47 44 41 11 -3
18 -1 15 3 -3 5 -1 11 5 15 5 3 10 -1 10 -9 0 -11 9 -16 27 -16 14 0 23 3 19
7 -4 4 10 13 31 19 21 7 39 12 41 13 1 1 2 -5 2 -13z m34 -22 c4 -10 1 -14 -6
-12 -15 5 -23 28 -10 28 5 0 13 -7 16 -16z m-1489 -14 c-4 -6 8 -10 29 -10 19
0 38 -4 41 -10 4 -6 -13 -10 -44 -10 -37 0 -51 4 -51 14 0 12 10 20 28 25 2 1
0 -3 -3 -9z m1461 -13 c-1 -7 -1 -9 1 -4 3 4 14 7 25 7 13 0 18 -6 16 -17 -5
-25 -40 -22 -69 6 -17 17 -19 22 -6 18 9 -4 17 -2 17 4 0 6 4 8 10 4 5 -3 8
-11 6 -18z m-1496 -21 c0 -2 -11 -6 -25 -8 -14 -3 -25 -1 -25 3 0 5 11 9 25 9
14 0 25 -2 25 -4z m370 0 c0 -3 -4 -8 -10 -11 -5 -3 -10 -1 -10 4 0 6 5 11 10
11 6 0 10 -2 10 -4z m-15 -66 c-3 -5 -17 -10 -30 -10 -13 0 -27 5 -30 10 -4 6
8 10 30 10 22 0 34 -4 30 -10z m-391 -108 c2 -4 -4 -9 -15 -9 -11 -1 -17 2
-14 8 7 11 22 12 29 1z m184 -10 c2 -7 -1 -12 -8 -12 -6 0 -8 5 -5 10 3 6 1
10 -4 10 -6 0 -11 -4 -11 -10 0 -5 -8 -10 -17 -10 -15 0 -14 2 3 15 21 16 36
15 42 -3z"/>
<path d="M965 1169 c-4 -6 -16 -14 -28 -18 -20 -8 -20 -8 1 -13 15 -4 22 -2
22 7 0 8 8 15 18 17 12 2 13 6 5 11 -6 4 -15 2 -18 -4z"/>
<path d="M1040 1158 c0 -5 18 -8 40 -8 22 0 40 4 40 9 0 5 -18 8 -40 7 -22 0
-40 -4 -40 -8z"/>
<path d="M1205 1160 c3 -5 10 -10 16 -10 5 0 9 5 9 10 0 6 -7 10 -16 10 -8 0
-12 -4 -9 -10z"/>
<path d="M1381 1154 c0 -11 3 -14 6 -6 3 7 2 16 -1 19 -3 4 -6 -2 -5 -13z"/>
<path d="M1300 1105 c4 -5 10 -19 13 -30 2 -12 4 -9 2 7 -1 15 3 29 9 32 6 2
1 3 -11 3 -14 -1 -19 -5 -13 -12z"/>
<path d="M1340 1108 c0 -7 -3 -23 -6 -35 -5 -18 -2 -23 12 -23 25 1 52 22 47
38 -7 18 -21 14 -28 -8 -4 -11 -10 -18 -15 -15 -5 3 -5 16 0 30 6 16 6 25 0
25 -6 0 -10 -6 -10 -12z"/>
<path d="M1195 1100 c4 -6 -11 -11 -37 -12 l-43 -1 37 -4 c44 -5 82 10 54 20
-10 4 -15 3 -11 -3z"/>
<path d="M732 1085 c0 -16 2 -22 5 -12 2 9 2 23 0 30 -3 6 -5 -1 -5 -18z"/>
<path d="M1826 1122 c-3 -3 -6 -9 -6 -14 0 -11 37 -10 44 1 6 10 -30 22 -38
13z"/>
<path d="M457 1133 c-4 -3 -7 -11 -7 -17 0 -6 5 -5 12 2 6 6 9 14 7 17 -3 3
-9 2 -12 -2z"/>
<path d="M510 1061 c0 -10 40 -22 52 -15 18 11 6 24 -22 24 -16 0 -30 -4 -30
-9z"/>
<path d="M935 1570 c3 -5 8 -10 11 -10 2 0 4 5 4 10 0 6 -5 10 -11 10 -5 0 -7
-4 -4 -10z"/>
<path d="M935 1540 c-3 -5 -1 -10 4 -10 6 0 11 5 11 10 0 6 -2 10 -4 10 -3 0
-8 -4 -11 -10z"/>
<path d="M670 1526 c0 -16 18 -31 27 -22 3 3 -2 12 -11 21 -14 14 -16 14 -16
1z"/>
<path d="M642 1500 c0 -14 2 -19 5 -12 2 6 2 18 0 25 -3 6 -5 1 -5 -13z"/>
<path d="M646 1453 c-6 -14 -5 -15 5 -6 7 7 10 15 7 18 -3 3 -9 -2 -12 -12z"/>
<path d="M810 1460 c0 -5 7 -10 15 -10 8 0 15 5 15 10 0 6 -7 10 -15 10 -8 0
-15 -4 -15 -10z"/>
<path d="M2167 1429 c7 -7 15 -10 18 -7 3 3 -2 9 -12 12 -14 6 -15 5 -6 -5z"/>
<path d="M810 1355 c0 -55 3 -76 12 -73 6 2 13 11 16 19 3 11 2 11 -7 -1 -8
-12 -11 -5 -11 28 0 23 5 42 10 42 15 0 12 29 -5 46 -13 14 -15 7 -15 -61z"/>
<path d="M2175 1390 c3 -5 8 -10 11 -10 2 0 4 5 4 10 0 6 -5 10 -11 10 -5 0
-7 -4 -4 -10z"/>
<path d="M2274 1376 c-7 -17 -30 -22 -36 -7 -1 5 -8 3 -15 -4 -9 -10 -6 -12
14 -12 14 0 30 -7 35 -14 8 -11 9 -10 4 4 -3 11 0 17 9 17 17 0 20 16 5 25 -6
3 -13 -1 -16 -9z"/>
<path d="M851 1337 c2 -24 -1 -48 -5 -55 -5 -9 -1 -9 15 -3 27 10 37 31 15 31
-11 0 -16 9 -15 28 2 23 2 24 6 5 5 -27 24 -31 20 -5 -9 55 -39 55 -36 -1z"/>
<path d="M946 1338 c3 -5 10 -6 15 -3 13 9 11 12 -6 12 -8 0 -12 -4 -9 -9z"/>
<path d="M1522 1313 c-2 -49 -7 -53 -66 -55 -43 0 -44 -1 -34 -24 6 -13 15
-24 20 -24 5 0 4 8 -1 18 -7 14 -6 19 4 19 7 0 11 -5 9 -11 -6 -17 58 -39 67
-24 11 17 39 19 46 2 3 -8 9 -14 14 -14 4 0 6 7 2 16 -5 13 -2 15 15 9 14 -4
22 -2 22 5 0 8 -10 10 -25 8 -26 -5 -35 6 -12 15 6 3 -2 6 -20 6 -31 1 -32 3
-36 49 l-3 47 -2 -42z m8 -74 c0 -6 -9 -7 -21 -4 -14 5 -19 4 -15 -4 5 -7 1
-8 -10 -4 -14 5 -13 8 7 19 25 13 39 10 39 -7z m30 7 c0 -3 -4 -8 -10 -11 -5
-3 -10 -1 -10 4 0 6 5 11 10 11 6 0 10 -2 10 -4z"/>
<path d="M1760 1335 c0 -8 4 -15 10 -15 5 0 7 7 4 15 -4 8 -8 15 -10 15 -2 0
-4 -7 -4 -15z"/>
<path d="M2640 1335 c0 -8 2 -15 4 -15 2 0 6 7 10 15 3 8 1 15 -4 15 -6 0 -10
-7 -10 -15z"/>
<path d="M2670 1335 c-7 -9 -8 -15 -2 -15 5 0 12 7 16 15 3 8 4 15 2 15 -2 0
-9 -7 -16 -15z"/>
<path d="M646 1323 c-6 -14 -5 -15 5 -6 7 7 10 15 7 18 -3 3 -9 -2 -12 -12z"/>
<path d="M2195 1331 c-3 -6 -1 -29 4 -52 6 -27 6 -49 0 -60 -5 -10 -8 -35 -8
-56 l2 -38 7 40 c4 22 8 36 9 30 1 -5 6 -3 11 6 6 11 6 28 -1 48 -6 18 -9 45
-5 61 5 28 -6 41 -19 21z"/>
<path d="M2247 1315 c-12 -56 -9 -195 4 -195 4 0 5 18 3 41 -2 27 1 46 11 56
13 13 16 11 27 -14 6 -15 13 -35 14 -43 6 -23 -5 -62 -16 -55 -5 3 -12 0 -16
-6 -4 -8 -3 -9 4 -5 7 4 12 2 12 -3 0 -6 5 -11 10 -11 6 0 9 3 9 8 -4 24 2 34
14 23 20 -16 9 44 -15 87 -12 22 -18 49 -16 76 2 31 -1 41 -12 41 -8 0 -18 7
-21 15 -4 10 -8 5 -12 -15z m16 -52 c-7 -54 -13 -54 -13 1 0 26 4 45 9 42 5
-3 7 -23 4 -43z"/>
<path d="M2686 1315 c-9 -26 -7 -32 5 -12 6 10 9 21 6 23 -2 3 -7 -2 -11 -11z"/>
<path d="M970 1296 c0 -22 3 -27 11 -19 8 8 8 16 0 30 -9 16 -10 14 -11 -11z"/>
<path d="M1552 1300 c0 -14 2 -19 5 -12 2 6 2 18 0 25 -3 6 -5 1 -5 -13z"/>
<path d="M2711 1304 c0 -11 3 -14 6 -6 3 7 2 16 -1 19 -3 4 -6 -2 -5 -13z"/>
<path d="M1012 1290 c0 -14 2 -19 5 -12 2 6 2 18 0 25 -3 6 -5 1 -5 -13z"/>
<path d="M2645 1296 c-5 -12 -3 -21 6 -26 7 -5 10 -12 6 -16 -3 -4 -13 -1 -21
5 -12 10 -14 9 -9 -8 3 -14 14 -21 28 -21 19 0 22 -4 18 -22 -4 -19 -3 -20 6
-8 15 21 14 58 -3 67 -8 4 -16 17 -18 28 -5 19 -5 19 -13 1z"/>
<path d="M2173 1230 c0 -41 2 -58 4 -37 2 20 2 54 0 75 -2 20 -4 3 -4 -38z"/>
<path d="M1770 1275 c0 -8 5 -15 10 -15 6 0 10 7 10 15 0 8 -4 15 -10 15 -5 0
-10 -7 -10 -15z"/>
<path d="M2458 1283 c7 -3 16 -2 19 1 4 3 -2 6 -13 5 -11 0 -14 -3 -6 -6z"/>
<path d="M260 1257 c0 -10 -4 -15 -10 -12 -5 3 -10 0 -10 -8 0 -10 7 -13 20
-10 22 6 24 11 10 33 -8 13 -10 12 -10 -3z"/>
<path d="M1608 1264 c-3 -5 3 -17 14 -26 21 -21 24 -10 5 17 -8 10 -16 14 -19
9z"/>
<path d="M2106 1261 c-4 -5 0 -12 6 -15 7 -3 -3 -3 -22 1 -44 9 -180 10 -180
2 0 -11 30 -19 53 -15 12 1 16 1 10 -1 -7 -3 -13 -9 -13 -14 0 -11 17 -12 24
-1 3 5 25 7 50 7 25 -1 43 2 40 6 -3 5 9 6 26 3 23 -5 30 -3 30 9 0 19 -16 31
-24 18z m-76 -23 c0 -10 -27 -10 -34 0 -2 4 4 8 15 8 10 0 19 -4 19 -8z"/>
<path d="M173 1244 c-18 -19 -16 -26 6 -19 11 3 26 -1 35 -10 15 -15 16 -15
16 4 0 14 -6 21 -19 21 -11 0 -21 4 -23 9 -1 5 -9 3 -15 -5z"/>
<path d="M560 1248 c0 -15 9 -18 45 -18 25 0 45 4 45 9 0 5 -17 8 -37 6 -22
-2 -41 2 -45 8 -5 8 -8 6 -8 -5z"/>
<path d="M2140 1246 c0 -8 4 -17 8 -20 4 -2 8 4 8 15 0 10 -4 19 -8 19 -4 0
-8 -6 -8 -14z"/>
<path d="M320 1240 c-35 -7 -35 -7 -5 -9 17 0 37 4 45 9 17 11 11 11 -40 0z"/>
<path d="M2710 1240 c0 -5 9 -10 20 -10 11 0 20 5 20 10 0 6 -9 10 -20 10 -11
0 -20 -4 -20 -10z"/>
<path d="M33 1228 c26 -7 53 -7 80 0 39 9 37 10 -38 10 -73 0 -76 -1 -42 -10z"/>
<path d="M2630 1200 c0 -18 -5 -20 -38 -16 -20 3 -44 1 -52 -4 -10 -7 -11 -10
-2 -10 6 0 12 -7 12 -16 0 -8 -4 -12 -10 -9 -5 3 -10 -1 -10 -10 0 -13 4 -14
20 -5 16 9 20 8 20 -5 0 -15 -10 -19 -44 -15 -12 1 -16 -3 -11 -10 6 -9 2 -9
-12 -2 -11 6 -28 9 -39 8 -28 -5 -35 3 -24 25 6 11 7 19 1 19 -9 0 -25 -30
-23 -42 1 -5 -3 -8 -8 -8 -5 0 -10 6 -10 13 0 8 -3 8 -9 -2 -8 -12 -10 -12
-14 0 -2 8 -3 1 -1 -15 3 -22 1 -27 -11 -22 -9 3 -15 0 -15 -10 0 -8 4 -12 10
-9 6 3 8 -20 5 -62 -2 -45 0 -70 8 -75 9 -6 9 -8 0 -8 -15 0 -18 -56 -3 -65 5
-3 7 -11 4 -18 -3 -8 0 -24 6 -38 8 -20 9 -16 6 24 -3 26 -1 47 5 47 5 0 9 -7
9 -16 0 -26 25 -9 31 22 4 16 7 22 8 14 1 -13 2 -13 11 0 10 16 10 20 14 -60
1 -20 5 -41 9 -47 4 -6 1 -17 -6 -25 -8 -7 -12 -19 -9 -26 2 -6 -1 -12 -8 -12
-6 0 -9 -4 -6 -9 3 -5 -5 -12 -19 -15 -15 -4 -25 -13 -24 -24 0 -10 3 -12 6
-4 2 6 10 12 17 12 7 0 21 9 30 19 10 11 25 17 37 14 10 -3 25 0 33 6 11 10
16 8 24 -6 9 -14 10 -13 9 10 -2 18 -8 27 -19 27 -10 0 -18 -7 -18 -15 0 -8
-8 -15 -18 -15 -25 0 -25 67 0 73 10 3 18 1 18 -4 0 -5 9 -9 19 -9 11 0 21 -6
24 -12 3 -10 8 -10 16 -2 13 12 64 6 56 -6 -3 -5 0 -12 6 -16 7 -4 9 -3 5 4
-3 6 -2 13 4 17 14 9 52 -4 45 -16 -4 -5 -1 -9 4 -9 6 0 11 9 11 20 0 12 -7
20 -16 20 -10 0 -14 6 -10 15 3 8 1 15 -4 15 -6 0 -10 -6 -10 -13 0 -7 -9 -13
-20 -13 -11 0 -20 4 -20 8 0 4 5 8 10 8 20 0 9 26 -11 27 -17 2 -20 -2 -15
-23 4 -14 2 -24 -4 -24 -6 0 -8 5 -4 12 5 8 0 9 -15 5 -26 -7 -130 26 -113 36
6 4 9 17 7 29 -3 12 0 27 5 33 8 9 2 14 -20 19 -22 4 -31 11 -29 23 5 50 -1
64 -31 69 -16 4 -27 10 -24 15 3 5 9 7 13 4 5 -2 9 7 9 20 0 29 -14 34 -21 8
-4 -14 -5 -15 -6 -2 0 8 6 24 15 35 8 10 13 13 9 7 -3 -7 -1 -13 4 -13 6 0 11
-13 11 -29 0 -17 4 -32 9 -36 6 -3 8 3 6 14 -2 13 3 21 20 25 13 3 31 9 41 13
12 4 15 3 10 -5 -4 -7 -16 -12 -26 -12 -10 0 -21 -4 -25 -9 -5 -10 44 1 64 13
5 4 9 -3 8 -14 -1 -18 -6 -20 -31 -14 -28 6 -29 5 -17 -10 21 -25 66 -17 65
11 0 18 2 20 13 12 17 -14 17 -76 1 -82 -7 -3 -3 -6 10 -6 18 -1 22 4 21 27
-1 15 2 35 6 45 5 12 3 17 -8 17 -28 0 -7 35 28 46 26 8 32 8 28 -3 -3 -7 2
-13 12 -13 9 0 13 5 10 10 -9 15 19 12 41 -5 10 -8 26 -14 34 -14 8 0 5 4 -7
9 -13 5 -23 15 -23 21 0 7 -3 10 -6 6 -4 -3 -13 0 -20 8 -9 9 -27 12 -49 10
-31 -4 -37 -2 -46 22 -5 14 -17 33 -27 40 -9 8 -11 12 -5 8 24 -12 123 -16
123 -6 0 6 -9 11 -20 11 -12 0 -17 5 -14 14 3 8 1 17 -5 21 -7 3 -11 -2 -11
-15z m-136 -115 c2 -6 -14 -10 -35 -10 -22 -1 -39 4 -39 10 0 13 69 13 74 0z
m109 -2 c-7 -2 -19 -2 -25 0 -7 3 -2 5 12 5 14 0 19 -2 13 -5z m-49 -9 c9 -3
16 -10 16 -15 0 -13 -23 -10 -44 6 -16 12 -17 15 -4 15 9 0 23 -3 32 -6z
m-129 -94 c4 -6 4 -33 0 -59 -6 -43 -10 -50 -33 -54 -27 -5 -27 -5 -6 12 23
18 37 78 21 88 -6 4 -7 1 -2 -7 5 -9 4 -11 -3 -6 -7 4 -12 14 -12 22 0 16 26
19 35 4z m-25 -65 c0 -5 -5 -3 -10 5 -5 8 -10 20 -10 25 0 6 5 3 10 -5 5 -8
10 -19 10 -25z"/>
<path d="M2700 1209 c0 -5 5 -7 10 -4 6 3 10 8 10 11 0 2 -4 4 -10 4 -5 0 -10
-5 -10 -11z"/>
<path d="M2736 1211 c-4 -7 -5 -15 -2 -18 9 -9 19 4 14 18 -4 11 -6 11 -12 0z"/>
<path d="M35 1199 c-39 -5 -35 -12 13 -22 12 -3 22 -1 22 4 0 4 7 6 15 3 8 -4
15 -13 15 -21 0 -10 -6 -13 -16 -9 -13 5 -15 1 -12 -19 3 -14 1 -25 -3 -25 -5
0 -9 7 -9 15 0 8 -4 15 -10 15 -5 0 -10 -5 -10 -11 0 -5 -4 -8 -10 -4 -5 3 -6
13 -3 23 6 16 6 16 -10 0 -9 -9 -17 -21 -17 -27 0 -11 101 -26 122 -18 7 3 3
6 -9 6 -13 1 -23 7 -23 15 0 22 18 29 24 9 3 -10 3 0 0 21 -5 35 -4 38 10 27
13 -11 16 -11 16 0 1 10 3 10 10 -2 9 -16 70 -24 70 -9 0 11 -30 21 -41 15 -5
-4 -7 0 -4 7 6 14 -65 18 -140 7z"/>
<path d="M1445 1200 c-3 -5 -2 -10 4 -10 5 0 13 5 16 10 3 6 2 10 -4 10 -5 0
-13 -4 -16 -10z"/>
<path d="M1526 1194 c-9 -24 -7 -28 9 -14 14 11 19 7 16 -12 0 -5 4 -8 11 -8
6 0 8 -3 4 -7 -9 -9 -12 -10 -63 -13 l-38 -2 40 -13 c36 -11 42 -11 62 8 12
11 30 17 41 15 12 -4 19 0 19 11 0 21 -15 30 -42 25 -14 -2 -25 2 -29 11 -7
20 -22 19 -30 -1z"/>
<path d="M1605 1200 c4 -6 11 -8 16 -5 14 9 11 15 -7 15 -8 0 -12 -5 -9 -10z"/>
<path d="M2013 1198 c7 -4 8 -8 2 -9 -5 -1 -14 -2 -20 -4 -5 -1 -18 -3 -27 -3
-22 -2 -23 -18 -2 -26 8 -3 12 -2 9 4 -3 6 4 10 17 10 13 0 30 6 37 13 11 10
13 10 7 0 -8 -14 12 -17 29 -5 24 18 13 31 -25 29 -23 -1 -34 -4 -27 -9z"/>
<path d="M355 1190 c4 -6 11 -8 16 -5 14 9 11 15 -7 15 -8 0 -12 -5 -9 -10z"/>
<path d="M2273 1190 c2 -8 0 -23 -5 -32 -5 -11 -5 -18 0 -18 14 0 21 36 10 51
-8 11 -9 11 -5 -1z"/>
<path d="M1477 1174 c5 -14 3 -15 -15 -5 -15 8 -22 8 -22 1 0 -5 3 -10 8 -11
4 0 27 -2 52 -4 35 -4 40 -2 23 5 -13 5 -23 14 -23 20 0 5 -7 10 -15 10 -9 0
-12 -6 -8 -16z"/>
<path d="M2690 1150 c0 -27 4 -40 14 -40 9 0 12 8 8 26 -4 20 0 26 18 31 16 4
18 8 8 14 -32 21 -48 10 -48 -31z"/>
<path d="M2212 1152 c1 -18 6 -32 10 -32 5 0 5 12 2 28 -10 39 -15 41 -12 4z"/>
<path d="M2352 1150 c0 -19 2 -27 5 -17 2 9 2 25 0 35 -3 9 -5 1 -5 -18z"/>
<path d="M131 1138 c-1 -22 18 -33 32 -19 9 9 8 11 -5 6 -11 -4 -18 0 -21 12
-4 15 -5 16 -6 1z"/>
<path d="M187 1130 c-6 -24 -1 -25 19 -6 18 18 18 26 0 26 -7 0 -16 -9 -19
-20z"/>
<path d="M2631 1134 c0 -11 3 -14 6 -6 3 7 2 16 -1 19 -3 4 -6 -2 -5 -13z"/>
<path d="M2720 1135 c0 -8 4 -15 10 -15 5 0 7 7 4 15 -4 8 -8 15 -10 15 -2 0
-4 -7 -4 -15z"/>
<path d="M300 1130 c0 -5 5 -10 11 -10 5 0 7 5 4 10 -3 6 -8 10 -11 10 -2 0
-4 -4 -4 -10z"/>
<path d="M2190 1084 c0 -23 2 -25 16 -13 10 8 12 15 5 17 -6 2 -9 8 -5 13 3 5
0 9 -5 9 -6 0 -11 -12 -11 -26z"/>
<path d="M2722 1099 c2 -6 8 -10 13 -10 5 0 11 4 13 10 2 6 -4 11 -13 11 -9 0
-15 -5 -13 -11z"/>
<path d="M2230 1090 c0 -5 5 -10 11 -10 5 0 7 5 4 10 -3 6 -8 10 -11 10 -2 0
-4 -4 -4 -10z"/>
<path d="M2316 1074 c-10 -26 -7 -34 12 -34 12 0 14 2 4 8 -7 5 -10 16 -6 25
3 9 4 17 1 17 -3 0 -8 -7 -11 -16z"/>
<path d="M2094 1072 c14 -6 16 -11 8 -16 -15 -9 -16 -26 -2 -26 6 0 10 7 10
15 0 8 7 15 15 15 21 0 19 -16 -5 -33 -20 -14 -20 -15 12 -22 28 -7 30 -9 11
-12 -17 -3 -23 -11 -23 -31 l0 -27 18 23 18 23 -4 -37 c-4 -28 -2 -35 8 -29
10 6 12 4 7 -9 -4 -10 -7 -22 -7 -27 0 -4 -6 -6 -14 -3 -8 3 -28 -2 -44 -10
-23 -12 -32 -13 -35 -3 -3 7 -6 5 -6 -5 -2 -31 -21 -19 -21 12 0 30 14 41 23
18 3 -7 6 -3 6 9 1 15 -4 21 -13 17 -10 -4 -12 5 -10 37 2 23 0 38 -4 34 -4
-4 -7 -16 -7 -28 0 -11 -6 -22 -12 -24 -7 -3 -13 2 -13 11 0 9 -8 16 -17 15
-10 0 -13 -3 -6 -5 7 -3 9 -12 6 -20 -3 -8 -2 -14 3 -13 22 4 37 -2 29 -10 -6
-4 -29 -6 -51 -4 -41 5 -42 5 -40 46 l1 41 -97 3 c-53 1 -124 4 -157 7 -38 3
-61 1 -63 -5 -3 -8 -15 -8 -43 0 -51 14 -108 14 -100 1 4 -6 15 -8 26 -5 14 5
19 1 20 -12 0 -10 2 -26 4 -35 4 -24 -17 -23 -45 2 -24 21 -46 27 -35 10 3 -5
2 -10 -4 -10 -5 0 -12 6 -14 13 -3 6 -6 2 -6 -10 -1 -12 -5 -25 -11 -28 -5 -3
-10 -11 -10 -17 0 -6 10 -3 23 8 12 11 28 19 35 18 6 -1 19 -2 28 -3 11 -1 14
-7 10 -17 -6 -15 -4 -15 19 0 22 15 26 15 30 1 3 -8 8 -23 11 -32 4 -15 3 -16
-7 -5 -26 25 -55 13 -50 -20 0 -5 -5 -8 -11 -8 -9 0 -9 -3 1 -9 8 -5 20 -7 28
-4 7 3 13 1 13 -4 0 -6 19 -7 48 -2 26 4 52 8 59 8 16 1 14 68 -1 68 -7 0 -17
-6 -24 -13 -9 -10 -7 -14 8 -19 11 -4 20 -11 20 -17 0 -12 -22 4 -57 39 -12
13 -17 23 -10 24 37 2 58 6 64 12 3 4 -1 7 -9 7 -9 0 -31 2 -49 5 -30 4 -31 4
-9 -5 l25 -9 -25 2 c-17 1 -25 8 -24 19 1 10 -2 15 -7 13 -4 -3 -7 3 -6 14 1
13 5 17 12 11 11 -9 15 -10 46 -10 11 0 18 -4 15 -9 -3 -4 6 -13 19 -19 14 -7
25 -16 25 -22 0 -5 7 -10 15 -10 18 0 20 -17 3 -22 -9 -3 -9 -6 0 -12 7 -4 12
-2 12 6 0 7 6 2 14 -12 8 -15 9 -30 4 -37 -6 -7 -4 -14 3 -19 8 -4 9 -3 5 4
-4 7 -2 12 3 12 6 0 11 -4 11 -9 0 -4 12 -6 26 -3 20 4 25 1 22 -9 -3 -8 -22
-15 -47 -17 -26 -2 -41 1 -37 6 10 17 -24 22 -69 10 -25 -7 -45 -15 -45 -19 0
-8 29 -22 56 -28 4 0 1 -8 -6 -16 -10 -12 -17 -9 -50 25 -31 33 -42 38 -73 36
-20 -2 -34 1 -31 5 7 12 -10 11 -22 -1 -6 -6 -14 -2 -23 12 -11 18 -11 20 4
15 9 -4 14 -3 10 3 -5 9 14 15 37 11 3 0 5 7 3 17 -2 9 -4 23 -4 30 -1 10 -6
10 -22 2 -12 -7 -18 -18 -15 -26 7 -18 -23 -31 -34 -15 -5 9 -9 8 -13 -4 -4
-9 -3 -14 2 -10 5 3 15 -8 22 -24 14 -32 46 -43 88 -31 26 7 57 -10 44 -24
-10 -10 -43 -7 -43 4 0 6 -11 3 -25 -6 -15 -10 -25 -12 -25 -5 0 6 -8 11 -19
11 -10 0 -24 7 -31 15 -7 8 -17 15 -23 15 -6 0 -3 -6 7 -13 14 -10 15 -14 4
-14 -7 0 -19 6 -26 13 -10 11 -7 15 14 20 19 5 22 9 13 15 -8 5 -17 3 -21 -4
-5 -8 -11 -8 -15 -2 -10 13 -36 18 -29 6 5 -8 -24 -8 -52 -2 -1 1 2 10 8 21 8
15 8 20 -2 20 -9 0 -9 3 0 12 14 14 16 94 2 103 -6 4 -11 -14 -12 -47 l-1 -53
-7 55 c-8 55 -8 55 -8 -20 1 -41 -2 -85 -5 -98 -4 -13 -2 -20 4 -17 5 4 6 11
3 17 -4 6 -1 9 7 6 10 -3 15 -24 16 -64 1 -32 0 -53 -3 -46 -6 13 -24 7 -24
-8 0 -6 10 -9 23 -8 20 2 22 7 21 60 0 32 4 58 8 58 5 0 6 -5 2 -12 -5 -7 -2
-9 9 -5 9 3 21 -1 29 -11 9 -11 10 -14 1 -8 -9 5 -13 0 -13 -13 0 -12 -7 -21
-16 -21 -9 0 -14 -7 -12 -17 4 -21 28 -30 28 -10 0 10 8 13 28 9 l27 -5 -24
22 -24 21 26 0 c20 0 27 -5 27 -20 0 -13 5 -18 15 -14 8 4 15 12 15 20 0 8 6
11 15 8 8 -4 15 -14 15 -23 0 -12 -10 -17 -37 -18 -22 -1 -43 -9 -50 -19 -12
-16 -17 -13 -14 8 0 4 -12 0 -27 -8 -15 -7 -37 -14 -49 -14 -26 0 -39 -18 -24
-33 14 -14 14 -30 -1 -25 -11 4 -20 30 -19 58 3 56 -2 106 -10 116 -6 7 -2 17
11 29 11 10 20 23 20 29 0 6 -4 5 -9 -3 -6 -9 -11 -10 -15 -2 -4 6 -11 9 -15
7 -4 -3 -14 6 -21 19 -7 14 -16 25 -19 25 -4 0 -5 18 -3 40 3 25 0 40 -7 40
-6 0 -11 -20 -11 -48 0 -37 4 -50 21 -61 18 -11 19 -15 8 -23 -11 -8 -10 -9 4
-4 9 3 17 1 17 -4 0 -6 -13 -10 -30 -10 -25 0 -30 4 -30 23 0 23 -17 47 -32
47 -4 0 -8 -6 -8 -12 0 -16 -49 -40 -64 -31 -7 4 -7 1 1 -7 6 -7 9 -19 6 -26
-3 -10 2 -14 18 -14 18 0 20 3 10 9 -10 6 -6 11 15 19 16 6 23 11 16 11 -7 1
-10 6 -7 11 4 6 11 7 17 4 7 -5 8 -2 3 6 -5 9 -4 11 3 6 7 -4 12 -21 12 -37 0
-27 -2 -29 -21 -18 -14 7 -19 7 -15 0 4 -5 -4 -16 -16 -23 -13 -7 -23 -20 -23
-28 0 -8 -11 -17 -25 -21 -17 -5 -19 -7 -7 -8 24 -1 16 -25 -9 -29 -16 -3 -16
-1 -4 7 10 7 11 11 3 11 -7 0 -13 6 -13 14 0 16 27 29 41 21 5 -4 6 1 3 9 -3
9 -13 16 -21 16 -8 0 -11 -4 -8 -10 3 -5 -1 -10 -11 -10 -12 0 -15 -6 -12 -25
4 -17 1 -25 -9 -25 -8 0 -12 4 -9 9 4 5 -7 12 -24 16 -16 4 -45 17 -65 31 -44
29 -46 29 -68 3 -25 -29 -14 -36 12 -8 l21 23 25 -24 c13 -12 23 -26 20 -29
-2 -4 5 -8 16 -9 42 -4 49 -6 49 -13 0 -4 -8 -13 -17 -18 -17 -10 -17 -10 0
-11 9 0 17 5 17 11 0 5 5 7 11 3 6 -3 29 -7 50 -8 44 -3 60 -13 39 -26 -10 -7
-11 -10 -2 -10 6 0 12 -10 12 -22 0 -13 4 -18 8 -12 4 5 17 10 30 10 17 0 25
-9 32 -36 5 -19 10 -43 10 -52 0 -23 7 -23 90 6 74 26 127 26 93 0 -10 -7 -13
-14 -6 -14 6 0 14 -15 16 -32 l4 -33 -1 35 c0 20 3 41 7 47 11 18 -20 36 -54
29 -21 -4 -28 -2 -23 5 4 7 1 10 -7 7 -8 -3 -13 -11 -12 -17 2 -6 -1 -11 -6
-11 -12 0 -61 47 -55 53 3 3 -6 13 -20 22 -36 24 -35 55 2 49 20 -3 23 -2 12
5 -13 9 -13 14 -2 32 21 33 8 33 -24 0 l-29 -30 -1 25 c-1 13 2 21 7 18 5 -3
9 3 10 13 0 10 3 13 6 6 9 -25 22 -13 17 16 -6 28 10 51 24 36 4 -4 1 -10 -6
-12 -10 -4 -9 -8 4 -17 20 -15 26 -95 8 -113 -10 -10 -13 -10 -17 0 -3 6 -6 8
-6 2 0 -5 9 -21 20 -35 11 -14 18 -18 14 -10 -4 10 -1 9 8 -2 8 -10 19 -18 24
-18 15 0 46 38 39 48 -3 5 7 12 22 15 15 3 30 0 34 -6 5 -8 12 -6 21 7 12 16
22 18 60 13 43 -6 70 4 47 18 -5 3 -10 14 -10 24 0 12 8 18 28 18 15 0 39 3
55 6 16 3 25 2 22 -4 -4 -5 1 -9 9 -9 8 0 17 -3 19 -8 3 -4 -15 -8 -39 -9 -24
-1 -44 2 -44 6 0 4 -9 7 -20 7 -11 0 -20 -3 -20 -7 0 -15 29 -29 46 -23 14 4
16 3 5 -4 -11 -8 -9 -11 8 -17 11 -3 26 -3 31 0 6 4 17 1 25 -5 12 -10 15 -10
15 0 0 7 7 10 15 6 8 -3 15 -1 15 5 0 6 5 7 10 4 6 -3 10 -22 10 -41 0 -24 5
-34 15 -34 9 0 19 -10 24 -22 6 -16 10 -18 16 -8 5 8 1 16 -10 22 -14 8 -15
12 -4 19 8 5 23 8 34 8 20 0 20 0 0 -9 -11 -5 -15 -9 -8 -9 15 -1 -4 -61 -19
-61 -6 0 -8 -7 -5 -15 4 -8 2 -17 -3 -20 -6 -4 -11 0 -11 7 -1 7 -2 18 -4 23
-1 6 -3 20 -3 33 -3 39 -19 24 -19 -18 0 -21 3 -37 7 -35 11 7 21 -24 14 -38
-3 -7 8 3 25 22 30 34 57 38 30 5 -11 -13 -11 -18 -1 -21 6 -3 12 -11 12 -19
0 -9 -4 -13 -9 -10 -5 3 -11 -3 -14 -14 -5 -19 9 -38 20 -26 3 3 8 27 10 53 3
26 10 54 16 61 8 10 5 14 -11 19 -22 5 -31 23 -12 23 6 0 10 7 10 16 0 8 5 12
11 8 7 -4 9 0 6 12 -3 11 -9 36 -13 56 -6 35 -7 37 -26 24 -15 -11 -27 -12
-46 -5 -15 6 -36 8 -48 5 -13 -4 -26 -2 -29 4 -3 6 1 7 9 4 9 -4 16 -1 16 6 0
7 7 10 16 6 9 -4 13 -2 8 5 -4 7 -1 10 7 7 19 -6 84 19 81 32 -1 7 3 8 9 4 9
-5 4 -14 -15 -31 -15 -13 -32 -21 -37 -18 -5 4 -9 2 -9 -4 0 -5 9 -9 20 -8 11
1 20 5 20 10 0 5 8 6 19 2 16 -5 19 2 24 47 12 99 11 103 -28 105 -40 2 -41 1
-18 -18 9 -8 14 -9 10 -2 -6 10 5 11 33 3 3 -1 -6 -6 -19 -11 -16 -6 -28 -6
-37 2 -19 15 -18 25 6 49 23 23 31 26 24 7 -3 -8 5 -13 21 -15 23 -2 25 2 25
38 0 33 3 38 18 33 9 -4 20 -11 23 -15 3 -5 28 -13 55 -17 47 -8 46 -11 -6
-16 -14 -1 -30 -4 -37 -6 -6 -2 -18 5 -26 16 -14 18 -15 15 -13 -38 3 -58 10
-76 23 -63 4 4 3 10 -3 14 -6 4 -7 18 -3 32 4 14 7 21 8 16 1 -5 7 -4 14 1 6
6 26 13 44 16 25 5 31 3 27 -8 -3 -8 -21 -17 -40 -21 -36 -7 -46 -32 -20 -53
20 -16 96 -23 96 -9 0 9 3 9 11 1 14 -14 1 -36 -17 -29 -8 3 -14 2 -14 -3 0
-13 -62 -71 -76 -71 -11 0 -28 -36 -25 -54 1 -4 -4 -14 -10 -22 -10 -12 -9
-13 5 -8 9 3 16 2 16 -4 0 -5 -7 -12 -15 -16 -15 -5 -10 -36 6 -36 4 0 6 7 3
15 -4 8 -1 15 5 15 6 0 11 -6 11 -12 0 -9 4 -8 10 2 8 12 10 10 11 -10 1 -18
3 -20 6 -7 7 28 -6 67 -22 67 -8 0 -15 5 -15 11 0 7 10 9 27 4 23 -5 25 -4 14
9 -7 9 -18 13 -24 9 -22 -13 5 17 32 36 l28 20 1 -30 c1 -26 -1 -29 -11 -15
-9 12 -16 13 -27 5 -13 -9 -12 -10 2 -5 11 3 15 0 13 -7 -8 -21 9 -35 51 -39
44 -5 91 -26 64 -29 -8 -1 -18 -1 -22 0 -5 0 -8 -14 -8 -33 0 -26 5 -36 20
-40 11 -3 29 -9 40 -12 17 -5 20 -1 19 28 0 31 -1 32 -11 11 -10 -21 -47 -33
-49 -15 0 4 -2 15 -4 25 -4 20 30 43 40 27 8 -12 25 -13 25 -1 0 11 -50 44
-67 44 -15 0 -13 28 2 39 6 4 -1 7 -15 6 -48 -2 -48 2 -2 47 42 42 44 45 21
45 -23 1 -22 2 6 14 32 14 49 11 39 -6 -5 -7 -2 -8 5 -4 7 5 10 15 7 23 -3 8
-1 11 4 8 6 -3 10 -2 10 3 0 5 9 12 19 15 25 6 36 -19 13 -28 -15 -6 -15 -8 3
-16 20 -9 20 -9 0 -6 -12 2 -19 10 -19 20 1 9 -2 14 -7 11 -18 -11 -8 -33 19
-42 16 -6 20 -11 10 -11 -9 -1 -20 -5 -23 -11 -3 -5 0 -7 8 -4 8 3 18 1 22 -5
3 -6 -1 -11 -9 -11 -20 0 -29 -17 -15 -26 8 -5 9 -3 4 6 -5 8 -3 11 6 8 9 -3
15 -22 17 -49 2 -32 0 -40 -8 -29 -5 8 -10 10 -10 4 0 -5 5 -15 12 -22 15 -15
6 -24 -16 -16 -9 3 -13 11 -9 17 3 6 1 7 -5 3 -19 -11 -14 -36 7 -36 11 0 27
-3 36 -7 15 -5 16 -1 10 37 -4 24 -3 45 2 49 6 3 13 20 17 36 5 21 4 26 -3 15
-6 -8 -12 -12 -15 -10 -5 6 -8 52 -7 107 1 36 4 42 22 40 19 -1 21 -6 17 -59
-2 -31 -2 -55 1 -53 3 1 6 -10 7 -27 1 -21 -1 -26 -8 -16 -7 9 -8 1 -4 -24 2
-21 0 -40 -5 -43 -5 -4 -9 -12 -9 -18 0 -7 4 -6 10 3 8 13 10 12 10 -2 0 -10
-4 -18 -9 -18 -5 0 -8 -8 -6 -17 2 -10 4 -28 4 -41 1 -13 5 -21 10 -18 9 6 11
22 14 167 l2 76 40 -2 c22 -1 28 0 13 2 -16 2 -28 8 -28 13 0 5 -7 7 -15 4 -9
-4 -15 0 -15 9 0 19 33 17 42 -3 5 -12 7 -10 8 5 1 20 1 20 16 0 16 -20 16
-20 12 0 -2 12 -11 19 -21 19 -12 -1 -17 4 -15 14 5 23 35 27 41 5 3 -13 5
-10 6 8 1 23 -2 25 -31 21 -18 -2 -39 -9 -45 -14 -10 -8 -13 7 -14 68 -1 44
-1 94 0 112 2 26 -1 32 -17 32 -11 0 -35 2 -53 5 -24 4 -28 3 -15 -3z m62 -38
c-4 -9 -9 -15 -11 -12 -3 3 -3 13 1 22 4 9 9 15 11 12 3 -3 3 -13 -1 -22z
m-449 -57 c8 -9 -10 -37 -20 -30 -6 3 -7 1 -3 -6 4 -6 11 -9 16 -6 16 10 20
-13 5 -25 -12 -10 -15 -10 -15 1 0 8 -10 25 -21 39 -11 14 -18 19 -14 12 6
-11 3 -11 -13 -1 -12 7 -19 16 -16 20 4 7 73 3 81 -4z m209 -7 c0 -11 -4 -20
-8 -20 -10 0 -11 24 -1 33 9 9 9 10 9 -13z m-140 -19 c-2 -37 -16 -53 -17 -20
-1 13 -1 27 0 31 0 4 -5 5 -13 2 -8 -3 -17 -1 -21 5 -4 7 5 11 23 11 26 0 29
-3 28 -29z m109 19 c8 -13 -15 -13 -35 0 -12 8 -11 10 7 10 12 0 25 -4 28 -10z
m-155 -14 c0 -3 -4 -8 -10 -11 -5 -3 -10 -1 -10 4 0 6 5 11 10 11 6 0 10 -2
10 -4z m-270 -71 c0 -8 -2 -15 -4 -15 -2 0 -6 7 -10 15 -3 8 -1 15 4 15 6 0
10 -7 10 -15z m567 -6 c-3 -9 -1 -23 4 -31 6 -11 1 -18 -18 -27 -23 -11 -29
-10 -39 4 -7 10 -19 15 -26 13 -7 -3 -18 2 -25 11 -6 9 -15 13 -19 9 -4 -4 -1
-14 6 -23 11 -13 8 -13 -19 -4 -32 11 -47 26 -37 36 3 3 13 0 23 -8 11 -9 14
-10 9 -1 -11 19 40 15 75 -5 16 -10 29 -21 29 -26 0 -4 5 -5 10 -2 7 4 7 13 0
26 -8 14 -7 19 2 19 9 0 9 3 -2 10 -8 5 -17 5 -20 0 -3 -4 -16 -2 -30 5 -24
13 -22 14 28 12 43 -2 52 -5 49 -18z m-447 -28 c21 -9 18 -10 -20 -5 -51 7
-54 9 -46 23 4 7 13 7 24 2 9 -5 28 -14 42 -20z m-369 -14 c-10 -9 -11 -8 -5
6 3 10 9 15 12 12 3 -3 0 -11 -7 -18z m999 8 c0 -8 -7 -15 -15 -15 -13 0 -14
3 -3 15 16 18 18 18 18 0z m-1053 -35 c-1 -10 -3 -17 -6 -15 -2 3 -9 -3 -16
-12 -9 -13 -14 -13 -20 -3 -6 9 -4 11 6 5 8 -5 11 -4 6 0 -4 5 0 17 10 27 20
23 22 23 20 -2z m-42 -1 c-11 -17 -17 -76 -7 -61 7 11 10 11 15 -2 4 -9 4 -23
1 -31 -4 -8 -2 -15 4 -15 5 0 12 -9 15 -20 5 -20 -7 -25 -43 -20 -22 3 -26 10
-12 19 7 4 14 17 17 29 3 19 1 20 -21 11 -33 -12 -34 -12 -34 6 0 8 5 15 11
15 5 0 7 5 4 10 -3 6 -2 10 3 10 6 0 15 14 21 30 5 17 15 30 21 30 6 0 8 -5 5
-11z m524 -20 c-10 -6 -8 -9 8 -9 13 0 21 5 19 13 -1 6 -1 9 1 5 3 -5 10 -8
17 -8 7 0 13 -6 13 -14 0 -8 -6 -12 -13 -9 -7 3 -28 -5 -46 -18 -30 -20 -31
-21 -15 -2 15 17 15 22 4 31 -8 7 -16 11 -18 9 -2 -1 5 6 16 15 12 10 21 13
24 6 2 -6 -3 -14 -10 -19z m314 -21 c4 -10 8 -9 16 2 5 8 13 12 16 8 5 -5 -51
-68 -59 -68 -2 0 1 50 3 63 2 12 19 8 24 -5z m-493 -60 c0 -11 -12 -10 -30 2
-12 7 -10 9 8 7 12 0 22 -5 22 -9z m105 2 c-3 -5 -12 -10 -18 -10 -7 0 -6 4 3
10 19 12 23 12 15 0z m35 0 c0 -5 -4 -10 -10 -10 -5 0 -10 5 -10 10 0 6 5 10
10 10 6 0 10 -4 10 -10z m80 -40 c0 -16 -4 -30 -10 -30 -5 0 -10 14 -10 30 0
17 5 30 10 30 6 0 10 -13 10 -30z m45 8 c-3 -8 -12 -15 -20 -15 -20 0 -19 7 2
23 21 15 26 13 18 -8z m248 -4 c-2 -4 -14 -9 -28 -10 -19 -1 -22 2 -15 12 12
13 46 12 43 -2z m-703 -14 c0 -5 -2 -10 -4 -10 -3 0 -8 5 -11 10 -3 6 -1 10 4
10 6 0 11 -4 11 -10z m-90 -40 c0 -14 11 -25 31 -34 25 -10 28 -14 14 -20 -9
-3 -21 -3 -26 0 -6 3 -16 0 -24 -6 -12 -10 -15 -9 -15 4 0 10 5 14 10 11 16
-10 12 11 -5 25 -8 7 -15 19 -15 26 0 8 7 14 15 14 8 0 15 -9 15 -20z"/>
<path d="M1930 750 c0 -5 5 -10 10 -10 6 0 10 5 10 10 0 6 -4 10 -10 10 -5 0
-10 -4 -10 -10z"/>
<path d="M2252 1068 c-11 -11 -5 -38 9 -38 4 0 6 7 3 15 -4 8 -1 15 6 15 6 0
8 -5 5 -10 -3 -6 0 -13 9 -16 22 -9 7 -34 -20 -34 -17 0 -24 -6 -24 -19 0 -11
-4 -22 -9 -25 -4 -3 -7 8 -5 25 2 17 -1 38 -6 48 -7 11 -9 -8 -8 -66 3 -79 4
-83 26 -83 19 0 22 4 17 20 -9 27 -10 79 -2 87 13 12 18 -4 19 -55 1 -48 3
-50 32 -55 17 -3 32 -4 34 -2 3 2 5 97 3 133 0 13 -5 21 -9 18 -5 -3 -8 -38
-6 -77 3 -67 -10 -87 -18 -29 -2 14 -9 24 -16 23 -7 -2 -12 8 -12 23 0 19 4
25 15 21 8 -4 17 -2 20 3 4 6 1 10 -5 10 -6 0 -10 6 -8 13 7 37 -29 76 -50 55z
m45 -170 c-3 -7 -5 -2 -5 12 0 14 2 19 5 13 2 -7 2 -19 0 -25z"/>
<path d="M0 1043 c0 -15 2 -15 24 -7 22 9 20 20 -4 20 -11 0 -20 -6 -20 -13z"/>
<path d="M2610 1050 c-13 -8 -12 -10 3 -10 9 0 17 5 17 10 0 12 -1 12 -20 0z"/>
<path d="M2673 1023 c0 -18 4 -33 9 -33 10 0 9 18 -2 45 -6 16 -8 14 -7 -12z"/>
<path d="M2622 1021 c-26 -21 -28 -31 -8 -31 8 0 17 8 19 18 4 13 5 12 6 -4 1
-26 19 -34 74 -34 39 0 40 1 21 16 -16 13 -16 15 -1 10 19 -6 24 10 5 17 -10
4 -10 6 0 6 17 1 15 21 -3 21 -8 0 -15 -7 -15 -16 0 -8 -4 -12 -10 -9 -5 3 -7
0 -4 -8 6 -17 -19 -29 -41 -21 -10 4 -13 14 -9 30 7 29 -5 31 -34 5z"/>
<path d="M306 1018 c5 -7 -1 -9 -14 -6 -22 6 -30 -6 -12 -17 6 -4 8 -11 5 -16
-4 -5 4 -7 17 -5 13 3 46 5 73 6 28 1 42 4 32 7 -13 3 -16 10 -12 24 6 18 5
19 -14 7 -16 -10 -27 -10 -51 -1 -21 8 -28 8 -24 1z m52 -25 c-10 -2 -26 -2
-35 0 -10 3 -2 5 17 5 19 0 27 -2 18 -5z"/>
<path d="M1735 1020 c-3 -5 -2 -10 4 -10 5 0 13 5 16 10 3 6 2 10 -4 10 -5 0
-13 -4 -16 -10z"/>
<path d="M2260 1020 c-9 -6 -10 -10 -3 -10 6 0 15 5 18 10 8 12 4 12 -15 0z"/>
<path d="M7 998 c-4 -14 0 -26 11 -34 22 -16 26 -11 12 16 -11 20 -10 21 9 11
24 -13 34 -14 26 -2 -3 5 -1 12 4 15 10 7 27 -52 17 -61 -3 -3 -13 0 -22 8
-16 13 -16 12 -5 -8 13 -26 41 -21 41 8 0 18 2 18 35 2 20 -9 31 -21 27 -27
-3 -6 -5 -19 -4 -28 2 -10 -2 -18 -7 -18 -6 0 -11 5 -11 11 0 16 -28 41 -34
30 -3 -5 1 -12 10 -15 8 -3 13 -10 10 -15 -4 -5 -3 -16 0 -25 5 -13 9 -14 20
-5 10 8 14 8 14 0 0 -6 3 -11 8 -11 4 0 7 15 7 33 0 25 4 32 20 32 26 0 42 16
51 50 5 20 9 24 16 13 8 -11 9 -10 6 1 -7 24 -51 24 -66 0 -17 -27 -5 -40 14
-15 7 11 16 17 19 14 3 -2 -4 -15 -15 -29 -13 -14 -24 -19 -28 -13 -4 5 -24
18 -44 27 -37 18 -50 29 -26 25 6 -2 13 4 15 12 3 11 -5 15 -30 14 -19 -1 -39
-4 -45 -8 -6 -4 -20 -2 -31 3 -15 9 -20 7 -24 -11z"/>
<path d="M156 1003 c-6 -14 -5 -15 5 -6 7 7 10 15 7 18 -3 3 -9 -2 -12 -12z"/>
<path d="M770 992 c0 -19 18 -42 32 -42 4 0 8 12 7 28 0 24 -1 25 -9 7 -8 -19
-9 -19 -9 3 -1 26 -21 30 -21 4z"/>
<path d="M876 998 c-14 -41 -15 -48 -7 -48 5 0 11 -7 14 -15 5 -11 1 -12 -18
-5 -15 6 -34 6 -47 0 -21 -8 -22 -9 -3 -11 84 -8 93 -11 60 -18 -16 -4 -35 -3
-42 1 -6 5 -14 5 -18 -2 -4 -7 -12 -7 -25 0 -32 17 -52 13 -45 -10 5 -14 2
-20 -10 -20 -12 0 -15 6 -10 20 5 15 2 20 -10 20 -12 0 -16 -6 -12 -20 3 -11
1 -23 -4 -26 -5 -3 -9 5 -9 17 0 18 -4 20 -27 14 -16 -3 -50 -10 -78 -13 -50
-7 -51 -17 -2 -26 15 -2 27 -1 27 4 0 5 7 7 16 3 12 -4 11 -8 -7 -17 -37 -18
-36 -37 0 -23 17 6 31 17 31 25 0 7 5 10 10 7 6 -3 10 -1 10 4 0 6 -4 11 -10
11 -5 0 -10 5 -10 10 0 6 6 10 14 10 24 0 24 -35 0 -64 -13 -15 -24 -22 -24
-17 0 6 -4 11 -10 11 -5 0 -9 -6 -7 -12 1 -7 -3 -12 -10 -11 -6 1 -17 -4 -23
-12 -7 -8 -19 -15 -28 -15 -13 0 -12 3 3 20 10 11 15 23 12 26 -3 4 -18 -7
-32 -22 -15 -16 -24 -24 -21 -18 3 7 -1 15 -10 18 -22 9 -59 7 -50 -1 7 -8 11
-9 37 -12 6 0 9 -7 6 -13 -8 -21 65 -18 84 3 9 10 19 16 23 12 11 -11 7 -23
-9 -23 -8 0 -15 -4 -15 -10 0 -21 30 -9 45 18 34 63 65 86 116 88 32 1 49 -3
49 -11 0 -13 28 -14 48 -1 6 4 12 3 12 -3 0 -6 7 -8 16 -4 12 4 11 8 -8 17
-19 10 -24 9 -30 -3 -4 -9 -7 -11 -7 -4 -1 7 -16 15 -35 19 -19 3 -37 13 -41
21 -4 12 -2 13 7 5 7 -5 37 -9 66 -8 38 1 51 -2 48 -11 -3 -7 -2 -12 2 -11 4
1 17 -2 30 -6 17 -6 21 -13 16 -28 -5 -17 -3 -19 15 -13 15 4 21 2 21 -9 0 -8
5 -18 12 -22 7 -4 8 -3 4 4 -4 7 -1 12 9 12 15 0 15 2 1 15 -8 8 -19 15 -25
15 -6 0 -11 6 -11 14 0 8 -14 17 -31 21 -29 6 -29 8 -14 25 11 12 13 20 6 25
-6 3 -11 12 -11 18 0 7 5 4 11 -6 8 -14 14 -16 25 -6 17 14 19 79 3 79 -7 0
-9 -12 -7 -30 3 -17 0 -34 -5 -37 -6 -3 -7 -1 -4 4 4 6 -3 13 -14 16 -12 3
-19 9 -16 14 2 4 1 17 -3 28 -7 18 -8 18 -14 3z"/>
<path d="M820 980 c0 -11 5 -20 10 -20 6 0 10 9 10 20 0 11 -4 20 -10 20 -5 0
-10 -9 -10 -20z"/>
<path d="M912 980 c0 -14 2 -19 5 -12 2 6 2 18 0 25 -3 6 -5 1 -5 -13z"/>
<path d="M980 970 c0 -16 5 -30 10 -30 6 0 10 14 10 30 0 17 -4 30 -10 30 -5
0 -10 -13 -10 -30z"/>
<path d="M1033 993 c-9 -3 -10 -9 -1 -22 16 -26 4 -51 -21 -44 -22 6 -25 0
-35 -55 -5 -30 -4 -32 14 -22 11 6 19 16 17 23 -1 7 6 11 17 9 10 -2 15 1 12
7 -3 5 1 16 9 24 15 16 21 73 8 80 -5 2 -13 2 -20 0z"/>
<path d="M1097 994 c-10 -11 -9 -54 2 -54 15 0 18 13 12 38 -3 13 -9 20 -14
16z"/>
<path d="M2453 985 c-3 -9 -3 -19 1 -22 3 -4 6 -1 6 6 0 7 5 9 10 6 6 -3 10 1
10 9 0 21 -19 21 -27 1z"/>
<path d="M1210 958 c0 -18 -3 -43 -6 -55 -5 -17 -2 -21 13 -17 15 4 17 13 15
55 -4 54 -22 68 -22 17z"/>
<path d="M1460 977 c14 -6 28 -16 32 -22 5 -6 8 -3 8 6 0 18 -20 29 -48 28
-12 0 -9 -4 8 -12z"/>
<path d="M1958 960 c2 -16 8 -30 14 -30 5 0 8 6 7 13 -3 27 2 36 24 40 14 3
10 5 -14 6 -34 1 -35 0 -31 -29z"/>
<path d="M2062 960 c0 -19 2 -27 5 -17 2 9 9 17 14 17 5 0 9 5 9 11 0 5 -4 8
-9 5 -5 -4 -12 0 -14 6 -3 7 -5 -3 -5 -22z"/>
<path d="M2525 971 c-3 -5 -1 -12 5 -16 5 -3 10 1 10 9 0 18 -6 21 -15 7z"/>
<path d="M2600 960 c0 -6 7 -10 15 -10 8 0 15 2 15 4 0 2 -7 6 -15 10 -8 3
-15 1 -15 -4z"/>
<path d="M7 953 c-4 -3 -7 -11 -7 -17 0 -6 5 -5 12 2 6 6 9 14 7 17 -3 3 -9 2
-12 -2z"/>
<path d="M250 952 c0 -5 14 -7 30 -4 17 2 30 6 30 8 0 2 -13 4 -30 4 -16 0
-30 -4 -30 -8z"/>
<path d="M2465 950 c-3 -5 -1 -10 4 -10 6 0 11 5 11 10 0 6 -2 10 -4 10 -3 0
-8 -4 -11 -10z"/>
<path d="M2675 950 c4 -6 11 -8 16 -5 14 9 11 15 -7 15 -8 0 -12 -5 -9 -10z"/>
<path d="M340 940 c-24 -8 -24 -8 -2 -9 12 -1 22 -5 22 -10 0 -9 48 -2 55 8 2
4 -10 6 -28 3 -25 -3 -29 -1 -17 7 17 12 6 13 -30 1z"/>
<path d="M670 939 c0 -11 2 -11 68 -14 28 -1 52 2 52 7 0 4 -12 9 -27 9 -16 1
-43 2 -60 4 -18 1 -33 -2 -33 -6z"/>
<path d="M2081 934 c0 -11 3 -14 6 -6 3 7 2 16 -1 19 -3 4 -6 -2 -5 -13z"/>
<path d="M2100 923 c0 -18 2 -33 4 -33 9 0 13 39 5 51 -6 10 -9 4 -9 -18z"/>
<path d="M2718 943 c6 -2 18 -2 25 0 6 3 1 5 -13 5 -14 0 -19 -2 -12 -5z"/>
<path d="M23 928 c-17 -22 -23 -47 -12 -54 6 -4 6 -11 -2 -20 -9 -11 -9 -14 1
-14 10 0 10 -3 0 -15 -13 -16 -1 -20 45 -17 14 2 16 0 7 -6 -10 -7 -4 -13 21
-26 43 -20 53 -20 37 -1 -7 8 -9 15 -4 15 5 0 -3 7 -18 15 -16 8 -39 21 -53
28 -14 8 -22 17 -19 20 8 8 35 -2 57 -21 9 -8 20 -12 23 -9 7 7 -55 47 -73 47
-6 0 -15 5 -19 11 -5 9 1 10 20 5 18 -4 25 -3 21 4 -3 5 -13 10 -21 10 -8 0
-14 5 -14 11 0 6 9 8 22 3 20 -6 21 -5 9 10 -16 19 -16 19 -28 4z"/>
<path d="M1830 929 c0 -5 5 -7 10 -4 6 3 10 8 10 11 0 2 -4 4 -10 4 -5 0 -10
-5 -10 -11z"/>
<path d="M2615 930 c27 -11 45 -12 45 -2 0 5 -15 9 -32 9 -27 1 -29 -1 -13 -7z"/>
<path d="M1068 916 c-26 -19 -24 -40 2 -26 11 6 18 15 15 20 -3 4 1 11 7 13 7
3 9 6 3 6 -5 0 -18 -6 -27 -13z"/>
<path d="M2498 923 c12 -2 30 -2 40 0 9 3 -1 5 -23 4 -22 0 -30 -2 -17 -4z"/>
<path d="M2560 920 c0 -5 -10 -11 -22 -11 -29 -2 66 -19 108 -20 23 -1 35 -7
43 -25 6 -13 14 -24 19 -24 4 0 7 -15 6 -32 -1 -18 2 -40 7 -48 7 -13 8 -12 9
3 0 9 5 17 10 17 6 0 10 5 10 11 0 8 -4 8 -14 0 -11 -9 -12 -6 -8 14 2 14 -3
37 -14 52 -17 27 -17 27 0 13 17 -13 18 -12 15 4 -2 11 -14 21 -29 23 -34 5
-81 11 -103 12 -10 0 -15 6 -12 11 3 6 -1 10 -9 10 -9 0 -16 -4 -16 -10z"/>
<path d="M2671 926 c11 -9 69 -14 69 -6 0 6 -16 10 -37 10 -20 0 -34 -2 -32
-4z"/>
<path d="M658 913 c7 -3 16 -2 19 1 4 3 -2 6 -13 5 -11 0 -14 -3 -6 -6z"/>
<path d="M72 888 c4 -29 38 -38 38 -10 0 11 -7 23 -16 26 -24 9 -26 8 -22 -16z"/>
<path d="M930 890 c-12 -8 -11 -10 7 -10 12 0 25 5 28 10 8 13 -15 13 -35 0z"/>
<path d="M2741 874 c0 -11 3 -14 6 -6 3 7 2 16 -1 19 -3 4 -6 -2 -5 -13z"/>
<path d="M2650 870 c-8 -5 -12 -12 -9 -15 4 -3 12 1 19 10 14 17 11 19 -10 5z"/>
<path d="M2545 860 c-3 -5 -1 -10 4 -10 6 0 11 5 11 10 0 6 -2 10 -4 10 -3 0
-8 -4 -11 -10z"/>
<path d="M2570 861 c0 -6 5 -13 10 -16 6 -3 10 1 10 9 0 9 -4 16 -10 16 -5 0
-10 -4 -10 -9z"/>
<path d="M1003 844 c-3 -9 0 -20 8 -25 21 -13 25 -11 25 11 0 25 -25 35 -33
14z"/>
<path d="M2305 850 c16 -5 33 -6 37 -2 4 4 -9 9 -30 9 -37 2 -37 2 -7 -7z"/>
<path d="M2508 843 c7 -3 16 -2 19 1 4 3 -2 6 -13 5 -11 0 -14 -3 -6 -6z"/>
<path d="M120 825 c0 -8 5 -15 10 -15 6 0 10 7 10 15 0 8 -4 15 -10 15 -5 0
-10 -7 -10 -15z"/>
<path d="M161 824 c0 -11 3 -14 6 -6 3 7 2 16 -1 19 -3 4 -6 -2 -5 -13z"/>
<path d="M240 830 c8 -5 24 -10 35 -10 17 0 17 2 5 10 -8 5 -24 10 -35 10 -17
0 -17 -2 -5 -10z"/>
<path d="M535 830 c-3 -5 -1 -10 4 -10 6 0 11 5 11 10 0 6 -2 10 -4 10 -3 0
-8 -4 -11 -10z"/>
<path d="M740 832 c0 -5 3 -12 7 -16 7 -7 12 -27 16 -63 2 -18 6 -21 22 -16
17 5 18 4 6 -10 -7 -9 -17 -15 -21 -12 -5 3 -11 1 -15 -5 -11 -18 -27 -11 -20
9 7 23 -5 33 -25 20 -10 -6 -11 -9 -2 -9 6 0 12 -4 12 -10 0 -15 -27 -12 -33
4 -3 7 7 26 23 41 28 27 31 52 6 52 -7 0 -11 -9 -9 -21 3 -13 -4 -29 -16 -40
-22 -20 -28 -46 -10 -46 5 0 8 -4 5 -8 -3 -5 5 -8 17 -7 12 1 28 -7 36 -17 16
-24 7 -36 -14 -18 -8 7 -15 10 -15 7 0 -3 -13 -1 -30 4 -16 6 -30 14 -30 18 0
4 -16 7 -35 6 -20 0 -34 4 -32 10 2 5 18 9 35 7 34 -3 53 15 26 25 -10 4 -19
2 -22 -5 -2 -8 -9 -9 -21 -2 -15 7 -21 4 -30 -16 -14 -32 -14 -37 1 -28 8 5 9
2 5 -10 -4 -10 -7 -22 -7 -26 0 -5 -14 -3 -32 4 -22 10 -32 21 -34 39 -1 15 0
26 4 26 21 -3 32 3 32 17 0 11 -6 13 -20 9 -10 -3 -28 -1 -39 4 -13 8 -22 8
-26 1 -4 -6 -3 -10 2 -9 19 3 33 -2 33 -12 0 -6 -7 -9 -14 -6 -10 4 -13 1 -9
-8 3 -8 8 -13 13 -10 4 2 7 -23 7 -55 0 -33 -3 -60 -7 -60 -3 0 -15 7 -26 16
-19 15 -19 15 2 11 13 -3 21 1 21 10 0 8 -6 12 -12 9 -7 -2 -34 16 -61 40 -26
25 -54 42 -60 40 -7 -3 -18 2 -24 10 -7 8 -17 14 -22 14 -6 0 -5 -7 2 -15 7
-9 -18 1 -56 21 -38 20 -72 41 -76 48 -5 7 -8 4 -8 -8 0 -15 -3 -16 -15 -6
-13 11 -14 10 -10 -2 3 -8 25 -21 48 -27 23 -7 66 -24 96 -39 38 -18 56 -23
59 -14 2 7 8 10 12 7 5 -3 6 -13 3 -21 -5 -13 -1 -15 15 -10 11 4 23 2 27 -3
3 -7 -1 -9 -12 -6 -10 3 -4 -1 14 -10 29 -13 53 -35 38 -35 -3 0 -32 13 -65
30 -41 21 -58 25 -54 15 4 -8 10 -12 15 -9 5 3 9 -4 9 -16 0 -14 -4 -19 -12
-14 -20 13 -59 14 -52 2 5 -7 0 -9 -14 -6 -14 4 -19 2 -15 -8 2 -7 10 -11 17
-8 7 3 30 6 52 7 21 1 38 7 37 13 -1 7 9 9 25 6 24 -5 25 -6 7 -14 -18 -8 -18
-8 2 -4 12 2 30 -2 40 -9 17 -13 17 -14 0 -20 -9 -4 -41 -13 -70 -20 l-52 -13
50 2 c28 2 61 8 75 13 22 10 27 8 38 -16 11 -22 12 -23 8 -3 -3 14 1 22 10 22
8 0 14 -4 14 -9 0 -5 11 -8 25 -8 29 0 33 13 6 22 -10 3 -21 16 -23 29 -4 19
-1 23 11 19 11 -4 10 0 -4 11 -19 17 -19 17 10 11 40 -9 45 -15 47 -58 1 -30
4 -35 15 -26 10 9 13 8 13 -2 0 -11 2 -11 10 1 8 13 10 13 10 -1 0 -9 7 -19
15 -23 19 -7 19 1 1 19 -9 10 -12 29 -8 62 2 26 6 49 7 51 2 2 13 -1 24 -8 12
-6 34 -13 49 -15 36 -4 82 -23 82 -32 0 -5 -5 -15 -10 -23 -8 -12 -10 -10 -11
10 0 23 -1 23 -9 5 -9 -20 -9 -20 -10 0 -1 14 -3 16 -7 6 -3 -8 2 -20 13 -28
23 -17 34 -17 34 2 0 12 5 11 33 -3 17 -9 34 -18 37 -20 2 -2 -2 -8 -10 -13
-12 -9 -11 -10 4 -5 22 8 86 -11 86 -25 0 -12 -7 -11 -31 1 -12 7 -19 7 -19 1
0 -5 10 -13 23 -17 12 -4 25 -12 30 -18 4 -6 6 14 5 44 -2 39 -7 55 -17 55 -8
0 -16 -6 -19 -14 -3 -8 0 -11 6 -7 5 3 13 -1 16 -9 5 -13 2 -14 -17 -4 -12 6
-24 13 -26 15 -1 1 13 18 32 38 19 19 38 32 41 29 3 -4 6 -1 6 5 0 18 -18 23
-32 8 -7 -7 -26 -27 -41 -45 -28 -32 -47 -33 -47 -4 0 12 3 13 14 4 11 -9 15
-8 20 6 4 10 4 14 0 11 -3 -4 -20 0 -36 8 -16 9 -37 13 -46 10 -13 -5 -12 -2
2 9 11 8 17 17 14 20 -8 8 -38 -5 -38 -17 0 -5 -4 -6 -10 -3 -15 9 -12 25 4
25 7 0 20 7 27 17 13 15 12 15 -8 5 -39 -21 -48 -12 -12 13 28 21 35 23 37 11
3 -13 8 -14 23 -5 11 5 32 8 48 6 16 -3 35 -1 42 4 9 6 -7 9 -44 9 -77 0 -147
36 -104 53 9 4 9 6 -1 6 -7 1 -10 6 -7 11 5 8 12 7 22 -2 15 -12 15 -11 2 10
-8 12 -20 20 -26 17 -7 -2 -13 0 -13 5 0 6 -4 10 -10 10 -5 0 -10 -4 -10 -8z
m-144 -169 c-5 -28 -5 -28 9 2 l14 30 -1 -36 c-1 -22 -6 -36 -14 -36 -17 0
-24 20 -17 46 8 31 16 26 9 -6z m221 -55 c-3 -8 -6 -5 -6 6 -1 11 2 17 5 13 3
-3 4 -12 1 -19z m20 -10 c-3 -8 -6 -5 -6 6 -1 11 2 17 5 13 3 -3 4 -12 1 -19z
m-226 -3 c-1 -15 -24 -12 -29 3 -3 9 2 13 12 10 10 -1 17 -7 17 -13z"/>
<path d="M1789 814 c0 -16 0 -68 0 -116 1 -63 -2 -88 -11 -88 -8 0 -9 -3 -1
-11 7 -7 6 -22 -4 -51 -7 -22 -12 -43 -9 -45 3 -3 10 10 15 28 l11 34 -5 -40
c-4 -36 -3 -38 10 -22 7 11 11 25 9 32 -3 7 -1 16 5 20 6 3 11 1 11 -5 0 -17
30 -45 30 -28 1 7 7 0 15 -17 l14 -30 -2 33 c-1 26 -5 32 -24 32 -13 0 -23 5
-23 11 0 6 7 8 16 5 9 -3 12 -2 9 4 -4 6 -12 10 -18 9 -21 -3 -52 2 -42 7 10
4 9 253 0 263 -3 2 -5 -9 -6 -25z"/>
<path d="M2423 828 c-16 -8 -23 -20 -23 -40 0 -26 2 -28 20 -18 24 13 27 25 4
16 -13 -5 -14 -4 -6 7 7 8 9 17 5 21 -4 4 0 4 10 0 12 -4 17 -1 17 10 0 9 -1
16 -2 15 -2 0 -13 -5 -25 -11z"/>
<path d="M2662 831 c2 -7 7 -12 11 -12 12 1 9 15 -3 20 -7 2 -11 -2 -8 -8z"/>
<path d="M202 820 c15 -4 41 -18 58 -30 16 -12 30 -17 30 -11 0 13 -73 51 -97
50 -11 0 -8 -4 9 -9z"/>
<path d="M875 820 c-7 -11 22 -26 32 -16 4 3 -1 6 -11 6 -9 0 -14 5 -11 10 3
6 4 10 1 10 -3 0 -8 -5 -11 -10z"/>
<path d="M2299 822 c-21 -2 -26 -7 -22 -23 6 -23 23 -26 23 -3 0 8 5 12 10 9
17 -10 11 -25 -12 -34 -21 -8 -20 -8 8 -13 29 -4 31 -2 30 28 -2 39 -3 40 -37
36z"/>
<path d="M2546 821 c-4 -7 -5 -15 -2 -18 9 -9 19 4 14 18 -4 11 -6 11 -12 0z"/>
<path d="M1820 810 c-13 -9 -13 -10 0 -10 13 0 13 -1 0 -10 -12 -8 -12 -10 -1
-10 9 0 12 -9 9 -30 -5 -36 -2 -36 37 -5 31 26 28 33 -6 15 -27 -15 -24 5 5
23 16 11 27 12 34 5 6 -6 12 -6 16 1 4 6 1 11 -6 12 -7 0 -21 2 -30 4 -10 2
-18 -2 -18 -8 0 -6 -6 -3 -12 6 -9 12 -17 14 -28 7z"/>
<path d="M2353 780 c0 -25 2 -35 4 -22 2 12 2 32 0 45 -2 12 -4 2 -4 -23z"/>
<path d="M300 800 c0 -13 28 -25 38 -16 3 4 0 11 -8 16 -20 13 -30 12 -30 0z"/>
<path d="M685 780 c-4 -6 -10 -8 -14 -6 -4 3 -8 -1 -8 -9 0 -13 4 -12 19 2 18
16 22 23 14 23 -3 0 -8 -5 -11 -10z"/>
<path d="M253 764 c10 -11 30 -20 45 -21 15 -1 41 -4 57 -7 17 -3 23 -3 15 0
-8 4 -18 12 -22 17 -3 6 -21 10 -39 9 -18 0 -42 4 -53 10 -20 10 -20 10 -3 -8z"/>
<path d="M945 770 c27 -12 43 -12 25 0 -8 5 -22 9 -30 9 -10 0 -8 -3 5 -9z"/>
<path d="M4 756 c1 -8 10 -23 19 -34 9 -10 17 -29 17 -41 0 -13 4 -20 11 -15
6 3 9 17 6 31 -3 18 -1 23 10 19 8 -3 17 -6 19 -6 3 0 3 -4 0 -9 -7 -11 66
-23 77 -12 4 4 0 14 -9 22 -12 9 -15 10 -10 2 8 -15 -8 -16 -39 -3 -18 7 -18
9 -3 15 33 13 148 -11 148 -31 0 -3 -14 -3 -31 1 -22 5 -29 4 -25 -4 4 -6 15
-11 24 -12 14 0 13 -2 -3 -9 -18 -8 -17 -9 7 -9 16 -1 27 4 25 10 -1 6 4 14
11 16 6 3 12 -2 12 -11 0 -20 16 -21 23 -2 6 15 -108 75 -119 63 -4 -4 -12 -3
-18 2 -6 4 -21 11 -33 14 -17 4 -23 1 -23 -11 0 -13 -5 -11 -19 8 -16 20 -21
22 -35 11 -12 -10 -19 -11 -30 -2 -11 10 -14 9 -12 -3z m63 -3 c-4 -3 1 -12
11 -20 16 -14 16 -14 -1 -9 -10 3 -26 6 -35 6 -15 1 -14 3 2 15 20 15 35 21
23 8z"/>
<path d="M2445 760 c-3 -5 -1 -10 4 -10 6 0 11 5 11 10 0 6 -2 10 -4 10 -3 0
-8 -4 -11 -10z"/>
<path d="M2201 744 c0 -11 3 -14 6 -6 3 7 2 16 -1 19 -3 4 -6 -2 -5 -13z"/>
<path d="M2370 688 c0 -43 4 -68 9 -62 12 12 19 104 8 104 -5 0 -7 7 -3 15 3
8 1 15 -4 15 -6 0 -10 -32 -10 -72z"/>
<path d="M2040 740 c0 -5 5 -10 10 -10 6 0 10 5 10 10 0 6 -4 10 -10 10 -5 0
-10 -4 -10 -10z"/>
<path d="M2218 733 c0 -10 -2 -23 -2 -30 -1 -6 -5 -15 -9 -19 -4 -4 -7 -14 -7
-23 0 -11 3 -12 11 -4 11 11 23 93 14 93 -3 0 -6 -8 -7 -17z"/>
<path d="M2400 741 c0 -5 6 -11 13 -14 8 -3 14 1 14 9 0 8 -6 14 -14 14 -7 0
-13 -4 -13 -9z"/>
<path d="M2730 733 c-10 -12 -11 -18 -2 -21 7 -2 10 -8 6 -13 -3 -5 -1 -9 4
-9 5 0 9 14 9 30 0 17 -1 30 -1 30 -1 -1 -8 -8 -16 -17z"/>
<path d="M2320 725 c0 -8 2 -15 4 -15 2 0 6 7 10 15 3 8 1 15 -4 15 -6 0 -10
-7 -10 -15z"/>
<path d="M2590 725 c0 -6 9 -11 19 -12 12 -1 18 3 15 11 -6 16 -34 17 -34 1z"/>
<path d="M2666 698 c11 -49 10 -71 -3 -75 -7 -3 -9 3 -6 18 4 14 2 20 -4 16
-6 -4 -13 -16 -16 -27 -3 -11 -1 -18 4 -14 5 3 9 1 9 -3 0 -14 -23 -33 -40
-33 -13 0 -13 1 0 10 8 5 11 10 5 10 -5 0 -17 -5 -25 -10 -10 -6 -11 -10 -2
-10 6 0 12 -5 12 -11 0 -6 -9 -9 -19 -6 -12 3 -22 -1 -25 -10 -3 -8 -2 -12 3
-8 5 3 11 0 13 -7 5 -13 10 -9 101 76 32 30 63 57 70 60 7 2 2 5 -10 5 -13 1
-23 7 -23 16 0 8 -4 15 -10 15 -5 0 -10 -9 -10 -21 0 -11 5 -17 10 -14 6 3 10
-1 10 -10 0 -33 -25 -8 -28 28 -2 20 -8 37 -13 37 -7 0 -8 -12 -3 -32z"/>
<path d="M540 710 c-9 -6 -10 -10 -3 -10 6 0 15 5 18 10 8 12 4 12 -15 0z"/>
<path d="M2250 711 c0 -5 -3 -17 -6 -26 -5 -12 -2 -16 12 -13 11 2 23 8 27 13
5 6 7 3 3 -7 -3 -10 2 -24 10 -33 14 -13 14 -15 0 -15 -18 0 -22 -16 -6 -22 7
-2 7 -14 -2 -35 l-14 -31 -19 21 c-22 24 -27 68 -8 74 7 3 10 -3 7 -15 -3 -10
2 -25 12 -33 16 -12 17 -12 9 1 -6 8 -10 26 -10 40 0 15 -6 26 -17 28 -10 2
-18 -1 -18 -7 0 -6 -6 -11 -13 -11 -7 0 -13 -9 -13 -20 0 -11 4 -20 8 -20 4 0
8 -15 8 -32 0 -18 5 -40 10 -48 8 -13 10 -13 10 2 0 12 5 15 16 11 11 -4 22 1
30 12 13 17 14 17 14 2 0 -10 -10 -22 -22 -27 l-23 -9 22 0 c18 -1 21 -6 19
-29 -3 -22 0 -28 15 -28 10 0 19 6 19 13 0 7 -4 13 -10 13 -5 0 -10 21 -10 48
0 33 3 43 10 32 7 -11 8 -9 6 11 -1 13 -6 31 -11 38 -5 9 -4 12 2 8 7 -5 8 5
3 29 -5 20 -10 37 -12 38 -38 25 -58 35 -58 27z"/>
<path d="M2401 704 c0 -11 3 -14 6 -6 3 7 2 16 -1 19 -3 4 -6 -2 -5 -13z"/>
<path d="M853 698 c-28 -13 -31 -32 -4 -23 16 5 19 2 15 -17 -4 -21 -4 -21 5
-3 8 17 10 18 10 3 1 -21 5 -22 32 -8 28 15 23 29 -8 27 -21 -2 -28 2 -27 16
1 9 1 17 0 16 0 0 -11 -5 -23 -11z"/>
<path d="M2028 703 c6 -2 18 -2 25 0 6 3 1 5 -13 5 -14 0 -19 -2 -12 -5z"/>
<path d="M2340 671 c0 -22 5 -43 10 -46 7 -5 10 9 8 39 -4 56 -18 61 -18 7z"/>
<path d="M1476 684 c-4 -9 -3 -20 0 -23 4 -3 9 -1 11 6 5 13 33 6 33 -8 0 -4
-6 -6 -14 -3 -8 3 -17 0 -21 -5 -3 -6 -10 -9 -15 -6 -5 3 -29 0 -52 -6 -47
-14 -45 -14 -72 -3 -14 5 -17 4 -12 -4 5 -8 -2 -12 -21 -13 -20 -1 -22 -3 -8
-6 45 -10 73 -26 78 -44 3 -10 0 -19 -6 -19 -6 0 -8 -3 -5 -6 9 -8 48 19 48
33 0 7 -5 13 -11 13 -5 0 -8 -4 -4 -9 3 -5 1 -12 -5 -16 -5 -3 -10 1 -10 9 0
8 -12 22 -27 31 -18 10 -21 14 -8 11 11 -3 27 -1 35 4 9 5 19 5 25 0 7 -6 36
-1 78 13 66 22 85 37 48 37 -10 0 -24 7 -31 15 -16 19 -26 19 -34 -1z m-21
-54 c-27 -12 -43 -12 -25 0 8 5 22 9 30 9 10 0 8 -3 -5 -9z"/>
<path d="M2085 690 c3 -5 8 -10 11 -10 2 0 4 5 4 10 0 6 -5 10 -11 10 -5 0 -7
-4 -4 -10z"/>
<path d="M2581 691 c-9 -6 2 -10 30 -13 41 -5 58 -3 48 6 -11 9 -66 14 -78 7z"/>
<path d="M5 670 c-3 -5 1 -10 10 -10 9 0 13 5 10 10 -3 6 -8 10 -10 10 -2 0
-7 -4 -10 -10z"/>
<path d="M76 666 c4 -11 0 -16 -15 -16 -12 0 -21 -4 -21 -9 0 -5 -10 -7 -22
-3 -17 4 -15 0 12 -26 25 -24 36 -29 46 -21 7 6 19 7 26 3 7 -4 4 2 -6 14 -16
19 -17 22 -3 22 9 0 19 -4 22 -10 3 -5 10 -10 16 -10 5 0 9 5 9 10 0 6 -7 10
-16 10 -8 0 -12 5 -8 11 4 8 0 9 -15 4 -16 -5 -20 -3 -15 8 3 8 1 18 -5 22 -7
3 -8 0 -5 -9z m-7 -43 c-10 -11 -10 -14 -1 -9 6 4 12 3 12 -2 0 -16 -12 -21
-25 -9 -15 15 -8 37 12 37 13 0 13 -2 2 -17z"/>
<path d="M980 656 c0 -27 18 -37 50 -29 19 5 21 3 16 -15 -5 -16 -3 -20 11
-17 10 2 21 4 26 4 4 1 7 6 7 12 0 6 -6 9 -12 6 -7 -2 -21 12 -31 32 -9 20
-16 29 -13 21 2 -8 -3 -21 -10 -28 -12 -11 -14 -9 -14 7 0 10 -7 21 -15 25
-11 4 -15 -1 -15 -18z"/>
<path d="M125 660 c4 -6 11 -8 16 -5 14 9 11 15 -7 15 -8 0 -12 -5 -9 -10z"/>
<path d="M445 660 c3 -5 11 -10 16 -10 6 0 7 5 4 10 -3 6 -11 10 -16 10 -6 0
-7 -4 -4 -10z"/>
<path d="M830 650 c0 -5 5 -10 11 -10 5 0 7 5 4 10 -3 6 -8 10 -11 10 -2 0 -4
-4 -4 -10z"/>
<path d="M150 644 c0 -3 21 -18 48 -35 26 -16 46 -33 45 -37 -1 -4 9 -6 23 -5
13 1 24 -2 24 -8 0 -5 -12 -10 -27 -10 -26 -2 -26 -2 -5 -6 16 -3 31 3 43 16
11 12 26 22 34 22 29 3 33 4 42 13 5 5 -8 6 -31 3 -22 -4 -43 -11 -47 -18 -4
-8 -10 -6 -17 7 -10 18 -11 18 -17 2 -7 -17 -26 -26 -24 -10 3 20 -2 32 -15
32 -7 0 -19 6 -25 14 -11 13 -51 29 -51 20z"/>
<path d="M640 648 c6 -7 79 -48 85 -48 3 0 4 6 3 13 -2 6 -14 15 -28 18 -14 4
-34 10 -45 14 -11 5 -18 6 -15 3z"/>
<path d="M1290 640 c0 -5 5 -10 10 -10 6 0 10 5 10 10 0 6 -4 10 -10 10 -5 0
-10 -4 -10 -10z"/>
<path d="M1891 634 c0 -11 3 -14 6 -6 3 7 2 16 -1 19 -3 4 -6 -2 -5 -13z"/>
<path d="M2423 628 c0 -13 -3 -40 -7 -60 -7 -32 -6 -38 9 -38 15 0 16 2 4 17
-10 12 -11 15 -1 9 10 -6 11 -1 6 19 -4 18 -2 30 6 35 7 4 10 15 7 24 -9 24
-25 19 -24 -6z"/>
<path d="M1564 626 c-10 -8 -15 -18 -11 -22 4 -5 13 -2 18 6 8 11 12 12 15 3
4 -10 10 -10 25 0 10 6 19 16 19 21 0 6 -5 5 -12 -2 -15 -15 -32 -16 -23 -2 9
15 -8 12 -31 -4z"/>
<path d="M1920 614 c9 -21 8 -25 -4 -21 -8 3 -17 -1 -20 -9 -6 -17 -5 -17 28
-4 17 6 26 6 26 0 0 -25 16 -7 18 21 2 24 -1 30 -15 27 -10 -1 -24 1 -30 5
-10 6 -11 2 -3 -19z"/>
<path d="M2471 624 c0 -11 3 -14 6 -6 3 7 2 16 -1 19 -3 4 -6 -2 -5 -13z"/>
<path d="M1100 613 c0 -10 4 -14 8 -8 4 6 11 13 16 18 5 4 2 7 -7 7 -10 0 -17
-8 -17 -17z"/>
<path d="M1520 615 c0 -8 2 -15 4 -15 2 0 6 7 10 15 3 8 1 15 -4 15 -6 0 -10
-7 -10 -15z"/>
<path d="M2398 620 c-2 -6 -13 -12 -26 -13 -18 -1 -22 -7 -21 -32 1 -29 1 -29
9 -5 9 32 20 -84 24 -265 2 -72 5 -136 7 -144 2 -7 -2 -16 -10 -19 -9 -3 -11
0 -6 8 5 9 4 11 -3 6 -8 -5 -9 -13 -2 -25 5 -10 6 -21 3 -25 -3 -3 -1 -6 5 -6
7 0 12 5 12 11 0 5 4 8 9 4 5 -3 12 -1 16 5 3 5 1 10 -4 10 -6 0 -11 5 -11 11
0 11 27 9 75 -6 17 -5 17 -4 -2 6 -20 11 -39 69 -21 69 4 0 9 -4 9 -10 1 -5 2
-15 3 -22 0 -6 8 -13 16 -16 8 -3 12 -1 8 3 -4 4 -3 18 2 31 8 21 7 24 -15 25
-14 1 -31 2 -37 3 -8 1 -12 -9 -10 -25 2 -17 -3 -29 -12 -32 -9 -4 -16 -2 -16
3 0 6 5 10 11 10 6 0 7 5 2 13 -12 20 -12 37 0 37 8 0 7 3 -2 9 -9 6 -10 10
-2 16 9 5 9 11 0 22 -10 12 -10 16 2 24 8 5 9 9 3 9 -7 0 -14 9 -17 20 -3 11
-1 18 3 15 5 -3 11 -1 15 5 3 5 1 10 -6 10 -9 0 -9 3 0 14 9 11 9 16 0 22 -8
5 -9 3 -4 -6 5 -9 4 -11 -4 -6 -6 4 -9 12 -5 17 3 5 9 7 14 4 4 -3 10 0 12 7
3 8 9 8 24 0 16 -10 17 -11 2 -12 -11 0 -16 -7 -15 -20 2 -25 14 -26 20 -2 4
13 5 12 6 -5 0 -12 7 -24 14 -27 6 -3 -1 -4 -18 -1 -22 4 -26 3 -15 -5 26 -17
50 -12 50 13 0 12 3 31 6 43 5 17 -1 22 -40 31 -32 7 -46 7 -49 0 -2 -6 -6 -3
-10 7 -7 17 -3 18 30 13 37 -6 37 -5 13 8 -14 7 -28 11 -32 9 -4 -3 -5 5 -3
17 3 12 1 39 -4 60 -5 21 -5 39 -1 41 12 5 22 48 12 48 -6 0 -12 -5 -14 -10z
m87 -220 c3 -5 1 -10 -4 -10 -6 0 -11 5 -11 10 0 6 2 10 4 10 3 0 8 -4 11 -10z"/>
<path d="M2 584 c-2 -46 18 -67 50 -55 16 6 32 5 48 -5 30 -16 40 -17 40 -5 0
12 -46 25 -89 26 -28 0 -34 4 -37 25 -4 23 -3 24 10 6 8 -10 18 -16 23 -15 4
2 -4 16 -18 31 l-26 27 -1 -35z"/>
<path d="M1490 610 c0 -5 5 -10 10 -10 6 0 10 5 10 10 0 6 -4 10 -10 10 -5 0
-10 -4 -10 -10z"/>
<path d="M145 600 c-3 -5 -1 -10 4 -10 6 0 11 5 11 10 0 6 -2 10 -4 10 -3 0
-8 -4 -11 -10z"/>
<path d="M545 600 c3 -5 8 -10 11 -10 2 0 4 5 4 10 0 6 -5 10 -11 10 -5 0 -7
-4 -4 -10z"/>
<path d="M1010 601 c0 -6 -13 -8 -32 -5 -25 4 -29 3 -18 -5 19 -13 57 -14 65
-2 3 5 1 12 -5 16 -5 3 -10 2 -10 -4z"/>
<path d="M640 591 c0 -5 16 -15 35 -21 19 -6 35 -16 35 -21 0 -5 4 -9 10 -9 5
0 9 9 7 20 -4 23 -17 39 -17 21 0 -10 -6 -9 -25 3 -27 18 -45 21 -45 7z"/>
<path d="M1434 581 c0 -11 4 -17 8 -15 4 3 8 12 8 20 0 8 -4 14 -8 14 -4 0 -8
-9 -8 -19z"/>
<path d="M2010 586 c0 -8 5 -18 10 -21 6 -3 10 3 10 14 0 12 -4 21 -10 21 -5
0 -10 -6 -10 -14z"/>
<path d="M1502 582 c-9 -6 -12 -33 -10 -97 3 -83 4 -88 20 -72 20 21 48 22 48
3 0 -11 5 -12 23 -3 30 14 34 77 4 69 -9 -2 -20 -9 -23 -14 -4 -6 1 -8 13 -4
14 5 19 1 19 -14 0 -23 -9 -25 -38 -9 -14 8 -23 8 -31 0 -15 -15 -27 -14 -27
4 0 8 5 15 11 15 8 0 7 6 -2 16 -11 14 -10 19 9 34 13 11 18 21 12 25 -5 3
-10 1 -10 -5 0 -6 -4 -9 -9 -6 -13 8 -6 42 7 39 6 -2 9 4 6 12 -7 17 -5 17
-22 7z"/>
<path d="M1593 574 c-3 -8 -2 -19 3 -24 5 -5 9 1 9 16 0 28 -3 30 -12 8z"/>
<path d="M2072 562 c1 -19 5 -29 10 -24 5 5 5 19 -1 33 -8 22 -9 22 -9 -9z"/>
<path d="M2103 570 c1 -14 8 -24 15 -22 9 2 11 -4 7 -18 -3 -11 -2 -20 3 -20
6 0 12 16 14 36 3 30 1 35 -13 31 -10 -3 -20 0 -23 7 -3 6 -4 0 -3 -14z"/>
<path d="M2190 575 c0 -8 2 -15 4 -15 2 0 6 7 10 15 3 8 1 15 -4 15 -6 0 -10
-7 -10 -15z"/>
<path d="M74 568 c-5 -8 4 -9 29 -5 29 5 35 3 30 -10 -4 -11 -1 -14 13 -11 10
2 18 8 16 13 -2 6 7 13 20 16 13 3 -5 6 -39 7 -36 0 -65 -4 -69 -10z"/>
<path d="M1036 571 c5 -4 35 -18 67 -31 31 -12 58 -25 58 -29 1 -3 3 -62 5
-131 2 -89 0 -127 -9 -132 -9 -6 -9 -8 1 -8 6 0 12 -5 12 -11 0 -5 -5 -7 -12
-3 -7 4 -8 3 -4 -4 4 -7 2 -12 -3 -12 -6 0 -11 8 -11 18 0 12 -4 10 -13 -8
-15 -29 -39 -36 -58 -18 -13 12 -57 23 -45 11 3 -3 -2 -12 -10 -21 -11 -11
-18 -12 -27 -3 -8 8 -15 7 -26 -3 -9 -8 -23 -16 -31 -18 -8 -2 -18 -7 -22 -13
-5 -6 -8 -6 -8 1 0 18 78 67 95 60 9 -3 13 -2 10 4 -3 6 -1 10 5 10 8 0 8 6 0
21 -9 16 -8 23 3 32 12 10 12 15 0 37 l-15 25 6 -27 c4 -16 3 -29 -1 -29 -44
-7 -63 -6 -63 1 0 14 27 19 39 7 8 -8 11 -2 10 23 -1 29 -3 31 -7 10 l-5 -25
-8 25 c-7 24 -7 24 -8 2 -1 -19 -5 -21 -27 -16 -19 5 -25 4 -20 -5 4 -6 12 -8
18 -5 7 4 8 2 4 -4 -8 -14 -43 1 -61 25 -6 8 -15 14 -20 13 -6 -2 -19 -2 -30
-1 -18 1 -19 2 -3 12 12 7 24 7 37 0 14 -8 21 -7 24 2 4 7 6 6 6 -4 1 -11 10
-16 30 -15 18 1 27 5 24 13 -3 7 -9 10 -14 8 -5 -3 -21 2 -36 12 -15 10 -24
13 -21 8 4 -6 -13 -10 -45 -10 -35 0 -51 4 -50 12 2 7 -3 10 -11 7 -7 -3 -20
1 -27 9 -8 7 -20 12 -27 9 -8 -2 -12 9 -12 37 0 31 -5 43 -21 52 -17 9 -20 8
-14 -2 6 -8 4 -11 -6 -7 -12 5 -14 -4 -9 -49 7 -60 8 -58 -40 -67 -19 -3 -46
-9 -60 -12 -14 -4 -38 -6 -53 -6 -15 1 -30 -5 -33 -12 -3 -8 -16 -11 -35 -8
-20 3 -34 -1 -40 -9 -8 -12 -11 -12 -19 1 -5 8 -10 11 -10 5 0 -5 -10 -10 -22
-11 -13 0 -58 -4 -100 -8 l-78 -8 0 36 c0 25 -4 36 -15 36 -18 0 -20 -16 -2
-23 10 -4 10 -6 0 -6 -17 -1 -17 -27 -1 -37 18 -11 98 -22 98 -14 0 15 105 18
133 4 25 -14 27 -13 27 7 0 19 4 20 34 15 25 -5 35 -3 40 9 3 8 11 15 17 15 8
0 7 -5 -2 -17 -8 -9 -9 -14 -4 -12 47 25 87 38 125 40 25 2 48 7 51 11 3 5 17
0 30 -11 20 -18 22 -22 9 -31 -8 -5 -10 -10 -4 -10 14 0 33 -42 30 -65 -1 -9
-9 -21 -17 -26 -9 -5 -10 -9 -2 -9 6 0 15 5 18 10 4 6 11 7 17 4 13 -8 -13
-24 -61 -36 -20 -5 -52 -13 -71 -19 -61 -16 -104 -23 -152 -23 -34 -1 -44 -4
-37 -13 7 -8 5 -14 -4 -20 -8 -4 -16 -17 -18 -28 -3 -11 -14 -21 -25 -23 -18
-3 -21 1 -17 22 4 17 12 26 24 26 10 0 21 4 24 10 4 6 -6 10 -24 10 -16 0 -33
5 -36 10 -3 6 -12 10 -18 10 -7 0 -4 -5 6 -11 25 -15 21 -26 -10 -27 -47 0
-113 -11 -132 -21 -10 -6 -27 -8 -38 -5 -12 3 -31 0 -44 -7 -13 -7 -34 -13
-46 -15 -23 -2 -26 4 -36 66 -3 17 -5 14 -6 -12 0 -20 -7 -39 -13 -41 -9 -4
-9 -6 -1 -6 6 -1 9 -10 6 -20 -3 -11 0 -28 7 -38 10 -15 10 -14 5 9 -4 23 -2
28 15 28 11 0 20 -7 20 -16 0 -10 7 -14 23 -12 12 2 21 9 19 17 -2 8 3 18 10
22 19 12 58 11 58 -2 0 -5 -4 -7 -10 -4 -5 3 -10 -1 -10 -9 0 -8 8 -16 18 -18
9 -2 -7 -7 -37 -12 -29 -4 -51 -9 -48 -12 2 -3 34 0 71 7 36 6 73 9 80 6 8 -3
16 -1 18 4 2 6 20 12 41 13 54 5 55 12 1 20 -26 3 -50 4 -52 1 -3 -3 6 -5 19
-6 l24 -1 -25 -8 c-50 -16 -70 -12 -70 15 0 17 6 25 18 26 22 1 58 6 100 15
27 5 32 3 32 -12 0 -16 -2 -17 -10 -4 -8 13 -10 13 -10 -1 0 -22 36 -30 101
-23 37 4 54 2 61 -8 7 -10 8 -9 4 5 -3 9 -1 17 3 17 5 0 16 3 25 6 13 5 16 -2
17 -37 1 -24 4 -34 6 -21 2 12 9 22 14 22 5 0 14 12 20 26 l10 27 32 -44 c26
-35 38 -44 64 -45 23 0 30 3 25 14 -4 11 -2 13 9 7 12 -8 12 -6 1 8 -16 19 -6
41 15 33 8 -3 12 -2 9 3 -3 5 1 11 9 15 17 6 20 53 5 76 -8 13 -10 13 -10 -2
0 -10 -12 -25 -27 -35 -16 -9 -35 -24 -43 -32 -18 -19 -20 -57 -3 -54 7 2 10
-3 7 -11 -5 -12 -9 -12 -24 2 -11 8 -17 19 -14 24 3 4 -3 19 -12 33 -14 22
-14 25 -1 25 8 0 18 -6 21 -12 3 -7 3 -3 0 9 -4 16 2 26 26 39 16 10 30 23 30
28 0 5 3 6 6 3 4 -4 19 2 34 13 31 22 50 26 50 10 0 -5 -7 -10 -15 -10 -8 0
-15 -4 -15 -10 0 -5 7 -10 15 -10 8 0 15 5 15 10 0 12 22 9 32 -5 5 -6 14 -3
25 9 10 10 12 16 5 12 -7 -4 -21 -4 -32 -1 -24 8 -26 42 -3 67 15 17 15 18 -1
18 -9 0 -14 -4 -11 -10 3 -5 0 -7 -8 -4 -9 3 -13 14 -11 27 5 22 4 22 -5 0 -6
-13 -15 -23 -21 -23 -5 0 -10 -5 -10 -11 0 -6 7 -9 15 -6 21 9 28 -8 9 -23
-11 -10 -18 -10 -26 -2 -7 7 -9 12 -5 12 4 0 3 10 -4 21 -8 15 -8 19 0 15 15
-10 14 -6 -9 48 -15 33 -27 46 -42 46 -14 0 -18 5 -14 15 3 8 1 15 -4 15 -17
0 -12 67 5 74 12 4 15 -4 15 -46 0 -28 3 -49 6 -46 3 4 65 -24 137 -60 73 -36
140 -65 151 -63 11 2 17 -2 14 -11 -3 -7 -9 -13 -14 -13 -5 0 -34 -18 -64 -40
-30 -21 -59 -40 -65 -41 -5 0 -15 -2 -21 -2 -6 -1 -24 -12 -40 -24 l-28 -22
25 -6 c17 -4 25 -14 27 -33 3 -23 6 -25 22 -15 25 16 37 3 19 -18 -12 -15 -12
-17 1 -12 17 5 27 68 11 68 -5 0 -12 -6 -14 -12 -3 -8 -6 -6 -6 5 -1 10 -9 17
-20 17 -30 0 -33 15 -3 18 14 1 29 8 34 15 4 6 8 8 8 3 0 -5 6 -3 14 3 10 9
16 8 26 -4 10 -12 9 -16 -3 -21 -10 -4 -14 -14 -11 -32 3 -15 7 -29 10 -31 2
-2 -6 -15 -18 -29 l-23 -24 28 13 c20 9 27 18 24 31 -3 10 -2 20 3 23 4 2 5
16 2 30 -3 16 0 25 8 25 7 0 38 18 68 41 l54 41 43 -42 c24 -23 47 -40 52 -37
13 8 12 -26 -1 -35 -6 -4 -14 -2 -18 5 -5 8 -8 7 -8 -5 0 -9 -9 -20 -21 -23
-14 -5 -17 -10 -10 -19 7 -9 7 -16 0 -23 -7 -7 -7 -13 -1 -17 5 -3 13 5 16 18
3 15 16 26 31 30 15 4 23 11 19 17 -4 8 1 9 17 4 19 -5 21 -4 9 4 -12 9 -11
11 7 11 12 0 23 6 26 13 4 9 7 9 18 0 16 -16 33 -17 23 -1 -5 8 -2 9 10 5 10
-4 15 -3 11 3 -8 13 7 13 39 0 37 -14 76 27 44 46 -7 5 -9 2 -5 -9 3 -8 0 -21
-8 -27 -8 -7 -14 -7 -17 -1 -1 6 -28 13 -58 16 -30 3 -61 6 -67 7 -7 1 -13 5
-13 9 0 17 -41 31 -55 19 -22 -18 -37 -2 -17 18 11 12 29 17 50 16 17 -1 32 1
32 5 0 4 9 7 20 8 16 1 17 -1 7 -12 -6 -7 -14 -13 -17 -13 -3 0 -14 0 -25 -1
-17 -1 -17 -3 -5 -11 8 -5 25 -7 37 -4 29 8 51 -5 32 -18 -10 -6 -5 -8 16 -6
17 1 36 -1 43 -6 8 -5 18 -3 25 4 9 10 9 11 -1 6 -7 -4 -19 -2 -27 4 -8 6 -19
9 -25 5 -7 -4 -7 2 0 21 7 17 7 30 0 38 -6 8 -6 16 0 22 16 16 17 86 2 91 -7
3 -11 -1 -10 -9 2 -7 -4 -13 -12 -13 -17 0 -45 -23 -37 -31 3 -3 20 2 38 11
30 16 32 16 25 0 -3 -9 -6 -22 -6 -29 0 -13 -56 -42 -80 -42 -20 1 -26 36 -6
36 9 0 16 7 16 15 0 18 -17 20 -22 3 -2 -6 -4 36 -4 95 0 59 4 101 8 94 11
-18 10 1 -2 23 -8 15 -6 20 10 25 23 7 27 22 5 22 -8 0 -11 -5 -8 -10 8 -12
-47 0 -64 15 -7 6 -13 18 -13 27 -1 13 -3 13 -15 -3 -12 -16 -15 -16 -15 -4 0
10 -10 15 -31 16 -18 0 -28 -3 -23 -7z m234 -366 c0 -18 -4 -23 -15 -19 -18 7
-20 24 -2 24 8 0 7 4 -3 10 -13 8 -12 10 3 10 11 0 17 -8 17 -25z m-296 -46
c-9 -10 -20 -16 -24 -14 -5 3 -10 -1 -13 -7 -3 -10 -8 -10 -18 1 -8 8 -9 11
-3 8 6 -4 21 5 34 18 26 28 50 23 24 -6z m-319 -8 c-3 -6 -11 -8 -17 -5 -7 4
-8 2 -4 -4 3 -6 -3 -16 -14 -22 -19 -10 -19 -12 -4 -43 15 -30 15 -31 -1 -16
-9 9 -17 32 -18 50 -2 29 2 36 28 45 33 12 41 11 30 -5z m529 -8 c9 -9 35 -15
65 -15 17 0 20 -2 11 -8 -8 -5 -29 -7 -48 -4 -24 3 -31 1 -26 -8 4 -8 3 -10
-2 -5 -5 5 -9 12 -9 15 0 4 -4 13 -8 20 -9 13 5 17 17 5z m-626 -25 c-2 -13
-13 -24 -28 -28 -30 -8 -133 -21 -107 -14 10 3 17 15 17 30 0 17 5 24 20 24
14 0 20 -7 20 -21 0 -28 34 -21 38 9 2 14 10 22 23 22 15 0 20 -6 17 -22z
m-48 2 c0 -5 -2 -10 -4 -10 -3 0 -8 5 -11 10 -3 6 -1 10 4 10 6 0 11 -4 11
-10z m236 -15 c1 -9 -8 -18 -22 -21 -13 -3 -25 -9 -25 -13 -1 -3 -3 -16 -4
-29 -1 -12 -5 -25 -9 -29 -3 -3 -4 9 -2 27 4 31 3 33 -10 15 -8 -10 -14 -13
-14 -7 0 7 10 20 21 30 12 9 29 25 37 34 17 19 25 16 28 -7z m-174 -17 c-7 -7
-12 -8 -12 -2 0 14 12 26 19 19 2 -3 -1 -11 -7 -17z"/>
<path d="M1291 571 c-7 -5 -9 -11 -5 -14 5 -3 15 1 22 9 14 16 5 18 -17 5z"/>
<path d="M1546 563 c-6 -16 8 -33 28 -33 6 0 1 7 -10 15 -11 8 -14 15 -6 15 6
0 12 5 12 10 0 16 -17 11 -24 -7z"/>
<path d="M735 560 c3 -5 8 -10 11 -10 2 0 4 5 4 10 0 6 -5 10 -11 10 -5 0 -7
-4 -4 -10z"/>
<path d="M800 552 c0 -10 12 -22 30 -29 37 -14 38 -9 4 22 -32 30 -34 30 -34
7z"/>
<path d="M989 563 c0 -5 0 -27 1 -51 1 -30 -3 -44 -14 -48 -9 -3 -13 -10 -10
-15 3 -5 10 -6 16 -3 6 4 8 -2 3 -17 -4 -15 -3 -19 2 -12 10 14 17 153 8 153
-3 0 -5 -3 -6 -7z"/>
<path d="M1930 560 c12 -9 6 -10 -25 -5 -25 3 -35 2 -27 -3 8 -6 13 -25 12
-48 -3 -71 0 -110 8 -96 5 7 7 29 5 50 -5 56 4 82 28 82 23 0 21 21 -2 28 -11
3 -11 1 1 -8z"/>
<path d="M198 553 c7 -3 16 -2 19 1 4 3 -2 6 -13 5 -11 0 -14 -3 -6 -6z"/>
<path d="M753 545 c-9 -10 -6 -15 13 -24 21 -9 24 -8 24 12 0 16 -2 19 -9 8
-8 -12 -10 -11 -12 2 -3 12 -6 13 -16 2z"/>
<path d="M1011 533 c1 -17 3 -21 6 -10 6 21 23 23 23 1 0 -10 6 -13 18 -10 14
5 18 1 18 -15 -1 -12 6 -24 14 -26 13 -4 13 -3 0 6 -12 8 -12 13 -2 23 9 9 12
9 12 0 0 -6 7 -9 15 -6 17 7 13 -29 -6 -52 -8 -10 -8 -14 0 -14 6 0 11 5 11
12 0 6 3 9 6 5 9 -9 -6 -48 -17 -42 -5 4 -9 -1 -9 -9 0 -10 6 -13 15 -10 16 6
19 -4 9 -30 -3 -9 -10 -13 -15 -10 -5 3 -9 -2 -9 -11 0 -9 5 -13 10 -10 6 3
10 1 10 -4 0 -6 -5 -11 -12 -11 -6 0 -9 -2 -6 -5 3 -3 12 -3 20 0 12 5 16 26
16 105 l0 99 -49 16 c-27 9 -51 21 -54 26 -12 18 -25 8 -24 -18z"/>
<path d="M1246 552 c-2 -4 4 -9 15 -9 11 -1 17 2 14 8 -7 11 -22 12 -29 1z"/>
<path d="M1465 460 c0 -55 3 -100 6 -100 4 0 7 45 8 100 1 55 -2 100 -7 100
-4 0 -8 -45 -7 -100z"/>
<path d="M2478 551 c18 -11 10 -47 -9 -42 -8 2 -22 6 -31 8 -19 6 -26 -21 -8
-32 6 -3 10 -1 10 4 0 6 4 11 9 11 5 0 7 -10 5 -22 -2 -13 -2 -17 2 -10 9 20
26 14 19 -7 -3 -11 0 -23 6 -27 7 -4 9 -3 5 4 -3 6 0 17 8 25 8 8 13 17 10 20
-3 3 -1 20 5 38 9 32 9 30 10 -24 1 -44 -2 -56 -11 -51 -10 6 -10 4 -2 -7 12
-15 10 -127 -2 -168 -5 -17 -4 -22 4 -17 7 4 12 14 12 22 0 8 5 14 10 14 6 0
10 -18 10 -40 0 -32 4 -40 18 -39 10 0 12 3 5 6 -7 2 -13 9 -13 14 0 6 5 7 12
3 8 -5 9 0 5 15 -4 17 0 24 16 31 17 7 18 9 5 9 -13 1 -18 10 -19 34 -1 17 -1
35 0 40 0 4 -6 7 -14 7 -18 0 -20 -36 -2 -43 9 -4 9 -6 -1 -6 -10 -1 -9 -5 3
-17 20 -20 11 -32 -10 -14 -11 9 -15 27 -13 59 3 46 7 49 41 36 10 -4 17 -3
17 5 0 6 -3 9 -8 6 -4 -2 -18 2 -32 11 -23 13 -23 14 -3 10 22 -5 28 11 9 25
-5 3 -1 14 9 25 17 16 18 16 12 1 -4 -12 -2 -18 8 -18 8 0 15 -5 15 -11 0 -5
-5 -7 -11 -3 -7 4 -7 -1 1 -16 9 -16 14 -19 20 -10 6 10 9 9 13 -1 3 -9 6 -10
6 -2 1 6 -3 15 -9 18 -5 3 -10 11 -10 16 0 6 5 7 10 4 6 -3 10 4 10 16 0 16
-5 20 -20 16 -11 -3 -20 -1 -20 4 0 5 -9 9 -20 9 -11 0 -20 5 -20 10 0 6 5 10
10 10 6 0 10 3 10 8 0 13 -43 35 -75 38 -20 3 -25 1 -17 -5z m64 -81 c2 -22 0
-40 -4 -40 -5 0 -8 18 -8 40 0 22 2 40 4 40 2 0 6 -18 8 -40z"/>
<path d="M2676 552 c-2 -4 4 -8 14 -8 10 0 16 4 14 8 -3 4 -9 8 -14 8 -5 0
-11 -4 -14 -8z"/>
<path d="M535 540 c-17 -6 -16 -7 8 -12 15 -3 27 -2 27 3 0 13 -14 17 -35 9z"/>
<path d="M660 539 c0 -9 14 -22 30 -29 22 -9 30 -19 30 -37 0 -21 2 -23 15
-13 12 10 16 8 25 -14 11 -29 25 -36 15 -7 -7 23 18 45 44 38 29 -7 33 19 5
32 -19 9 -24 8 -24 -4 0 -19 -3 -19 -48 4 -20 10 -43 16 -50 14 -7 -3 -20 3
-27 13 -12 16 -14 17 -15 3z m97 -49 c19 -15 21 -20 9 -20 -9 0 -16 6 -16 13
0 9 -2 9 -9 -1 -6 -10 -10 -9 -14 7 -6 26 -2 26 30 1z"/>
<path d="M1431 450 c1 -55 5 -103 10 -106 5 -3 8 43 8 101 0 61 -4 105 -10
105 -6 0 -9 -41 -8 -100z"/>
<path d="M2457 534 c3 -7 9 -14 14 -14 14 0 10 17 -5 23 -10 4 -13 1 -9 -9z"/>
<path d="M2632 537 c-12 -7 -19 -17 -15 -21 4 -5 -3 -5 -17 -1 -22 7 -23 6
-11 -9 18 -22 30 -20 41 7 8 20 14 10 11 -19 0 -6 11 -11 26 -12 16 0 40 -4
56 -8 17 -4 27 -2 27 5 0 6 -9 11 -20 11 -11 0 -20 5 -20 11 0 5 -4 7 -10 4
-5 -3 -10 2 -10 11 0 17 -1 17 -13 0 -13 -18 -14 -18 -20 -2 -4 10 -5 22 -1
27 7 12 4 11 -24 -4z"/>
<path d="M173 533 c-25 -10 -12 -18 27 -18 41 0 52 8 24 19 -18 7 -33 7 -51
-1z"/>
<path d="M585 530 c3 -5 10 -10 16 -10 5 0 9 5 9 10 0 6 -7 10 -16 10 -8 0
-12 -4 -9 -10z"/>
<path d="M872 470 c-1 -47 2 -70 7 -61 7 11 10 10 14 -5 3 -13 5 -10 6 9 0 16
-3 26 -8 22 -6 -3 -12 19 -14 52 -3 54 -3 53 -5 -17z"/>
<path d="M961 524 c0 -11 3 -14 6 -6 3 7 2 16 -1 19 -3 4 -6 -2 -5 -13z"/>
<path d="M1404 529 c-3 -6 -1 -16 5 -22 8 -8 11 -5 11 11 0 24 -5 28 -16 11z"/>
<path d="M1968 528 c20 -20 15 -76 -7 -83 -19 -6 -26 -50 -10 -61 5 -3 9 9 9
25 0 17 4 31 8 31 5 0 8 -26 7 -57 -2 -63 12 -124 15 -68 2 29 2 29 9 5 7 -24
7 -24 19 -5 11 19 11 19 12 -2 0 -13 4 -23 10 -23 5 0 7 -7 4 -15 -4 -8 -11
-12 -18 -8 -6 4 -15 8 -21 9 -5 0 -25 4 -44 9 -33 8 -33 8 -11 20 15 8 19 15
11 19 -6 4 -11 17 -11 29 0 15 -3 18 -9 9 -4 -7 -18 -14 -29 -15 -31 -2 -28
-17 3 -17 14 0 25 -5 25 -11 0 -6 -7 -9 -15 -5 -8 3 -15 1 -15 -5 0 -6 -5 -7
-10 -4 -6 4 -23 8 -38 11 -15 3 -36 7 -47 10 -16 4 -17 3 -5 -5 8 -6 23 -11
32 -11 9 0 22 -8 27 -17 6 -10 11 -13 11 -8 0 12 40 15 40 3 0 -4 9 -8 20 -8
13 0 20 -7 20 -20 0 -11 7 -23 16 -27 13 -5 13 -8 2 -15 -9 -7 -6 -8 10 -5 19
4 21 3 12 -8 -7 -8 -9 -19 -5 -26 5 -8 1 -9 -14 -4 -15 4 -21 2 -21 -9 0 -10
6 -13 15 -10 10 4 16 0 17 -12 0 -11 2 -24 2 -31 1 -6 5 -15 10 -20 5 -4 6 8
3 29 -9 58 13 109 26 60 4 -13 5 -12 6 5 1 26 -24 53 -50 53 -10 0 -19 7 -19
15 0 18 -1 18 39 4 17 -6 31 -15 31 -20 0 -4 6 -6 14 -3 21 8 84 -25 91 -47 7
-21 25 -16 25 7 0 9 -5 12 -11 8 -7 -4 -10 -1 -7 7 3 8 14 14 26 14 24 0 32 9
18 22 -5 5 -6 3 -2 -4 4 -7 2 -13 -3 -13 -6 0 -11 5 -11 11 0 5 -4 7 -10 4 -5
-3 -10 3 -10 14 0 24 34 29 47 7 5 -9 15 -11 28 -5 19 7 19 8 -2 8 -31 1 -48
35 -28 55 20 19 19 42 -1 50 -23 9 -24 8 -24 -11 0 -16 2 -16 11 -3 8 11 9 8
4 -15 -3 -16 -6 -36 -7 -42 -1 -7 -12 -13 -24 -13 -17 0 -22 -5 -19 -20 2 -11
7 -25 10 -30 7 -11 -18 -13 -52 -4 -13 4 -21 10 -18 14 3 5 -4 6 -15 3 -11 -3
-20 -1 -20 4 0 5 12 10 27 11 32 3 30 1 35 32 2 20 -1 25 -20 25 -12 0 -21 -5
-20 -10 2 -6 6 -9 10 -8 5 2 8 -4 8 -13 0 -8 -4 -13 -9 -10 -5 4 -12 0 -14 -6
-3 -8 -6 -6 -6 5 -1 9 -5 17 -10 17 -5 0 -11 10 -13 23 -2 12 -9 21 -15 20 -9
-2 -11 7 -6 30 8 41 13 47 13 14 0 -39 17 -41 18 -2 1 28 -3 36 -28 47 -26 11
-30 18 -30 50 0 32 3 38 23 39 21 1 21 1 -3 9 -40 13 -56 12 -42 -2z m31 -172
c-5 -6 -9 7 -8 35 l1 44 8 -35 c5 -20 5 -39 -1 -44z"/>
<path d="M2323 523 c-4 -9 -1 -19 5 -21 7 -2 12 -16 13 -30 1 -18 4 -13 10 17
5 25 6 47 4 50 -3 2 -5 -3 -5 -12 0 -9 -4 -17 -10 -17 -5 0 -7 7 -4 15 4 8 3
15 0 15 -4 0 -10 -8 -13 -17z"/>
<path d="M2205 517 c-4 -10 -3 -23 4 -30 16 -16 23 -3 12 24 -8 22 -10 22 -16
6z"/>
<path d="M2718 518 c5 -5 16 -8 23 -6 8 3 3 7 -10 11 -17 4 -21 3 -13 -5z"/>
<path d="M45 505 c-32 -14 -17 -18 25 -6 14 4 20 10 15 13 -6 3 -23 0 -40 -7z"/>
<path d="M550 499 c-47 -11 -113 -26 -148 -33 -34 -7 -65 -16 -69 -19 -14 -15
53 -6 150 19 56 15 117 29 135 31 17 3 32 9 32 14 0 11 2 11 -100 -12z"/>
<path d="M1260 504 c0 -8 5 -12 10 -9 6 4 8 11 5 16 -9 14 -15 11 -15 -7z"/>
<path d="M1360 505 c0 -8 4 -15 10 -15 5 0 7 7 4 15 -4 8 -8 15 -10 15 -2 0
-4 -7 -4 -15z"/>
<path d="M1630 510 c-8 -5 -10 -10 -5 -10 6 0 17 5 25 10 8 5 11 10 5 10 -5 0
-17 -5 -25 -10z"/>
<path d="M1819 508 c-1 -7 0 -26 1 -42 1 -18 -2 -26 -9 -21 -6 3 -9 10 -6 15
3 5 0 12 -6 15 -7 5 -9 -1 -7 -16 1 -13 11 -25 21 -27 14 -3 17 4 17 42 0 25
-2 46 -5 46 -3 0 -5 -6 -6 -12z"/>
<path d="M1918 496 c-4 -19 0 -25 17 -28 17 -4 21 1 23 24 2 22 -2 28 -17 28
-12 0 -20 -9 -23 -24z m19 -8 c-3 -8 -6 -5 -6 6 -1 11 2 17 5 13 3 -3 4 -12 1
-19z"/>
<path d="M2063 435 c-1 -47 2 -85 7 -85 5 0 8 12 8 28 0 15 0 49 1 75 l1 49
33 -7 c37 -7 18 9 -23 18 l-25 6 -2 -84z"/>
<path d="M2159 498 c-2 -78 0 -151 5 -156 3 -3 6 23 6 57 l0 63 25 -16 c14 -9
25 -12 25 -7 0 6 7 8 15 5 8 -4 15 -1 15 5 0 6 -3 10 -7 10 -5 -1 -10 -1 -13
1 -3 1 -16 4 -29 6 -31 6 -39 13 -24 22 7 5 7 11 -3 20 -12 11 -14 9 -15 -10z"/>
<path d="M1546 495 c-16 -12 -17 -15 -4 -15 8 0 21 7 28 15 16 19 1 19 -24 0z"/>
<path d="M2000 489 c0 -11 5 -19 10 -19 6 0 10 5 10 12 0 6 3 8 7 4 5 -4 -1
-15 -12 -23 -17 -14 -18 -15 -2 -9 10 3 23 6 28 6 5 0 9 8 9 19 0 12 -9 20
-25 23 -19 4 -25 1 -25 -13z"/>
<path d="M150 491 c0 -5 -17 -13 -37 -19 -21 -5 -29 -10 -18 -10 11 0 35 5 54
12 27 10 31 14 18 19 -9 3 -17 2 -17 -2z"/>
<path d="M1293 450 c0 -30 2 -43 4 -27 2 15 2 39 0 55 -2 15 -4 2 -4 -28z"/>
<path d="M890 474 c0 -9 5 -12 10 -9 6 3 10 2 10 -4 0 -6 7 -8 15 -5 12 5 15
-2 15 -30 0 -20 -4 -36 -10 -36 -5 0 -7 6 -4 14 3 8 0 17 -6 21 -8 5 -11 -1
-8 -16 5 -41 33 -29 36 16 3 37 0 41 -28 52 -25 9 -30 9 -30 -3z"/>
<path d="M1010 480 c0 -5 5 -10 11 -10 5 0 7 5 4 10 -3 6 -8 10 -11 10 -2 0
-4 -4 -4 -10z"/>
<path d="M1400 480 c-12 -8 -12 -10 -1 -10 11 0 13 -14 8 -70 -3 -41 -2 -70 4
-70 5 0 9 36 9 80 0 44 -1 80 -2 80 -2 0 -10 -5 -18 -10z"/>
<path d="M1767 469 c4 -13 8 -18 11 -10 2 7 -1 18 -6 23 -8 8 -9 4 -5 -13z"/>
<path d="M2090 464 c0 -27 20 -33 21 -6 0 14 2 14 8 -3 6 -14 4 -22 -8 -27
-12 -5 -11 -7 7 -7 18 -1 22 4 22 28 0 23 -5 30 -25 33 -21 4 -25 1 -25 -18z"/>
<path d="M0 469 c0 -5 5 -7 10 -4 5 3 10 8 10 11 0 2 -4 4 -10 4 -5 0 -10 -5
-10 -11z"/>
<path d="M1040 469 c0 -7 -8 -18 -17 -25 -17 -13 -17 -13 0 -14 9 0 17 -4 17
-9 0 -5 7 -11 15 -15 9 -3 15 0 15 9 0 8 -7 15 -15 15 -17 0 -17 2 -9 24 5 14
8 14 21 0 9 -8 18 -12 21 -9 6 5 -27 34 -40 35 -5 0 -8 -5 -8 -11z"/>
<path d="M2259 462 c16 -30 14 -39 -11 -38 -18 1 -23 -5 -23 -24 0 -19 6 -26
25 -29 l25 -4 -25 -7 -25 -6 26 -5 c25 -5 26 -4 25 35 -1 31 3 41 17 44 10 2
17 -3 17 -13 0 -9 -4 -14 -9 -11 -5 4 -8 -2 -6 -11 2 -10 4 -20 4 -23 1 -3 6
2 11 10 7 12 9 10 8 -7 -1 -12 -7 -19 -15 -16 -20 8 -14 -120 6 -129 14 -6 13
-7 -1 -7 -11 -1 -18 -9 -18 -22 0 -18 2 -19 15 -5 9 8 22 13 30 10 8 -4 15 -2
15 4 0 6 -5 12 -12 14 -9 3 -9 11 1 35 12 28 9 92 -6 146 -3 12 1 17 16 17 13
0 21 6 21 18 0 12 -3 14 -8 4 -5 -7 -19 -10 -33 -8 -13 3 -30 5 -37 5 -7 1
-12 9 -10 18 2 10 -5 19 -15 21 -16 3 -17 1 -8 -16z m58 -129 c-4 -3 0 -14 8
-23 13 -14 12 -17 -5 -28 -11 -7 -20 -8 -20 -3 0 5 6 12 13 14 9 4 9 8 -2 15
-12 9 -8 32 6 32 4 0 3 -3 0 -7z"/>
<path d="M583 463 c-7 -2 -13 -18 -13 -34 0 -22 5 -29 20 -29 16 0 20 7 20 35
0 35 -3 38 -27 28z m17 -33 c0 -5 -5 -10 -11 -10 -5 0 -7 5 -4 10 3 6 8 10 11
10 2 0 4 -4 4 -10z"/>
<path d="M1261 454 c0 -11 3 -14 6 -6 3 7 2 16 -1 19 -3 4 -6 -2 -5 -13z"/>
<path d="M1341 433 c0 -23 -7 -43 -13 -46 -7 -2 -11 -7 -8 -10 3 -3 12 0 20 6
11 9 13 23 9 52 l-6 40 -2 -42z"/>
<path d="M1645 460 c-3 -5 -1 -10 4 -10 6 0 11 5 11 10 0 6 -2 10 -4 10 -3 0
-8 -4 -11 -10z"/>
<path d="M1840 445 c0 -22 -5 -25 -37 -27 -37 -1 -37 -1 -5 -5 17 -2 32 -8 32
-13 0 -19 -13 -40 -21 -34 -5 3 -9 1 -9 -4 0 -18 30 -22 31 -4 0 9 3 12 5 5 3
-7 12 -9 20 -6 9 3 14 -1 14 -13 0 -9 2 -15 5 -12 8 8 -7 68 -17 68 -5 0 -6
-6 -2 -12 5 -9 4 -10 -4 -3 -7 6 -8 22 -2 45 5 22 9 28 10 15 1 -11 2 -23 1
-27 0 -5 4 -8 9 -8 16 0 11 47 -6 54 -23 9 -24 8 -24 -19z"/>
<path d="M2641 433 c-1 -35 -5 -42 -23 -46 l-23 -4 22 -2 c21 -1 23 -5 22 -66
-1 -36 -5 -68 -10 -71 -5 -3 -9 -10 -9 -15 0 -6 4 -8 9 -5 5 3 9 -12 9 -34 0
-22 -3 -40 -6 -40 -4 0 -8 -9 -8 -20 0 -11 5 -18 11 -16 5 2 9 9 8 15 -2 6 4
11 12 11 10 0 14 -9 13 -26 -2 -19 -7 -24 -20 -21 -13 4 -20 -2 -24 -19 -5
-20 -9 -22 -21 -12 -8 7 -24 13 -34 15 -11 2 -29 12 -41 23 -26 24 -26 24 35
5 26 -8 45 -10 42 -6 -2 5 -17 12 -32 16 -33 8 -61 35 -55 53 6 19 22 14 22
-8 0 -11 7 -20 15 -20 17 0 21 36 5 43 -6 3 -5 4 2 3 7 -1 14 -17 16 -35 4
-35 24 -38 31 -5 2 10 8 22 13 25 5 3 2 9 -7 12 -9 4 -13 3 -10 -3 3 -6 2 -10
-3 -10 -6 0 -12 7 -16 15 -3 10 1 15 11 15 9 0 14 3 10 6 -3 4 -21 1 -38 -5
-25 -9 -34 -8 -41 1 -6 10 -8 10 -8 0 0 -7 -4 -11 -9 -8 -4 3 -7 -10 -5 -30 1
-21 -3 -37 -10 -40 -7 -3 -13 -11 -13 -19 0 -8 4 -12 9 -9 4 3 9 -5 9 -18 1
-17 3 -18 6 -5 5 18 18 23 27 8 3 -4 -3 -16 -14 -26 -30 -27 -26 -55 8 -54 26
0 27 0 4 10 -13 5 -20 13 -17 19 4 6 11 8 16 5 5 -4 9 0 9 7 0 11 2 11 9 0 11
-18 61 -43 61 -31 0 6 -12 21 -26 34 -16 15 -20 23 -10 21 8 -1 28 -15 43 -32
21 -21 39 -29 68 -31 39 -2 40 -1 15 12 -14 8 -33 12 -42 9 -10 -3 -18 -2 -19
3 0 4 -2 18 -3 31 -2 12 0 22 4 22 23 0 78 -26 92 -44 15 -18 18 -19 18 -4 0
10 -12 25 -27 35 -37 23 -41 30 -35 59 3 18 0 24 -12 24 -10 0 -14 5 -11 10 3
6 2 10 -3 10 -16 0 -20 71 -4 86 11 11 11 14 0 14 -10 0 -10 2 1 9 10 7 10 10
1 13 -9 3 -11 15 -6 42 6 30 11 36 24 31 22 -8 81 -17 65 -9 -7 3 -13 12 -13
20 0 9 3 13 8 11 4 -3 8 13 9 34 2 34 0 39 -20 39 -12 0 -33 3 -45 7 -21 5
-23 3 -20 -18 2 -18 9 -23 28 -23 14 0 24 5 23 11 -1 5 5 10 13 10 9 0 13 -6
9 -14 -3 -8 -5 -19 -5 -24 0 -5 -11 -7 -25 -3 -19 5 -25 2 -25 -10 0 -9 -7
-16 -15 -16 -8 0 -12 6 -10 13 2 6 0 28 -4 47 l-9 35 -1 -42z m54 17 c3 -6 -1
-7 -9 -4 -18 7 -21 14 -7 14 6 0 13 -4 16 -10z m23 -68 c2 -7 -5 -12 -17 -12
-14 0 -19 5 -14 15 6 17 25 15 31 -3z"/>
<path d="M528 454 c-8 -11 -3 -52 7 -62 9 -10 11 2 5 38 -3 19 -8 30 -12 24z"/>
<path d="M800 452 c0 -4 14 -16 30 -25 27 -16 30 -17 30 -2 0 9 -4 14 -9 11
-5 -3 -14 1 -21 9 -13 16 -30 20 -30 7z"/>
<path d="M1210 423 c0 -30 -3 -35 -11 -23 -9 12 -10 12 -7 1 3 -8 10 -17 16
-19 8 -2 12 10 12 37 0 23 -2 41 -5 41 -3 0 -5 -17 -5 -37z"/>
<path d="M1665 440 c-10 -11 -24 -20 -32 -20 -7 0 -13 -4 -13 -10 0 -5 -7 -10
-15 -10 -14 0 -38 -40 -29 -49 2 -2 27 15 56 39 42 36 50 40 46 22 -4 -12 -2
-20 3 -16 5 3 9 11 9 19 0 7 5 15 11 17 7 2 6 8 -3 16 -12 10 -19 8 -33 -8z"/>
<path d="M1918 433 c6 -30 17 -30 18 0 1 13 -4 24 -10 24 -8 0 -11 -10 -8 -24z"/>
<path d="M65 440 c3 -5 11 -10 16 -10 6 0 7 5 4 10 -3 6 -11 10 -16 10 -6 0
-7 -4 -4 -10z"/>
<path d="M250 440 c-8 -5 -39 -12 -68 -16 -29 -3 -55 -10 -58 -15 -3 -5 -24
-9 -47 -9 -28 0 -37 -3 -28 -9 8 -5 10 -14 5 -22 -6 -11 -5 -12 7 -3 8 6 69
24 137 40 117 27 153 44 95 44 -16 0 -35 -5 -43 -10z"/>
<path d="M1373 432 c-7 -12 -8 -24 -2 -33 5 -8 7 -27 4 -44 -4 -22 -3 -26 4
-15 6 11 12 110 6 110 0 0 -5 -8 -12 -18z"/>
<path d="M470 400 c0 -36 2 -40 18 -31 12 6 18 19 16 33 -1 13 -3 26 -3 31 -1
4 -8 7 -16 7 -11 0 -15 -11 -15 -40z"/>
<path d="M400 430 c-8 -13 -6 -90 2 -82 5 5 8 27 5 48 -2 22 -5 37 -7 34z"/>
<path d="M1718 419 c-10 -5 -18 -15 -18 -21 0 -7 7 -5 18 4 9 9 24 18 32 21
13 5 13 5 0 6 -8 0 -23 -4 -32 -10z"/>
<path d="M2190 423 c0 -4 5 -15 10 -23 8 -13 10 -13 10 2 0 9 -4 20 -10 23 -5
3 -10 3 -10 -2z"/>
<path d="M325 380 c0 -22 5 -40 10 -40 6 0 9 17 7 40 -2 22 -7 40 -11 40 -3 0
-6 -18 -6 -40z"/>
<path d="M1756 385 c17 -25 34 -33 34 -15 0 6 -5 10 -11 10 -5 0 -8 4 -5 9 3
5 -1 12 -10 15 -25 9 -26 8 -8 -19z"/>
<path d="M2090 375 c0 -19 4 -35 9 -35 5 0 8 11 6 25 -1 14 2 25 6 25 10 0 12
-21 11 -95 l0 -50 8 40 c16 74 12 101 -15 113 -24 11 -25 10 -25 -23z"/>
<path d="M994 385 c-4 -9 -4 -19 0 -22 3 -4 6 2 7 13 0 18 1 18 9 -1 7 -16 9
-17 9 -3 1 23 -18 33 -25 13z"/>
<path d="M1790 390 c0 -5 5 -10 10 -10 6 0 10 5 10 10 0 6 -4 10 -10 10 -5 0
-10 -4 -10 -10z"/>
<path d="M8 383 c7 -3 16 -2 19 1 4 3 -2 6 -13 5 -11 0 -14 -3 -6 -6z"/>
<path d="M278 383 c6 -2 18 -2 25 0 6 3 1 5 -13 5 -14 0 -19 -2 -12 -5z"/>
<path d="M795 380 c-7 -12 2 -12 30 0 19 8 19 9 -2 9 -12 1 -25 -3 -28 -9z"/>
<path d="M1285 381 c-3 -6 -17 -11 -30 -11 -19 0 -22 -4 -17 -22 5 -19 7 -20
10 -5 2 9 12 17 22 17 19 0 36 17 27 26 -3 3 -8 1 -12 -5z"/>
<path d="M1491 374 c0 -11 3 -14 6 -6 3 7 2 16 -1 19 -3 4 -6 -2 -5 -13z"/>
<path d="M1731 375 c-1 -11 -4 -31 -8 -44 -4 -17 -3 -22 5 -17 8 5 10 2 6 -8
-3 -9 -1 -16 5 -16 6 0 11 5 11 11 0 5 6 7 13 3 8 -5 8 -2 -2 9 -7 9 -17 32
-21 50 -5 19 -8 24 -9 12z"/>
<path d="M1895 370 c-3 -5 -1 -10 4 -10 6 0 11 5 11 10 0 6 -2 10 -4 10 -3 0
-8 -4 -11 -10z"/>
<path d="M2362 355 c0 -16 2 -22 5 -12 2 9 2 23 0 30 -3 6 -5 -1 -5 -18z"/>
<path d="M200 360 c0 -5 5 -10 10 -10 6 0 10 5 10 10 0 6 -4 10 -10 10 -5 0
-10 -4 -10 -10z"/>
<path d="M1533 363 c-21 -8 -15 -33 8 -33 17 0 19 3 10 13 -6 8 -8 17 -4 20 7
8 4 8 -14 0z"/>
<path d="M1630 370 c-1 -3 -3 -16 -6 -30 -3 -21 -2 -22 7 -7 6 10 8 23 5 30
-2 7 -5 10 -6 7z"/>
<path d="M1700 354 c0 -8 5 -12 10 -9 6 4 8 11 5 16 -9 14 -15 11 -15 -7z"/>
<path d="M2580 346 c0 -14 6 -26 13 -26 8 0 7 -4 -3 -10 -13 -8 -12 -10 3 -10
15 0 18 7 15 32 -4 39 -28 51 -28 14z"/>
<path d="M16 351 c-4 -5 0 -11 6 -14 9 -3 7 -10 -7 -21 -19 -15 -18 -15 13 -5
33 11 44 29 16 29 -8 0 -12 5 -9 10 3 6 2 10 -4 10 -5 0 -12 -4 -15 -9z"/>
<path d="M1328 353 c-16 -4 -26 -33 -12 -33 13 0 44 21 44 30 0 10 -3 11 -32
3z"/>
<path d="M78 338 c5 -5 16 -8 23 -6 8 3 3 7 -10 11 -17 4 -21 3 -13 -5z"/>
<path d="M1061 334 c0 -11 3 -14 6 -6 3 7 2 16 -1 19 -3 4 -6 -2 -5 -13z"/>
<path d="M1081 334 c0 -11 3 -14 6 -6 3 7 2 16 -1 19 -3 4 -6 -2 -5 -13z"/>
<path d="M1473 336 c-13 -6 -23 -14 -23 -18 0 -4 -7 -4 -17 -1 -10 4 -14 2
-10 -4 4 -6 0 -14 -9 -17 -9 -4 -14 -9 -11 -12 9 -9 106 40 107 54 0 14 -6 14
-37 -2z"/>
<path d="M1652 339 c2 -7 10 -15 17 -17 8 -3 12 1 9 9 -2 7 -10 15 -17 17 -8
3 -12 -1 -9 -9z"/>
<path d="M1760 342 c0 -5 7 -9 15 -9 8 0 15 4 15 9 0 4 -7 8 -15 8 -8 0 -15
-4 -15 -8z"/>
<path d="M2670 325 c0 -16 6 -25 15 -25 8 0 15 5 15 11 0 5 -6 7 -12 3 -10 -6
-10 -4 0 8 10 13 10 17 -3 22 -11 4 -15 -1 -15 -19z"/>
<path d="M655 331 c-3 -5 -1 -12 5 -16 5 -3 10 1 10 9 0 18 -6 21 -15 7z"/>
<path d="M1571 326 c-1 -13 -6 -16 -18 -12 -10 4 -14 4 -10 0 12 -12 -98 -64
-123 -57 -18 5 -21 3 -15 -7 6 -10 4 -12 -9 -7 -10 4 -20 7 -23 7 -3 0 0 7 7
15 10 12 10 15 -4 15 -19 0 -21 -21 -4 -38 9 -9 7 -13 -6 -18 -11 -4 -15 -13
-10 -26 4 -14 2 -18 -5 -14 -6 4 -11 2 -11 -3 0 -23 22 -10 33 19 11 29 39 40
52 20 10 -16 28 -12 21 5 -4 12 3 15 32 16 28 0 32 2 18 8 -19 7 -18 8 4 14
31 8 43 -10 21 -32 -9 -9 -17 -13 -19 -9 -2 4 -10 8 -19 8 -13 0 -13 -2 1 -15
19 -19 36 -19 36 0 0 8 4 15 10 15 5 0 7 -13 4 -30 -4 -18 -2 -30 4 -30 5 0 8
10 4 22 -3 14 -1 19 6 14 8 -5 10 -1 6 11 -4 13 0 11 14 -6 11 -14 22 -19 26
-13 3 5 -1 12 -8 15 -8 3 -22 18 -32 32 -16 25 -16 27 6 50 12 13 20 30 17 37
-3 8 -6 6 -6 -6z"/>
<path d="M2714 316 c1 -12 5 -27 9 -33 4 -7 -1 -17 -10 -23 -17 -11 -17 -11 0
-6 10 3 21 6 23 6 12 0 2 69 -10 73 -10 4 -14 -1 -12 -17z"/>
<path d="M550 320 c0 -5 -10 -10 -22 -11 -13 0 -17 -3 -10 -6 8 -3 24 -1 35 5
12 6 29 13 37 15 8 3 3 6 -12 6 -16 1 -28 -3 -28 -9z"/>
<path d="M761 321 c-8 -5 -9 -11 -3 -15 5 -3 12 1 16 9 6 17 6 18 -13 6z"/>
<path d="M1020 323 c0 -5 14 -16 30 -25 25 -14 30 -15 30 -3 0 8 -9 15 -20 15
-11 0 -20 5 -20 10 0 6 -4 10 -10 10 -5 0 -10 -3 -10 -7z"/>
<path d="M2221 321 c-21 -13 -7 -38 26 -44 35 -7 36 -6 24 27 -11 27 -26 32
-50 17z m36 -16 c0 -8 -4 -15 -9 -15 -10 0 -11 14 -1 23 9 10 10 9 10 -8z"/>
<path d="M2418 324 c6 -3 12 -21 12 -40 0 -28 5 -36 26 -45 15 -5 29 -7 32 -4
3 3 3 5 0 5 -3 0 -2 16 2 35 5 23 4 33 -2 29 -6 -4 -13 -2 -17 3 -3 6 -19 13
-36 16 -16 3 -24 4 -17 1z m44 -49 c3 -14 1 -25 -3 -25 -5 0 -9 4 -9 9 0 5 -3
16 -6 25 -3 9 -2 16 4 16 5 0 12 -11 14 -25z"/>
<path d="M46 300 c-16 -10 -33 -17 -38 -14 -4 3 -8 0 -8 -5 0 -14 23 -14 37 0
8 8 13 7 18 -1 4 -7 2 -16 -5 -20 -8 -5 -7 -9 5 -14 23 -9 32 -7 17 3 -19 12
50 24 91 16 l32 -6 -30 16 c-20 11 -41 14 -62 10 -26 -5 -33 -3 -33 10 0 10 5
13 12 9 7 -4 8 -3 4 4 -4 7 -8 12 -9 11 -1 0 -15 -9 -31 -19z"/>
<path d="M1781 308 c0 -10 -5 -18 -10 -18 -5 0 -11 -9 -14 -19 -6 -24 34 -93
41 -71 3 7 1 15 -4 17 -6 2 -8 18 -6 37 2 19 2 42 -1 52 -4 17 -5 17 -6 2z
m-4 -65 c-3 -10 -5 -4 -5 12 0 17 2 24 5 18 2 -7 2 -21 0 -30z"/>
<path d="M1644 256 c-2 -52 7 -42 19 20 4 20 2 31 -6 31 -8 0 -13 -19 -13 -51z"/>
<path d="M1368 293 c7 -3 16 -2 19 1 4 3 -2 6 -13 5 -11 0 -14 -3 -6 -6z"/>
<path d="M1682 289 c2 -7 10 -15 17 -17 8 -3 12 1 9 9 -2 7 -10 15 -17 17 -8
3 -12 -1 -9 -9z"/>
<path d="M1806 284 c-11 -28 -7 -35 13 -24 13 7 22 7 26 0 6 -10 4 -11 -24
-14 -8 0 -16 -7 -19 -15 -3 -10 0 -12 14 -6 11 4 27 9 36 12 16 5 16 8 2 34
-16 32 -38 38 -48 13z"/>
<path d="M503 278 c2 -7 10 -13 17 -13 7 0 15 6 18 13 2 7 -5 12 -18 12 -13 0
-20 -5 -17 -12z"/>
<path d="M1032 278 c-7 -7 -12 -16 -12 -20 0 -10 61 -48 78 -48 21 0 13 16
-15 31 -45 22 -46 22 -38 9 5 -8 4 -11 -3 -6 -6 4 -9 13 -6 21 4 8 10 12 15 9
5 -3 9 0 9 5 0 14 -13 14 -28 -1z"/>
<path d="M1567 283 c-8 -13 21 -68 31 -59 3 3 0 11 -5 18 -6 7 -13 22 -15 33
-2 14 -6 16 -11 8z"/>
<path d="M1620 276 c0 -8 -3 -23 -7 -33 -6 -17 -6 -17 10 -1 19 18 23 48 7 48
-5 0 -10 -6 -10 -14z"/>
<path d="M877 269 c-9 -5 -23 -7 -30 -3 -6 4 -9 4 -5 0 3 -4 -2 -16 -13 -27
-11 -11 -17 -24 -14 -29 8 -12 65 19 65 36 0 17 27 19 33 2 2 -7 -3 -18 -12
-25 -10 -8 -11 -12 -4 -13 6 0 15 5 18 10 4 6 10 8 15 5 4 -3 13 2 20 10 11
13 10 14 -3 9 -10 -3 -21 2 -29 15 -15 24 -16 24 -41 10z"/>
<path d="M1110 270 c0 -5 5 -10 10 -10 6 0 10 5 10 10 0 6 -4 10 -10 10 -5 0
-10 -4 -10 -10z"/>
<path d="M1326 256 c-5 -19 -12 -26 -21 -22 -25 9 -16 -8 10 -20 20 -10 25 -9
30 6 3 9 2 28 -3 40 l-9 24 -7 -28z"/>
<path d="M1725 270 c-3 -5 -1 -10 4 -10 6 0 11 5 11 10 0 6 -2 10 -4 10 -3 0
-8 -4 -11 -10z"/>
<path d="M2598 273 c-22 -6 -25 -53 -3 -53 9 0 15 9 15 24 0 13 6 27 13 29 15
7 -2 6 -25 0z"/>
<path d="M1080 260 c0 -5 5 -10 11 -10 5 0 7 5 4 10 -3 6 -8 10 -11 10 -2 0
-4 -4 -4 -10z"/>
<path d="M1670 256 c0 -8 5 -18 10 -21 6 -3 10 1 10 9 0 8 -4 18 -10 21 -5 3
-10 -1 -10 -9z"/>
<path d="M1886 254 c-9 -24 -7 -31 4 -14 6 9 10 10 10 3 0 -6 -4 -15 -10 -18
-5 -3 -10 -20 -10 -36 0 -17 4 -28 9 -25 5 3 7 15 4 26 -7 26 11 26 37 0 20
-20 20 -20 20 14 0 52 -49 90 -64 50z m44 -24 c9 -16 8 -20 -5 -20 -8 0 -15 9
-15 20 0 11 2 20 5 20 2 0 9 -9 15 -20z"/>
<path d="M128 253 c7 -3 16 -2 19 1 4 3 -2 6 -13 5 -11 0 -14 -3 -6 -6z"/>
<path d="M2234 242 c-19 -12 -34 -50 -34 -84 0 -26 3 -30 11 -18 8 11 9 5 7
-27 -3 -40 -3 -41 24 -38 24 3 28 0 28 -21 0 -13 3 -23 8 -23 20 3 32 -2 32
-15 0 -9 7 -12 20 -9 21 6 28 50 11 69 -5 5 -11 30 -13 56 -3 42 -1 47 14 42
24 -7 23 3 -2 16 -16 9 -22 7 -27 -7 -12 -31 -39 -54 -56 -47 -24 9 -21 24 4
19 17 -3 19 -2 9 10 -9 11 -17 12 -32 4 -26 -14 -38 -1 -14 16 10 8 15 19 11
25 -6 9 -2 9 13 1 11 -6 23 -16 26 -23 2 -7 4 1 3 19 -1 18 -3 30 -6 28 -2 -3
-9 -1 -15 5 -7 5 -16 6 -22 2z m86 -132 c0 -22 5 -40 10 -40 6 0 10 -9 10 -21
0 -28 -23 -19 -31 12 -5 16 -7 18 -8 7 -1 -10 -5 -18 -11 -18 -14 0 -13 37 1
42 6 2 12 16 12 31 0 15 3 27 8 27 5 0 9 -18 9 -40z m-54 7 c10 4 12 0 8 -11
-5 -14 -24 -23 -24 -12 0 2 -2 10 -3 18 -2 7 -2 10 0 6 2 -4 11 -4 19 -1z"/>
<path d="M2521 242 c-1 -8 -6 -10 -13 -6 -10 5 -10 4 -1 -6 15 -16 28 -8 20
12 -4 11 -6 11 -6 0z"/>
<path d="M2666 235 c-10 -26 -7 -35 9 -35 8 0 15 7 15 15 0 8 0 18 1 22 1 15
-19 13 -25 -2z"/>
<path d="M2723 243 c-17 -6 -16 -43 1 -66 13 -16 14 -13 18 28 2 25 1 45 -2
44 -3 0 -11 -3 -17 -6z"/>
<path d="M38 203 c5 -59 10 -63 11 -10 1 26 -3 47 -7 47 -4 0 -6 -17 -4 -37z"/>
<path d="M1730 231 c0 -6 5 -13 10 -16 6 -3 10 1 10 9 0 9 -4 16 -10 16 -5 0
-10 -4 -10 -9z"/>
<path d="M615 220 c-19 -8 -19 -9 3 -9 12 -1 22 4 22 9 0 6 -1 10 -2 9 -2 0
-12 -4 -23 -9z"/>
<path d="M665 220 c-3 -5 -1 -10 4 -10 6 0 11 5 11 10 0 6 -2 10 -4 10 -3 0
-8 -4 -11 -10z"/>
<path d="M1690 220 c-9 -6 -7 -10 9 -15 27 -8 33 -4 16 12 -6 6 -18 7 -25 3z"/>
<path d="M1856 215 c4 -8 8 -15 10 -15 2 0 4 7 4 15 0 8 -4 15 -10 15 -5 0 -7
-7 -4 -15z"/>
<path d="M1666 190 c7 -38 11 -46 19 -38 3 3 -2 20 -10 39 l-16 34 7 -35z"/>
<path d="M2065 204 c-9 -9 -15 -26 -14 -38 3 -41 -1 -56 -16 -56 -8 0 -15 -6
-15 -14 0 -9 7 -12 20 -9 11 3 18 8 16 12 -3 4 -1 13 3 19 10 16 44 4 37 -14
-3 -8 2 -12 15 -11 13 1 19 9 19 25 0 19 -4 22 -20 17 -35 -11 -70 45 -37 58
10 4 13 -2 10 -18 -4 -19 -1 -22 21 -22 33 0 34 26 1 49 -22 17 -25 17 -40 2z"/>
<path d="M1295 201 c-3 -5 -1 -12 5 -16 5 -3 10 1 10 9 0 18 -6 21 -15 7z"/>
<path d="M1412 190 c0 -14 2 -19 5 -12 2 6 2 18 0 25 -3 6 -5 1 -5 -13z"/>
<path d="M1615 200 c-3 -5 -1 -10 4 -10 6 0 11 5 11 10 0 6 -2 10 -4 10 -3 0
-8 -4 -11 -10z"/>
<path d="M608 193 c7 -3 16 -2 19 1 4 3 -2 6 -13 5 -11 0 -14 -3 -6 -6z"/>
<path d="M1470 180 c0 -12 -8 -28 -17 -35 -16 -12 -14 -12 10 -8 23 5 26 9 20
32 -8 35 -13 39 -13 11z"/>
<path d="M1637 181 c-3 -14 0 -21 9 -21 16 0 18 9 5 28 -6 10 -10 9 -14 -7z"/>
<path d="M1840 189 c0 -5 -4 -8 -8 -5 -5 3 -7 -7 -5 -22 6 -43 -6 -52 -50 -39
-27 9 -35 16 -32 28 7 19 -20 45 -30 29 -3 -5 1 -10 10 -10 12 0 15 -5 11 -16
-3 -9 -6 -20 -6 -25 0 -5 -5 -9 -11 -9 -6 0 -8 9 -4 20 8 27 0 25 -33 -5 -15
-14 -32 -25 -38 -25 -6 0 -19 -15 -28 -32 -8 -18 -16 -27 -16 -20 0 16 -71 6
-82 -12 -4 -7 -9 -4 -13 7 -6 13 -11 14 -27 6 -25 -13 -34 -5 -17 14 7 8 21
12 31 9 13 -3 18 1 18 17 0 19 10 26 33 22 15 -2 6 25 -13 42 -24 20 -31 22
-24 4 2 -7 0 -24 -5 -38 -5 -13 -10 -18 -10 -11 -1 6 -6 12 -12 12 -6 0 -9 -6
-6 -13 3 -8 -8 -21 -26 -31 -18 -10 -24 -11 -14 -3 26 21 21 30 -8 11 -26 -17
-45 -12 -45 13 0 13 -3 13 -15 3 -19 -16 -12 -27 25 -35 17 -4 36 -12 43 -18
16 -16 64 -47 72 -47 4 0 3 5 0 10 -3 6 -2 10 4 10 5 0 12 -6 14 -12 3 -7 6
-2 6 11 1 20 4 22 13 13 15 -15 32 -16 23 -2 -3 5 1 10 9 10 9 0 16 -4 16 -9
0 -5 9 -7 19 -4 13 3 21 -2 26 -16 3 -12 13 -21 21 -21 13 0 13 2 2 15 -33 36
-40 47 -34 52 3 4 15 -2 26 -12 18 -16 20 -16 20 -2 0 10 -4 17 -10 17 -5 0
-7 7 -4 15 4 9 14 13 28 9 11 -2 30 2 41 9 12 10 26 12 40 7 11 -5 33 -11 48
-15 22 -4 27 -10 22 -25 -4 -11 -2 -20 3 -20 6 0 15 -12 20 -27 6 -16 11 -21
11 -11 1 9 7 19 14 22 8 4 5 10 -10 22 -27 20 -29 39 -6 53 10 5 14 13 9 18
-5 4 -11 2 -13 -4 -8 -22 -32 -15 -26 8 5 16 11 19 37 15 l31 -6 -30 13 c-21
8 -30 18 -27 30 2 9 1 17 -2 17 -3 0 -6 -5 -6 -11z m-136 -75 c4 -10 1 -14 -6
-12 -15 5 -23 28 -10 28 5 0 13 -7 16 -16z"/>
<path d="M2668 183 c7 -3 16 -2 19 1 4 3 -2 6 -13 5 -11 0 -14 -3 -6 -6z"/>
<path d="M1039 178 c-5 -24 -2 -79 6 -82 6 -3 4 -5 -3 -5 -7 -1 -10 -6 -7 -11
12 -19 25 1 19 28 l-7 27 21 -25 21 -25 -8 30 c-5 17 -14 29 -21 27 -7 -2 -10
3 -7 12 4 9 2 18 -3 21 -6 4 -10 5 -11 3z"/>
<path d="M1387 160 c-3 -11 -1 -20 4 -20 5 0 9 9 9 20 0 11 -2 20 -4 20 -2 0
-6 -9 -9 -20z"/>
<path d="M2702 135 c1 -25 6 -45 10 -45 4 0 11 0 15 0 4 0 7 10 7 23 0 12 5
26 10 30 7 5 1 7 -12 4 -20 -5 -23 -2 -19 14 3 10 1 19 -4 19 -5 0 -8 -20 -7
-45z"/>
<path d="M1599 133 c-3 -24 -1 -43 3 -43 10 0 30 51 23 58 -3 3 -5 -1 -6 -9
-1 -8 -4 -3 -8 11 -7 22 -8 20 -12 -17z"/>
<path d="M1767 163 c-7 -7 22 -32 38 -32 6 0 2 4 -8 10 -9 6 -15 14 -12 20 7
10 -8 13 -18 2z"/>
<path d="M699 143 c-13 -16 -12 -17 4 -4 16 13 21 21 13 21 -2 0 -10 -8 -17
-17z"/>
<path d="M771 144 c0 -11 3 -14 6 -6 3 7 2 16 -1 19 -3 4 -6 -2 -5 -13z"/>
<path d="M1415 150 c-3 -5 -2 -10 4 -10 5 0 13 5 16 10 3 6 2 10 -4 10 -5 0
-13 -4 -16 -10z"/>
<path d="M1570 139 c7 -11 14 -18 17 -15 8 8 -5 36 -17 36 -7 0 -7 -6 0 -21z"/>
<path d="M2010 152 c0 -5 7 -13 16 -16 10 -4 14 -1 12 6 -5 15 -28 23 -28 10z"/>
<path d="M2146 145 c-3 -8 -1 -15 4 -15 6 0 10 7 10 15 0 8 -2 15 -4 15 -2 0
-6 -7 -10 -15z"/>
<path d="M236 133 c-6 -14 -5 -15 5 -6 7 7 10 15 7 18 -3 3 -9 -2 -12 -12z"/>
<path d="M997 144 c-8 -8 1 -24 14 -24 5 0 9 7 9 15 0 15 -12 20 -23 9z"/>
<path d="M1651 134 c0 -11 3 -14 6 -6 3 7 2 16 -1 19 -3 4 -6 -2 -5 -13z"/>
<path d="M1910 125 c0 -8 -8 -18 -17 -24 -14 -8 -15 -12 -4 -25 13 -15 16 -15
38 0 14 8 28 13 31 9 4 -3 0 -10 -8 -15 -12 -8 -12 -10 -1 -10 9 0 12 -9 9
-30 -4 -25 -1 -30 16 -30 15 0 17 3 8 9 -10 6 -12 22 -8 57 3 27 1 56 -4 64
-7 10 -10 11 -10 3 0 -23 -4 -28 -28 -40 -29 -15 -32 -16 -32 -4 0 5 9 13 20
16 24 8 26 21 5 29 -9 3 -15 0 -15 -9z"/>
<path d="M869 113 c-13 -15 -12 -15 9 -4 23 12 28 21 13 21 -5 0 -15 -7 -22
-17z"/>
<path d="M1404 115 c-10 -8 -14 -14 -9 -15 15 0 40 18 34 24 -3 3 -14 -1 -25
-9z"/>
<path d="M2153 113 c-17 -6 -17 -33 0 -33 22 0 69 -51 62 -68 -3 -9 -2 -13 2
-8 10 10 12 56 2 50 -4 -2 -12 8 -17 23 -6 16 -11 22 -11 16 -1 -20 -19 -15
-23 5 -2 11 -9 17 -15 15z"/>
<path d="M2455 110 c3 -5 8 -10 11 -10 2 0 4 5 4 10 0 6 -5 10 -11 10 -5 0 -7
-4 -4 -10z"/>
<path d="M962 103 c-20 -4 -22 -10 -20 -56 1 -29 3 -46 6 -39 2 6 8 10 13 6 5
-3 9 0 9 5 0 6 11 11 25 11 14 0 25 5 25 10 0 19 27 10 38 -13 l11 -22 0 23
c1 28 -36 44 -80 35 -24 -4 -31 -3 -27 7 2 8 11 15 19 18 11 3 11 2 -1 -7 -13
-9 -13 -11 1 -11 9 0 19 9 22 20 5 20 2 21 -41 13z"/>
<path d="M1526 94 c-4 -9 -4 -19 -1 -22 2 -3 7 3 11 12 4 9 4 19 1 22 -2 3 -7
-3 -11 -12z"/>
<path d="M1570 98 c0 -9 -6 -19 -12 -21 -10 -4 -10 -6 0 -6 14 -1 28 26 18 36
-3 4 -6 -1 -6 -9z"/>
<path d="M1284 88 c-5 -8 -2 -9 10 -5 10 4 15 3 11 -3 -3 -6 -15 -10 -25 -10
-21 0 -21 -17 1 -50 12 -18 17 -21 24 -10 5 8 4 11 -2 7 -6 -4 -13 2 -16 13
-9 34 31 37 62 5 14 -15 20 -25 14 -21 -7 4 -21 3 -30 -3 -14 -7 -3 -10 39 -8
52 2 58 4 58 24 0 17 -4 20 -22 15 -15 -4 -19 -2 -13 7 6 10 3 11 -11 3 -28
-14 -48 -4 -32 16 11 13 11 14 -2 10 -8 -2 -21 1 -28 9 -17 16 -29 17 -38 1z
m111 -58 c3 -5 2 -10 -4 -10 -5 0 -13 5 -16 10 -3 6 -2 10 4 10 5 0 13 -4 16
-10z"/>
<path d="M2405 91 c-10 -17 -12 -69 -4 -83 7 -10 9 -9 9 3 0 21 24 31 39 16 8
-8 11 -6 11 7 0 9 -4 14 -10 11 -5 -3 -10 2 -11 12 0 16 -1 16 -8 -1 -7 -19
-8 -19 -13 2 -4 12 -2 24 3 27 13 8 49 -32 49 -54 0 -11 5 -23 10 -26 6 -4 10
6 10 23 0 45 -65 94 -85 63z"/>
<path d="M764 76 c-10 -8 -16 -18 -11 -22 4 -4 7 -2 7 5 0 7 5 9 10 6 6 -3 10
-1 10 5 0 6 5 8 12 4 7 -4 8 -3 4 4 -9 15 -8 15 -32 -2z"/>
<path d="M2370 70 c0 -11 2 -20 4 -20 2 0 6 9 9 20 3 11 1 20 -4 20 -5 0 -9
-9 -9 -20z"/>
<path d="M1682 61 c2 -8 9 -16 17 -19 8 -3 11 0 7 7 -4 6 -2 11 3 11 6 0 11
-9 11 -20 0 -12 7 -20 18 -20 14 0 15 -2 2 -10 -8 -5 -10 -10 -4 -10 6 0 17 7
24 15 7 8 22 15 34 16 11 0 15 3 9 6 -7 2 -13 14 -13 25 0 17 -3 18 -14 9 -10
-9 -20 -9 -34 -2 -27 14 -63 10 -60 -8z m78 -21 c0 -5 -7 -10 -15 -10 -8 0
-15 5 -15 10 0 6 7 10 15 10 8 0 15 -4 15 -10z"/>
<path d="M1807 73 c-4 -3 -7 -11 -7 -17 0 -6 5 -5 12 2 6 6 9 14 7 17 -3 3 -9
2 -12 -2z"/>
<path d="M1990 66 c0 -8 -3 -23 -6 -33 -6 -15 -4 -16 7 -6 7 7 21 13 30 13 16
0 34 28 24 38 -2 3 -7 -2 -11 -11 -3 -9 -12 -13 -20 -10 -8 3 -11 9 -8 14 3 5
0 9 -5 9 -6 0 -11 -6 -11 -14z"/>
<path d="M2082 68 c-7 -7 -12 -8 -12 -3 0 10 -29 -26 -30 -37 0 -5 5 -8 10 -8
6 0 10 7 10 15 0 18 12 19 28 3 8 -8 9 -15 1 -25 -18 -20 -1 -15 21 7 19 19
19 20 -1 30 -11 6 -17 15 -14 21 8 13 1 11 -13 -3z"/>
<path d="M1200 59 c0 -5 5 -7 10 -4 6 3 10 8 10 11 0 2 -4 4 -10 4 -5 0 -10
-5 -10 -11z"/>
<path d="M2118 63 c7 -3 16 -2 19 1 4 3 -2 6 -13 5 -11 0 -14 -3 -6 -6z"/>
<path d="M590 41 c5 -11 15 -23 21 -27 6 -3 3 5 -6 20 -20 30 -30 35 -15 7z"/>
<path d="M450 26 c0 -16 6 -26 14 -26 9 0 12 7 9 20 -8 31 -23 34 -23 6z"/>
<path d="M1900 32 c0 -12 5 -24 10 -27 6 -3 10 0 10 7 0 9 3 9 10 -2 8 -12 10
-10 10 9 0 13 -3 21 -7 18 -3 -4 -12 -2 -20 4 -10 9 -13 7 -13 -9z"/>
<path d="M384 31 c19 -7 19 -8 1 -14 -10 -4 -15 -10 -12 -14 9 -8 38 17 31 28
-3 5 -13 9 -22 8 -14 0 -14 -2 2 -8z"/>
<path d="M1827 34 c-6 -10 9 -42 16 -34 3 3 1 14 -3 24 -3 11 -9 15 -13 10z"/>
<path d="M2171 19 c5 -11 15 -17 20 -13 14 9 6 27 -14 30 -14 2 -15 -1 -6 -17z"/>
<path d="M290 18 c0 -4 9 -8 20 -8 11 0 20 4 20 8 0 4 -9 8 -20 8 -11 0 -20
-4 -20 -8z"/>
<path d="M551 14 c0 -11 3 -14 6 -6 3 7 2 16 -1 19 -3 4 -6 -2 -5 -13z"/>
<path d="M1610 19 c0 -5 -4 -7 -10 -4 -5 3 -10 1 -10 -4 0 -6 9 -11 20 -11 13
0 18 5 14 15 -7 17 -14 20 -14 4z"/>
<path d="M1680 21 c0 -5 7 -11 14 -14 10 -4 13 -1 9 9 -6 15 -23 19 -23 5z"/>
<path d="M2020 16 c0 -9 5 -16 10 -16 6 0 10 4 10 9 0 6 -4 13 -10 16 -5 3
-10 -1 -10 -9z"/>
<path d="M2246 13 c-6 -14 -5 -15 5 -6 7 7 10 15 7 18 -3 3 -9 -2 -12 -12z"/>
<path d="M1010 10 c-18 -12 -2 -12 25 0 13 6 15 9 5 9 -8 0 -22 -4 -30 -9z"/>
<path d="M1445 11 c-3 -6 3 -9 14 -8 11 0 17 5 15 9 -7 11 -22 10 -29 -1z"/>
<path d="M1788 3 c7 -3 16 -2 19 1 4 3 -2 6 -13 5 -11 0 -14 -3 -6 -6z"/>
</g>
</svg>
