<?xml version="1.0" standalone="no"?>
<!DOCTYPE svg PUBLIC "-//W3C//DTD SVG 20010904//EN"
 "http://www.w3.org/TR/2001/REC-SVG-20010904/DTD/svg10.dtd">
<svg version="1.0" xmlns="http://www.w3.org/2000/svg"
 width="275.000000pt" height="183.000000pt" viewBox="0 0 275.000000 183.000000"
 preserveAspectRatio="xMidYMid meet">
<metadata>
Created by potrace 1.10, written by Peter Selinger 2001-2011
</metadata>
<g transform="translate(0.000000,183.000000) scale(0.100000,-0.100000)"
fill="#000000" stroke="none">
<path d="M1371 1775 c-2 -5 -3 -27 -3 -48 0 -21 -5 -49 -12 -62 -16 -30 -9
-226 8 -237 7 -5 4 -8 -6 -8 -16 0 -18 -11 -18 -82 0 -88 10 -104 11 -20 1 28
6 49 10 46 5 -3 7 -10 3 -15 -3 -6 3 -13 14 -16 15 -4 22 -15 25 -42 3 -26 4
-22 5 19 1 34 -2 50 -7 41 -6 -9 -11 -10 -15 -2 -9 14 2 33 15 26 5 -3 6 1 2
10 -5 13 -7 14 -14 3 -5 -7 -9 -8 -9 -2 0 6 3 14 8 18 9 10 9 266 0 266 -4 0
-9 26 -11 58 -2 31 -5 53 -6 47z m16 -141 c-3 -3 -12 -4 -19 -1 -8 3 -5 6 6 6
11 1 17 -2 13 -5z m-20 -146 c-3 -8 -6 -5 -6 6 -1 11 2 17 5 13 3 -3 4 -12 1
-19z m-3 -93 c3 -8 1 -15 -4 -15 -6 0 -10 7 -10 15 0 8 2 15 4 15 2 0 6 -7 10
-15z"/>
<path d="M1394 1749 c-4 -7 -3 -9 4 -5 5 3 13 0 15 -6 4 -9 6 -10 6 -1 1 17
-16 25 -25 12z"/>
<path d="M1432 1730 c0 -14 2 -19 5 -12 2 6 2 18 0 25 -3 6 -5 1 -5 -13z"/>
<path d="M1298 1643 c4 -19 2 -24 -8 -18 -9 5 -11 4 -6 -4 4 -6 12 -9 17 -6
11 8 12 42 0 49 -4 3 -6 -6 -3 -21z"/>
<path d="M1420 1650 c0 -5 5 -10 11 -10 5 0 7 5 4 10 -3 6 -8 10 -11 10 -2 0
-4 -4 -4 -10z"/>
<path d="M1302 1550 c0 -14 2 -19 5 -12 2 6 2 18 0 25 -3 6 -5 1 -5 -13z"/>
<path d="M1301 1494 c0 -11 3 -14 6 -6 3 7 2 16 -1 19 -3 4 -6 -2 -5 -13z"/>
<path d="M1290 1410 c0 -5 5 -10 10 -10 6 0 10 5 10 10 0 6 -4 10 -10 10 -5 0
-10 -4 -10 -10z"/>
<path d="M1417 1403 c3 -7 6 -13 8 -13 2 0 5 6 8 13 3 8 -1 14 -8 14 -7 0 -11
-6 -8 -14z"/>
<path d="M1287 1349 c7 -7 15 -10 18 -7 3 3 -2 9 -12 12 -14 6 -15 5 -6 -5z"/>
<path d="M1364 1297 c2 -18 0 -39 -5 -48 -5 -10 -2 -24 6 -36 14 -19 13 -21
-6 -16 -16 4 -20 12 -16 29 2 13 0 24 -4 24 -5 0 -9 -23 -9 -51 0 -45 2 -50
15 -39 12 10 15 9 16 -6 1 -14 3 -13 9 6 7 23 8 23 9 3 1 -12 -3 -25 -9 -28
-5 -3 -10 -11 -10 -16 0 -6 5 -7 12 -3 7 4 8 3 4 -5 -4 -6 -11 -9 -16 -6 -5 3
-12 0 -17 -7 -5 -9 -10 -3 -14 17 l-7 30 -1 -32 c0 -17 -5 -34 -11 -38 -5 -3
-8 -18 -7 -33 1 -15 -2 -40 -5 -57 -4 -16 -5 -24 -2 -17 3 6 15 12 26 12 21 0
21 0 2 -22 -12 -14 -14 -19 -4 -13 12 6 13 5 3 -5 -9 -10 -15 -10 -26 -2 -11
10 -16 4 -26 -28 -12 -39 -24 -50 -36 -30 -3 6 -11 10 -16 10 -6 0 3 -11 19
-25 32 -27 48 -32 36 -12 -5 8 -2 8 9 -2 15 -12 17 -10 16 15 0 16 -3 23 -6
17 -2 -7 -10 -13 -16 -13 -7 1 -1 10 13 22 16 14 19 19 8 15 -17 -6 -24 3 -12
16 16 15 33 -6 27 -34 -5 -28 -4 -30 21 -23 16 4 26 2 26 -5 0 -6 -9 -11 -21
-11 -11 0 -17 -4 -14 -10 3 -5 -2 -10 -12 -11 -16 0 -16 -1 2 -9 17 -7 16 -9
-9 -9 -35 -1 -29 -11 8 -15 19 -3 26 1 26 15 0 17 17 35 25 28 2 -2 1 -17 -2
-32 -6 -28 -7 -29 -54 -24 -41 5 -49 3 -49 -11 0 -12 3 -13 8 -5 4 7 13 9 21
4 9 -6 4 -12 -19 -19 -19 -7 -29 -16 -25 -23 6 -8 10 -7 16 2 5 8 9 9 9 3 0
-5 -5 -15 -12 -22 -9 -9 -9 -12 -1 -12 7 0 14 9 18 19 7 22 42 37 108 45 30 4
46 2 42 -4 -3 -6 1 -10 9 -10 8 0 23 -11 34 -25 11 -14 25 -25 32 -25 6 0 8
-4 5 -10 -3 -5 -15 -10 -26 -10 -17 0 -25 -21 -20 -53 1 -4 -8 -3 -19 3 -22
12 -26 25 -10 35 6 3 7 -1 4 -9 -3 -9 -1 -16 4 -16 6 0 9 9 7 20 -2 12 2 23
10 27 8 3 12 10 8 16 -4 6 -11 3 -20 -9 -11 -15 -16 -16 -22 -6 -6 11 -10 10
-15 -4 -5 -13 -10 -14 -18 -6 -8 8 -15 9 -25 1 -10 -9 -13 -8 -13 4 0 9 8 18
18 20 13 4 11 5 -5 6 -14 1 -23 -5 -23 -14 0 -8 -4 -15 -10 -15 -5 0 -8 14 -6
30 2 17 -1 30 -5 30 -5 0 -9 -5 -9 -11 0 -5 -4 -7 -10 -4 -6 4 -10 -5 -10 -19
0 -14 6 -26 13 -26 6 0 21 -7 31 -15 18 -14 17 -14 -12 -12 -16 1 -28 5 -26 9
2 3 -10 11 -27 17 -21 7 -29 16 -26 25 3 8 -2 20 -10 28 -14 11 -16 11 -10 -4
3 -10 2 -20 -4 -23 -5 -4 -6 -11 -3 -17 4 -6 3 -8 -2 -5 -6 3 -16 -3 -23 -15
-7 -11 -8 -17 -2 -14 5 4 9 -2 8 -13 -1 -18 -8 -20 -54 -19 -35 1 -53 6 -53
14 0 9 8 10 32 3 18 -5 33 -9 33 -9 0 0 0 11 0 25 0 14 -3 25 -7 25 -5 0 -8
-6 -8 -13 0 -27 -28 -13 -38 19 -8 28 -7 36 9 50 17 16 19 16 19 1 0 -10 7
-17 16 -17 8 0 12 5 9 10 -3 6 -1 10 4 10 6 0 11 4 11 9 0 5 -44 9 -97 10
-134 3 -182 6 -189 14 -4 3 66 4 155 1 88 -3 161 -1 161 3 0 10 -23 11 -285
16 -93 2 -255 6 -360 9 -104 3 -166 4 -137 1 48 -4 58 -10 53 -37 -1 -5 5 -3
14 4 10 8 47 14 98 16 45 1 70 0 55 -3 -50 -8 -29 -18 40 -19 37 0 59 1 50 3
-38 9 -15 18 34 14 51 -5 52 -5 18 -12 l-35 -6 43 -2 c27 0 41 3 37 9 -11 17
7 11 21 -8 13 -16 13 -16 14 1 0 17 1 17 16 3 8 -9 21 -16 29 -16 7 0 15 -7
19 -15 3 -8 13 -14 23 -14 17 1 17 2 1 6 -41 11 -12 18 75 19 50 1 80 0 65 -3
-32 -5 -36 -18 -11 -32 10 -5 15 -13 11 -17 -4 -4 -14 -2 -22 5 -10 8 -21 9
-40 1 -36 -13 -24 -29 18 -25 18 1 40 -2 47 -7 10 -7 8 -8 -8 -5 -19 4 -22 1
-19 -16 2 -12 1 -16 -1 -9 -7 19 -20 14 -26 -9 -4 -14 -10 -18 -18 -13 -9 5
-10 9 -2 11 7 3 10 10 7 18 -3 8 -12 11 -20 8 -9 -3 -13 -12 -10 -19 3 -7 1
-16 -4 -19 -11 -7 -14 38 -3 49 4 3 8 14 9 24 3 13 -5 17 -34 18 -20 1 -56 3
-79 6 -35 3 -43 1 -43 -12 0 -8 9 -23 19 -32 17 -14 20 -14 25 -2 4 10 2 12
-5 8 -7 -4 -10 -2 -8 5 9 25 24 15 27 -18 2 -21 0 -31 -7 -27 -6 4 -9 1 -5 -7
3 -8 0 -18 -7 -23 -7 -4 -15 -2 -17 4 -2 7 -8 12 -14 12 -6 0 -8 -7 -4 -15 3
-8 1 -15 -3 -15 -5 0 -11 7 -15 15 -3 8 -1 15 5 15 6 0 7 5 3 12 -4 7 -3 8 4
4 14 -8 15 3 3 22 -6 11 -10 10 -16 -5 -4 -10 -9 -24 -11 -32 -5 -24 -24 -37
-33 -23 -7 11 -9 10 -14 -2 -4 -9 -11 -16 -16 -16 -6 0 -7 7 -4 17 4 10 2 14
-5 9 -6 -3 -13 -2 -17 4 -3 5 -11 10 -16 10 -6 0 -7 -4 -4 -10 3 -5 0 -10 -7
-10 -7 0 2 -8 19 -16 18 -9 30 -20 27 -25 -3 -5 2 -6 11 -2 15 5 15 3 4 -16
-15 -22 -26 -25 -56 -14 -16 6 -15 8 7 15 16 5 7 6 -24 3 -28 -3 -52 -9 -55
-13 -4 -5 -25 -13 -48 -19 -38 -10 -43 -9 -43 6 0 9 -3 12 -8 6 -4 -5 -33 -11
-65 -11 -32 -1 -64 -7 -70 -14 -10 -10 -6 -11 18 -6 66 15 85 15 82 -3 -4 -25
-17 -41 -33 -41 -8 0 -12 5 -9 10 3 6 1 10 -4 10 -6 0 -11 -4 -11 -9 0 -5 -10
-7 -22 -4 -17 3 -19 2 -10 -5 11 -7 10 -10 -3 -16 -23 -8 -27 -8 -20 4 3 6 -1
10 -9 10 -9 0 -16 -8 -16 -19 0 -11 -5 -23 -11 -26 -6 -4 -8 -14 -4 -22 5 -14
3 -14 -11 -2 -16 13 -16 12 -6 -7 10 -19 8 -20 -19 -16 -24 3 -28 8 -24 23 4
11 2 19 -5 19 -6 0 -9 -4 -6 -9 4 -5 -9 -8 -29 -7 -19 2 -35 -1 -35 -6 0 -5
-4 -7 -9 -3 -5 3 -12 1 -16 -5 -3 -5 -20 -10 -37 -10 -41 0 -148 -30 -148 -41
0 -5 5 -9 11 -9 17 0 212 51 228 60 13 6 21 -3 40 -41 13 -27 27 -49 31 -49 8
0 60 111 60 129 0 6 16 11 35 11 19 0 35 4 35 10 0 5 6 7 13 4 8 -3 25 0 40 5
18 7 27 7 29 -1 7 -19 141 -11 156 9 16 23 0 38 -26 24 -11 -6 -38 -11 -59
-11 -28 0 -34 -3 -23 -10 22 -14 6 -12 -24 3 -14 8 -23 17 -19 20 3 4 -1 7
-11 7 -9 0 -14 5 -11 10 4 7 13 6 27 -1 14 -7 47 -9 93 -5 70 6 72 6 83 -19 6
-14 8 -25 3 -25 -4 0 -8 -16 -9 -35 -2 -41 1 -42 28 -15 23 23 27 38 5 20 -12
-10 -15 -10 -15 4 0 9 4 16 9 16 4 0 16 25 26 55 15 50 24 60 48 56 4 0 7 4 7
9 0 6 -9 10 -19 10 -11 0 -23 4 -26 10 -4 6 14 11 47 12 29 1 62 3 73 4 11 1
26 2 33 3 15 1 16 47 1 56 -14 9 19 45 42 45 19 0 32 -13 22 -24 -3 -3 -13 0
-21 7 -13 10 -14 8 -7 -13 16 -51 16 -54 2 -31 l-14 24 0 -26 c0 -25 8 -32 30
-28 5 1 7 -4 4 -11 -2 -7 -10 -12 -16 -10 -13 3 -14 -10 -2 -24 6 -5 -4 -9
-27 -10 -20 -1 -30 1 -20 3 18 5 33 33 18 33 -6 0 -10 -4 -10 -10 0 -5 -7 -10
-15 -10 -13 0 -15 -7 -10 -33 5 -24 2 -39 -9 -50 -15 -14 -15 -16 3 -14 11 0
18 4 16 7 -2 3 0 12 6 20 7 12 9 9 9 -10 0 -18 3 -21 9 -11 5 7 13 11 19 7 6
-3 14 -1 18 5 4 7 3 9 -4 5 -11 -6 -42 19 -42 35 0 5 14 9 31 9 26 0 30 3 26
19 -3 12 1 22 10 25 8 3 11 10 8 16 -3 5 0 10 7 10 7 1 31 3 53 5 28 3 33 2
15 -3 -16 -5 -26 -16 -28 -32 -2 -18 0 -21 7 -11 5 8 18 12 30 8 12 -3 21 -1
21 4 0 5 -10 9 -22 9 -21 0 -20 2 7 16 16 8 47 14 70 13 22 -1 49 1 59 6 12 5
21 5 23 -2 2 -5 14 -9 26 -8 12 1 14 0 4 -2 -9 -2 -15 -8 -12 -13 3 -5 12 -7
20 -3 11 4 15 -3 15 -25 0 -28 15 -51 26 -39 9 8 12 77 4 77 -5 0 -11 -6 -13
-12 -3 -8 -6 -6 -6 5 -1 15 9 17 79 17 46 0 80 -4 80 -10 0 -5 11 -12 25 -16
14 -3 25 -14 26 -23 0 -13 2 -14 6 -1 3 8 11 18 16 22 13 8 38 -2 31 -13 -3
-5 0 -17 5 -26 6 -11 11 -13 11 -5 0 7 5 10 10 7 6 -3 10 -2 10 4 0 5 -6 12
-12 14 -10 4 -10 6 0 6 6 1 12 6 12 12 0 6 -7 9 -15 5 -8 -3 -21 1 -29 9 -8 8
-21 15 -28 15 -10 0 -10 -2 1 -9 9 -6 3 -8 -20 -6 -18 1 -35 9 -37 16 -3 10
-1 10 7 -1 9 -13 11 -12 11 4 0 15 5 17 30 12 17 -3 30 -1 30 4 0 6 -4 10 -10
10 -5 0 -10 6 -10 14 0 10 10 14 30 14 17 -1 33 2 37 6 15 15 10 35 -11 41
-18 7 -16 8 14 14 29 5 31 7 14 13 -12 3 -28 2 -35 -3 -9 -5 -21 5 -38 34 -22
38 -28 54 -30 96 -1 8 -4 12 -7 8 -7 -7 -34 15 -28 24 2 3 -5 34 -16 68 -10
35 -16 69 -13 77 3 8 1 20 -5 27 -6 6 -13 46 -17 87 -5 54 -3 71 4 60 6 -8 11
-10 11 -4 0 16 -10 23 -25 17 -8 -2 -11 -11 -8 -19 3 -8 1 -14 -5 -14 -12 0
-11 18 2 39 6 10 5 12 -2 7 -8 -5 -12 5 -12 32 0 25 -5 42 -14 45 -11 4 -14
-2 -12 -26z m43 -122 c-4 -8 -2 -17 3 -20 6 -4 10 -11 10 -16 0 -6 -4 -7 -10
-4 -14 9 -13 -8 2 -23 9 -9 8 -12 -5 -12 -15 0 -18 8 -16 45 2 25 7 45 12 45
5 0 7 -7 4 -15z m-40 -97 c-2 -7 -11 -12 -20 -10 -13 2 -14 -1 -4 -23 13 -26
30 -36 21 -10 -3 8 2 24 11 37 l17 23 -5 -22 c-4 -16 -1 -23 10 -23 9 0 13 6
10 14 -4 10 -1 13 8 10 7 -3 16 -12 19 -19 3 -10 0 -12 -11 -8 -13 5 -13 3 2
-20 9 -14 14 -31 10 -37 -4 -6 1 -20 11 -31 9 -10 14 -19 9 -19 -4 0 -2 -6 4
-14 9 -11 9 -16 0 -21 -8 -6 -7 -10 5 -17 20 -11 21 -29 1 -22 -11 5 -13 2 -9
-10 7 -19 30 -21 37 -3 3 6 4 2 4 -10 -1 -15 -8 -23 -19 -23 -10 0 -18 4 -18
10 0 5 -6 7 -14 4 -11 -4 -12 -11 -3 -35 12 -31 30 -40 25 -12 -2 12 4 18 19
19 15 1 20 -3 15 -14 -4 -11 -2 -13 9 -7 12 7 12 6 1 -7 -9 -12 -10 -18 -2
-23 8 -5 8 -11 2 -17 -14 -14 -35 1 -28 19 4 9 1 13 -6 10 -7 -2 -12 -11 -10
-18 1 -8 -7 -3 -18 11 -11 14 -20 31 -20 38 0 6 -8 12 -17 12 -15 0 -16 -2 -3
-10 17 -10 14 -15 -17 -24 -20 -6 -23 -4 -23 18 0 20 5 26 21 26 11 0 17 5 14
10 -4 6 5 10 19 10 14 0 26 3 26 8 0 4 -18 6 -40 4 -25 -3 -40 0 -40 7 0 7 14
9 36 6 l36 -4 -8 52 c-4 29 -8 62 -8 74 -1 14 -7 21 -18 20 -11 -1 -14 -6 -9
-17 5 -8 11 -36 14 -62 l7 -48 -45 0 -44 0 5 33 c3 17 9 44 14 59 10 32 4 41
-20 28 -15 -8 -17 -6 -13 10 3 11 10 17 17 13 8 -5 8 -3 0 8 -14 19 -12 38 6
49 21 13 32 12 27 -2z m191 -352 c20 -34 20 -34 1 -39 -15 -4 -18 -2 -10 7 6
7 8 16 4 19 -3 4 -11 0 -17 -9 -10 -13 -12 -12 -13 6 -1 11 2 18 8 15 12 -8
11 2 -2 27 -18 34 7 11 29 -26z m-508 -36 c0 -5 -5 -10 -11 -10 -5 0 -7 5 -4
10 3 6 8 10 11 10 2 0 4 -4 4 -10z m470 -24 c0 -8 -4 -18 -10 -21 -5 -3 -10 3
-10 14 0 12 5 21 10 21 6 0 10 -6 10 -14z m-240 -4 c0 -9 -44 -32 -60 -32 -6
0 -10 5 -10 11 0 6 6 9 14 6 8 -3 22 1 33 8 22 17 23 17 23 7z m112 -23 c-12
-11 -19 -13 -24 -5 -5 8 -8 7 -8 -1 0 -7 -5 -13 -12 -13 -6 0 -4 8 6 19 10 11
26 19 36 18 18 -1 18 -2 2 -18z m98 11 c0 -5 -4 -10 -10 -10 -5 0 -10 5 -10
10 0 6 5 10 10 10 6 0 10 -4 10 -10z m-165 -20 c4 -6 -7 -10 -27 -9 -27 0 -30
2 -13 9 27 12 33 12 40 0z m-18 -82 c-3 -8 -6 -5 -6 6 -1 11 2 17 5 13 3 -3 4
-12 1 -19z m-585 -48 c10 -11 14 -20 8 -20 -6 0 -13 7 -16 15 -4 8 -9 13 -13
11 -3 -2 -37 -6 -76 -9 -44 -4 -61 -3 -45 3 14 4 41 9 60 10 30 1 32 3 15 11
-15 7 -12 8 14 4 19 -3 43 -14 53 -25z m-408 -158 c3 -5 -1 -9 -9 -9 -8 0 -12
4 -9 9 3 4 7 8 9 8 2 0 6 -4 9 -8z"/>
<path d="M1373 1037 c2 -7 0 -22 -4 -34 -7 -18 -5 -23 7 -23 8 0 13 4 10 9
-11 16 5 40 21 34 10 -4 14 -2 10 4 -10 15 -49 24 -44 10z"/>
<path d="M1358 893 c7 -3 16 -2 19 1 4 3 -2 6 -13 5 -11 0 -14 -3 -6 -6z"/>
<path d="M1381 794 c0 -11 3 -14 6 -6 3 7 2 16 -1 19 -3 4 -6 -2 -5 -13z"/>
<path d="M1490 750 c0 -5 5 -10 11 -10 5 0 7 5 4 10 -3 6 -8 10 -11 10 -2 0
-4 -4 -4 -10z"/>
<path d="M1283 1230 c-1 -11 2 -20 7 -20 4 0 7 7 6 15 -3 23 -12 26 -13 5z"/>
<path d="M1285 1119 c-4 -6 -5 -12 -2 -15 2 -3 7 2 10 11 7 17 1 20 -8 4z"/>
<path d="M1460 1095 c-10 -12 -9 -16 5 -21 9 -4 21 -2 27 4 8 8 4 9 -13 5 -21
-6 -23 -5 -10 10 7 9 11 17 8 17 -2 0 -10 -7 -17 -15z"/>
<path d="M1507 1073 c-4 -3 -7 -11 -7 -17 0 -6 5 -5 12 2 6 6 9 14 7 17 -3 3
-9 2 -12 -2z"/>
<path d="M1471 1023 c8 -13 17 -23 21 -23 5 0 8 -10 9 -22 0 -22 1 -22 8 -3 8
20 4 26 -33 55 -18 14 -19 14 -5 -7z"/>
<path d="M1493 935 c0 -7 6 -11 14 -8 7 3 13 6 13 8 0 2 -6 5 -13 8 -8 3 -14
-1 -14 -8z"/>
<path d="M1206 931 c-3 -5 1 -14 9 -21 9 -8 15 -8 15 -2 0 6 6 12 13 15 6 2 1
2 -11 0 -15 -2 -21 0 -17 7 3 5 4 10 1 10 -3 0 -7 -4 -10 -9z"/>
<path d="M1548 923 c7 -3 16 -2 19 1 4 3 -2 6 -13 5 -11 0 -14 -3 -6 -6z"/>
<path d="M1496 899 c3 -5 24 -9 46 -9 51 0 47 5 -10 13 -24 3 -40 1 -36 -4z"/>
<path d="M1715 900 l-40 -7 43 -2 c23 0 42 4 42 9 0 6 -1 9 -2 9 -2 -1 -21 -5
-43 -9z"/>
<path d="M2695 900 c3 -5 -4 -11 -17 -11 -20 -1 -21 -2 -3 -6 11 -3 23 -10 27
-17 5 -7 8 -4 8 7 0 10 10 22 23 27 20 8 19 9 -11 9 -20 1 -31 -3 -27 -9z"/>
<path d="M2720 876 c0 -7 7 -19 15 -26 10 -9 15 -9 15 -1 0 6 -5 11 -11 11 -6
0 -9 7 -5 15 3 8 1 15 -4 15 -6 0 -10 -6 -10 -14z"/>
<path d="M57 857 c4 -6 -1 -8 -11 -4 -10 4 -15 3 -11 -3 3 -6 1 -10 -4 -10 -6
0 -11 -8 -11 -17 1 -16 2 -16 13 -3 7 8 21 15 32 14 11 0 25 4 31 8 7 5 14 1
17 -12 4 -17 3 -19 -8 -10 -11 9 -12 7 -8 -9 4 -16 1 -21 -16 -21 -11 0 -21 5
-21 11 0 5 5 7 10 4 6 -3 10 1 10 9 0 10 -6 13 -15 10 -8 -4 -15 -16 -15 -28
0 -17 -2 -18 -10 -6 -9 13 -10 13 -10 0 -1 -9 -6 -5 -15 10 -16 27 -21 20 -6
-9 7 -13 21 -16 60 -15 29 1 49 -2 45 -7 -3 -5 0 -9 5 -9 6 0 11 7 11 15 0 8
-5 15 -11 15 -5 0 -7 5 -4 10 4 7 13 7 25 0 16 -9 19 -8 14 7 -5 17 -5 17 6 0
13 -20 4 -40 -13 -31 -9 5 -9 4 0 -6 13 -14 33 -5 33 16 0 8 7 14 15 14 23 0
18 16 -6 17 -11 1 -32 13 -46 27 -24 25 -26 25 -57 9 -25 -13 -29 -13 -19 -1
10 12 10 15 -2 15 -8 0 -11 -5 -8 -10z m86 -40 c-4 -7 -8 -6 -11 3 -3 8 -10
22 -16 30 -6 8 -1 7 11 -4 13 -10 20 -23 16 -29z"/>
<path d="M237 859 c7 -7 15 -10 18 -7 3 3 -2 9 -12 12 -14 6 -15 5 -6 -5z"/>
<path d="M1083 863 c9 -2 23 -2 30 0 6 3 -1 5 -18 5 -16 0 -22 -2 -12 -5z"/>
<path d="M1540 859 c0 -5 5 -7 10 -4 6 3 10 8 10 11 0 2 -4 4 -10 4 -5 0 -10
-5 -10 -11z"/>
<path d="M1578 863 c7 -3 16 -2 19 1 4 3 -2 6 -13 5 -11 0 -14 -3 -6 -6z"/>
<path d="M2574 857 c-3 -9 -13 -13 -25 -10 -11 3 -21 -1 -25 -11 -8 -21 -26
-21 -22 0 2 10 -3 18 -10 20 -7 1 -8 0 -2 -3 6 -3 6 -11 -1 -25 -8 -15 -8 -19
0 -14 6 4 14 0 18 -9 3 -10 1 -20 -6 -24 -6 -4 -9 -15 -5 -24 12 -32 -80 -55
-104 -27 -10 12 -10 10 0 -13 11 -27 26 -29 67 -7 8 4 23 3 33 -4 15 -8 21 -8
27 3 5 8 14 10 21 6 9 -5 11 -4 6 3 -10 17 6 15 32 -4 13 -9 26 -13 29 -10 4
3 1 6 -6 6 -7 0 -9 5 -5 11 4 8 9 8 17 0 6 -6 15 -11 21 -11 5 0 1 6 -9 14
-11 8 -28 12 -37 11 -11 -2 -16 0 -12 6 10 17 11 70 1 76 -4 3 -1 13 8 23 11
12 13 20 6 25 -6 3 -14 0 -17 -8z m-14 -28 c0 -5 -4 -8 -9 -4 -5 3 -13 1 -16
-5 -4 -6 -3 -10 2 -9 24 4 35 -2 29 -18 -4 -9 -1 -20 6 -25 10 -5 8 -8 -5 -8
-11 0 -16 -5 -12 -12 4 -7 -3 -2 -14 12 -22 27 -25 39 -15 64 7 18 34 22 34 5z
m-20 -89 c0 -5 -8 -8 -18 -7 -10 0 -18 9 -18 18 0 14 4 15 18 8 10 -5 18 -14
18 -19z"/>
<path d="M2611 858 c-1 -10 -5 -18 -11 -18 -5 0 -10 -8 -10 -17 0 -15 2 -16
10 -3 8 13 10 13 10 -2 0 -9 -5 -18 -10 -20 -6 -2 -4 -12 5 -25 16 -22 45 -22
45 1 0 6 14 19 31 28 16 10 27 13 24 8 -3 -5 -1 -18 5 -27 11 -17 11 -17 6 1
-5 15 -2 17 16 13 21 -5 21 -5 6 7 -10 7 -18 22 -19 32 0 11 -3 14 -6 6 -3 -8
-10 -6 -22 9 -13 16 -23 20 -39 15 -19 -6 -20 -9 -8 -22 8 -8 22 -11 32 -7 12
4 15 2 12 -8 -3 -8 -13 -13 -23 -11 -9 2 -14 -1 -11 -6 3 -5 -1 -15 -8 -21
-11 -10 -16 -8 -21 9 -4 12 -4 24 -1 27 3 4 6 1 6 -6 0 -7 5 -9 12 -5 8 5 7
10 -4 18 -8 6 -17 18 -21 26 -4 12 -6 11 -6 -2z m69 -2 c0 -3 -4 -8 -10 -11
-5 -3 -10 -1 -10 4 0 6 5 11 10 11 6 0 10 -2 10 -4z m-57 -76 c3 -11 1 -18 -4
-14 -5 3 -9 12 -9 20 0 20 7 17 13 -6z"/>
<path d="M0 849 c0 -5 5 -7 10 -4 5 3 10 8 10 11 0 2 -4 4 -10 4 -5 0 -10 -5
-10 -11z"/>
<path d="M318 853 c7 -3 16 -2 19 1 4 3 -2 6 -13 5 -11 0 -14 -3 -6 -6z"/>
<path d="M625 850 c-16 -7 -17 -9 -3 -9 9 -1 20 4 23 9 7 11 7 11 -20 0z"/>
<path d="M405 839 c-11 -16 -1 -19 13 -3 7 8 8 14 3 14 -5 0 -13 -5 -16 -11z"/>
<path d="M1236 836 c6 -15 -52 -116 -74 -129 -10 -7 -10 -12 -1 -23 14 -17 30
-18 28 -1 -3 23 3 52 8 40 2 -7 9 -13 14 -13 6 0 8 4 5 9 -9 15 5 41 21 41 13
0 13 2 2 17 -8 9 -9 14 -4 11 6 -3 17 1 25 10 13 14 12 15 -3 9 -9 -3 -17 -4
-17 -1 0 2 10 9 23 14 17 7 18 9 5 9 -10 1 -18 6 -18 11 0 6 -4 10 -10 10 -5
0 -7 -6 -4 -14z"/>
<path d="M2264 834 c-19 -15 -19 -15 1 -6 11 5 27 12 35 15 13 5 13 6 -1 6 -8
1 -24 -6 -35 -15z"/>
<path d="M2323 837 c1 -7 -4 -11 -10 -9 -17 3 -17 -40 -1 -56 9 -9 5 -12 -17
-12 -17 0 -72 -5 -123 -12 -72 -10 -91 -15 -87 -26 3 -8 -3 -21 -12 -28 -16
-12 -16 -13 10 -14 23 0 27 3 22 19 -4 14 -1 18 17 17 13 -1 26 3 30 9 5 6 8
5 8 -3 0 -10 4 -10 16 2 19 19 50 21 58 4 5 -10 7 -10 12 0 4 8 10 9 17 4 18
-14 49 -23 42 -13 -3 5 0 13 7 18 19 11 50 14 43 4 -3 -5 0 -13 6 -17 7 -4 9
-3 5 4 -10 17 11 24 32 11 22 -14 67 -5 75 14 4 10 -3 12 -24 9 -16 -2 -29 -9
-29 -16 0 -7 -3 -7 -8 2 -5 7 -25 13 -45 14 -20 1 -34 5 -31 10 3 4 -2 11 -10
14 -21 8 -20 21 3 33 16 9 18 8 14 -7 -4 -18 22 -50 33 -40 2 3 9 19 13 36 7
23 6 30 -3 26 -7 -3 -25 0 -39 5 -20 8 -26 7 -24 -2z m50 -38 c-4 -13 -9 -17
-15 -11 -11 11 -3 32 12 32 4 0 6 -9 3 -21z m-73 -57 c0 -5 -7 -9 -15 -9 -8 0
-15 4 -15 9 0 4 7 8 15 8 8 0 15 -4 15 -8z"/>
<path d="M237 833 c-4 -3 -7 -15 -7 -25 0 -10 -7 -18 -15 -18 -8 0 -15 -4 -15
-8 0 -5 23 -6 50 -2 28 4 50 3 50 -2 0 -5 26 -6 57 -3 62 6 89 1 96 -18 3 -8
-10 -12 -41 -13 -35 -1 -41 1 -24 7 12 5 22 10 22 11 0 2 -30 1 -67 -1 -50 -3
-61 -6 -43 -11 l25 -8 -27 -1 c-17 -1 -28 5 -31 17 -2 9 -4 -2 -4 -25 1 -23 5
-39 11 -36 16 10 65 13 71 4 3 -5 13 -7 24 -4 14 3 20 -2 24 -26 6 -28 27 -45
27 -21 0 6 -4 10 -10 10 -24 0 -7 20 18 21 l27 1 -30 13 c-16 8 -42 14 -57 15
-29 0 -39 22 -16 36 8 5 9 2 5 -9 -5 -14 1 -16 37 -15 24 0 50 -3 56 -7 9 -5
11 -4 6 3 -5 8 2 10 25 5 25 -5 30 -3 24 7 -6 10 0 12 28 7 21 -3 37 -2 37 3
0 14 -71 24 -79 12 -8 -13 -25 -3 -33 19 -5 12 -26 18 -87 23 -44 3 -92 4
-106 0 -15 -4 -25 -2 -25 4 0 6 24 13 53 15 l52 3 -53 2 c-33 1 -51 6 -47 12
7 11 2 13 -8 3z m87 -112 c-8 -8 -44 -8 -44 1 0 4 11 7 25 6 13 -1 22 -4 19
-7z"/>
<path d="M1549 823 c-13 -16 -12 -17 4 -4 16 13 21 21 13 21 -2 0 -10 -8 -17
-17z"/>
<path d="M1135 820 c-4 -6 9 -10 34 -10 52 0 61 15 11 18 -21 2 -41 -2 -45 -8z"/>
<path d="M1073 813 c9 -2 25 -2 35 0 9 3 1 5 -18 5 -19 0 -27 -2 -17 -5z"/>
<path d="M1571 794 c0 -11 3 -14 6 -6 3 7 2 16 -1 19 -3 4 -6 -2 -5 -13z"/>
<path d="M1590 801 c0 -10 19 -25 25 -20 1 2 -3 10 -11 17 -8 7 -14 8 -14 3z"/>
<path d="M2265 791 c-3 -5 -1 -12 4 -15 5 -3 11 1 15 9 6 16 -9 21 -19 6z"/>
<path d="M1668 783 c7 -3 16 -2 19 1 4 3 -2 6 -13 5 -11 0 -14 -3 -6 -6z"/>
<path d="M1712 785 c3 -3 19 -8 34 -9 16 -2 34 -4 39 -5 6 -1 4 -5 -4 -10 -8
-5 -20 -7 -27 -4 -6 2 -15 0 -19 -6 -3 -6 -16 -11 -28 -10 -21 0 -21 1 -2 9
16 7 13 9 -17 9 -23 1 -38 6 -38 14 0 8 -2 9 -8 1 -4 -6 -19 -10 -34 -8 -15 1
-31 -2 -34 -8 -4 -6 -2 -8 4 -4 15 9 62 -11 62 -28 0 -7 -7 -16 -15 -20 -8 -3
-12 -12 -9 -21 4 -8 1 -15 -6 -15 -8 0 -11 -9 -8 -25 4 -20 1 -25 -14 -25 -11
0 -17 4 -14 9 7 11 -22 36 -31 27 -3 -3 -1 -6 6 -6 8 0 11 -8 8 -20 -4 -16 0
-20 18 -20 13 0 27 -4 30 -10 4 -6 16 -5 34 5 16 8 30 13 32 11 2 -2 26 -7 52
-10 47 -7 48 -7 41 18 -4 19 -2 24 10 22 8 -1 19 -6 23 -11 4 -4 2 -5 -4 -1
-9 5 -13 -1 -13 -17 0 -18 -7 -27 -25 -31 -14 -4 -31 -4 -37 0 -21 13 -72 14
-80 2 -11 -18 -10 -28 2 -28 6 0 10 7 10 15 0 25 18 17 29 -12 6 -16 10 -19 8
-8 -3 15 2 21 17 23 16 1 18 -1 6 -8 -12 -7 -12 -12 -2 -22 9 -9 12 -9 12 5 0
9 5 17 10 17 19 0 10 -23 -21 -51 -20 -17 -26 -29 -19 -34 7 -4 14 2 17 14 6
24 14 26 32 9 10 -11 11 -10 6 4 -4 10 0 24 9 34 9 8 14 20 11 25 -4 5 -1 9 4
9 6 0 11 -10 11 -22 0 -30 19 -58 27 -40 7 17 30 15 37 -4 9 -22 -3 -32 -14
-14 -8 13 -10 12 -10 -2 0 -10 4 -18 8 -18 5 0 15 -11 22 -25 16 -30 24 -27
12 5 -6 16 -4 32 4 49 7 14 12 26 10 28 -1 2 -21 4 -43 5 -41 1 -41 1 -20 19
l22 18 -22 -6 c-17 -4 -23 -1 -23 11 0 9 6 16 14 16 8 0 14 10 13 23 0 12 2
28 4 36 2 7 -3 15 -11 16 -8 2 -20 4 -26 6 -7 2 -12 0 -12 -5 0 -5 -7 -13 -16
-18 -9 -5 -16 -19 -17 -31 0 -12 -3 -16 -6 -9 -2 6 -9 10 -14 7 -5 -4 -6 1 -2
10 3 10 0 21 -8 27 -10 6 -6 7 11 2 22 -6 23 -5 12 9 -11 13 -10 15 6 10 11
-2 23 0 26 6 4 6 2 11 -4 11 -6 0 -8 5 -5 10 3 6 -1 10 -10 10 -9 0 -13 -4
-10 -10 3 -5 0 -10 -9 -10 -8 0 -16 -5 -18 -11 -3 -8 -10 -6 -20 5 -9 9 -21
16 -27 16 -6 0 -11 9 -11 20 0 12 7 20 18 20 14 0 15 -2 2 -10 -9 -5 15 -8 67
-6 75 3 81 2 80 -15 -1 -11 -5 -19 -9 -19 -4 0 -8 -5 -8 -11 0 -5 4 -8 9 -5 5
3 14 -1 21 -9 9 -11 10 -18 1 -29 -9 -10 -8 -15 4 -20 8 -3 15 -10 15 -16 0
-6 -4 -8 -10 -5 -5 3 -10 2 -10 -3 0 -10 108 -23 153 -18 18 2 27 -1 27 -12 0
-12 11 -13 65 -7 45 4 70 3 80 -5 15 -13 245 -22 245 -10 0 13 -44 20 -93 14
-44 -6 -47 -4 -57 21 -13 35 -14 33 23 38 31 4 31 4 -6 5 -33 2 -38 6 -43 31
-5 25 -11 29 -35 29 -16 -1 -29 -5 -29 -10 0 -5 -5 -6 -10 -3 -6 4 -16 2 -23
-3 -7 -6 -21 -12 -32 -15 -11 -2 -2 -2 20 1 72 9 80 8 77 -8 -2 -8 -1 -12 3
-8 10 10 33 -15 28 -29 -3 -7 0 -13 6 -13 6 0 11 -9 11 -20 0 -15 -7 -20 -26
-20 -24 0 -26 3 -22 35 2 22 0 35 -8 35 -6 0 -10 -11 -9 -25 3 -22 -1 -25 -26
-25 -33 0 -38 14 -11 29 9 6 11 11 5 11 -7 0 -21 -8 -31 -18 -10 -10 -34 -18
-55 -19 -41 -1 -44 2 -23 23 19 19 26 18 27 -3 0 -11 3 -13 6 -5 6 16 -19 73
-32 69 -5 -2 -12 -12 -13 -22 -3 -10 0 -15 7 -11 6 4 11 3 11 -3 0 -30 -77
-36 -86 -7 -4 10 0 22 7 27 9 6 0 7 -24 4 -48 -5 -57 -12 -51 -33 5 -13 4 -14
-4 -3 -9 12 -11 12 -15 0 -2 -8 -3 -4 -1 7 2 12 -5 33 -16 47 l-20 25 24 -11
c13 -7 22 -15 19 -20 -3 -5 8 -2 24 7 16 8 30 22 30 31 0 13 -9 15 -49 11 -27
-3 -48 -1 -48 5 0 10 -2 10 103 14 42 2 77 -1 77 -6 0 -5 -9 -9 -19 -9 -34 0
-51 -11 -51 -34 0 -11 4 -16 8 -11 4 6 17 15 29 22 19 11 21 10 18 -8 -2 -11
0 -17 6 -14 5 4 9 14 9 23 0 13 2 13 14 -4 8 -10 18 -16 22 -11 4 4 2 7 -4 7
-7 0 -12 5 -12 11 0 5 4 8 9 5 15 -10 40 5 34 20 -3 9 -14 12 -32 9 -24 -5
-25 -5 -3 4 35 16 27 19 -40 16 -190 -10 -195 -9 -202 13 -5 13 -18 19 -48 21
-23 1 -40 -1 -36 -4z m-50 -147 c-2 -10 -14 -18 -26 -18 -17 0 -18 2 -6 10 8
5 15 21 16 37 3 40 5 41 13 13 4 -14 5 -33 3 -42z m228 52 c8 -5 11 -10 5 -10
-5 0 -17 5 -25 10 -8 5 -10 10 -5 10 6 0 17 -5 25 -10z m-200 -20 c0 -5 -2
-10 -4 -10 -3 0 -8 5 -11 10 -3 6 -1 10 4 10 6 0 11 -4 11 -10z m-50 -8 c0
-13 -12 -22 -22 -16 -10 6 -1 24 13 24 5 0 9 -4 9 -8z m60 -27 c0 -8 -2 -15
-4 -15 -2 0 -6 7 -10 15 -3 8 -1 15 4 15 6 0 10 -7 10 -15z m212 -16 c-1 -8 4
-5 13 5 8 11 15 15 15 9 0 -7 -5 -15 -10 -18 -6 -4 -8 -11 -5 -16 3 -5 -1 -6
-8 -3 -8 3 -17 14 -20 25 -4 13 -1 19 6 16 7 -3 11 -11 9 -18z"/>
<path d="M1825 781 c-3 -5 -2 -12 3 -15 5 -3 9 1 9 9 0 17 -3 19 -12 6z"/>
<path d="M1860 778 c0 -4 4 -8 9 -8 6 0 12 4 15 8 3 5 -1 9 -9 9 -8 0 -15 -4
-15 -9z"/>
<path d="M1906 777 c3 -10 9 -15 12 -12 3 3 0 11 -7 18 -10 9 -11 8 -5 -6z"/>
<path d="M2163 780 c2 -8 14 -16 28 -17 19 -1 20 -1 4 4 -11 3 -24 10 -28 17
-6 7 -7 6 -4 -4z"/>
<path d="M2410 774 c0 -8 6 -11 15 -8 8 4 15 9 15 13 0 4 -7 8 -15 8 -8 0 -15
-6 -15 -13z"/>
<path d="M576 772 c-3 -5 1 -9 9 -9 8 0 15 4 15 9 0 4 -4 8 -9 8 -6 0 -12 -4
-15 -8z"/>
<path d="M15 759 c-19 -7 -18 -8 3 -8 19 -1 26 -10 23 -33 -1 -8 26 -4 36 6 4
4 2 6 -6 4 -7 -2 -15 2 -18 9 -3 7 3 10 15 6 12 -3 19 1 19 11 0 12 -4 13 -14
5 -7 -7 -13 -7 -13 -2 0 12 -19 12 -45 2z"/>
<path d="M230 756 c0 -9 5 -16 10 -16 6 0 10 4 10 9 0 6 -4 13 -10 16 -5 3
-10 -1 -10 -9z"/>
<path d="M2075 760 c-4 -6 3 -10 14 -10 25 0 27 6 6 13 -8 4 -17 2 -20 -3z"/>
<path d="M2128 763 c7 -3 16 -2 19 1 4 3 -2 6 -13 5 -11 0 -14 -3 -6 -6z"/>
<path d="M2645 748 c-11 -12 -15 -18 -8 -14 6 3 14 0 16 -6 4 -10 6 -10 6 0 1
6 6 12 12 12 5 0 8 -4 5 -9 -6 -10 24 -25 32 -16 3 3 0 5 -6 5 -7 0 -12 5 -12
11 0 6 7 9 15 5 8 -3 15 -1 15 4 0 6 7 10 15 10 8 0 15 5 15 10 0 12 2 12 -38
1 -20 -6 -32 -6 -32 0 0 14 -13 10 -35 -13z"/>
<path d="M95 742 c-7 -19 -7 -19 10 -26 8 -3 14 -1 12 3 -1 5 3 9 8 9 6 0 9
-5 7 -11 -2 -6 4 -5 12 3 15 11 20 7 17 -12 -2 -12 27 -9 34 3 4 6 14 8 22 5
9 -4 13 -1 11 6 -3 7 -18 14 -34 16 -16 2 -36 6 -44 9 -29 11 -49 10 -55 -5z
m105 -16 c0 -3 -4 -8 -10 -11 -5 -3 -10 -1 -10 4 0 6 5 11 10 11 6 0 10 -2 10
-4z"/>
<path d="M198 753 c7 -3 16 -2 19 1 4 3 -2 6 -13 5 -11 0 -14 -3 -6 -6z"/>
<path d="M604 750 c-29 -12 -40 -30 -23 -41 11 -7 11 -9 -3 -9 -9 0 -18 3 -20
8 -1 4 -21 4 -43 1 -36 -6 -37 -6 -9 -8 17 0 46 -4 63 -7 25 -5 31 -3 31 11 0
14 3 15 14 5 11 -8 20 -9 33 -1 17 10 17 10 -1 11 -11 0 -17 3 -13 6 10 10 47
-7 47 -22 0 -8 5 -14 10 -14 6 0 10 -8 11 -17 0 -14 2 -15 6 -3 3 8 11 19 17
23 7 6 4 7 -6 3 -10 -3 -20 -1 -23 4 -4 6 19 9 57 9 35 -1 52 -4 40 -6 -18 -3
-23 -10 -19 -24 4 -14 0 -19 -15 -19 -12 0 -16 4 -12 11 4 7 1 10 -6 7 -7 -2
-17 -14 -21 -27 -6 -14 -5 -20 1 -16 6 3 10 2 10 -3 0 -5 7 -9 15 -9 11 0 12
4 4 14 -9 10 -7 13 11 13 14 0 24 8 27 21 6 20 7 20 18 5 11 -15 13 -15 19 -1
9 24 -11 55 -31 48 -10 -4 -14 -2 -10 4 4 6 -3 13 -16 17 -31 8 -39 7 -33 -3
3 -5 -1 -12 -10 -15 -23 -9 -34 -7 -34 4 0 6 8 10 17 10 29 0 9 7 -37 13 -25
3 -55 2 -66 -3z m53 -6 c-3 -3 -12 -4 -19 -1 -8 3 -5 6 6 6 11 1 17 -2 13 -5z
m-40 -10 c-3 -3 -12 -4 -19 -1 -8 3 -5 6 6 6 11 1 17 -2 13 -5z"/>
<path d="M815 751 c-17 -7 -16 -9 9 -15 16 -4 31 -5 34 -1 3 3 -2 5 -12 5 -9
0 -14 5 -11 10 7 11 7 11 -20 1z"/>
<path d="M878 738 c5 -5 16 -8 23 -6 8 3 3 7 -10 11 -17 4 -21 3 -13 -5z"/>
<path d="M1355 730 c-3 -5 1 -10 9 -10 9 0 16 5 16 10 0 6 -4 10 -9 10 -6 0
-13 -4 -16 -10z"/>
<path d="M2320 730 c0 -5 5 -10 11 -10 5 0 7 5 4 10 -3 6 -8 10 -11 10 -2 0
-4 -4 -4 -10z"/>
<path d="M240 720 c0 -5 5 -10 10 -10 6 0 10 5 10 10 0 6 -4 10 -10 10 -5 0
-10 -4 -10 -10z"/>
<path d="M1777 712 c1 -8 3 -16 3 -18 0 -3 5 -2 10 1 6 3 10 11 10 16 0 6 -4
8 -9 5 -5 -4 -11 -3 -14 1 -2 5 -2 2 0 -5z"/>
<path d="M1111 708 c-1 -20 14 -24 25 -6 4 6 3 8 -4 4 -5 -3 -13 0 -15 6 -3 8
-6 6 -6 -4z"/>
<path d="M2728 713 c7 -3 16 -2 19 1 4 3 -2 6 -13 5 -11 0 -14 -3 -6 -6z"/>
<path d="M2125 700 c-3 -5 1 -10 10 -10 9 0 13 5 10 10 -3 6 -8 10 -10 10 -2
0 -7 -4 -10 -10z"/>
<path d="M2280 701 c-47 -6 -65 -34 -25 -38 16 -1 16 -1 3 3 -36 11 -17 26 27
22 25 -2 45 0 45 4 0 4 12 9 28 11 26 4 26 4 -3 4 -16 0 -50 -3 -75 -6z"/>
<path d="M640 689 c0 -5 5 -7 10 -4 6 3 10 8 10 11 0 2 -4 4 -10 4 -5 0 -10
-5 -10 -11z"/>
<path d="M2728 693 c7 -3 16 -2 19 1 4 3 -2 6 -13 5 -11 0 -14 -3 -6 -6z"/>
<path d="M304 660 c-38 -64 -63 -118 -57 -124 4 -3 16 -6 27 -6 12 0 28 -5 36
-11 11 -7 6 -9 -22 -7 -20 1 -40 -1 -44 -5 -4 -4 14 -7 40 -7 32 0 46 4 45 13
-1 6 -1 19 0 27 1 11 3 12 9 3 6 -10 26 -11 83 -4 41 4 100 7 132 6 50 -2 57
0 57 16 0 11 -4 27 -9 37 -6 9 -12 29 -16 45 -7 34 -21 35 -29 1 -4 -15 -14
-33 -22 -41 -8 -9 -12 -23 -8 -35 5 -17 4 -18 -15 -6 -14 8 -19 19 -15 32 4
12 2 16 -5 12 -6 -4 -11 -14 -11 -21 0 -15 -21 -23 -74 -27 -27 -3 -31 1 -43
41 -7 25 -17 47 -22 50 -5 3 -10 15 -12 26 -4 17 -7 15 -25 -15z m44 -62 c20
-52 20 -80 1 -45 -8 14 -13 14 -23 4 -8 -6 -12 -16 -9 -21 5 -7 -36 1 -46 10
-6 6 41 104 50 104 4 0 16 -24 27 -52z m236 -29 c-7 -12 -31 -12 -39 0 -3 5 0
21 6 35 l12 26 13 -26 c8 -14 11 -30 8 -35z"/>
<path d="M2443 660 c-6 -16 -8 -30 -3 -30 5 0 10 6 13 13 3 8 11 3 25 -13 25
-30 27 -22 8 25 -18 43 -28 44 -43 5z"/>
<path d="M203 667 c50 -11 61 -23 25 -29 -21 -3 -21 -4 4 -9 15 -4 25 -3 23 2
-3 4 -1 10 5 14 20 12 -13 30 -59 31 l-46 1 48 -10z"/>
<path d="M474 665 c8 -8 16 -15 19 -15 2 0 4 7 4 15 0 8 -9 15 -19 15 -17 0
-18 -2 -4 -15z"/>
<path d="M660 660 c0 -5 5 -10 10 -10 6 0 10 5 10 10 0 6 -4 10 -10 10 -5 0
-10 -4 -10 -10z"/>
<path d="M2305 650 c-19 -8 -19 -9 3 -9 12 -1 22 4 22 9 0 6 -1 10 -2 9 -2 0
-12 -4 -23 -9z"/>
<path d="M2396 647 c3 -10 9 -15 12 -12 3 3 0 11 -7 18 -10 9 -11 8 -5 -6z"/>
<path d="M2550 651 c0 -6 4 -13 10 -16 6 -3 7 1 4 9 -7 18 -14 21 -14 7z"/>
<path d="M781 623 c7 -12 15 -20 18 -17 3 2 -3 12 -13 22 -17 16 -18 16 -5 -5z"/>
<path d="M1988 633 c7 -3 16 -2 19 1 4 3 -2 6 -13 5 -11 0 -14 -3 -6 -6z"/>
<path d="M2520 630 c8 -5 20 -10 25 -10 6 0 3 5 -5 10 -8 5 -19 10 -25 10 -5
0 -3 -5 5 -10z"/>
<path d="M2720 630 c0 -5 7 -7 15 -4 8 4 15 8 15 10 0 2 -7 4 -15 4 -8 0 -15
-4 -15 -10z"/>
<path d="M175 620 c4 -6 11 -8 16 -5 14 9 11 15 -7 15 -8 0 -12 -5 -9 -10z"/>
<path d="M380 619 c0 -5 5 -7 10 -4 6 3 10 8 10 11 0 2 -4 4 -10 4 -5 0 -10
-5 -10 -11z"/>
<path d="M2315 619 c-4 -6 -5 -12 -2 -15 2 -3 7 2 10 11 7 17 1 20 -8 4z"/>
<path d="M644 606 c-25 -19 -11 -32 46 -41 35 -5 42 -4 34 5 -7 7 -28 12 -47
13 -35 1 -35 1 -15 19 25 21 10 24 -18 4z"/>
<path d="M2081 604 c0 -11 3 -14 6 -6 3 7 2 16 -1 19 -3 4 -6 -2 -5 -13z"/>
<path d="M1213 594 c-16 -16 -17 -34 -3 -34 6 0 10 -5 10 -11 0 -5 -4 -8 -9
-5 -13 8 -8 -13 12 -53 19 -38 22 -86 7 -96 -5 -3 -10 -14 -10 -23 0 -9 8 -2
17 17 l17 34 15 -45 c10 -27 21 -43 29 -41 6 3 12 0 12 -5 0 -6 -5 -12 -12
-14 -9 -3 -9 -12 0 -37 7 -18 9 -45 5 -59 -4 -16 -2 -23 5 -19 6 5 12 -22 17
-74 10 -108 24 -156 19 -65 -2 39 -6 83 -10 100 -6 27 -5 29 10 17 14 -12 16
-11 16 8 0 35 -1 36 -21 33 -13 -1 -19 3 -16 10 2 7 12 12 21 12 9 -1 16 -1
16 0 0 7 -32 165 -36 179 -4 14 -14 17 -37 15 -17 -2 -32 2 -34 9 -6 18 175
23 182 4 4 -11 -3 -13 -35 -8 -22 3 -40 1 -40 -4 0 -5 8 -9 18 -10 11 -1 9 -4
-8 -9 l-25 -8 28 -1 c15 -1 27 4 27 10 0 5 5 7 11 3 8 -4 9 -25 5 -62 -10 -84
-17 -104 -32 -98 -8 3 -14 -1 -14 -8 0 -10 9 -13 30 -10 32 6 39 -8 19 -36 -9
-13 -10 -13 -6 1 4 12 -1 16 -18 17 -21 0 -23 -5 -21 -43 0 -24 -2 -41 -6 -39
-4 3 -7 -29 -5 -70 2 -59 5 -74 17 -73 11 1 16 16 18 59 2 49 0 58 -15 59 -15
0 -15 2 -3 7 17 8 26 42 11 42 -5 0 -8 7 -7 15 3 21 16 31 16 12 0 -9 4 -17 9
-17 6 0 9 -20 8 -45 -1 -25 1 -45 6 -45 4 0 7 20 7 44 0 27 6 51 15 60 10 10
13 24 9 40 -3 15 3 55 16 97 17 57 19 74 9 80 -8 4 -10 11 -7 15 4 3 15 -2 25
-12 17 -17 18 -16 23 28 3 25 10 52 16 59 18 22 26 51 12 43 -8 -5 -9 -2 -5 9
3 10 2 17 -3 17 -6 0 -10 -4 -10 -9 0 -5 -3 -18 -6 -28 -5 -15 -4 -16 6 -3 10
13 11 13 7 0 -2 -8 -9 -16 -15 -16 -25 -3 -27 -5 -12 -14 11 -7 11 -10 2 -10
-7 0 -11 -4 -8 -9 4 -5 -5 -8 -19 -6 -31 3 -33 -10 -2 -20 l22 -7 -25 -7 c-14
-4 -28 -3 -32 3 -8 12 22 67 34 60 4 -3 8 -1 8 5 0 5 -3 11 -7 14 -5 2 -3 2 4
1 27 -7 21 16 -9 37 -18 13 -34 27 -36 31 -2 4 -11 8 -20 8 -15 0 -15 -2 -2
-10 10 -6 11 -10 3 -10 -7 0 -13 -5 -13 -11 0 -5 5 -7 10 -4 14 9 51 -4 44
-16 -3 -5 -9 -7 -14 -4 -4 3 -10 -2 -13 -10 -4 -10 -1 -12 10 -8 12 5 14 1 8
-18 -10 -33 -30 -52 -22 -21 3 14 1 22 -8 22 -7 0 -20 3 -29 6 -12 5 -16 0
-16 -17 0 -19 2 -21 10 -9 9 13 10 13 10 0 0 -13 1 -13 10 0 8 13 10 13 10 -2
0 -15 -9 -17 -55 -16 -31 1 -55 6 -55 12 0 6 -4 6 -8 -2 -11 -16 -61 -12 -55
5 3 7 9 13 15 13 5 0 6 10 3 21 -5 15 -4 19 4 15 6 -4 11 -1 11 8 0 10 -6 13
-15 10 -10 -4 -15 0 -15 14 0 28 -22 44 -37 26z m21 -12 c3 -5 -1 -9 -9 -9 -8
0 -12 4 -9 9 3 4 7 8 9 8 2 0 6 -4 9 -8z m19 -72 c-3 -3 -8 1 -10 8 -3 6 -9
10 -14 6 -11 -6 -11 -2 -2 21 5 15 8 14 19 -6 7 -13 10 -26 7 -29z m62 -103
c0 -7 -7 -19 -15 -27 -13 -14 -16 -14 -22 0 -11 26 -9 38 10 42 20 5 27 1 27
-15z m154 -7 c9 -13 11 -21 4 -17 -7 5 -13 -3 -17 -23 -3 -16 -9 -43 -12 -60
-5 -27 -34 -44 -34 -20 0 6 4 10 8 10 5 0 13 27 18 59 8 49 7 61 -6 70 -13 10
-12 11 4 9 10 -2 26 -14 35 -28z m-152 -42 c-3 -8 -6 -5 -6 6 -1 11 2 17 5 13
3 -3 4 -12 1 -19z m7 -52 c-6 -16 -24 -23 -24 -8 0 10 22 33 27 28 2 -2 1 -11
-3 -20z m16 -21 c0 -8 -4 -15 -10 -15 -5 0 -7 7 -4 15 4 8 8 15 10 15 2 0 4
-7 4 -15z m47 -207 c-3 -8 -6 -5 -6 6 -1 11 2 17 5 13 3 -3 4 -12 1 -19z"/>
<path d="M1285 400 c3 -5 8 -10 11 -10 2 0 4 5 4 10 0 6 -5 10 -11 10 -5 0 -7
-4 -4 -10z"/>
<path d="M2698 603 c7 -3 16 -2 19 1 4 3 -2 6 -13 5 -11 0 -14 -3 -6 -6z"/>
<path d="M1128 593 c6 -2 18 -2 25 0 6 3 1 5 -13 5 -14 0 -19 -2 -12 -5z"/>
<path d="M1343 585 c0 -8 4 -15 9 -15 4 0 8 7 8 15 0 8 -4 15 -8 15 -5 0 -9
-7 -9 -15z"/>
<path d="M1368 577 c-3 -19 -2 -25 4 -19 6 6 8 18 6 28 -3 14 -5 12 -10 -9z"/>
<path d="M2280 590 c0 -5 5 -10 11 -10 5 0 7 5 4 10 -3 6 -8 10 -11 10 -2 0
-4 -4 -4 -10z"/>
<path d="M2506 578 c4 -18 2 -28 -5 -28 -6 0 -11 5 -11 12 0 6 -6 4 -13 -7
-10 -13 -21 -16 -40 -11 -28 7 -48 -11 -27 -24 11 -7 129 -2 138 6 2 1 -8 20
-23 41 -23 34 -25 35 -19 11z m14 -44 c0 -2 -12 -4 -26 -4 -14 0 -23 4 -20 9
6 8 46 4 46 -5z"/>
<path d="M200 580 c0 -5 5 -10 10 -10 6 0 10 5 10 10 0 6 -4 10 -10 10 -5 0
-10 -4 -10 -10z"/>
<path d="M1004 575 c-4 -8 -3 -22 0 -31 4 -11 -1 -18 -14 -21 -11 -3 -18 -9
-15 -13 7 -11 108 -1 120 12 7 7 3 8 -13 3 -13 -4 -29 -2 -37 5 -12 10 -15 9
-16 -6 -1 -11 -4 -6 -8 11 -4 17 -3 36 2 43 6 8 5 12 -2 12 -6 0 -14 -7 -17
-15z"/>
<path d="M1165 580 c-3 -5 -1 -10 4 -10 6 0 11 -5 11 -11 0 -5 -5 -7 -12 -3
-7 4 -8 3 -4 -4 12 -20 26 -13 26 13 0 25 -14 33 -25 15z"/>
<path d="M1114 571 c7 -11 -22 -23 -35 -15 -5 3 -9 3 -9 -1 0 -3 11 -10 24
-15 18 -7 23 -15 20 -37 -2 -15 -1 -20 2 -10 6 17 11 19 52 20 12 0 22 4 22 8
0 5 -15 9 -34 9 -40 0 -58 19 -26 27 16 4 18 8 8 14 -17 11 -31 11 -24 0z"/>
<path d="M1385 561 c-8 -27 -4 -33 14 -22 10 6 11 14 3 26 -9 17 -10 16 -17
-4z"/>
<path d="M836 563 c-15 -4 -16 -7 -5 -14 11 -7 11 -9 -3 -9 -10 0 -18 -4 -18
-10 0 -5 8 -10 18 -10 13 0 14 -2 4 -9 -9 -5 -11 -17 -6 -36 l7 -29 9 25 c6
13 12 35 14 49 3 13 10 30 16 37 11 14 1 15 -36 6z"/>
<path d="M1855 561 c-29 -7 -28 -7 13 -12 23 -2 42 -1 42 3 0 4 7 5 15 2 8 -4
15 -2 15 3 0 11 -45 13 -85 4z"/>
<path d="M1967 554 c2 -7 11 -10 19 -7 19 7 18 10 -5 16 -13 3 -18 1 -14 -9z"/>
<path d="M10 550 c0 -5 5 -10 11 -10 5 0 7 5 4 10 -3 6 -8 10 -11 10 -2 0 -4
-4 -4 -10z"/>
<path d="M180 550 c8 -5 22 -10 30 -10 13 0 13 1 0 10 -8 5 -22 10 -30 10 -13
0 -13 -1 0 -10z"/>
<path d="M1654 552 c-6 -4 -13 -22 -16 -39 -3 -25 -2 -30 8 -22 6 5 9 19 6 31
-3 14 -1 19 6 14 7 -4 12 -1 12 8 0 18 -1 18 -16 8z"/>
<path d="M2673 553 c9 -2 25 -2 35 0 9 3 1 5 -18 5 -19 0 -27 -2 -17 -5z"/>
<path d="M2063 543 c15 -2 27 -9 27 -14 0 -6 -4 -8 -9 -5 -5 4 -20 2 -33 -3
-16 -6 -27 -5 -35 4 -7 8 -32 13 -60 12 -38 -2 -48 -6 -51 -21 -2 -11 0 -16 6
-12 6 3 14 -3 17 -15 6 -19 8 -19 19 -3 7 9 18 14 24 10 7 -4 12 -1 12 8 0 32
27 15 40 -25 18 -53 27 -57 44 -15 14 34 16 35 48 25 36 -10 131 -10 149 2 8
5 8 12 0 25 -6 11 -11 16 -11 13 0 -4 -16 -3 -35 1 -23 5 -35 4 -38 -4 -3 -8
-8 -8 -19 1 -8 7 -39 14 -69 16 -30 3 -42 3 -26 0z m91 -22 c3 -5 24 -7 46 -4
35 5 40 4 34 -12 -6 -14 -15 -16 -52 -11 -25 3 -53 6 -63 6 -11 0 -19 7 -19
15 0 16 45 21 54 6z m-191 -8 c-7 -2 -19 -2 -25 0 -7 3 -2 5 12 5 14 0 19 -2
13 -5z m103 -10 c-10 -11 -37 -12 -30 -2 3 5 12 9 21 9 9 0 13 -3 9 -7z"/>
<path d="M2118 513 c7 -3 16 -2 19 1 4 3 -2 6 -13 5 -11 0 -14 -3 -6 -6z"/>
<path d="M2568 543 c7 -3 16 -2 19 1 4 3 -2 6 -13 5 -11 0 -14 -3 -6 -6z"/>
<path d="M2634 542 c5 -8 0 -11 -11 -10 -63 5 -55 -7 12 -17 102 -17 130 -18
95 -3 -14 5 -40 10 -58 9 -18 0 -30 4 -27 9 3 5 0 12 -6 16 -8 4 -9 3 -5 -4z"/>
<path d="M75 531 c23 -10 12 -17 -40 -24 -17 -3 8 -3 55 0 47 2 101 8 120 13
30 7 26 8 -30 7 -36 -1 -78 2 -95 6 -21 5 -24 5 -10 -2z"/>
<path d="M2728 533 c7 -3 16 -2 19 1 4 3 -2 6 -13 5 -11 0 -14 -3 -6 -6z"/>
<path d="M7 523 c7 -2 19 -2 26 0 6 3 1 5 -13 5 -14 0 -19 -2 -13 -5z"/>
<path d="M558 523 c7 -3 16 -2 19 1 4 3 -2 6 -13 5 -11 0 -14 -3 -6 -6z"/>
<path d="M790 510 c0 -11 4 -20 9 -20 5 0 7 9 4 20 -3 11 -7 20 -9 20 -2 0 -4
-9 -4 -20z"/>
<path d="M2274 518 c1 -7 11 -15 21 -16 11 -3 15 0 10 7 -3 6 -10 9 -15 6 -4
-3 -11 0 -13 5 -3 6 -4 5 -3 -2z"/>
<path d="M2319 508 c-1 -13 -1 -26 0 -30 0 -5 -4 -8 -10 -8 -5 0 -7 -4 -4 -10
3 -5 2 -10 -3 -10 -16 0 -22 13 -11 26 7 9 6 12 -8 10 -10 -2 -17 -10 -15 -19
2 -13 -4 -15 -35 -11 -87 11 -133 11 -133 -2 0 -14 22 -24 55 -24 15 0 26 -7
30 -20 4 -11 11 -17 17 -14 7 4 8 2 4 -4 -4 -7 -4 -17 0 -23 4 -7 12 1 20 21
18 41 18 39 -9 35 -15 -3 -27 2 -36 18 -13 20 -13 21 2 9 8 -7 35 -13 59 -14
60 -1 81 -7 70 -21 -6 -8 -4 -25 5 -45 11 -28 16 -32 28 -22 8 7 15 23 15 36
0 20 5 24 30 24 23 0 30 4 30 20 0 11 -4 20 -8 20 -19 0 -7 30 12 31 12 0 16
3 10 5 -6 2 -28 0 -50 -5 -35 -8 -36 -9 -9 -10 27 -1 28 -2 13 -17 -15 -16
-18 -16 -34 0 -13 14 -19 15 -25 5 -4 -7 -5 6 -2 29 3 23 3 42 -1 42 -3 0 -7
-10 -7 -22z m31 -113 c0 -19 -4 -35 -9 -35 -11 0 -24 48 -16 60 13 21 25 8 25
-25z"/>
<path d="M348 513 c6 -2 18 -2 25 0 6 3 1 5 -13 5 -14 0 -19 -2 -12 -5z"/>
<path d="M1277 501 c-4 -17 -2 -18 13 -8 10 6 16 15 14 19 -9 14 -22 9 -27
-11z"/>
<path d="M1338 513 c-10 -2 -18 -12 -17 -21 0 -9 3 -12 5 -6 3 7 14 10 24 7
14 -4 20 0 20 11 0 16 -2 17 -32 9z"/>
<path d="M1587 491 c-3 -13 -3 -20 0 -17 3 3 15 1 27 -5 18 -9 19 -8 5 3 -9 7
-18 20 -21 28 -3 10 -6 7 -11 -9z"/>
<path d="M2355 500 c-3 -5 1 -10 9 -10 8 0 18 5 21 10 3 6 -1 10 -9 10 -8 0
-18 -4 -21 -10z"/>
<path d="M2515 501 c28 -4 79 -11 115 -14 57 -5 60 -5 20 3 -25 6 -76 12 -115
14 -60 4 -63 4 -20 -3z"/>
<path d="M350 490 c8 -5 20 -10 25 -10 6 0 3 5 -5 10 -8 5 -19 10 -25 10 -5 0
-3 -5 5 -10z"/>
<path d="M455 490 c-3 -5 1 -10 9 -10 9 0 16 5 16 10 0 6 -4 10 -9 10 -6 0
-13 -4 -16 -10z"/>
<path d="M1480 490 c-9 -6 -10 -10 -3 -10 6 0 15 5 18 10 8 12 4 12 -15 0z"/>
<path d="M254 482 c3 -5 -13 -8 -36 -8 -24 1 -43 -4 -45 -11 -3 -9 5 -13 24
-12 l28 1 -25 9 c-18 6 -12 7 23 3 26 -3 47 -1 47 4 0 5 15 7 33 6 29 -3 30
-3 7 5 -33 12 -62 13 -56 3z"/>
<path d="M1155 480 c-18 -8 -17 -9 8 -9 15 -1 27 4 27 9 0 12 -8 12 -35 0z"/>
<path d="M1750 475 c6 -8 18 -11 26 -8 18 7 13 12 -16 18 -18 3 -20 2 -10 -10z"/>
<path d="M1873 475 c0 -8 4 -12 9 -9 4 3 8 9 8 15 0 5 -4 9 -8 9 -5 0 -9 -7
-9 -15z"/>
<path d="M58 473 c7 -3 16 -2 19 1 4 3 -2 6 -13 5 -11 0 -14 -3 -6 -6z"/>
<path d="M365 470 c-27 -7 -27 -8 -5 -8 14 0 36 4 50 8 20 6 21 8 5 8 -11 0
-33 -4 -50 -8z"/>
<path d="M1068 473 c6 -2 18 -2 25 0 6 3 1 5 -13 5 -14 0 -19 -2 -12 -5z"/>
<path d="M2435 471 c-18 -7 -17 -8 6 -13 14 -2 31 1 37 9 10 10 9 13 -5 12
-10 0 -27 -4 -38 -8z"/>
<path d="M2522 466 l-42 -12 71 -13 c39 -7 73 -10 76 -7 4 3 -6 6 -22 6 -38 0
-29 6 20 14 26 4 35 3 26 -3 -19 -12 -5 -31 22 -30 21 1 20 2 -3 10 -18 6 -9
7 30 4 30 -2 46 -1 35 2 -20 6 -20 6 0 14 14 6 8 7 -18 3 -26 -3 -37 -2 -32 5
7 13 -22 14 -82 2 -24 -5 -43 -5 -43 0 0 4 12 10 28 12 25 4 25 4 2 4 -14 0
-44 -5 -68 -11z"/>
<path d="M130 459 c11 -8 7 -9 -18 -4 -42 9 -120 -4 -101 -16 12 -7 12 -9 0
-9 -8 0 -12 -2 -9 -5 11 -11 158 19 158 32 0 7 -10 13 -22 13 -19 0 -20 -2 -8
-11z"/>
<path d="M288 453 c6 -2 18 -2 25 0 6 3 1 5 -13 5 -14 0 -19 -2 -12 -5z"/>
<path d="M786 443 c-6 -14 -5 -15 5 -6 7 7 10 15 7 18 -3 3 -9 -2 -12 -12z"/>
<path d="M200 440 l-35 -7 35 -1 c19 0 44 3 55 8 20 9 20 9 0 8 -11 0 -36 -4
-55 -8z"/>
<path d="M896 437 c3 -10 9 -15 12 -12 3 3 0 11 -7 18 -10 9 -11 8 -5 -6z"/>
<path d="M1330 440 c0 -5 5 -10 10 -10 6 0 10 5 10 10 0 6 -4 10 -10 10 -5 0
-10 -4 -10 -10z"/>
<path d="M1580 440 c-23 -7 -23 -8 -3 -9 12 -1 25 4 28 9 3 6 5 10 3 9 -2 -1
-14 -5 -28 -9z"/>
<path d="M1892 436 c7 -8 17 -12 22 -9 4 3 2 9 -5 14 -22 13 -31 11 -17 -5z"/>
<path d="M260 428 c-19 -6 -47 -11 -62 -12 -14 0 -24 -4 -21 -8 2 -5 -1 -8 -7
-8 -6 0 -8 -5 -4 -11 4 -7 9 -7 13 -2 9 14 64 27 56 13 -7 -11 42 7 60 22 15
13 28 9 21 -7 -4 -12 -2 -13 14 -2 11 6 20 15 20 19 0 11 -47 8 -90 -4z"/>
<path d="M840 431 c0 -6 5 -13 10 -16 6 -3 10 1 10 9 0 9 -4 16 -10 16 -5 0
-10 -4 -10 -9z"/>
<path d="M2069 435 c-1 -3 -1 -14 -1 -25 0 -33 2 -40 11 -40 5 0 9 16 8 35 -1
19 -5 35 -9 35 -4 0 -8 -2 -9 -5z"/>
<path d="M2426 415 c-4 -16 1 -40 15 -68 11 -23 24 -53 29 -67 7 -23 8 -24 15
-5 4 11 13 34 21 52 8 17 14 36 14 42 0 14 6 14 33 0 21 -12 39 -15 90 -18 16
0 26 -5 22 -11 -4 -6 12 -10 39 -10 53 0 61 15 14 25 -63 13 -72 16 -57 25 19
12 -19 26 -122 45 -109 19 -106 19 -113 -10z m33 -7 c1 10 11 12 39 8 20 -3
61 -8 90 -12 37 -4 52 -10 52 -21 0 -11 -6 -14 -22 -9 -13 3 -30 6 -38 6 -13
0 -13 1 0 10 13 8 12 10 -2 10 -10 0 -18 -4 -18 -8 0 -11 -42 -7 -67 6 -19 11
-22 10 -17 -3 3 -8 10 -12 15 -9 5 3 9 -2 9 -11 0 -9 -4 -13 -10 -10 -5 3 -9
-2 -7 -12 1 -10 -2 -19 -8 -20 -5 -2 -11 3 -11 10 -4 28 -17 56 -24 52 -5 -3
-6 5 -2 17 5 21 6 21 13 2 4 -10 8 -13 8 -6z"/>
<path d="M50 415 c-30 -7 -44 -13 -30 -13 14 0 52 5 85 13 35 8 48 13 30 13
-16 0 -55 -6 -85 -13z"/>
<path d="M811 414 c0 -11 3 -14 6 -6 3 7 2 16 -1 19 -3 4 -6 -2 -5 -13z"/>
<path d="M540 412 c0 -2 5 -13 11 -24 9 -17 13 -18 20 -7 14 23 10 35 -11 35
-11 0 -20 -2 -20 -4z"/>
<path d="M661 404 c0 -11 3 -14 6 -6 3 7 2 16 -1 19 -3 4 -6 -2 -5 -13z"/>
<path d="M681 404 c0 -11 3 -14 6 -6 3 7 2 16 -1 19 -3 4 -6 -2 -5 -13z"/>
<path d="M770 411 c0 -6 4 -13 10 -16 6 -3 7 1 4 9 -7 18 -14 21 -14 7z"/>
<path d="M2035 410 c3 -5 10 -10 16 -10 5 0 9 5 9 10 0 6 -7 10 -16 10 -8 0
-12 -4 -9 -10z"/>
<path d="M2101 404 c0 -11 3 -14 6 -6 3 7 2 16 -1 19 -3 4 -6 -2 -5 -13z"/>
<path d="M2120 410 c0 -5 5 -10 11 -10 5 0 7 5 4 10 -3 6 -8 10 -11 10 -2 0
-4 -4 -4 -10z"/>
<path d="M2713 413 c9 -2 23 -2 30 0 6 3 -1 5 -18 5 -16 0 -22 -2 -12 -5z"/>
<path d="M480 403 c0 -5 5 -15 10 -23 7 -12 9 -10 7 8 -1 19 -17 33 -17 15z"/>
<path d="M915 400 c4 -6 11 -8 16 -5 14 9 11 15 -7 15 -8 0 -12 -5 -9 -10z"/>
<path d="M1530 400 c0 -6 17 -9 39 -8 21 2 37 6 34 11 -7 11 -73 8 -73 -3z"/>
<path d="M1905 400 c3 -5 8 -10 11 -10 2 0 4 5 4 10 0 6 -5 10 -11 10 -5 0 -7
-4 -4 -10z"/>
<path d="M73 385 c0 -11 4 -12 14 -4 7 6 13 13 13 15 0 2 -6 4 -13 4 -8 0 -14
-7 -14 -15z"/>
<path d="M611 384 c0 -11 3 -14 6 -6 3 7 2 16 -1 19 -3 4 -6 -2 -5 -13z"/>
<path d="M1648 393 c7 -3 16 -2 19 1 4 3 -2 6 -13 5 -11 0 -14 -3 -6 -6z"/>
<path d="M125 380 c-18 -8 -17 -9 8 -9 16 -1 26 3 22 9 -3 6 -7 10 -8 9 -1 0
-11 -4 -22 -9z"/>
<path d="M2705 380 c27 -12 43 -12 25 0 -8 5 -22 9 -30 9 -10 0 -8 -3 5 -9z"/>
<path d="M630 368 c0 -5 9 -6 22 -3 17 6 20 4 15 -9 -4 -9 -2 -16 3 -16 6 0
10 4 10 10 0 5 8 7 18 4 13 -4 13 -3 -2 7 -25 16 -66 20 -66 7z"/>
<path d="M2015 360 c-3 -5 -1 -10 4 -10 6 0 11 5 11 10 0 6 -2 10 -4 10 -3 0
-8 -4 -11 -10z"/>
<path d="M2100 362 c0 -7 -10 -13 -22 -13 -19 -1 -20 -2 -4 -6 20 -5 44 12 33
24 -4 3 -7 1 -7 -5z"/>
<path d="M2126 359 c8 -14 -14 -29 -45 -29 -32 0 -24 -6 19 -14 25 -4 31 -3
20 4 -13 8 -12 10 3 10 10 0 17 8 17 20 0 11 -5 20 -11 20 -5 0 -7 -5 -3 -11z"/>
<path d="M2179 368 c-1 -2 -2 -14 -3 -29 -1 -19 3 -25 18 -27 15 -1 17 1 7 7
-8 5 -10 14 -6 21 6 9 4 11 -5 5 -10 -6 -12 -4 -7 8 5 13 1 25 -4 15z"/>
<path d="M2226 353 c-6 -14 -5 -15 5 -6 7 7 10 15 7 18 -3 3 -9 -2 -12 -12z"/>
<path d="M28 353 c7 -3 16 -2 19 1 4 3 -2 6 -13 5 -11 0 -14 -3 -6 -6z"/>
<path d="M506 345 c4 -8 8 -15 10 -15 2 0 4 7 4 15 0 8 -4 15 -10 15 -5 0 -7
-7 -4 -15z"/>
<path d="M540 350 c0 -6 7 -10 15 -10 8 0 15 2 15 4 0 2 -7 6 -15 10 -8 3 -15
1 -15 -4z"/>
<path d="M2403 324 c0 -17 2 -22 7 -13 5 6 6 18 3 26 -8 19 -10 16 -10 -13z"/>
<path d="M2531 334 c0 -11 3 -14 6 -6 3 7 2 16 -1 19 -3 4 -6 -2 -5 -13z"/>
<path d="M199 338 c-1 -5 -2 -11 -3 -15 -1 -5 -5 -13 -9 -20 -4 -6 -2 -13 5
-15 6 -2 12 -17 13 -32 1 -23 -3 -26 -20 -22 -18 5 -19 4 -2 -8 18 -14 23 -36
7 -36 -5 0 -14 9 -20 20 -13 23 -27 26 -27 5 0 -8 4 -12 8 -9 15 9 18 -14 4
-26 -17 -14 -20 -36 -5 -45 6 -3 7 1 4 9 -7 18 16 44 34 38 6 -2 12 -11 13
-20 0 -9 4 -5 9 10 4 15 6 50 4 78 -3 44 -1 53 16 57 12 3 16 11 13 20 -5 13
-8 12 -16 -3 -10 -17 -11 -17 -18 1 -4 11 -8 17 -10 13z"/>
<path d="M480 331 c0 -10 19 -25 25 -20 1 2 -3 10 -11 17 -8 7 -14 8 -14 3z"/>
<path d="M665 326 l-30 -13 27 1 c15 0 30 7 33 14 2 6 3 12 2 12 -1 -1 -15 -7
-32 -14z"/>
<path d="M2035 330 c3 -5 8 -10 11 -10 2 0 4 5 4 10 0 6 -5 10 -11 10 -5 0 -7
-4 -4 -10z"/>
<path d="M2559 335 c0 -5 -1 -18 0 -27 1 -10 -4 -18 -11 -18 -10 0 -9 -3 2
-10 20 -13 33 12 21 42 -6 12 -11 19 -12 13z"/>
<path d="M2600 333 c0 -6 -3 -18 -6 -26 -3 -8 1 -17 10 -20 20 -8 27 15 10 38
-8 10 -14 14 -14 8z"/>
<path d="M380 330 c0 -3 -4 -19 -9 -36 -7 -23 -5 -31 5 -31 9 0 12 8 8 26 -4
20 -3 23 5 11 13 -19 14 0 1 20 -5 8 -10 13 -10 10z"/>
<path d="M2728 313 c7 -3 16 -2 19 1 4 3 -2 6 -13 5 -11 0 -14 -3 -6 -6z"/>
<path d="M1501 301 c-8 -5 -9 -11 -3 -15 5 -3 12 1 16 9 6 17 6 18 -13 6z"/>
<path d="M160 291 c0 -6 4 -13 10 -16 6 -3 7 1 4 9 -7 18 -14 21 -14 7z"/>
<path d="M234 290 c2 -16 20 -14 24 2 3 10 2 10 -6 -1 -7 -9 -11 -10 -15 -2
-4 7 -5 8 -3 1z"/>
<path d="M2698 293 c7 -3 16 -2 19 1 4 3 -2 6 -13 5 -11 0 -14 -3 -6 -6z"/>
<path d="M25 280 c-3 -5 -1 -10 4 -10 6 0 11 5 11 10 0 6 -2 10 -4 10 -3 0 -8
-4 -11 -10z"/>
<path d="M2670 279 c0 -5 9 -9 20 -9 11 0 20 2 20 4 0 2 -9 6 -20 9 -11 3 -20
1 -20 -4z"/>
<path d="M2411 264 c0 -11 3 -14 6 -6 3 7 2 16 -1 19 -3 4 -6 -2 -5 -13z"/>
<path d="M278 252 c-6 -7 -8 -15 -5 -19 4 -3 9 2 13 11 6 15 7 15 20 -1 11
-14 14 -14 12 -3 -2 8 3 14 10 13 6 -2 12 1 12 6 0 13 -50 8 -62 -7z"/>
<path d="M1490 259 c0 -5 5 -7 10 -4 6 3 10 8 10 11 0 2 -4 4 -10 4 -5 0 -10
-5 -10 -11z"/>
<path d="M2535 260 c-3 -5 2 -10 12 -10 15 0 16 -2 3 -10 -9 -6 -10 -10 -3
-10 19 0 24 17 9 29 -10 8 -16 9 -21 1z"/>
<path d="M2592 254 c-10 -12 -10 -14 3 -14 9 0 15 -9 15 -22 0 -13 3 -33 6
-46 6 -20 4 -22 -20 -18 -22 4 -25 2 -17 -12 4 -9 11 -24 15 -32 3 -8 4 -3 1
12 -4 22 -2 25 15 21 14 -4 20 0 20 11 0 24 43 16 52 -9 6 -19 6 -19 7 1 1 12
-6 27 -14 34 -11 9 -12 16 -5 25 8 10 4 15 -20 20 -31 7 -40 20 -18 27 9 3 9
6 0 12 -7 4 -12 2 -12 -6 0 -9 -2 -10 -8 -2 -5 9 -11 8 -20 -2z m64 -57 c1 -9
-4 -17 -12 -17 -8 0 -14 9 -14 21 0 24 22 21 26 -4z"/>
<path d="M30 249 c0 -5 5 -7 10 -4 6 3 10 8 10 11 0 2 -4 4 -10 4 -5 0 -10 -5
-10 -11z"/>
<path d="M94 249 c-3 -6 0 -15 7 -20 8 -5 10 -9 4 -9 -5 0 -11 -24 -12 -54 -3
-53 -2 -53 25 -49 17 3 23 1 15 -4 -10 -7 -10 -13 0 -27 12 -16 13 -15 12 6
-1 13 -6 32 -12 43 -6 11 -10 44 -8 73 2 38 0 52 -10 52 -8 0 -17 -5 -21 -11z"/>
<path d="M2702 235 c1 -14 5 -25 8 -25 3 0 5 -11 5 -25 0 -14 -3 -25 -6 -25
-3 0 -4 -13 -1 -28 2 -19 10 -28 23 -29 16 -2 18 3 13 24 -4 14 -7 39 -8 57 0
17 -5 34 -11 38 -6 5 -5 8 3 8 6 0 12 7 12 15 0 8 -9 15 -20 15 -15 0 -19 -6
-18 -25z"/>
<path d="M13 208 c0 -43 2 -48 24 -48 17 0 23 -6 23 -22 0 -18 2 -20 10 -8 6
10 4 22 -5 36 -12 19 -12 24 0 34 8 7 14 20 14 29 -1 13 -2 13 -6 -1 -2 -10
-11 -18 -18 -18 -8 0 -12 -8 -10 -20 8 -39 -12 -19 -22 23 l-11 42 1 -47z"/>
<path d="M2480 241 c0 -6 4 -13 10 -16 6 -3 7 1 4 9 -7 18 -14 21 -14 7z"/>
<path d="M1485 229 c-11 -16 -1 -19 13 -3 7 8 8 14 3 14 -5 0 -13 -5 -16 -11z"/>
<path d="M2575 222 c-13 -9 -17 -32 -6 -32 5 0 11 9 14 20 6 22 6 22 -8 12z"/>
<path d="M229 188 c-5 -18 -6 -38 -1 -34 7 8 12 36 6 36 -2 0 -4 -1 -5 -2z"/>
<path d="M1485 160 c-18 -8 -17 -9 8 -9 16 -1 26 3 22 9 -3 6 -7 10 -8 9 -1 0
-11 -4 -22 -9z"/>
<path d="M1285 151 c-6 -11 13 -26 22 -17 4 3 1 6 -6 6 -7 0 -9 5 -6 10 3 6 4
10 1 10 -3 0 -7 -4 -11 -9z"/>
<path d="M11 134 c0 -11 3 -14 6 -6 3 7 2 16 -1 19 -3 4 -6 -2 -5 -13z"/>
<path d="M41 134 c0 -11 3 -14 6 -6 3 7 2 16 -1 19 -3 4 -6 -2 -5 -13z"/>
<path d="M1728 143 c6 -2 18 -2 25 0 6 3 1 5 -13 5 -14 0 -19 -2 -12 -5z"/>
<path d="M253 133 c9 -2 23 -2 30 0 6 3 -1 5 -18 5 -16 0 -22 -2 -12 -5z"/>
<path d="M2650 124 c0 -8 5 -12 11 -8 7 4 9 0 5 -14 -4 -11 -3 -23 2 -25 6 -5
8 25 3 56 -2 14 -21 7 -21 -9z"/>
<path d="M2631 114 c0 -11 3 -14 6 -6 3 7 2 16 -1 19 -3 4 -6 -2 -5 -13z"/>
<path d="M298 103 c7 -3 16 -2 19 1 4 3 -2 6 -13 5 -11 0 -14 -3 -6 -6z"/>
<path d="M2691 84 c0 -11 3 -14 6 -6 3 7 2 16 -1 19 -3 4 -6 -2 -5 -13z"/>
<path d="M96 78 c3 -5 10 -6 15 -3 13 9 11 12 -6 12 -8 0 -12 -4 -9 -9z"/>
<path d="M1280 75 c0 -9 6 -12 15 -9 8 4 15 7 15 9 0 2 -7 5 -15 9 -9 3 -15 0
-15 -9z"/>
<path d="M1598 83 c7 -3 16 -2 19 1 4 3 -2 6 -13 5 -11 0 -14 -3 -6 -6z"/>
<path d="M1665 80 c19 -8 103 -14 94 -6 -2 2 -29 6 -59 9 -34 3 -47 2 -35 -3z"/>
<path d="M298 73 c7 -3 16 -2 19 1 4 3 -2 6 -13 5 -11 0 -14 -3 -6 -6z"/>
<path d="M1410 65 c0 -8 2 -15 4 -15 2 0 6 7 10 15 3 8 1 15 -4 15 -6 0 -10
-7 -10 -15z"/>
<path d="M1968 73 c6 -2 18 -2 25 0 6 3 1 5 -13 5 -14 0 -19 -2 -12 -5z"/>
<path d="M1410 19 c0 -5 5 -7 10 -4 6 3 10 8 10 11 0 2 -4 4 -10 4 -5 0 -10
-5 -10 -11z"/>
</g>
</svg>
