<?xml version="1.0" standalone="no"?>
<!DOCTYPE svg PUBLIC "-//W3C//DTD SVG 20010904//EN"
 "http://www.w3.org/TR/2001/REC-SVG-20010904/DTD/svg10.dtd">
<svg version="1.0" xmlns="http://www.w3.org/2000/svg"
 width="300.000000pt" height="118.000000pt" viewBox="0 0 300.000000 118.000000"
 preserveAspectRatio="xMidYMid meet">
<metadata>
Created by potrace 1.10, written by Peter Selinger 2001-2011
</metadata>
<g transform="translate(0.000000,118.000000) scale(0.100000,-0.100000)"
fill="#000000" stroke="none">
<path d="M48 1173 c7 -3 16 -2 19 1 4 3 -2 6 -13 5 -11 0 -14 -3 -6 -6z"/>
<path d="M680 1146 c-7 -7 -310 -19 -508 -20 -94 -1 -172 -4 -172 -8 0 -12
148 -20 271 -14 391 19 543 21 579 8 15 -6 35 -6 52 0 17 6 40 6 65 -1 21 -6
53 -11 71 -11 18 0 31 -4 28 -8 -3 -5 18 -5 47 0 87 14 234 5 205 -13 -10 -7
-9 -9 5 -9 9 0 17 6 17 13 0 8 3 8 9 -2 7 -10 21 -12 59 -7 39 5 51 3 56 -9 3
-8 11 -15 18 -15 9 0 9 3 -2 11 -11 8 -6 9 21 5 19 -4 63 -9 98 -12 35 -3 73
-9 84 -13 12 -4 54 -6 92 -5 130 7 159 6 163 -5 2 -6 11 -11 20 -11 15 0 15 2
2 11 -11 7 2 8 45 5 92 -8 107 -11 155 -26 25 -7 50 -14 55 -15 6 0 9 -11 8
-23 -2 -12 1 -21 5 -21 21 4 23 -3 7 -21 -10 -11 -24 -20 -31 -20 -23 0 -25
19 -4 40 32 32 23 41 -11 9 -31 -29 -59 -38 -59 -19 0 6 5 11 10 11 6 1 15 3
20 4 6 1 14 3 18 4 5 0 9 8 9 15 0 11 -5 12 -18 5 -10 -5 -27 -9 -37 -9 -16 0
-19 -5 -14 -22 3 -14 2 -19 -6 -14 -7 4 -12 15 -12 24 0 12 -3 13 -12 4 -17
-17 19 -43 57 -39 26 2 30 -1 29 -21 -1 -21 2 -23 32 -18 35 7 48 -3 38 -28
-4 -9 -18 -16 -34 -16 -16 0 -32 -5 -35 -10 -4 -6 8 -9 29 -8 20 2 36 7 36 11
0 5 5 5 10 2 7 -4 10 36 9 119 -1 69 -6 126 -10 126 -5 0 -9 -16 -9 -35 0 -41
-3 -42 -67 -14 -43 19 -76 22 -298 30 -137 4 -281 12 -320 18 -207 29 -263 34
-405 36 -86 1 -171 7 -190 13 -19 7 -53 11 -75 10 -22 -1 -76 2 -120 6 -45 4
-83 5 -85 2z"/>
<path d="M2350 1116 c0 -18 22 -26 76 -26 35 0 44 3 44 18 0 14 -11 17 -60 20
-46 2 -60 -1 -60 -12z m70 -12 c0 -2 -7 -4 -15 -4 -8 0 -15 4 -15 10 0 5 7 7
15 4 8 -4 15 -8 15 -10z"/>
<path d="M2098 1093 c7 -3 16 -2 19 1 4 3 -2 6 -13 5 -11 0 -14 -3 -6 -6z"/>
<path d="M958 1083 c12 -2 30 -2 40 0 9 3 -1 5 -23 4 -22 0 -30 -2 -17 -4z"/>
<path d="M2310 1070 c8 -5 23 -10 32 -10 9 0 18 -6 21 -12 3 -7 5 -4 4 8 -1
16 -8 21 -36 22 -27 2 -32 0 -21 -8z"/>
<path d="M2380 1060 c0 -5 5 -10 11 -10 5 0 7 5 4 10 -3 6 -8 10 -11 10 -2 0
-4 -4 -4 -10z"/>
<path d="M2290 1050 c0 -5 5 -10 10 -10 6 0 10 5 10 10 0 6 -4 10 -10 10 -5 0
-10 -4 -10 -10z"/>
<path d="M2470 1050 c0 -5 7 -10 15 -10 8 0 15 5 15 10 0 6 -7 10 -15 10 -8 0
-15 -4 -15 -10z"/>
<path d="M2510 1050 c0 -5 5 -10 10 -10 6 0 10 5 10 10 0 6 -4 10 -10 10 -5 0
-10 -4 -10 -10z"/>
<path d="M2540 1050 c0 -5 7 -10 15 -10 8 0 15 5 15 10 0 6 -7 10 -15 10 -8 0
-15 -4 -15 -10z"/>
<path d="M565 1030 l-40 -7 40 -1 c22 -1 47 3 55 8 18 12 10 12 -55 0z"/>
<path d="M2575 1027 c-4 -10 -14 -16 -21 -13 -9 3 -14 -2 -14 -14 0 -13 7 -20
20 -20 11 0 20 6 20 14 0 8 7 16 15 20 8 3 15 11 15 18 0 10 -2 10 -9 -1 -7
-11 -9 -11 -14 0 -3 11 -7 9 -12 -4z"/>
<path d="M748 1023 c7 -3 16 -2 19 1 4 3 -2 6 -13 5 -11 0 -14 -3 -6 -6z"/>
<path d="M1210 1019 c0 -10 64 -18 70 -9 3 5 19 10 35 12 17 3 0 4 -37 4 -38
-1 -68 -4 -68 -7z"/>
<path d="M2037 1017 c4 -6 0 -8 -11 -4 -12 5 -19 0 -26 -18 -10 -26 -28 -27
-82 -4 -20 8 -32 8 -50 -2 -12 -7 -36 -12 -53 -11 -27 2 -28 1 -13 -11 10 -8
14 -17 10 -21 -4 -4 -2 -6 3 -4 9 3 15 -4 15 -17 0 -3 -9 -1 -20 5 -15 8 -20
8 -20 -2 0 -9 -3 -9 -12 0 -7 7 -17 12 -23 12 -5 0 -3 -5 5 -10 11 -7 7 -9
-14 -7 -16 1 -32 9 -34 16 -3 10 0 12 11 8 9 -3 19 -1 23 4 4 7 -4 9 -22 7
-15 -2 -29 2 -31 10 -3 8 7 12 31 12 25 0 36 -4 36 -15 0 -9 9 -15 22 -15 l21
0 -23 25 c-23 25 -53 31 -97 19 -13 -4 -20 -10 -17 -15 3 -5 -7 -4 -21 1 -29
11 -84 10 -91 -1 -2 -4 -21 -3 -41 1 -21 5 -42 5 -48 0 -5 -4 -13 -9 -17 -9
-5 -1 -8 -3 -8 -6 0 -3 0 -8 0 -12 0 -4 5 -2 12 5 19 19 37 14 35 -9 -1 -17
-6 -20 -30 -15 -25 5 -28 4 -17 -9 7 -8 23 -13 36 -11 15 3 24 -1 27 -12 3
-11 5 -9 6 7 1 17 5 21 17 17 9 -3 18 -6 20 -6 2 0 4 -7 4 -15 0 -8 5 -15 11
-15 6 0 8 9 3 22 -6 21 -6 21 11 4 10 -10 14 -21 9 -24 -5 -4 -11 -19 -12 -34
-3 -20 1 -28 12 -28 9 0 16 5 16 10 0 6 9 10 20 10 18 0 20 -7 20 -87 0 -52
-4 -83 -9 -75 -6 10 -10 9 -14 -7 -6 -24 -1 -25 33 -6 14 8 19 14 13 15 -9 0
-13 18 -13 56 0 34 4 53 10 49 6 -3 10 -1 10 4 0 6 -5 11 -12 11 -6 0 -3 7 8
15 19 14 19 15 -3 21 -13 4 -20 11 -16 20 3 8 0 14 -7 14 -6 0 -8 5 -5 10 3 6
1 10 -4 10 -6 0 -11 -10 -12 -22 0 -22 -1 -22 -9 -3 -14 32 -12 35 20 35 17 0
39 -9 50 -20 21 -21 27 -35 10 -25 -5 3 -10 1 -10 -5 0 -7 7 -9 16 -6 13 5 14
-5 11 -77 -2 -45 -2 -61 0 -34 2 26 9 47 15 47 5 0 8 6 5 14 -5 12 1 13 29 9
21 -4 40 -1 51 8 15 12 16 12 10 -3 -5 -14 -1 -18 16 -18 16 0 18 3 8 9 -9 6
-4 8 17 8 17 -1 28 -6 25 -10 -3 -5 4 -6 16 -2 14 4 21 2 21 -6 0 -7 3 -9 7
-5 5 4 -1 15 -12 23 -17 14 -18 15 -2 9 10 -3 22 -6 26 -6 3 0 8 -11 9 -25 1
-17 -3 -25 -14 -25 -8 0 -12 -5 -9 -10 4 -6 11 -8 16 -5 5 4 9 -1 9 -10 0 -12
8 -14 40 -9 27 4 40 3 40 -5 0 -7 -26 -11 -75 -11 -43 0 -75 4 -75 10 0 6 5
10 10 10 6 0 10 9 10 20 0 18 -11 25 -33 21 -5 -1 -5 4 -1 10 5 9 2 10 -10 6
-10 -4 -21 -7 -26 -7 -5 0 -11 -33 -14 -72 -4 -40 -8 -93 -10 -118 -2 -24 -9
-46 -16 -48 -8 -3 -10 0 -6 7 5 7 -4 11 -26 11 l-33 -1 34 -14 c18 -8 44 -15
57 -15 13 0 24 -5 24 -11 0 -6 -6 -9 -14 -6 -10 4 -14 0 -13 -14 1 -10 5 -19
9 -19 4 0 8 -5 8 -11 0 -7 -11 -8 -30 -4 -20 4 -30 3 -30 -5 0 -7 -8 -9 -19
-5 -14 4 -23 0 -30 -14 -16 -29 -14 -33 10 -20 20 10 21 9 15 -15 -4 -15 -2
-26 4 -26 9 0 15 29 11 52 0 4 8 12 19 18 14 8 20 8 20 0 0 -6 5 -8 10 -5 6 3
10 4 10 0 0 -3 -10 -10 -22 -15 -23 -9 -23 -9 -2 -9 12 -1 29 9 38 22 10 12
15 15 13 7 -4 -12 9 -15 72 -16 42 -1 90 -2 106 -4 17 -2 38 0 48 4 11 6 17 4
17 -5 0 -21 140 -13 158 9 13 16 13 16 8 0 -6 -21 9 -24 17 -4 3 8 -1 17 -9
20 -25 10 -34 7 -34 -9 0 -8 -9 -15 -21 -15 -11 0 -17 5 -14 10 9 14 -9 12
-24 -2 -10 -11 -11 -10 -6 5 5 12 2 17 -9 17 -9 0 -15 -5 -14 -11 2 -6 -4 -14
-12 -16 -13 -4 -13 -3 0 6 12 8 9 12 -17 17 -38 7 -40 12 -15 30 16 12 15 13
-5 14 -14 0 -23 -6 -23 -16 0 -18 -31 -15 -38 4 -3 9 3 12 14 10 23 -4 27 30
6 51 -7 7 -10 16 -7 19 3 4 10 0 15 -8 7 -11 10 -12 10 -2 0 7 5 10 10 7 6 -3
8 -17 6 -30 -3 -14 -2 -24 2 -23 4 1 16 -3 26 -7 13 -5 21 -5 23 2 2 6 13 9
23 6 11 -3 20 0 20 6 0 6 -8 11 -17 12 -13 0 -11 3 6 10 19 8 27 6 34 -6 7
-12 12 -13 22 -5 8 7 19 9 25 5 7 -4 10 39 10 135 0 104 -3 139 -12 134 -6 -4
-26 -7 -45 -6 -18 1 -33 -3 -33 -8 0 -6 16 -10 35 -10 27 0 35 -4 35 -18 0
-24 -26 -59 -36 -49 -4 4 -2 13 4 19 20 20 13 29 -11 13 -21 -13 -23 -13 -24
3 -5 40 -16 82 -23 82 -4 0 -5 12 -2 26 5 25 3 26 -27 22 -26 -4 -30 -2 -26
13 3 10 -1 19 -10 22 -8 4 -14 3 -14 -1 4 -25 -2 -42 -13 -36 -7 4 -10 3 -5
-1 4 -5 -2 -18 -12 -29 l-20 -21 51 -2 c45 -3 49 -1 38 12 -7 9 -19 14 -27 11
-7 -3 -13 -2 -13 3 0 5 14 11 30 13 24 4 30 1 30 -14 0 -30 1 -32 15 -55 8
-12 11 -24 6 -28 -5 -3 -12 -1 -16 5 -7 12 -25 4 -25 -11 0 -5 14 -7 30 -4 29
5 30 4 20 -15 -9 -16 -15 -18 -31 -10 -11 6 -24 8 -30 5 -6 -4 -7 3 -3 21 6
23 4 26 -10 21 -9 -4 -16 -1 -16 4 0 6 9 9 20 6 10 -3 25 2 31 10 11 12 9 13
-13 8 -15 -4 -36 -2 -47 5 -15 7 -27 8 -39 1 -14 -9 -11 -10 15 -11 25 0 31
-4 27 -15 -4 -8 -10 -12 -15 -9 -5 3 -9 -1 -9 -8 -1 -8 -6 -6 -15 6 -8 11 -15
15 -15 9 0 -7 5 -15 10 -18 19 -12 10 -26 -11 -20 -13 5 -25 2 -30 -6 -4 -7
-11 -10 -15 -6 -4 4 2 16 14 27 12 12 19 27 15 35 -3 9 5 25 20 39 14 13 24
32 24 42 -1 11 4 18 11 17 6 -2 12 4 12 12 0 11 -8 13 -30 9 -26 -6 -30 -4
-30 17 0 18 3 20 12 11 7 -7 19 -12 28 -12 12 1 11 4 -5 17 -16 13 -17 15 -2
10 17 -6 67 11 67 23 0 3 -16 13 -35 22 -19 8 -32 11 -28 5z m38 -27 c-2 -4
-19 -7 -37 -8 -20 0 -27 2 -19 7 16 10 62 11 56 1z m-206 -17 c-4 -23 3 -33
23 -33 15 0 19 -3 12 -10 -14 -14 -59 3 -68 25 -3 9 -2 13 3 10 5 -3 12 -1 16
5 7 12 16 13 14 3z m50 -2 c8 -5 9 -11 3 -15 -13 -8 -42 3 -42 15 0 11 21 11
39 0z m-241 -16 c2 -2 0 -11 -6 -20 -8 -16 -10 -16 -15 -1 -8 20 -37 21 -37 1
0 -20 -16 -19 -24 1 -4 10 -11 12 -21 6 -20 -11 -75 -3 -75 10 0 6 14 8 30 6
17 -3 34 0 37 5 5 8 102 2 111 -8z m312 -5 c0 -9 -14 -14 -32 -11 -18 3 -6
-10 18 -19 14 -6 22 -15 19 -20 -3 -6 1 -13 9 -16 24 -9 19 -24 -8 -24 -14 0
-28 -5 -32 -12 -5 -8 -2 -9 9 -5 10 3 17 2 17 -3 0 -6 -9 -10 -21 -10 -16 0
-19 4 -14 20 8 24 2 25 -20 4 -8 -9 -32 -18 -53 -21 -33 -4 -39 -2 -51 21 -9
16 -23 26 -35 25 -15 0 -17 -2 -6 -6 16 -7 40 -29 40 -37 0 -3 -7 -3 -15 0 -8
4 -15 1 -15 -5 0 -14 -37 -14 -45 0 -4 6 -13 8 -21 5 -19 -7 -18 1 4 24 31 33
73 35 107 5 l29 -26 19 23 c10 13 16 17 12 11 -7 -15 -1 -16 23 -4 9 5 25 12
35 15 30 10 20 29 -13 23 -33 -7 -37 2 -18 33 13 20 58 28 58 10z m-294 -19
c-4 -5 7 -12 24 -16 16 -4 32 -10 35 -15 4 -6 -16 -7 -65 -1 -10 2 -9 41 1 41
6 0 8 -4 5 -9z m187 -20 c10 0 17 -6 15 -13 -5 -13 -46 -19 -54 -6 -3 4 -14 8
-25 8 -11 0 -18 4 -15 8 4 7 17 8 79 3z m-291 -63 c-6 -6 -7 0 -4 19 5 21 7
23 10 9 2 -10 0 -22 -6 -28z m139 19 c-13 -13 -26 -3 -16 12 3 6 11 8 17 5 6
-4 6 -10 -1 -17z m149 -7 c0 -5 -2 -10 -4 -10 -3 0 -8 5 -11 10 -3 6 -1 10 4
10 6 0 11 -4 11 -10z m97 -60 c1 -11 -2 -20 -8 -20 -5 0 -9 9 -9 20 0 11 4 20
8 20 4 0 8 -9 9 -20z m-114 -83 c9 -6 9 -10 -1 -14 -6 -2 -10 -9 -6 -14 3 -5
0 -9 -5 -9 -7 0 -10 21 -10 53 1 33 4 41 6 22 3 -16 10 -34 16 -38z m4 31 c-3
-8 -6 -5 -6 6 -1 11 2 17 5 13 3 -3 4 -12 1 -19z m200 5 c-4 -3 -2 -12 4 -20
13 -15 -6 -47 -22 -37 -13 8 0 25 14 18 7 -3 4 1 -5 9 -13 10 -15 16 -6 25 7
7 14 12 17 12 2 0 1 -3 -2 -7z m65 -27 c7 4 8 2 4 -4 -8 -14 -36 -16 -36 -4 0
14 14 24 18 13 2 -6 9 -8 14 -5z m88 -8 c23 1 25 -3 26 -44 0 -24 -3 -44 -8
-44 -4 0 -8 17 -9 38 0 20 -3 31 -6 23 -5 -11 -7 -11 -14 0 -8 12 -11 11 -19
-1 -9 -13 -10 -13 -10 0 0 12 -2 12 -9 2 -10 -16 -21 -18 -30 -4 -4 6 -11 4
-19 -4 -11 -12 -10 -14 3 -14 9 0 13 -4 10 -10 -3 -5 -1 -10 4 -10 6 0 11 5
11 10 0 6 17 10 38 10 24 0 32 -3 23 -9 -7 -5 -22 -6 -34 -3 -13 3 -18 1 -14
-6 4 -5 18 -9 32 -7 28 3 34 -9 10 -19 -9 -3 -36 4 -60 15 -48 23 -79 20 -69
-6 4 -8 1 -15 -6 -15 -9 0 -10 -3 -1 -13 6 -8 8 -17 4 -20 -9 -9 -34 13 -27
24 3 5 7 19 9 30 5 25 38 59 58 59 7 0 22 7 33 15 10 8 26 12 34 8 8 -3 26 -6
40 -5z m-189 -24 c5 -53 4 -81 -3 -96 -5 -10 -4 -19 2 -23 8 -5 7 -11 -1 -21
-10 -12 -9 -13 6 -8 12 5 16 3 13 -6 -2 -7 -18 -14 -36 -14 -32 -1 -43 8 -19
17 6 3 3 6 -8 7 -20 1 -20 1 -1 15 11 8 21 22 22 31 1 9 0 13 -3 10 -3 -3 -14
-1 -24 5 -15 7 -19 7 -17 -3 2 -7 8 -16 13 -20 6 -5 5 -11 -4 -17 -8 -5 -11
-16 -6 -29 5 -19 2 -21 -29 -20 -41 1 -43 4 -18 31 9 11 12 17 6 14 -16 -9
-25 18 -11 32 8 8 8 14 2 19 -26 18 -13 37 22 33 6 -1 14 3 18 9 3 5 17 10 31
10 13 0 24 4 24 10 0 10 -28 9 -46 -2 -6 -4 -20 -6 -30 -4 -11 2 -28 -2 -38
-10 -18 -12 -18 -15 -2 -39 15 -24 15 -25 -1 -25 -27 0 -48 16 -33 25 6 4 9
13 6 20 -2 7 2 16 11 19 8 4 13 13 10 20 -7 17 6 21 85 22 42 1 58 -3 59 -12z
m-189 -64 c3 -21 0 -30 -9 -30 -8 0 -12 4 -9 9 4 5 1 11 -5 13 -11 4 -2 38 11
38 4 0 10 -13 12 -30z m278 5 c0 -14 12 -20 34 -16 4 1 14 -3 21 -9 9 -8 15
-8 20 0 10 16 25 12 25 -8 0 -11 -11 -24 -25 -30 -32 -15 -45 -15 -45 -2 0 6
6 10 13 8 7 -2 12 1 12 7 0 10 -33 15 -52 8 -7 -3 -10 -9 -7 -14 3 -5 -1 -9
-9 -9 -11 0 -14 10 -13 33 2 17 -2 35 -8 39 -6 5 -1 8 12 8 13 0 22 -6 22 -15z
m126 -45 c0 -16 -4 -30 -8 -30 -5 0 -8 14 -8 30 0 17 4 30 9 30 5 0 8 -13 7
-30z m-372 4 c9 -3 16 -11 16 -16 0 -6 -7 -7 -16 -4 -8 3 -13 2 -10 -3 3 -5
-3 -11 -14 -14 -11 -3 -20 -4 -20 -2 0 2 -3 10 -6 18 -3 10 2 17 13 20 10 3
19 5 20 6 1 0 8 -2 17 -5z m260 -38 c-6 -15 -24 -23 -24 -11 0 8 24 34 28 30
1 -1 0 -10 -4 -19z m-244 -46 c0 -11 -4 -20 -10 -20 -5 0 -10 -5 -10 -11 0 -5
4 -8 10 -4 5 3 25 6 45 7 23 1 35 6 35 16 0 10 8 13 25 10 14 -3 25 0 26 6 0
6 4 2 8 -9 6 -14 3 -24 -8 -33 -9 -8 -10 -11 -3 -7 6 3 12 1 12 -4 0 -20 -32
-11 -37 10 -6 21 -6 21 -19 -2 -7 -13 -13 -19 -14 -14 0 6 -17 9 -41 7 -32 -3
-45 0 -61 17 -16 18 -17 25 -8 36 19 22 50 19 50 -5z m57 -6 c-3 -3 -12 -4
-19 -1 -8 3 -5 6 6 6 11 1 17 -2 13 -5z m118 -44 c-3 -5 -13 -10 -21 -10 -8 0
-14 5 -14 10 0 6 9 10 21 10 11 0 17 -4 14 -10z"/>
<path d="M1757 855 c-6 -15 22 -30 34 -18 5 5 0 14 -10 20 -15 10 -20 9 -24
-2z"/>
<path d="M1955 650 c-7 -11 35 -31 48 -23 4 2 7 11 7 19 0 16 -45 20 -55 4z"/>
<path d="M1920 642 c0 -5 7 -15 15 -22 8 -7 15 -8 15 -2 0 5 -7 15 -15 22 -8
7 -15 8 -15 2z"/>
<path d="M2322 1023 c26 -7 31 -31 5 -27 -14 3 -12 0 6 -7 34 -13 42 -8 27 20
-6 12 -20 21 -33 20 -15 -1 -17 -3 -5 -6z"/>
<path d="M655 1010 c-3 -5 -1 -10 4 -10 6 0 11 5 11 10 0 6 -2 10 -4 10 -3 0
-8 -4 -11 -10z"/>
<path d="M1407 1009 c7 -7 15 -10 18 -7 3 3 -2 9 -12 12 -14 6 -15 5 -6 -5z"/>
<path d="M2487 1005 c-4 -8 -2 -17 3 -20 11 -7 40 5 40 17 0 6 -8 4 -17 -3
-15 -12 -16 -12 -10 4 3 9 2 17 -2 17 -5 0 -11 -7 -14 -15z"/>
<path d="M368 1003 c6 -2 18 -2 25 0 6 3 1 5 -13 5 -14 0 -19 -2 -12 -5z"/>
<path d="M778 1003 c7 -3 16 -2 19 1 4 3 -2 6 -13 5 -11 0 -14 -3 -6 -6z"/>
<path d="M1023 1003 c9 -2 23 -2 30 0 6 3 -1 5 -18 5 -16 0 -22 -2 -12 -5z"/>
<path d="M2111 994 c0 -11 3 -14 6 -6 3 7 2 16 -1 19 -3 4 -6 -2 -5 -13z"/>
<path d="M2280 1000 c0 -5 5 -10 11 -10 5 0 7 5 4 10 -3 6 -8 10 -11 10 -2 0
-4 -4 -4 -10z"/>
<path d="M538 993 c7 -3 16 -2 19 1 4 3 -2 6 -13 5 -11 0 -14 -3 -6 -6z"/>
<path d="M578 993 c6 -2 18 -2 25 0 6 3 1 5 -13 5 -14 0 -19 -2 -12 -5z"/>
<path d="M1280 993 c-19 -2 -39 -8 -43 -13 -5 -4 -22 -3 -37 3 -16 6 -33 8
-37 4 -9 -10 18 -28 29 -20 5 2 16 -1 24 -8 11 -9 18 -9 32 4 12 11 31 14 67
10 58 -6 63 -9 47 -25 -9 -9 -12 -9 -12 1 0 9 -4 8 -15 -3 -8 -8 -15 -19 -15
-25 0 -6 -7 -11 -16 -11 -8 0 -12 -5 -8 -11 3 -6 0 -15 -7 -20 -11 -7 -10 -9
4 -9 9 0 17 -7 17 -16 0 -8 -4 -13 -8 -10 -4 2 -13 -4 -20 -15 -11 -18 -9 -19
40 -20 40 -1 47 -3 28 -8 -20 -6 -15 -9 27 -12 43 -3 52 -1 50 11 -2 15 -16
30 -29 30 -4 0 -5 -7 -2 -15 4 -8 2 -15 -4 -15 -6 0 -12 5 -14 11 -2 6 -24 11
-48 11 -32 0 -39 2 -25 8 11 4 40 8 64 8 24 1 46 3 49 6 3 3 -7 6 -21 6 -19 0
-27 5 -28 18 0 14 -2 14 -7 2 -10 -23 -30 -22 -43 1 -6 11 -9 22 -7 22 2 1 12
10 24 20 16 13 27 15 45 8 l24 -10 -25 0 c-26 -1 -50 -17 -50 -34 0 -4 10 -1
22 7 12 9 30 16 39 16 10 0 19 3 22 8 2 4 2 2 1 -5 -2 -7 3 -19 11 -27 8 -8
12 -23 9 -33 -3 -10 2 -6 11 10 8 15 21 27 27 27 7 0 6 -5 -2 -15 -10 -12 -9
-15 4 -15 12 0 16 7 14 23 -2 12 -9 21 -16 20 -18 -4 -52 29 -52 49 0 10 -3
17 -7 17 -21 -3 -33 2 -33 16 0 8 -6 15 -12 15 -7 0 -22 2 -33 4 -11 2 -36 1
-55 -1z m127 -59 c-3 -3 -12 -4 -19 -1 -8 3 -5 6 6 6 11 1 17 -2 13 -5z"/>
<path d="M2600 989 c0 -5 5 -7 10 -4 6 3 10 8 10 11 0 2 -4 4 -10 4 -5 0 -10
-5 -10 -11z"/>
<path d="M26 971 c-3 -5 1 -11 9 -15 9 -3 15 0 15 9 0 16 -16 20 -24 6z"/>
<path d="M67 960 c5 -17 51 -42 64 -34 11 6 12 24 2 23 -22 -4 -53 2 -53 10 0
4 14 7 30 5 17 -2 30 0 30 4 0 4 -17 7 -38 7 -30 0 -38 -3 -35 -15z"/>
<path d="M223 960 c-21 -24 -33 -26 -33 -5 0 8 -7 15 -15 15 -8 0 -15 -5 -15
-11 0 -5 5 -7 11 -3 7 4 10 1 7 -7 -3 -8 -12 -13 -19 -11 -8 2 -6 -5 6 -19
l20 -22 -23 12 c-12 7 -27 9 -33 6 -5 -4 -15 -2 -22 3 -16 12 -79 24 -73 13 3
-5 -3 -11 -13 -14 -14 -3 -19 -14 -19 -48 -1 -30 2 -39 8 -29 7 10 10 11 10 3
0 -9 16 -13 46 -13 40 0 45 -2 34 -15 -15 -18 -6 -45 16 -45 13 0 14 3 4 15
-17 21 -5 51 15 35 10 -9 11 -18 4 -37 -10 -26 -4 -47 12 -38 5 4 9 -1 9 -9 0
-14 -4 -13 -35 2 -19 9 -35 23 -35 30 0 7 -4 11 -9 8 -5 -3 -11 1 -14 8 -3 8
-1 17 6 20 7 2 4 5 -5 5 -10 1 -18 -3 -18 -9 0 -5 -11 -10 -25 -10 -23 0 -24
-2 -15 -21 11 -20 12 -20 27 -2 8 10 12 13 9 6 -4 -6 0 -14 6 -16 10 -4 10 -6
1 -6 -7 -1 -13 -6 -13 -12 0 -6 12 -10 28 -9 41 3 54 1 48 -8 -3 -5 26 -8 64
-8 68 1 70 2 70 26 0 18 -3 21 -9 11 -5 -7 -13 -11 -19 -7 -6 3 -12 1 -14 -6
-3 -8 -9 -8 -23 -1 -16 10 -15 11 13 18 25 5 29 9 19 19 -10 11 -14 11 -23 -2
-9 -12 -14 -13 -30 -3 -18 12 -18 12 0 7 14 -5 16 -3 9 6 -8 12 -9 20 -4 45 0
3 10 -2 21 -12 23 -20 28 -11 6 11 -8 8 -21 12 -28 9 -9 -4 -14 2 -15 15 -1
16 4 20 25 19 15 0 21 -3 14 -6 -17 -6 4 -33 25 -33 11 0 13 -7 9 -26 -6 -23
-4 -25 11 -20 9 4 14 4 11 0 -4 -4 -1 -15 6 -26 21 -29 9 -59 -20 -54 -22 4
-24 1 -26 -42 -1 -26 -1 -58 -1 -72 1 -14 -1 -19 -4 -12 -2 6 -13 12 -23 12
-11 0 -23 8 -28 18 -11 20 -4 82 9 82 5 0 5 -7 2 -17 -4 -10 -2 -14 5 -9 6 3
15 -2 21 -11 9 -15 10 -16 11 -2 0 21 -36 53 -49 44 -6 -3 -11 -18 -11 -33 0
-22 -2 -24 -11 -12 -9 12 -9 11 -4 -5 18 -49 17 -55 -1 -56 -11 0 -14 -3 -6
-6 15 -6 6 -23 -13 -23 -7 0 -21 7 -30 16 -9 9 -19 14 -22 11 -6 -6 -33 17
-33 28 0 3 12 4 27 3 27 -3 40 19 20 33 -6 4 0 10 12 14 26 8 27 21 1 28 -11
3 -20 1 -20 -4 0 -5 6 -9 13 -9 7 0 5 -5 -5 -10 -10 -6 -14 -18 -11 -32 4 -21
3 -21 -7 -5 -11 18 -13 18 -31 1 -22 -19 -25 -50 -6 -57 9 -4 9 -8 -2 -15 -9
-7 0 -10 30 -9 55 0 82 -6 87 -21 4 -12 3 -13 -35 -17 -16 -2 -20 2 -15 14 5
13 3 14 -9 4 -8 -6 -25 -13 -38 -15 -14 -1 -26 -8 -28 -14 -4 -11 -3 -11 140
1 54 4 87 4 87 -2 0 -6 13 -10 29 -11 27 -1 28 1 30 49 0 27 -3 49 -8 49 -14
0 -22 -29 -15 -57 6 -23 5 -24 -15 -14 -12 7 -26 9 -31 6 -6 -3 -10 0 -10 7 0
9 -3 9 -8 2 -9 -14 -64 -25 -55 -12 3 6 21 16 39 24 22 9 34 21 34 33 0 10 7
21 15 25 18 7 20 -5 3 -23 -7 -8 -1 -6 14 4 15 9 29 24 32 33 8 30 6 132 -4
132 -5 0 -5 13 0 31 9 29 8 31 -15 25 -14 -4 -25 -2 -25 4 0 5 12 11 28 11 23
2 24 2 5 6 -13 2 -23 9 -23 15 0 5 -7 8 -15 5 -8 -4 -17 -2 -21 4 -8 13 -2 19
25 24 11 2 27 7 34 11 6 4 4 -2 -6 -13 -23 -27 -5 -41 26 -21 24 15 57 13 57
-4 0 -6 -9 -8 -19 -5 -22 6 -30 -7 -24 -43 1 -14 3 -44 4 -67 1 -39 3 -43 25
-43 24 0 24 1 24 99 0 90 -2 99 -18 94 -12 -3 -18 2 -19 16 -1 12 4 21 13 21
8 0 14 -6 15 -12 0 -7 5 -3 11 10 12 24 23 28 33 12 4 -6 15 -6 31 0 33 13 34
13 34 -3 0 -8 7 -14 15 -14 10 0 14 6 10 14 -3 8 -5 19 -5 24 0 6 -5 7 -12 3
-7 -4 -8 -3 -4 5 5 7 16 9 28 5 13 -4 18 -2 14 4 -3 5 -22 10 -42 9 -20 -1
-32 -3 -25 -5 19 -6 12 -19 -14 -24 -15 -3 -22 -1 -18 5 6 10 -13 7 -51 -9
-14 -5 -17 -4 -12 4 4 7 2 12 -4 12 -6 0 -13 -6 -16 -14 -3 -8 -18 -14 -34
-14 -16 1 -27 5 -24 9 3 5 -7 4 -22 -1 -37 -14 -40 -6 -8 19 15 11 22 21 15
21 -6 0 -19 -9 -28 -20z m67 -50 c22 -12 24 -18 11 -38 -6 -10 -10 -8 -14 8
-3 12 -10 19 -15 16 -6 -3 -12 -2 -14 4 -2 6 -15 4 -32 -5 -16 -9 -29 -14 -30
-13 -1 2 -6 13 -13 25 -12 21 -11 21 38 17 27 -2 59 -8 69 -14z m-184 -2 c5
-8 2 -9 -9 -5 -10 4 -17 1 -17 -5 0 -6 -7 -20 -17 -30 -12 -13 -13 -18 -3 -18
7 0 11 -2 8 -5 -3 -3 -18 1 -34 10 -26 13 -27 15 -7 15 12 0 25 5 28 11 11 17
-1 22 -24 10 -17 -9 -20 -9 -15 3 9 24 77 35 90 14z m44 -18 c0 -5 -15 -10
-32 -9 -28 0 -30 2 -13 9 28 12 45 12 45 0z m-11 -34 c8 -10 9 -16 1 -21 -5
-3 -10 1 -10 11 0 11 -6 15 -20 11 -11 -3 -23 -1 -26 4 -9 15 43 10 55 -5z
m211 -93 c0 -73 -9 -80 -16 -11 -3 23 -6 48 -9 55 -2 6 -1 14 2 17 17 17 23 0
23 -61z m-90 -81 c0 -17 -29 -47 -37 -39 -4 5 0 14 9 21 10 7 15 16 11 19 -3
4 -1 7 5 7 7 0 12 -4 12 -8z m-100 -132 c0 -5 -6 -10 -14 -10 -8 0 -18 5 -21
10 -3 6 3 10 14 10 12 0 21 -4 21 -10z"/>
<path d="M546 965 c15 -11 16 -15 4 -15 -10 -1 -8 -4 5 -9 11 -5 21 -7 23 -6
8 7 -24 45 -37 45 -11 0 -9 -4 5 -15z"/>
<path d="M593 963 c0 -7 6 -13 14 -13 7 0 16 -6 19 -14 3 -8 13 -12 25 -9 10
3 19 0 19 -6 0 -6 4 -11 10 -11 5 0 7 8 3 18 -3 9 -3 14 2 10 4 -4 16 -3 26 3
15 7 17 6 13 -6 -4 -8 -11 -15 -16 -15 -6 0 -5 -7 2 -15 11 -13 10 -14 -4 -9
-9 3 -16 1 -16 -4 0 -6 8 -13 18 -16 9 -3 2 -4 -15 -2 -33 2 -37 -3 -36 -41 1
-7 -3 -13 -8 -13 -13 0 -14 16 -5 63 3 19 -1 26 -17 31 -36 9 -39 7 -19 -14
12 -13 17 -30 14 -50 -4 -30 -22 -33 -22 -4 0 8 -4 13 -10 9 -5 -3 -6 -13 -3
-23 5 -13 0 -11 -20 7 l-26 23 6 -23 c6 -24 6 -24 -15 -5 -21 18 -22 18 -22 1
0 -17 -1 -17 -20 0 -19 17 -20 17 -20 0 0 -15 -3 -15 -15 -5 -9 7 -14 19 -11
27 3 7 1 13 -4 13 -10 0 -14 -14 -10 -40 1 -12 -2 -12 -16 3 -16 15 -17 22 -7
48 7 18 9 29 6 25 -3 -3 -12 -1 -20 5 -9 9 -13 8 -13 0 0 -6 5 -11 10 -11 6 0
10 -5 10 -11 0 -5 -4 -8 -10 -4 -5 3 -8 -42 -7 -120 2 -117 -3 -146 -17 -110
-6 17 -56 21 -56 4 0 -6 6 -9 14 -6 8 3 27 -4 41 -15 22 -17 29 -19 36 -7 7
11 9 11 9 -3 0 -10 -6 -18 -12 -18 -21 0 -15 -94 6 -98 9 -2 14 -8 11 -13 -9
-13 7 -11 27 5 10 7 14 17 10 21 -4 5 -2 5 4 2 7 -4 15 0 18 9 11 30 6 34 -20
18 -19 -13 -28 -14 -37 -5 -9 9 -9 14 2 20 9 6 10 11 2 15 -16 10 -14 26 3 26
8 0 18 5 22 12 5 7 2 9 -9 5 -20 -8 -28 16 -29 91 -1 31 -6 63 -11 70 -6 8 -5
12 4 12 11 0 11 2 -1 10 -11 7 -11 10 -2 10 14 0 55 -87 47 -100 -3 -4 28 -29
68 -54 82 -50 107 -62 107 -50 0 5 -32 26 -71 47 -64 35 -73 44 -96 93 -25 54
-26 73 -3 59 6 -4 9 -13 7 -19 -3 -7 -1 -19 4 -27 8 -12 10 -12 8 1 -1 8 1 23
6 33 6 14 10 15 22 5 11 -9 16 -9 23 1 5 8 10 9 14 3 3 -6 15 -8 26 -5 15 4
18 1 15 -16 -2 -12 0 -19 6 -16 5 4 7 10 5 14 -3 4 -1 13 4 21 7 12 10 12 16
-3 5 -14 9 -15 21 -6 18 16 42 -6 49 -46 3 -16 7 -32 10 -37 3 -4 1 -8 -5 -8
-6 0 -13 12 -17 28 -3 15 -9 36 -14 47 -6 15 -7 11 -5 -15 1 -23 12 -45 31
-64 16 -17 29 -34 29 -40 0 -5 7 -11 15 -13 12 -4 12 -3 2 5 -11 7 -10 10 3
16 23 8 27 8 20 -4 -4 -6 1 -7 11 -3 13 5 15 3 9 -7 -5 -9 -4 -11 4 -6 15 10
43 -13 34 -27 -4 -6 2 -8 15 -5 12 4 22 2 22 -4 0 -6 7 -8 15 -4 8 3 15 1 15
-4 0 -6 -10 -11 -22 -11 -19 -1 -20 -2 -4 -6 10 -3 23 0 29 6 6 6 22 11 37 10
l25 -1 -25 -8 c-20 -6 -16 -8 23 -9 36 -1 46 2 41 12 -6 9 -4 9 7 1 8 -5 32
-12 54 -13 22 -2 42 -7 43 -12 2 -5 17 -9 33 -9 16 0 29 -5 29 -12 0 -8 3 -9
8 -3 4 6 36 11 70 12 49 1 67 6 77 20 12 16 11 19 -6 25 -11 4 -18 12 -14 17
3 5 1 12 -5 16 -5 3 -10 2 -10 -4 0 -5 -16 -8 -35 -6 -35 3 -62 -15 -50 -35 3
-5 17 -10 30 -10 18 0 23 4 19 15 -5 11 1 15 19 15 20 0 37 -16 37 -35 0 -3
-11 -3 -80 -5 -14 0 -29 6 -34 14 -7 11 -15 11 -32 4 -13 -6 -31 -7 -41 -2
-10 4 -25 8 -33 9 -68 6 -139 19 -135 25 3 5 13 6 23 3 15 -4 17 1 13 39 l-5
43 -7 -40 -6 -40 -2 40 c-1 26 -4 35 -10 27 -4 -8 -33 -17 -62 -22 l-54 -8 45
-2 45 -3 -40 -6 c-22 -4 -45 -5 -52 -3 -19 6 -3 32 21 33 17 1 17 2 3 6 -9 2
-15 9 -12 14 4 5 1 9 -5 9 -6 0 -8 5 -5 10 3 6 2 10 -3 10 -15 0 -33 -48 -19
-53 7 -2 9 -7 6 -11 -10 -10 -40 5 -32 17 3 5 2 7 -4 4 -17 -11 -60 26 -58 51
1 12 -2 22 -7 22 -4 0 -8 10 -8 22 0 12 -7 30 -17 40 -13 15 -14 18 -1 18 27
0 51 -26 45 -49 -3 -11 -1 -19 4 -15 5 3 9 14 9 25 0 10 7 19 15 19 13 0 19
-10 17 -31 0 -3 15 -6 34 -6 34 -1 46 11 22 20 -10 4 -9 8 2 17 12 9 11 10 -7
5 -30 -8 -32 20 -3 35 16 8 24 6 42 -12 15 -15 20 -17 15 -5 -5 13 0 17 21 18
15 0 45 1 67 3 22 2 34 1 28 -1 -25 -9 -13 -30 17 -31 20 0 39 8 56 25 14 14
31 22 39 19 8 -3 15 -1 15 4 0 8 -24 14 -50 12 -3 0 -31 -2 -62 -5 -63 -5 -74
4 -29 24 16 7 27 18 25 23 -2 7 14 12 41 13 25 1 45 -2 45 -7 0 -6 -11 -10
-24 -10 -13 0 -26 -7 -30 -15 -3 -8 -1 -15 4 -15 6 0 10 5 10 11 0 6 9 9 20 6
18 -5 46 14 35 24 -2 3 9 6 25 7 19 1 32 -4 38 -15 9 -14 14 -15 34 -5 13 7
15 10 4 7 -11 -3 -24 2 -31 12 -11 15 -29 18 -98 18 -47 0 -83 -3 -80 -7 2 -5
-3 -8 -11 -8 -9 0 -16 5 -16 10 0 7 -6 7 -20 0 -14 -8 -20 -8 -20 0 0 6 -5 8
-12 4 -7 -4 -25 -9 -41 -11 -20 -2 -26 0 -21 10 5 7 0 6 -10 -3 -11 -8 -29
-13 -42 -12 -13 2 -24 -1 -24 -7 0 -10 27 -16 58 -12 6 1 12 -2 12 -7 0 -12
59 -37 67 -28 3 3 -2 6 -13 6 -16 0 -17 2 -4 10 12 7 8 10 -15 11 l-30 1 30
13 c17 7 31 9 33 5 2 -5 10 -6 18 -3 8 3 14 -1 14 -8 0 -12 2 -12 9 0 5 7 14
12 21 9 7 -2 -3 -16 -24 -32 -33 -25 -48 -28 -128 -33 -59 -3 -88 -1 -84 6 4
5 2 12 -4 16 -14 9 -3 25 17 25 10 0 13 -6 9 -16 -5 -12 -2 -15 10 -10 9 4 23
1 30 -5 11 -9 14 -8 14 5 0 9 -8 16 -19 16 -20 0 -36 25 -32 50 2 12 0 13 -10
3 -15 -15 -33 -17 -24 -3 3 6 1 10 -4 10 -6 0 -11 -7 -11 -15 0 -10 -11 -15
-35 -15 -19 0 -35 4 -35 9 0 5 -10 11 -23 13 -15 3 -24 0 -24 -9z m442 -92
c-9 -8 -36 -10 -30 -2 2 4 11 8 20 8 8 0 13 -3 10 -6z m-255 -26 c0 -11 -5
-12 -25 -5 -17 6 -25 6 -25 -1 0 -6 -5 -7 -10 -4 -18 11 0 25 31 25 19 0 29
-5 29 -15z m-60 -150 c7 -8 8 -15 2 -15 -5 0 -15 7 -22 15 -7 8 -8 15 -2 15 5
0 15 -7 22 -15z m207 -35 c1 -11 -2 -18 -8 -15 -5 4 -9 2 -9 -3 0 -5 -14 -8
-32 -6 -45 6 -48 14 -5 14 26 0 37 4 37 15 0 23 16 18 17 -5z"/>
<path d="M650 976 c0 -2 9 -6 20 -9 11 -3 18 -1 14 4 -5 9 -34 13 -34 5z"/>
<path d="M2315 854 c0 -67 4 -126 9 -131 5 -4 7 6 4 25 -3 18 -1 35 3 37 4 3
3 22 -1 42 -5 21 -6 40 -2 43 4 3 7 23 7 45 0 33 3 39 18 37 9 -2 17 1 17 6 0
6 -12 12 -28 14 l-27 4 0 -122z"/>
<path d="M2936 968 c2 -3 -2 -9 -8 -11 -10 -4 -10 -6 0 -6 6 -1 12 -8 12 -16
0 -9 9 -15 25 -15 14 0 25 5 25 11 0 6 -9 8 -21 4 -16 -5 -20 -3 -17 6 3 8 14
13 25 12 11 -1 20 3 20 10 0 7 -14 12 -33 12 -18 0 -30 -3 -28 -7z"/>
<path d="M2280 960 c0 -5 5 -10 10 -10 6 0 10 5 10 10 0 6 -4 10 -10 10 -5 0
-10 -4 -10 -10z"/>
<path d="M2480 950 c0 -11 4 -20 9 -20 6 0 9 9 8 20 -1 11 -5 20 -9 20 -4 0
-8 -9 -8 -20z"/>
<path d="M2519 963 c-6 -34 -5 -53 2 -53 5 0 9 14 9 30 0 27 -8 42 -11 23z"/>
<path d="M2541 775 c0 -148 3 -195 13 -195 11 0 14 129 6 285 -1 22 -1 42 0
45 8 22 4 60 -7 60 -9 0 -12 -48 -12 -195z"/>
<path d="M2585 962 c-8 -9 9 -41 19 -35 16 11 36 12 36 4 0 -5 -15 -13 -32
-19 l-33 -11 33 3 c18 1 35 -1 38 -6 7 -11 34 -10 34 2 0 5 -6 7 -14 4 -10 -4
-12 2 -9 20 3 16 13 26 27 29 11 2 -5 5 -37 8 -32 2 -60 3 -62 1z"/>
<path d="M520 951 c0 -7 -4 -9 -10 -6 -5 3 -10 1 -10 -4 0 -6 4 -11 9 -11 13
0 25 20 17 27 -3 4 -6 1 -6 -6z"/>
<path d="M1290 946 c0 -9 -7 -12 -20 -9 -11 3 -20 0 -20 -6 0 -15 33 -14 48 1
15 15 16 28 2 28 -5 0 -10 -6 -10 -14z"/>
<path d="M2729 947 c14 -14 15 -37 1 -37 -5 0 -20 -10 -32 -22 -14 -14 -16
-19 -5 -15 10 4 17 0 20 -11 4 -13 5 -11 6 5 1 16 6 20 21 16 15 -4 18 -1 15
16 -3 18 -1 19 16 8 25 -16 24 -33 -3 -41 -21 -6 -22 -7 -6 -20 10 -7 14 -17
10 -21 -4 -5 -1 -5 6 -1 6 4 12 14 12 22 0 20 18 18 22 -3 2 -12 6 -14 11 -6
4 6 0 19 -9 27 -14 15 -13 16 8 17 23 1 23 1 -2 9 -17 5 -19 8 -7 9 9 1 17 6
17 12 0 5 -8 9 -17 8 -24 -4 -63 10 -63 22 0 6 7 6 18 0 9 -5 28 -8 42 -7 14
1 28 -5 32 -14 6 -13 7 -12 7 2 1 12 9 16 31 16 22 -1 29 -5 26 -15 -3 -7 1
-13 10 -13 22 0 12 23 -17 37 -31 16 -186 16 -170 0z"/>
<path d="M1127 944 c-11 -12 -8 -54 4 -54 6 0 24 -9 41 -21 16 -12 32 -19 35
-16 2 3 -9 13 -26 22 -38 19 -39 25 -6 23 14 -1 25 -6 25 -11 0 -4 6 -7 13 -6
26 3 37 -2 37 -16 0 -9 -6 -12 -17 -8 -15 5 -16 3 -5 -8 6 -7 12 -22 12 -32 0
-15 -5 -18 -22 -14 -12 4 -28 1 -35 -5 -10 -8 -13 -7 -13 5 0 9 8 18 18 20 16
4 16 5 0 6 -10 0 -18 7 -18 15 0 16 -27 29 -41 20 -5 -3 -9 -11 -9 -17 0 -8 3
-8 9 1 6 10 10 10 21 -3 8 -10 9 -15 1 -15 -6 0 -11 -12 -11 -27 0 -14 3 -23
7 -20 3 4 12 2 20 -4 9 -8 17 -8 26 -1 7 6 18 7 25 3 9 -5 9 -12 -3 -27 -13
-17 -14 -17 -15 -2 0 12 -5 15 -15 11 -11 -4 -14 -14 -11 -33 3 -21 -1 -29
-14 -33 -13 -3 -17 -11 -13 -26 5 -21 23 -30 23 -11 0 6 10 10 23 10 16 0 18
-3 9 -9 -9 -5 -3 -8 17 -7 43 1 33 20 -15 27 -34 6 -36 7 -16 14 12 4 22 11
22 16 0 5 -6 6 -13 3 -8 -3 -14 2 -14 11 0 8 5 15 11 14 31 -4 45 3 49 24 4
22 4 22 6 -2 1 -19 5 -22 22 -18 25 7 51 -2 43 -14 -3 -5 -1 -9 4 -9 5 0 12
12 14 28 4 26 2 27 -29 24 -25 -3 -33 0 -33 12 0 9 -4 16 -10 16 -13 0 -13 37
-1 42 5 2 7 15 4 31 -4 22 -11 27 -34 27 -15 0 -30 4 -34 10 -4 6 -15 6 -32
-1 -29 -11 -46 -3 -23 11 10 6 12 12 4 20 -6 6 -13 7 -17 4z"/>
<path d="M2290 928 c0 -7 -3 -23 -6 -35 -4 -13 -2 -23 3 -23 5 0 10 16 11 35
2 19 0 35 -3 35 -3 0 -5 -6 -5 -12z"/>
<path d="M2350 870 c0 -40 4 -70 10 -70 6 0 10 30 10 70 0 40 -4 70 -10 70 -6
0 -10 -30 -10 -70z"/>
<path d="M540 915 c10 -12 10 -15 -3 -15 -9 0 -19 5 -22 11 -5 7 -14 4 -26 -7
-21 -19 -25 -44 -8 -44 5 0 7 5 4 10 -7 11 -6 11 42 15 18 1 30 -1 27 -6 -3
-5 -1 -9 4 -9 19 0 20 28 3 44 -22 20 -38 21 -21 1z"/>
<path d="M1208 923 c6 -2 18 -2 25 0 6 3 1 5 -13 5 -14 0 -19 -2 -12 -5z"/>
<path d="M430 900 c0 -11 5 -20 10 -20 6 0 10 9 10 20 0 11 -4 20 -10 20 -5 0
-10 -9 -10 -20z"/>
<path d="M2477 913 c-7 -12 -1 -139 7 -151 3 -6 2 -13 -4 -17 -5 -3 -10 -11
-10 -16 0 -6 5 -7 10 -4 6 3 10 1 10 -4 0 -6 -4 -11 -9 -11 -13 0 -6 -199 7
-212 14 -14 13 31 -1 50 -6 7 -6 12 0 12 5 0 9 76 9 180 0 160 -4 198 -19 173z"/>
<path d="M2935 900 c-3 -5 -1 -10 4 -10 6 0 11 5 11 10 0 6 -2 10 -4 10 -3 0
-8 -4 -11 -10z"/>
<path d="M2967 903 c-4 -3 -7 -20 -8 -37 0 -25 -2 -27 -8 -12 -6 17 -8 17 -14
4 -3 -10 0 -19 10 -22 11 -4 14 -16 11 -40 -3 -28 -1 -32 14 -28 10 2 21 9 25
15 4 6 0 8 -10 4 -15 -5 -17 1 -17 48 0 43 3 55 16 55 8 0 12 5 9 10 -7 12
-19 13 -28 3z"/>
<path d="M2516 877 c-5 -15 -6 -31 -2 -34 11 -11 18 5 14 34 l-4 28 -8 -28z"/>
<path d="M2850 886 c0 -8 -4 -16 -9 -18 -4 -1 -5 -12 0 -23 7 -19 8 -19 8 3 1
13 5 21 10 17 5 -3 11 1 13 10 2 9 8 11 16 6 16 -10 5 -41 -16 -41 -23 0 -7
-11 20 -14 21 -2 24 1 23 28 0 17 -4 34 -10 38 -17 13 -55 9 -55 -6z"/>
<path d="M590 880 c0 -5 5 -10 10 -10 6 0 10 5 10 10 0 6 -4 10 -10 10 -5 0
-10 -4 -10 -10z"/>
<path d="M2583 875 c0 -8 4 -15 9 -15 4 0 8 4 8 9 0 6 -4 12 -8 15 -5 3 -9 -1
-9 -9z"/>
<path d="M2620 868 c0 -22 -3 -25 -22 -20 -20 5 -21 4 -8 -9 8 -8 22 -18 31
-21 12 -5 15 1 15 27 -2 40 -16 60 -16 23z"/>
<path d="M1497 858 c-4 -12 -4 -24 -2 -27 3 -2 5 1 5 7 0 7 7 12 16 12 9 0 14
5 12 12 -7 21 -25 19 -31 -4z"/>
<path d="M1540 865 c0 -8 5 -15 10 -15 6 0 10 7 10 15 0 8 -4 15 -10 15 -5 0
-10 -7 -10 -15z"/>
<path d="M2985 870 c3 -5 8 -10 11 -10 2 0 4 5 4 10 0 6 -5 10 -11 10 -5 0 -7
-4 -4 -10z"/>
<path d="M1072 858 c-17 -17 -15 -38 3 -38 13 0 14 -4 5 -20 -8 -16 -8 -20 4
-20 7 0 13 7 12 16 0 9 5 19 13 22 8 3 11 0 7 -7 -4 -6 -2 -11 3 -11 6 0 11 7
11 15 0 8 -7 15 -15 15 -9 0 -19 9 -23 20 -6 16 -10 18 -20 8z"/>
<path d="M910 848 c0 -4 11 -8 25 -8 14 0 25 4 25 10 0 5 -11 9 -25 8 -14 -1
-25 -6 -25 -10z"/>
<path d="M2280 685 c0 -110 -4 -175 -10 -175 -5 0 -10 5 -10 11 0 5 -5 7 -12
3 -7 -4 -32 -9 -56 -11 -44 -3 -72 -16 -72 -35 0 -5 5 -6 12 -2 6 4 26 7 45 6
18 -1 33 3 33 8 0 6 5 10 11 10 5 0 7 -5 4 -11 -4 -6 -1 -10 6 -8 27 3 104 -4
83 -8 -29 -5 -40 -43 -13 -43 21 0 26 15 7 24 -7 3 -4 4 7 3 11 -2 19 -9 17
-15 -1 -7 9 -12 24 -12 20 0 25 4 20 16 -5 13 -3 14 6 6 8 -6 31 -7 63 -2 54
9 69 3 55 -20 -7 -12 -12 -12 -22 -2 -16 16 -28 15 -28 -1 0 -10 14 -14 46
-13 26 0 42 2 37 3 -12 4 -5 43 7 43 5 0 15 -7 24 -15 10 -11 36 -15 90 -15
80 0 93 7 50 27 -26 12 -54 8 -54 -8 0 -5 -16 -9 -35 -9 -24 0 -35 5 -35 15 0
9 -9 15 -25 15 -23 0 -25 4 -25 45 0 25 -4 45 -10 45 -11 0 -8 -70 4 -89 4 -6
3 -11 -3 -11 -5 0 -13 5 -16 11 -4 6 -14 7 -24 4 -35 -14 -130 -14 -142 1 -6
8 -22 14 -36 14 -20 0 -22 3 -13 20 12 23 11 350 -2 350 -4 0 -8 -79 -8 -175z"/>
<path d="M2680 828 c0 -36 10 -32 14 6 2 14 -1 26 -5 26 -5 0 -9 -14 -9 -32z"/>
<path d="M2731 844 c0 -11 3 -14 6 -6 3 7 2 16 -1 19 -3 4 -6 -2 -5 -13z"/>
<path d="M1460 805 c0 -19 4 -35 8 -35 5 0 8 16 8 35 -1 19 -4 35 -8 35 -5 0
-8 -16 -8 -35z"/>
<path d="M1538 833 c7 -3 16 -2 19 1 4 3 -2 6 -13 5 -11 0 -14 -3 -6 -6z"/>
<path d="M2706 824 c-8 -20 -8 -24 2 -24 4 0 8 9 9 20 2 24 -3 26 -11 4z"/>
<path d="M2754 826 c5 -14 2 -17 -10 -12 -12 4 -15 2 -10 -9 4 -11 -1 -15 -17
-15 -14 0 -18 -3 -10 -8 8 -5 9 -13 3 -22 -7 -11 -10 -12 -10 -2 0 7 -4 10
-10 7 -5 -3 -10 2 -10 12 0 16 -1 16 -17 0 -21 -20 -18 -24 30 -30 26 -3 37
-1 37 8 0 15 18 30 47 39 18 6 22 4 17 -9 -4 -10 -14 -14 -28 -10 -19 5 -20 5
-3 -6 14 -8 22 -8 30 0 6 6 15 7 22 1 7 -6 11 -3 11 11 0 10 -5 19 -11 19 -5
0 -3 5 5 11 11 8 7 9 -17 4 -24 -5 -34 -2 -43 12 -11 17 -11 17 -6 -1z"/>
<path d="M854 822 c-6 -4 -13 -15 -17 -24 -5 -15 -1 -16 26 -11 39 7 41 8 34
28 -7 16 -25 19 -43 7z"/>
<path d="M970 815 c0 -8 4 -15 10 -15 5 0 7 7 4 15 -4 8 -8 15 -10 15 -2 0 -4
-7 -4 -15z"/>
<path d="M1024 821 c4 -5 -2 -12 -11 -14 -15 -4 -16 -5 -2 -6 19 -1 33 -71 14
-71 -5 0 -3 -5 5 -10 12 -8 11 -10 -7 -10 -13 0 -23 -6 -23 -14 0 -8 10 -17
23 -19 19 -4 18 -4 -5 -6 -28 -1 -28 0 -28 59 0 33 -3 60 -7 60 -9 0 -7 -149
1 -158 3 -3 6 2 6 11 0 10 8 17 20 17 13 0 20 -7 20 -18 0 -10 6 -19 13 -19 8
0 14 6 14 14 0 7 -4 13 -8 13 -4 0 -5 9 -2 20 4 16 0 20 -18 21 l-24 0 23 10
c21 8 23 14 19 54 -3 34 0 45 12 47 10 2 5 7 -13 16 -15 7 -25 8 -22 3z"/>
<path d="M1492 750 c-2 -68 -4 -73 -17 -56 -14 18 -15 19 -15 2 0 -13 -5 -17
-20 -13 -12 3 -18 1 -14 -5 4 -6 -2 -8 -16 -3 -17 5 -21 4 -15 -6 5 -8 4 -10
0 -6 -26 23 -4 67 22 45 9 -7 13 -7 13 1 0 6 -3 11 -7 12 -5 0 -18 2 -30 3
-17 2 -23 -3 -23 -16 0 -13 -7 -18 -25 -18 -14 0 -25 6 -25 13 0 6 -5 4 -11
-6 -6 -9 -14 -15 -19 -12 -5 3 -11 1 -15 -5 -3 -5 -1 -10 5 -10 6 0 9 -3 7 -7
-5 -8 24 -41 30 -35 9 8 23 0 23 -14 0 -8 -4 -12 -10 -9 -5 3 -10 1 -10 -4 0
-6 5 -11 11 -11 5 0 9 -10 7 -22 -2 -19 2 -24 25 -26 19 -2 27 1 27 12 0 8 3
21 6 30 5 12 0 16 -17 15 -18 -1 -19 -3 -6 -6 20 -5 13 -23 -10 -23 -11 0 -14
8 -11 30 2 16 0 31 -6 33 -5 2 -6 9 -2 16 6 9 11 10 15 2 5 -7 18 -8 41 -1 53
14 99 19 104 12 2 -4 7 -26 11 -49 l7 -42 -38 3 c-20 1 -42 10 -49 19 -12 16
-25 13 -25 -5 0 -5 5 -6 11 -2 7 4 10 1 7 -7 -3 -8 -11 -13 -17 -11 -7 1 -10
-1 -7 -6 3 -5 30 -7 59 -4 56 4 81 -9 57 -31 -9 -9 -14 -8 -24 5 -11 15 -16
14 -54 -10 -23 -15 -42 -33 -42 -40 0 -9 -7 -11 -19 -7 -11 3 -23 1 -26 -6 -6
-8 -10 -8 -16 2 -4 7 -11 10 -16 6 -4 -5 -2 -11 4 -15 7 -5 9 -13 4 -21 -7
-10 -13 -11 -30 -1 -25 13 -61 5 -61 -15 0 -10 -9 -11 -35 -5 -27 6 -35 5 -35
-6 0 -18 26 -30 83 -38 26 -4 47 -11 47 -16 0 -4 -9 -6 -20 -3 -11 3 -20 1
-20 -5 0 -6 -9 -14 -20 -17 -11 -3 -20 -11 -20 -17 0 -7 4 -7 13 -1 20 17 70
26 61 12 -5 -9 -2 -10 9 -6 10 3 17 2 17 -2 0 -5 -7 -11 -15 -15 -8 -3 -15 -1
-15 5 0 6 -7 6 -20 -1 -34 -18 -177 0 -165 21 3 5 -6 11 -20 15 -14 3 -24 9
-21 12 8 8 96 -19 91 -28 -3 -5 4 -6 15 -3 11 3 20 9 20 14 0 5 8 6 18 3 14
-5 14 -3 -2 10 -24 19 -40 21 -30 4 6 -10 4 -10 -7 -2 -8 6 -54 11 -103 12
-49 1 -91 4 -94 7 -11 11 9 17 60 17 30 -1 56 4 60 11 6 9 8 9 8 0 0 -8 13
-13 30 -13 17 0 30 5 30 10 0 9 -32 15 -70 12 -8 0 -41 -2 -72 -3 -47 -2 -57
-6 -62 -22 -3 -11 -1 -28 4 -36 6 -10 10 -11 10 -3 0 18 52 4 69 -19 7 -11 18
-19 23 -19 6 0 5 7 -2 15 -10 13 -9 15 9 15 14 0 20 -4 15 -11 -9 -15 14 -29
48 -29 20 0 26 -5 25 -19 -1 -15 -4 -17 -14 -9 -10 8 -13 6 -13 -6 0 -9 -5
-16 -11 -16 -6 0 -8 8 -4 19 5 17 2 18 -40 10 -27 -5 -55 -5 -70 1 -19 7 -25
6 -25 -4 0 -11 14 -14 55 -14 38 1 60 -4 73 -15 16 -15 20 -15 40 -1 12 8 22
23 23 32 0 14 2 13 9 -3 7 -17 9 -17 9 -2 1 10 8 17 19 16 10 0 12 -3 5 -6 -7
-2 -13 -9 -13 -15 0 -6 8 -7 18 -3 9 4 31 9 47 12 17 2 34 8 39 13 5 5 14 6
21 4 7 -3 16 0 21 7 4 8 3 10 -4 5 -7 -4 -12 -2 -12 3 0 6 6 11 13 11 7 0 23
9 35 20 12 12 22 16 22 10 0 -7 13 -1 29 12 15 13 26 27 23 32 -2 4 -8 2 -13
-5 -6 -11 -9 -10 -15 4 -10 26 2 32 31 17 21 -11 28 -11 38 -1 10 11 7 12 -13
7 -14 -3 -19 -3 -12 0 19 9 14 30 -8 31 -11 1 -20 -3 -20 -10 0 -7 -7 -5 -16
5 -9 9 -13 21 -10 27 9 14 36 14 36 1 0 -20 27 -9 38 15 6 14 19 25 29 25 14
0 14 -3 -4 -22 -30 -33 -11 -68 25 -45 6 5 16 6 21 2 5 -3 12 -1 16 5 3 5 1
10 -5 10 -6 0 -11 10 -10 23 1 12 1 24 0 27 -8 22 -5 37 7 37 7 0 12 -6 9 -14
-3 -7 1 -13 9 -13 8 0 15 5 15 11 0 5 4 7 10 4 6 -4 4 -17 -5 -36 -9 -16 -11
-29 -6 -29 18 0 21 -33 4 -46 -21 -16 -47 -18 -38 -4 3 6 -1 10 -9 10 -9 0
-16 -7 -16 -15 0 -8 -6 -12 -14 -9 -8 3 -16 1 -19 -3 -3 -5 46 -9 109 -9 104
-1 113 0 101 15 -8 9 -17 24 -21 35 -5 15 -9 16 -21 6 -8 -7 -15 -17 -15 -22
0 -6 7 -5 15 2 12 10 15 10 15 -2 0 -7 -11 -15 -26 -16 -36 -3 -46 6 -34 29 6
11 7 19 1 19 -20 0 -19 31 3 57 13 16 26 35 29 43 3 8 6 10 6 3 1 -6 10 -9 22
-6 33 9 2 21 -43 17 -23 -2 -37 0 -33 5 3 5 1 12 -5 16 -6 4 -7 11 -4 17 4 6
2 8 -4 5 -12 -8 -4 -48 12 -60 6 -4 0 -7 -14 -5 -22 3 -25 7 -22 38 1 19 5 42
8 50 4 13 6 13 14 0 8 -12 11 -13 22 -2 11 11 10 13 -2 10 -12 -2 -16 10 -19
57 -2 43 -5 54 -11 40 -8 -19 -9 -19 -9 3 -1 12 4 22 9 22 6 0 10 8 10 18 0
14 -2 15 -10 2 -8 -13 -10 -13 -10 2 0 9 6 19 13 21 7 3 5 6 -5 6 -16 1 -18
-10 -18 -86 0 -61 -3 -83 -10 -73 -5 8 -10 10 -10 4 0 -6 3 -14 7 -18 14 -14
13 -46 -2 -46 -8 0 -15 7 -15 15 0 8 -4 15 -9 15 -5 0 -7 9 -4 20 4 14 0 20
-10 20 -13 0 -17 15 -20 78 l-3 77 -2 -75z m95 -77 c-3 -10 -5 -2 -5 17 0 19
2 27 5 18 2 -10 2 -26 0 -35z m-257 -23 c0 -5 -2 -10 -4 -10 -3 0 -8 5 -11 10
-3 6 -1 10 4 10 6 0 11 -4 11 -10z m230 -80 c0 -5 -10 -10 -22 -10 -19 0 -20
2 -8 10 19 13 30 13 30 0z m-183 -16 c-3 -3 -12 -4 -19 -1 -8 3 -5 6 6 6 11 1
17 -2 13 -5z m94 -38 c-9 -11 -9 -15 1 -19 10 -3 10 -7 1 -17 -10 -11 -14 -10
-19 3 -6 15 10 47 23 47 3 0 0 -6 -6 -14z m63 -41 c-4 -8 -10 -12 -15 -9 -11
6 -2 24 11 24 5 0 7 -7 4 -15z m-174 -35 c0 -5 -4 -10 -10 -10 -5 0 -10 5 -10
10 0 6 5 10 10 10 6 0 10 -4 10 -10z m48 -20 c-11 -17 -10 -22 1 -29 17 -11 5
-32 -14 -25 -8 4 -12 10 -9 15 3 5 3 9 0 9 -2 0 -13 3 -23 7 -16 6 -16 5 -4
-10 11 -15 10 -23 -3 -14 -2 1 -13 -7 -25 -17 -21 -19 -21 -19 -21 2 0 17 -8
21 -50 27 -27 4 -53 11 -56 16 -3 6 4 8 18 5 12 -3 37 -7 53 -10 17 -2 39 -8
49 -12 14 -5 17 -4 12 4 -4 7 -16 12 -27 12 -10 0 -19 3 -19 8 0 4 23 7 52 7
32 0 53 5 56 13 2 6 8 12 13 12 5 0 4 -9 -3 -20z m212 -4 c0 -3 -4 -8 -10 -11
-5 -3 -10 -1 -10 4 0 6 5 11 10 11 6 0 10 -2 10 -4z m-265 -77 c-10 -15 -25
-10 -19 6 4 8 10 12 15 9 5 -3 7 -10 4 -15z"/>
<path d="M2512 700 c0 -66 4 -120 9 -120 5 0 9 54 9 120 0 66 -4 120 -9 120
-4 0 -9 -54 -9 -120z"/>
<path d="M2924 808 c-5 -7 -3 -8 6 -3 10 6 12 4 7 -9 -4 -10 -3 -15 3 -11 13
8 13 35 1 35 -6 0 -13 -5 -17 -12z"/>
<path d="M1512 790 c0 -14 2 -19 5 -12 2 6 2 18 0 25 -3 6 -5 1 -5 -13z"/>
<path d="M2590 775 c0 -19 5 -35 11 -35 5 0 7 6 3 13 -6 9 -5 9 8 0 13 -11 15
-9 16 18 1 29 0 30 -13 13 -13 -18 -14 -18 -10 4 2 12 0 22 -6 22 -5 0 -9 -16
-9 -35z"/>
<path d="M2840 806 c0 -2 7 -7 16 -10 8 -3 12 -2 9 4 -6 10 -25 14 -25 6z"/>
<path d="M2901 783 c-1 -21 3 -32 11 -30 20 4 38 -44 26 -67 -15 -27 -19 -66
-7 -66 5 0 9 5 9 12 0 9 3 9 12 0 7 -7 21 -12 32 -12 18 0 18 1 -3 19 -20 17
-20 19 -4 32 11 10 14 10 9 2 -4 -7 -2 -13 3 -13 6 0 11 9 11 20 0 11 -4 20
-9 20 -5 0 -12 7 -15 16 -5 13 -3 14 7 6 10 -8 13 -6 14 10 2 17 -3 19 -24 15
-29 -5 -58 16 -66 48 -3 13 -5 9 -6 -12z m60 -106 c-8 -8 -11 -7 -11 4 0 20
13 34 18 19 3 -7 -1 -17 -7 -23z"/>
<path d="M1533 784 c0 -8 6 -14 14 -14 7 0 13 4 13 9 0 5 -6 11 -13 14 -8 3
-14 -1 -14 -9z"/>
<path d="M531 774 c0 -11 3 -14 6 -6 3 7 2 16 -1 19 -3 4 -6 -2 -5 -13z"/>
<path d="M900 780 c0 -5 -14 -10 -31 -10 -17 0 -28 -4 -24 -10 3 -5 1 -10 -4
-10 -6 0 -11 5 -11 11 0 6 -9 9 -20 6 -11 -3 -22 -2 -25 2 -2 4 -18 6 -35 3
-37 -5 -42 -38 -7 -51 27 -10 47 -4 47 15 0 16 36 19 45 4 4 -6 15 -6 31 0 19
7 23 7 18 -2 -5 -8 -2 -9 9 -5 9 3 19 2 22 -3 4 -6 17 -10 31 -10 21 0 23 3
14 19 -5 11 -7 27 -4 35 5 12 -1 16 -25 16 -17 0 -31 -4 -31 -10z m31 -19
c-11 -7 -11 -10 0 -14 9 -3 10 -6 2 -6 -18 -1 -27 20 -12 30 7 4 16 6 18 3 3
-3 -1 -9 -8 -13z m-151 -21 c-6 -11 -13 -20 -16 -20 -3 0 -3 4 0 9 3 5 -1 12
-10 15 -10 4 -13 2 -8 -6 4 -7 3 -8 -4 -4 -22 13 -12 26 18 26 28 0 30 -2 20
-20z"/>
<path d="M1000 755 c0 -19 2 -35 4 -35 2 0 6 16 8 35 2 19 0 35 -4 35 -4 0 -8
-16 -8 -35z"/>
<path d="M1682 723 c-1 -48 -6 -73 -14 -73 -6 0 -8 -3 -5 -6 4 -4 12 -2 19 4
15 12 32 -3 34 -30 1 -14 -6 -18 -30 -19 l-31 -1 30 -7 c28 -6 61 8 46 19 -3
3 -7 20 -9 39 -2 30 0 33 20 28 13 -2 31 -8 41 -12 10 -4 17 -3 17 4 0 6 -7
11 -16 11 -14 0 -15 2 -3 17 8 10 9 14 2 10 -8 -5 -13 7 -16 40 l-3 48 -4 -55
-3 -55 -7 55 -7 55 -1 -54 c-1 -30 -5 -52 -8 -48 -4 3 -14 -1 -23 -10 -15 -16
-16 -12 -22 48 l-6 64 -1 -72z"/>
<path d="M2350 756 c0 -20 5 -36 10 -36 6 0 10 13 10 29 0 17 -4 33 -10 36 -6
4 -10 -8 -10 -29z"/>
<path d="M1363 773 c9 -2 23 -2 30 0 6 3 -1 5 -18 5 -16 0 -22 -2 -12 -5z"/>
<path d="M1078 763 c6 -2 18 -2 25 0 6 3 1 5 -13 5 -14 0 -19 -2 -12 -5z"/>
<path d="M1801 754 c0 -11 3 -14 6 -6 3 7 2 16 -1 19 -3 4 -6 -2 -5 -13z"/>
<path d="M2431 754 c0 -11 3 -14 6 -6 3 7 2 16 -1 19 -3 4 -6 -2 -5 -13z"/>
<path d="M1134 749 c-4 -7 -3 -9 4 -5 5 3 13 0 15 -6 4 -9 6 -10 6 -1 1 17
-16 25 -25 12z"/>
<path d="M1351 738 c0 -16 2 -18 6 -8 3 8 11 18 17 22 7 5 4 8 -6 8 -12 0 -18
-7 -17 -22z"/>
<path d="M1417 743 c11 -10 23 -27 26 -38 3 -11 5 -2 5 20 0 22 -2 34 -5 28
-3 -10 -10 -10 -26 -2 l-22 10 22 -18z"/>
<path d="M1462 740 c0 -14 2 -19 5 -12 2 6 2 18 0 25 -3 6 -5 1 -5 -13z"/>
<path d="M1512 740 c0 -14 2 -19 5 -12 2 6 2 18 0 25 -3 6 -5 1 -5 -13z"/>
<path d="M1532 740 c0 -14 2 -19 5 -12 2 6 2 18 0 25 -3 6 -5 1 -5 -13z"/>
<path d="M1552 735 c0 -16 2 -22 5 -12 2 9 2 23 0 30 -3 6 -5 -1 -5 -18z"/>
<path d="M2741 753 c1 -4 1 -16 0 -26 -1 -16 -4 -16 -35 -3 -30 13 -34 13 -29
0 4 -11 0 -13 -18 -6 -13 4 -35 7 -49 7 -22 0 -25 -4 -22 -30 2 -16 5 -31 6
-33 2 -1 22 -3 45 -4 30 -1 40 -5 37 -15 -3 -7 -1 -13 3 -13 5 0 11 4 13 9 2
6 40 11 86 12 123 3 99 14 -33 15 -64 0 -120 5 -125 10 -6 6 6 8 32 6 26 -3
38 -1 34 6 -3 5 1 12 9 16 8 3 17 1 20 -4 3 -4 -1 -11 -7 -13 -7 -3 8 -6 33
-6 33 -1 49 3 53 14 3 9 19 15 38 16 l33 1 -27 10 c-16 5 -28 14 -28 19 0 5
-7 9 -15 9 -8 0 -15 -4 -15 -10 0 -5 -7 -10 -16 -10 -8 0 -13 4 -9 9 3 5 1 13
-5 16 -6 4 -10 3 -9 -2z m43 -50 c-21 -15 -48 -18 -39 -3 3 6 12 10 20 10 7 0
16 8 20 18 6 13 8 14 13 3 2 -8 -3 -20 -14 -28z m-114 -5 c0 -6 -7 -7 -16 -4
-9 3 -23 6 -32 6 -14 0 -14 2 -3 9 16 10 51 3 51 -11z"/>
<path d="M2837 754 c-12 -12 4 -24 33 -24 26 0 29 -4 28 -25 -1 -14 -9 -25
-17 -25 -11 0 -12 -3 -4 -11 13 -13 36 -2 30 14 -2 7 0 22 4 35 9 23 4 26 -40
22 -14 -1 -21 2 -17 9 8 12 -6 15 -17 5z"/>
<path d="M581 728 c-1 -10 19 -28 49 -45 28 -15 48 -33 46 -40 -3 -7 1 -10 10
-6 10 4 12 9 4 18 -5 6 -6 16 -2 20 4 5 2 5 -5 1 -14 -8 -88 36 -96 56 -4 9
-6 7 -6 -4z"/>
<path d="M6 721 c-3 -5 1 -11 9 -15 8 -3 15 -10 15 -15 0 -6 -7 -8 -15 -5 -9
4 -15 0 -15 -10 0 -9 8 -16 20 -16 15 0 20 7 20 25 0 21 5 25 32 25 41 0 33 6
-19 14 -23 3 -44 2 -47 -3z"/>
<path d="M545 721 c-3 -5 -1 -12 5 -16 5 -3 10 1 10 9 0 18 -6 21 -15 7z"/>
<path d="M620 720 c0 -5 5 -10 11 -10 5 0 7 5 4 10 -3 6 -8 10 -11 10 -2 0 -4
-4 -4 -10z"/>
<path d="M1081 714 c10 -13 10 -17 -2 -25 -8 -5 -9 -9 -3 -9 6 0 10 -13 9 -30
-1 -21 4 -31 17 -36 24 -7 37 3 14 12 -9 3 -16 13 -16 21 0 8 5 11 10 8 6 -4
10 6 9 22 0 25 -1 26 -9 8 -8 -18 -9 -17 -9 8 -1 16 3 26 9 22 6 -3 10 -1 10
4 0 6 -12 11 -26 11 -23 0 -25 -2 -13 -16z"/>
<path d="M1248 723 c12 -2 30 -2 40 0 9 3 -1 5 -23 4 -22 0 -30 -2 -17 -4z"/>
<path d="M855 704 c17 -17 45 -18 45 -1 0 7 -13 13 -30 13 -25 1 -27 0 -15
-12z"/>
<path d="M546 682 c36 -26 74 -46 74 -38 0 4 -100 66 -107 66 -3 0 12 -13 33
-28z"/>
<path d="M1225 700 c-9 -14 32 -17 49 -4 16 11 15 13 -13 12 -18 -1 -34 -4
-36 -8z"/>
<path d="M1531 694 c0 -11 3 -14 6 -6 3 7 2 16 -1 19 -3 4 -6 -2 -5 -13z"/>
<path d="M2310 690 c0 -11 6 -20 14 -20 9 0 14 9 13 20 -1 11 -7 20 -14 20 -7
0 -13 -9 -13 -20z"/>
<path d="M2348 654 c-1 -31 -1 -57 1 -60 8 -8 5 -84 -3 -87 -5 -2 -6 -9 -2
-15 4 -7 33 -12 73 -12 57 0 64 2 53 15 -8 9 -30 15 -56 15 l-44 0 -1 48 c-1
26 -1 71 1 100 3 70 -17 67 -22 -4z"/>
<path d="M570 696 c0 -3 9 -10 20 -16 11 -6 20 -8 20 -6 0 3 -9 10 -20 16 -11
6 -20 8 -20 6z"/>
<path d="M2804 688 c-3 -4 8 -8 25 -8 16 0 33 5 36 10 4 7 -6 10 -25 8 -17 -1
-34 -6 -36 -10z"/>
<path d="M627 659 c7 -7 15 -10 18 -7 3 3 -2 9 -12 12 -14 6 -15 5 -6 -5z"/>
<path d="M2316 652 c-6 -9 2 -83 9 -91 3 -2 5 19 5 47 0 50 -3 61 -14 44z"/>
<path d="M1760 630 c13 -24 35 -27 26 -4 -3 9 -6 18 -6 20 0 2 -7 4 -15 4 -13
0 -14 -4 -5 -20z"/>
<path d="M2593 624 c-9 -20 -8 -26 7 -34 24 -13 33 -13 25 0 -11 17 47 11 67
-7 18 -16 19 -16 25 5 6 24 18 28 29 10 4 -7 3 -8 -4 -4 -7 4 -12 1 -12 -8 0
-19 31 -21 49 -3 11 10 13 8 8 -10 -2 -12 0 -24 6 -26 14 -4 -1 -27 -19 -27
-8 0 -13 3 -13 8 1 4 1 14 0 22 -1 11 -3 12 -9 3 -6 -10 -14 -9 -36 2 -35 18
-36 18 -36 0 0 -17 -35 -21 -45 -5 -3 6 4 14 16 18 15 6 19 11 10 16 -6 4 -18
3 -25 -3 -16 -14 -26 -70 -14 -77 4 -3 8 2 8 10 0 10 9 16 24 16 13 0 32 3 41
7 14 5 16 2 10 -18 -7 -22 -7 -22 9 -6 19 19 36 14 36 -9 0 -20 -125 -20 -146
0 -9 9 -10 17 -4 21 14 8 13 45 -1 45 -6 0 -9 -6 -6 -14 3 -7 1 -18 -5 -24 -7
-7 -6 -17 1 -31 9 -17 21 -21 57 -21 25 0 58 -7 73 -15 16 -8 31 -11 35 -8 3
4 6 1 6 -5 0 -7 5 -12 12 -12 6 0 4 8 -6 19 -14 15 -15 24 -7 38 6 10 11 14
11 9 0 -5 6 -4 13 2 7 6 31 7 60 3 42 -7 47 -6 47 12 0 14 4 17 18 12 9 -4 34
-9 54 -12 36 -5 37 -4 35 25 -2 24 -5 27 -19 19 -12 -8 -21 -7 -31 1 -12 10
-18 10 -29 -1 -15 -15 -80 -29 -72 -15 3 5 -6 6 -20 2 -16 -4 -26 -2 -26 5 0
11 19 16 53 13 10 -1 25 5 34 14 12 11 18 12 23 4 5 -9 9 -9 14 -1 4 6 2 11
-3 11 -6 0 -11 7 -11 15 0 8 -6 16 -12 16 -7 1 -23 3 -35 4 -12 1 -20 -1 -17
-6 2 -4 11 -6 19 -2 10 3 15 -2 15 -16 0 -26 -11 -27 -39 -2 -22 20 -49 18
-63 -3 -5 -7 -13 -3 -22 10 -11 15 -23 20 -41 17 -25 -5 -36 -23 -13 -23 6 0
8 -3 5 -6 -4 -4 -12 -2 -19 3 -7 6 -22 10 -33 10 -11 0 -26 -4 -33 -10 -7 -5
-16 -7 -19 -3 -4 4 -2 10 4 14 7 4 9 13 5 19 -5 7 -11 3 -19 -13z m377 -84 c0
-5 -4 -10 -10 -10 -5 0 -10 5 -10 10 0 6 5 10 10 10 6 0 10 -4 10 -10z"/>
<path d="M630 632 c0 -14 24 -32 42 -32 10 0 18 5 18 11 0 6 -7 9 -15 5 -8 -3
-15 -1 -15 3 0 5 -7 11 -15 15 -8 3 -15 2 -15 -2z"/>
<path d="M1405 630 l-40 -7 43 -2 c23 0 42 4 42 9 0 6 -1 9 -2 9 -2 -1 -21 -5
-43 -9z"/>
<path d="M304 607 c1 -20 4 -23 14 -15 7 6 9 14 5 17 -4 4 -11 10 -14 14 -4 5
-6 -3 -5 -16z"/>
<path d="M718 623 c7 -3 16 -2 19 1 4 3 -2 6 -13 5 -11 0 -14 -3 -6 -6z"/>
<path d="M1660 620 c0 -5 9 -10 21 -10 11 0 17 5 14 10 -3 6 -13 10 -21 10 -8
0 -14 -4 -14 -10z"/>
<path d="M452 608 c-7 -7 -12 -20 -12 -30 0 -16 3 -17 23 -6 19 11 20 13 4 16
-14 3 -16 7 -6 18 14 17 8 19 -9 2z"/>
<path d="M550 606 c14 -7 36 -16 50 -20 14 -3 7 3 -15 13 -45 22 -73 27 -35 7z"/>
<path d="M740 598 c0 -5 6 -8 13 -8 6 0 23 -3 36 -7 16 -4 22 -3 18 5 -4 5 -2
12 5 14 6 2 -7 4 -30 4 -23 -1 -42 -4 -42 -8z"/>
<path d="M2940 601 c0 -11 31 -24 39 -16 3 3 -1 10 -9 15 -19 12 -30 12 -30 1z"/>
<path d="M1468 593 c7 -3 16 -2 19 1 4 3 -2 6 -13 5 -11 0 -14 -3 -6 -6z"/>
<path d="M1775 590 c3 -5 8 -10 11 -10 2 0 4 5 4 10 0 6 -5 10 -11 10 -5 0 -7
-4 -4 -10z"/>
<path d="M490 576 c0 -9 5 -16 10 -16 6 0 10 4 10 9 0 6 -4 13 -10 16 -5 3
-10 -1 -10 -9z"/>
<path d="M1294 574 c-16 -25 -279 -83 -286 -63 -2 4 -32 10 -68 13 -36 4 -75
9 -87 12 -23 6 -33 -11 -12 -18 6 -2 -29 -2 -78 -1 -48 2 -89 8 -91 13 -2 6
-9 10 -14 10 -6 0 -8 -3 -5 -7 4 -3 3 -11 -3 -17 -5 -7 -5 -17 2 -26 8 -12 9
-12 4 2 -3 10 -1 20 4 23 6 4 10 -5 10 -19 0 -14 5 -26 11 -26 6 0 9 9 6 20
-3 11 -1 20 5 20 5 0 12 -9 15 -20 3 -11 10 -20 15 -20 6 0 8 7 4 15 -6 17 44
21 215 16 37 -1 48 -5 52 -20 2 -10 1 -25 -4 -32 -7 -12 -9 -11 -10 1 -1 8 -1
18 0 23 0 4 -6 7 -14 7 -8 0 -15 -4 -15 -10 0 -5 5 -10 10 -10 6 0 10 -4 10
-10 0 -5 -7 -10 -15 -10 -8 0 -15 9 -15 20 0 11 -4 20 -10 20 -5 0 -9 -5 -7
-12 1 -6 -9 -12 -23 -12 -14 0 -29 -7 -34 -15 -8 -13 -10 -12 -17 4 -7 19 -8
18 -8 -2 -1 -16 5 -23 18 -23 11 0 23 5 26 10 15 24 35 9 35 -26 0 -29 -3 -35
-16 -30 -10 4 -13 2 -8 -6 5 -8 2 -9 -12 -3 -10 4 -34 7 -53 6 -41 -2 -66 16
-50 35 6 8 20 14 30 14 24 0 24 12 0 27 -15 10 -20 9 -25 -2 -7 -19 -23 -19
-43 0 -21 21 -37 14 -41 -18 -3 -25 -2 -26 30 -16 41 11 57 11 39 0 -12 -8
-12 -12 -2 -25 9 -11 10 -16 2 -16 -21 0 -26 2 -23 11 5 18 -47 9 -58 -10 -13
-25 -14 -53 -1 -32 5 7 14 10 20 7 6 -4 11 -2 11 3 0 6 -4 11 -10 11 -5 0 -10
5 -10 12 0 7 7 5 18 -5 14 -13 36 -15 112 -13 62 3 97 0 102 -7 4 -6 11 -8 15
-3 4 5 3 11 -3 13 -7 2 -9 16 -5 36 l7 32 69 1 c44 0 70 5 73 12 2 7 11 12 20
12 15 0 15 -2 2 -10 -11 -7 -6 -10 21 -10 19 0 40 5 45 10 6 6 27 12 48 14 20
2 40 7 44 11 4 4 -10 6 -30 3 -31 -3 -38 -1 -38 14 0 10 -4 18 -10 18 -5 0
-10 -4 -10 -8 0 -5 -6 -16 -13 -26 -12 -17 -15 -17 -50 0 -20 10 -37 21 -37
25 0 3 17 9 38 12 20 3 52 9 71 13 25 5 32 4 27 -4 -5 -8 1 -12 18 -12 14 0
27 4 30 8 5 9 86 3 86 -7 0 -4 9 -7 20 -7 13 0 20 7 20 19 0 10 -5 15 -10 12
-6 -3 -25 -1 -43 6 -27 10 -38 9 -64 -5 -18 -9 -34 -12 -37 -7 -7 11 4 21 25
21 10 0 24 6 31 13 7 8 20 16 28 19 12 4 12 5 -1 10 -9 3 -20 0 -25 -8z m-254
-85 c0 -6 4 -7 10 -4 5 3 20 -1 32 -9 18 -13 19 -16 5 -16 -9 0 -17 -4 -17
-10 0 -5 -4 -10 -10 -10 -5 0 -10 7 -10 15 0 9 -9 15 -25 15 -30 0 -34 25 -5
27 11 1 20 -3 20 -8z"/>
<path d="M617 555 c-4 -8 -2 -17 3 -20 6 -4 10 3 10 14 0 25 -6 27 -13 6z"/>
<path d="M700 560 c0 -5 5 -10 10 -10 6 0 10 5 10 10 0 6 -4 10 -10 10 -5 0
-10 -4 -10 -10z"/>
<path d="M920 566 c0 -9 40 -13 46 -5 3 5 -6 9 -20 9 -14 0 -26 -2 -26 -4z"/>
<path d="M795 550 c-16 -7 -17 -9 -3 -9 9 -1 20 4 23 9 7 11 7 11 -20 0z"/>
<path d="M2540 541 c0 -11 6 -22 13 -24 10 -4 10 -6 0 -6 -7 -1 -13 -8 -13
-16 0 -18 20 -20 21 -2 0 6 2 24 3 40 1 16 -3 27 -11 27 -7 0 -13 -9 -13 -19z"/>
<path d="M2648 553 c7 -3 16 -2 19 1 4 3 -2 6 -13 5 -11 0 -14 -3 -6 -6z"/>
<path d="M470 518 c-19 -18 -27 -29 -17 -25 12 4 17 1 17 -11 0 -13 3 -11 16
7 12 17 19 20 25 10 6 -10 10 -10 23 0 13 11 17 11 22 -3 6 -15 7 -15 19 0 13
19 35 11 35 -11 0 -8 -16 -30 -35 -49 -19 -19 -37 -46 -41 -60 -4 -16 -10 -23
-18 -19 -6 4 -15 8 -21 8 -5 1 -9 6 -7 13 1 7 -2 12 -8 12 -10 0 -14 -13 -11
-40 2 -13 0 -13 -8 -1 -11 17 -43 22 -83 15 -48 -9 -31 -21 22 -16 l50 5 0
-37 c0 -30 4 -36 21 -36 17 0 19 5 15 30 -2 19 0 30 7 31 7 0 21 2 32 5 46 9
116 11 121 3 9 -15 21 -10 27 12 4 16 2 19 -11 14 -17 -7 -122 -16 -122 -11 0
9 59 63 64 59 2 -3 10 -2 16 2 9 6 9 10 -1 16 -8 5 -9 9 -3 9 6 0 23 -9 36
-20 14 -10 28 -16 32 -13 10 11 7 43 -5 43 -6 0 -9 -7 -5 -15 3 -8 1 -15 -4
-15 -6 0 -10 7 -10 16 0 8 -4 13 -9 10 -15 -10 -33 22 -26 44 6 19 3 21 -27
20 -51 -3 -104 1 -90 7 13 5 17 23 5 23 -5 0 -24 -15 -43 -32z m-3 -220 c-3
-7 -5 -2 -5 12 0 14 2 19 5 13 2 -7 2 -19 0 -25z"/>
<path d="M530 540 c0 -5 11 -10 25 -10 14 0 25 5 25 10 0 6 -11 10 -25 10 -14
0 -25 -4 -25 -10z"/>
<path d="M1028 543 c12 -2 30 -2 40 0 9 3 -1 5 -23 4 -22 0 -30 -2 -17 -4z"/>
<path d="M2315 539 c-4 -6 -5 -13 -2 -16 7 -7 27 6 27 18 0 12 -17 12 -25 -2z"/>
<path d="M300 503 c0 -8 16 -12 45 -11 25 0 45 4 45 8 0 5 -20 10 -45 12 -31
2 -45 -1 -45 -9z"/>
<path d="M1735 510 c-3 -5 -1 -10 4 -10 6 0 11 5 11 10 0 6 -2 10 -4 10 -3 0
-8 -4 -11 -10z"/>
<path d="M1575 500 c-3 -5 -1 -10 4 -10 6 0 11 5 11 10 0 6 -2 10 -4 10 -3 0
-8 -4 -11 -10z"/>
<path d="M2902 495 c-7 -8 -10 -15 -7 -15 3 0 -1 -13 -10 -30 -9 -16 -20 -30
-26 -30 -6 0 -7 6 -3 13 6 10 4 10 -7 0 -19 -18 -32 -16 -25 3 5 13 4 14 -7 6
-8 -7 -18 -8 -22 -4 -5 4 -5 2 -2 -4 8 -15 -20 -27 -29 -13 -3 5 -15 7 -25 4
-11 -4 -54 -7 -95 -7 -41 0 -74 -4 -74 -9 0 -16 20 -20 41 -8 12 6 19 7 15 1
-3 -5 12 -8 37 -6 23 2 60 5 82 5 22 1 45 5 52 11 8 6 19 5 33 -2 31 -17 69
-5 63 18 -4 17 0 18 44 12 26 -4 51 -6 56 -3 11 7 8 43 -4 43 -6 0 -9 -7 -5
-15 4 -11 -1 -14 -19 -13 -18 2 -25 8 -25 23 0 17 -2 18 -11 5 -8 -12 -10 -12
-7 -1 2 8 17 16 33 18 44 6 44 13 -1 13 -21 -1 -45 -7 -52 -15z"/>
<path d="M1270 490 c0 -5 9 -10 20 -10 11 0 20 5 20 10 0 6 -9 10 -20 10 -11
0 -20 -4 -20 -10z"/>
<path d="M78 483 c-48 -7 -30 -21 27 -22 42 0 55 3 55 14 0 17 -16 20 -25 5
-3 -5 -11 -10 -16 -10 -6 0 -7 5 -4 10 3 6 3 9 -2 9 -4 -1 -20 -4 -35 -6z"/>
<path d="M530 461 c0 -38 16 -48 30 -21 9 16 8 25 -1 36 -18 22 -29 17 -29
-15z"/>
<path d="M790 480 c0 -5 5 -10 11 -10 5 0 7 5 4 10 -3 6 -8 10 -11 10 -2 0 -4
-4 -4 -10z"/>
<path d="M855 480 c-19 -8 -19 -9 3 -9 12 -1 22 4 22 9 0 6 -1 10 -2 9 -2 0
-12 -4 -23 -9z"/>
<path d="M1135 480 c-3 -5 -1 -10 4 -10 6 0 11 5 11 10 0 6 -2 10 -4 10 -3 0
-8 -4 -11 -10z"/>
<path d="M2955 480 c-3 -5 -1 -10 4 -10 6 0 11 5 11 10 0 6 -2 10 -4 10 -3 0
-8 -4 -11 -10z"/>
<path d="M14 474 c-7 -3 -10 -13 -7 -24 4 -16 17 -19 85 -22 44 -2 82 1 85 5
3 4 11 3 19 -4 18 -15 31 -4 16 14 -7 8 -9 17 -5 20 3 4 1 7 -5 7 -7 0 -12 -5
-12 -11 0 -5 -4 -7 -10 -4 -5 3 -10 2 -10 -2 0 -5 -34 -9 -76 -11 -71 -2 -75
-1 -69 18 3 11 5 20 3 19 -2 0 -8 -3 -14 -5z"/>
<path d="M1650 472 c0 -5 14 -7 30 -4 17 2 30 6 30 8 0 2 -13 4 -30 4 -16 0
-30 -4 -30 -8z"/>
<path d="M280 450 c-6 -11 -8 -20 -6 -20 3 0 10 9 16 20 6 11 8 20 6 20 -3 0
-10 -9 -16 -20z"/>
<path d="M450 425 c0 -27 4 -44 10 -40 5 3 7 13 4 23 -4 12 -3 13 3 4 7 -9 16
-10 34 -3 l24 10 -24 0 c-16 1 -21 5 -17 16 3 9 -3 19 -14 25 -19 10 -20 7
-20 -35z"/>
<path d="M2590 460 c0 -5 5 -10 11 -10 5 0 7 5 4 10 -3 6 -8 10 -11 10 -2 0
-4 -4 -4 -10z"/>
<path d="M2620 460 c0 -5 5 -10 10 -10 6 0 10 5 10 10 0 6 -4 10 -10 10 -5 0
-10 -4 -10 -10z"/>
<path d="M373 453 c9 -2 17 -9 17 -14 0 -6 5 -7 10 -4 16 10 1 25 -23 24 -17
-1 -18 -2 -4 -6z"/>
<path d="M1865 431 c-6 -5 -28 -11 -50 -14 -25 -2 -13 -4 32 -5 49 -1 73 2 76
11 4 10 6 10 6 0 1 -7 6 -13 12 -13 8 0 7 5 -1 15 -9 11 -16 13 -24 5 -5 -5
-19 -10 -30 -10 -17 0 -18 2 -6 10 8 5 10 10 5 10 -6 0 -15 -4 -20 -9z"/>
<path d="M2394 413 c1 -14 -8 -16 -51 -14 -29 1 -53 -1 -53 -6 0 -4 27 -8 60
-9 56 0 60 1 60 23 0 13 -4 23 -9 23 -5 0 -8 -8 -7 -17z"/>
<path d="M240 409 c11 -7 7 -9 -20 -8 -59 2 -70 0 -70 -15 0 -9 -7 -12 -22 -9
-19 4 -20 3 -8 -6 22 -16 50 -13 50 5 0 13 13 15 85 12 47 -2 85 -6 85 -10 0
-5 4 -8 10 -8 5 0 7 7 4 15 -4 10 -20 15 -45 15 -21 0 -39 5 -39 10 0 6 -10
10 -22 10 -19 0 -20 -2 -8 -11z"/>
<path d="M288 413 c6 -2 18 -2 25 0 6 3 1 5 -13 5 -14 0 -19 -2 -12 -5z"/>
<path d="M346 410 c12 -5 25 -13 29 -19 8 -14 52 -14 60 -1 4 6 -8 10 -29 10
-20 0 -36 5 -36 10 0 6 -10 10 -22 9 l-23 0 21 -9z"/>
<path d="M624 405 c-3 -8 -10 -15 -16 -15 -5 0 -6 5 -2 12 4 7 3 8 -4 4 -7 -4
-12 -14 -12 -22 0 -17 -4 -17 44 0 38 13 38 14 17 25 -17 10 -22 9 -27 -4z"/>
<path d="M1960 405 c0 -9 -6 -12 -15 -9 -8 4 -15 1 -15 -5 0 -8 14 -9 43 -5
52 8 60 14 21 15 l-29 1 30 8 30 8 -32 1 c-23 1 -33 -4 -33 -14z"/>
<path d="M2040 413 c8 -4 20 -13 27 -22 10 -14 12 -13 10 7 -1 17 -7 22 -27
21 -15 0 -19 -3 -10 -6z"/>
<path d="M2123 413 c9 -2 25 -2 35 0 9 3 1 5 -18 5 -19 0 -27 -2 -17 -5z"/>
<path d="M2273 413 c9 -2 23 -2 30 0 6 3 -1 5 -18 5 -16 0 -22 -2 -12 -5z"/>
<path d="M2358 413 c7 -3 16 -2 19 1 4 3 -2 6 -13 5 -11 0 -14 -3 -6 -6z"/>
<path d="M2929 407 c4 -4 22 -11 39 -16 27 -8 32 -7 32 8 0 14 -8 17 -39 17
-22 -1 -37 -4 -32 -9z"/>
<path d="M2241 391 c-1 -18 2 -21 12 -12 8 6 17 8 20 4 4 -3 7 -1 7 6 0 7 -6
11 -14 8 -8 -3 -17 -1 -20 6 -2 7 -5 1 -5 -12z"/>
<path d="M18 393 c12 -2 32 -2 45 0 12 2 2 4 -23 4 -25 0 -35 -2 -22 -4z"/>
<path d="M90 391 c0 -5 9 -7 20 -4 11 3 20 7 20 9 0 2 -9 4 -20 4 -11 0 -20
-4 -20 -9z"/>
<path d="M1790 390 c0 -5 5 -10 10 -10 6 0 10 5 10 10 0 6 -4 10 -10 10 -5 0
-10 -4 -10 -10z"/>
<path d="M1895 390 c-3 -5 1 -10 9 -10 9 0 16 5 16 10 0 6 -4 10 -9 10 -6 0
-13 -4 -16 -10z"/>
<path d="M2090 384 c0 -10 7 -11 23 -6 12 5 43 8 69 8 27 -1 48 3 48 7 0 4
-31 7 -70 6 -50 -1 -70 -6 -70 -15z"/>
<path d="M2420 389 c0 -5 5 -7 10 -4 6 3 10 8 10 11 0 2 -4 4 -10 4 -5 0 -10
-5 -10 -11z"/>
<path d="M2473 393 c15 -2 37 -2 50 0 12 2 0 4 -28 4 -27 0 -38 -2 -22 -4z"/>
<path d="M2790 390 c0 -5 -20 -10 -45 -10 -25 0 -45 -4 -45 -10 0 -5 -5 -10
-11 -10 -5 0 -8 4 -5 9 4 5 -22 11 -55 13 -43 2 -63 -1 -66 -9 -4 -9 -29 -13
-80 -13 -49 0 -72 -4 -68 -10 4 -6 42 -10 92 -9 51 1 80 5 71 10 -7 5 -8 9 -3
10 6 0 30 2 55 3 l45 3 -37 -10 c-30 -8 -38 -15 -38 -34 0 -20 -3 -22 -19 -13
-25 13 -31 13 -31 0 0 -5 3 -9 8 -9 28 5 34 -3 29 -31 -4 -16 -2 -30 3 -30 14
0 20 15 22 58 l1 41 77 3 77 3 -10 -38 c-5 -21 -7 -41 -3 -44 10 -11 16 3 18
41 l1 36 59 0 c34 0 58 4 58 11 0 6 7 4 15 -5 8 -8 15 -19 15 -25 0 -5 9 -12
19 -16 21 -6 18 -36 -5 -56 -12 -10 -18 -8 -29 7 -8 10 -15 13 -15 7 0 -9 -7
-10 -25 -3 -19 7 -23 6 -18 -5 3 -8 9 -15 15 -15 5 0 6 -4 3 -10 -8 -13 8 -13
21 0 8 8 18 4 35 -10 l24 -21 -34 5 c-28 5 -32 4 -21 -8 8 -11 18 -12 36 -5
34 12 37 12 31 -6 -4 -8 -1 -17 5 -21 7 -4 8 -3 4 4 -4 7 -2 12 3 12 17 0 13
-18 -7 -29 -14 -7 -26 -5 -48 10 -16 10 -35 19 -41 19 -21 0 -15 -17 8 -23 13
-4 18 -10 13 -18 -5 -9 -1 -11 13 -7 11 3 28 1 38 -5 14 -7 16 -7 10 3 -5 9
-4 11 4 6 6 -4 10 -15 9 -24 -2 -9 5 -18 15 -20 9 -2 17 1 17 7 0 6 -4 11 -10
11 -5 0 -10 9 -10 21 0 11 5 17 10 14 12 -7 12 2 1 30 -5 11 -4 25 2 33 14 18
2 25 -22 12 -25 -13 -28 -2 -3 16 11 9 13 13 4 14 -8 0 -13 10 -12 23 1 12 -1
31 -5 43 -8 27 -58 56 -81 47 -12 -5 -15 -3 -9 6 6 10 2 11 -15 6 -14 -4 -20
-3 -16 3 3 5 -1 13 -10 16 -23 9 -34 7 -34 -4z m-37 -27 c-7 -2 -21 -2 -30 0
-10 3 -4 5 12 5 17 0 24 -2 18 -5z m71 -1 c2 -4 -6 -9 -20 -10 -13 -1 -24 3
-24 8 0 12 37 14 44 2z"/>
<path d="M1463 370 c-33 -26 -14 -41 51 -39 52 2 91 17 49 20 -24 2 -25 2 -45
-6 -11 -4 -18 -3 -18 4 0 6 9 11 20 11 12 0 17 5 14 14 -7 19 -46 17 -71 -4z
m27 6 c0 -2 -8 -10 -17 -17 -16 -13 -17 -12 -4 4 13 16 21 21 21 13z"/>
<path d="M1625 370 c3 -6 -4 -14 -17 -19 -29 -12 -29 -12 60 -17 50 -3 72 -1
72 7 0 7 -14 10 -39 7 -22 -2 -37 0 -35 4 9 14 84 9 84 -4 0 -9 4 -8 10 2 8
13 10 12 10 -2 0 -10 5 -18 10 -18 6 0 10 5 10 11 0 8 4 9 13 0 9 -6 35 -9 68
-6 76 8 80 8 119 6 19 -1 115 -2 212 -2 98 0 186 -2 195 -6 16 -5 16 -4 3 10
-14 15 -53 17 -318 18 -175 1 -302 6 -302 11 0 11 -101 8 -117 -4 -7 -5 -14
-5 -18 2 -3 5 -11 10 -16 10 -6 0 -7 -5 -4 -10z m25 -14 c0 -3 -4 -8 -10 -11
-5 -3 -10 -1 -10 4 0 6 5 11 10 11 6 0 10 -2 10 -4z"/>
<path d="M0 344 c0 -25 2 -26 37 -21 22 4 33 3 27 -3 -5 -5 -21 -11 -34 -13
-18 -3 -26 -11 -27 -28 -1 -15 0 -17 3 -6 4 13 17 17 61 17 47 0 54 -2 44 -14
-7 -8 -8 -17 -3 -20 6 -3 12 4 16 16 4 18 8 20 18 10 10 -10 10 -15 -2 -22
-12 -8 -11 -10 5 -9 11 0 29 4 40 9 19 8 19 9 -2 9 -12 1 -24 5 -27 10 -4 5
25 10 64 11 122 2 140 3 140 11 0 4 9 5 20 2 36 -9 16 -28 -26 -24 -46 3 -41
-8 6 -14 22 -3 38 2 53 15 24 23 24 23 -30 37 -31 7 -43 7 -43 -1 0 -7 -28
-12 -75 -14 -43 -1 -75 2 -75 7 0 5 8 12 18 14 13 4 11 5 -5 6 -13 0 -23 5
-23 9 0 5 -15 6 -32 3 l-33 -5 35 -7 35 -7 -40 1 c-31 2 -40 6 -39 20 1 9 -4
17 -12 17 -7 0 -11 -6 -9 -12 4 -9 -7 -13 -35 -15 -22 0 -40 3 -40 8 0 5 7 9
15 9 8 0 15 5 15 10 0 6 -9 10 -20 10 -15 0 -20 -7 -20 -26z m158 -41 c-15 -2
-42 -2 -60 0 -18 2 -6 4 27 4 33 0 48 -2 33 -4z"/>
<path d="M260 361 c0 -10 -8 -12 -30 -7 -17 3 -30 1 -30 -4 0 -6 15 -10 34
-10 19 0 36 -5 38 -10 2 -7 16 -6 38 4 32 14 33 15 10 17 -14 1 -29 1 -34 0
-5 -1 -13 4 -17 11 -7 10 -9 10 -9 -1z"/>
<path d="M1588 363 c7 -3 16 -2 19 1 4 3 -2 6 -13 5 -11 0 -14 -3 -6 -6z"/>
<path d="M805 340 c-30 -8 -30 -8 8 -9 23 -1 36 3 32 9 -3 6 -7 9 -8 9 -1 -1
-15 -5 -32 -9z"/>
<path d="M998 333 c-10 -2 -18 -10 -18 -18 0 -10 5 -11 25 -2 14 7 25 15 25
20 0 7 -4 7 -32 0z"/>
<path d="M537 313 c-28 -10 -18 -12 78 -11 70 0 113 5 117 12 6 8 8 7 8 -1 0
-7 8 -13 18 -13 13 0 14 2 3 9 -11 7 -11 10 0 15 8 3 -4 3 -26 0 -65 -10 -115
-12 -115 -4 0 11 -44 7 -83 -7z"/>
<path d="M897 316 c-4 -10 -16 -13 -37 -11 -18 3 -28 0 -25 -5 13 -21 135 -5
135 18 0 15 -67 13 -73 -2z m28 -6 c3 -5 -1 -10 -10 -10 -9 0 -13 5 -10 10 3
6 8 10 10 10 2 0 7 -4 10 -10z"/>
<path d="M1586 276 c7 -56 7 -56 -20 -54 -14 1 -26 6 -26 11 0 5 -6 5 -12 -1
-7 -5 -30 -9 -51 -8 -21 1 -40 -1 -43 -6 -3 -4 36 -8 87 -8 51 0 89 3 85 7 -3
4 6 12 21 19 18 8 22 13 11 13 -9 1 -20 6 -23 11 -4 6 12 10 39 10 34 0 46 -4
46 -15 0 -8 4 -15 9 -15 5 0 16 -3 25 -6 13 -5 16 1 16 25 l0 31 -81 0 c-67 0
-80 3 -76 15 4 8 2 17 -4 20 -6 4 -7 -14 -3 -49z"/>
<path d="M1751 314 c0 -11 3 -14 6 -6 3 7 2 16 -1 19 -3 4 -6 -2 -5 -13z"/>
<path d="M1916 323 c-11 -11 -6 -23 9 -23 8 0 15 4 15 9 0 13 -16 22 -24 14z"/>
<path d="M2091 314 c0 -11 3 -14 6 -6 3 7 2 16 -1 19 -3 4 -6 -2 -5 -13z"/>
<path d="M2250 321 c0 -6 5 -13 10 -16 6 -3 10 1 10 9 0 9 -4 16 -10 16 -5 0
-10 -4 -10 -9z"/>
<path d="M2420 313 c0 -8 5 -13 12 -11 18 6 21 25 3 25 -8 0 -15 -7 -15 -14z"/>
<path d="M2640 318 c0 -13 7 -18 28 -17 21 1 22 2 7 6 -11 3 -23 10 -27 17 -5
7 -8 5 -8 -6z"/>
<path d="M2794 309 c-2 -4 1 -9 7 -11 6 -2 2 -14 -10 -29 -11 -15 -17 -29 -14
-33 3 -3 -15 -6 -41 -6 -44 0 -46 1 -36 20 7 14 7 20 0 20 -5 0 -10 -4 -10
-10 0 -5 -4 -10 -10 -10 -5 0 -10 9 -10 20 0 11 -7 20 -16 20 -8 0 -12 -5 -9
-10 3 -6 -1 -13 -9 -16 -21 -8 -20 -17 5 -32 19 -12 19 -11 9 8 -14 27 -5 25
27 -4 15 -14 30 -23 35 -20 4 3 8 0 8 -7 0 -8 4 -8 15 1 9 8 15 8 15 2 0 -6
-9 -13 -19 -17 -12 -4 -18 -12 -14 -21 9 -25 -6 -15 -21 14 -12 23 -21 28 -53
29 -26 0 -32 -2 -19 -6 14 -6 16 -10 7 -15 -6 -4 -19 -2 -28 6 -9 7 -14 8 -10
2 7 -13 -34 -28 -43 -16 -13 17 -48 12 -53 -8 -4 -17 0 -20 31 -20 21 0 53 -3
72 -6 l36 -6 -1 -68 c0 -38 4 -72 8 -76 11 -12 28 18 21 36 -14 34 -16 110 -4
125 9 10 9 15 1 15 -6 0 -11 5 -11 11 0 6 8 9 17 7 15 -3 17 -15 14 -101 -2
-88 -1 -96 15 -90 14 5 16 16 11 69 -5 70 -2 80 20 58 9 -8 18 -12 22 -8 3 4
0 9 -6 11 -18 7 -16 27 6 52 l18 21 17 -22 c9 -13 14 -17 10 -10 -5 11 2 12
29 8 22 -4 39 -1 43 6 5 7 -1 9 -20 6 -26 -5 -26 -5 -10 13 16 18 16 19 -14
25 -36 7 -42 23 -13 31 11 3 17 11 15 18 -4 9 4 15 23 17 25 3 24 4 -10 9 -21
3 -40 2 -43 -2z m16 -100 c0 -5 -4 -9 -10 -9 -5 0 -10 7 -10 16 0 8 5 12 10 9
6 -3 10 -10 10 -16z m-273 -35 c-3 -3 -12 -4 -19 -1 -8 3 -5 6 6 6 11 1 17 -2
13 -5z"/>
<path d="M790 300 c10 -7 -3 -10 -45 -11 -33 -1 -64 -1 -68 0 -5 1 -6 -3 -2
-9 5 -9 -44 -16 -82 -11 -6 1 -14 -3 -18 -9 -3 -5 -1 -10 4 -10 6 0 11 -4 11
-10 0 -17 -28 -11 -33 8 -4 15 -5 15 -6 -2 0 -10 -8 -24 -16 -30 -12 -8 2 -12
59 -14 56 -2 77 1 89 12 17 18 47 21 47 6 0 -5 5 -10 10 -10 18 0 10 17 -12
28 -22 10 -22 11 -2 11 11 1 28 -7 37 -17 12 -13 28 -17 62 -15 28 2 44 -1 40
-7 -3 -6 -13 -10 -22 -10 -9 0 -13 -3 -10 -6 4 -4 19 -2 34 5 24 9 58 18 86
20 4 1 7 5 7 10 0 4 -11 6 -25 3 -17 -3 -25 0 -25 9 -1 9 -6 7 -16 -6 -11 -15
-17 -17 -22 -8 -5 7 -18 11 -30 8 -12 -2 -22 0 -22 6 0 5 8 9 18 10 13 0 13 2
-4 9 -25 10 -41 30 -25 30 21 0 11 16 -11 17 -18 2 -20 0 -8 -7z m10 -30 c0
-5 -15 -10 -34 -10 -18 0 -55 -2 -82 -5 -69 -7 -39 4 37 14 35 5 67 9 72 10 4
0 7 -3 7 -9z m-180 -22 c0 -4 7 -8 15 -8 8 0 15 -5 15 -11 0 -5 5 -7 10 -4 6
3 10 2 10 -3 0 -5 -13 -9 -30 -9 -16 0 -27 4 -24 9 4 5 -2 15 -11 22 -16 11
-16 13 -1 13 9 0 16 -4 16 -9z m170 -8 c0 -5 -4 -10 -10 -10 -5 0 -10 5 -10
10 0 6 5 10 10 10 6 0 10 -4 10 -10z"/>
<path d="M1391 297 c-6 -8 -9 -16 -6 -19 11 -11 -27 -31 -61 -33 -35 -2 -36
-2 -13 11 l24 13 -23 1 c-12 0 -25 -7 -28 -15 -4 -10 -11 -12 -22 -6 -10 4
-28 5 -41 2 -21 -6 -22 -8 -7 -20 16 -14 12 -36 -5 -25 -6 3 -7 -4 -4 -18 7
-28 -18 -58 -30 -38 -4 7 -3 16 3 22 6 6 6 18 -2 34 -11 23 -26 33 -26 16 0
-4 -28 -7 -62 -6 -83 2 -88 3 -85 12 1 4 -2 8 -8 9 -5 0 -9 -3 -8 -7 3 -9 -53
-31 -60 -24 -2 3 -2 -7 0 -21 3 -15 1 -25 -6 -25 -7 0 -10 4 -6 9 10 17 -11
21 -31 6 -24 -18 -48 -19 -38 -2 4 6 -1 4 -11 -5 -11 -10 -17 -19 -14 -21 2
-1 32 -1 66 1 59 4 61 5 57 28 -4 22 -2 23 36 21 24 -1 40 -7 40 -14 0 -16 -6
-16 -30 -3 -22 12 -39 -5 -22 -22 15 -15 62 -1 62 18 0 11 4 13 17 6 11 -7 26
-4 50 10 18 11 33 15 33 10 0 -12 -56 -42 -77 -42 -7 0 -16 -7 -19 -15 -4 -8
-11 -12 -17 -8 -5 3 -7 1 -4 -4 4 -6 -2 -18 -12 -27 -12 -11 -21 -13 -25 -7
-4 5 2 14 11 20 13 8 -7 11 -79 10 -91 -1 -98 -3 -98 -21 0 -15 4 -18 18 -13
9 4 32 9 50 12 29 5 32 4 29 -18 -2 -13 2 -30 9 -37 11 -11 22 -8 61 19 27 18
50 36 53 39 7 9 43 24 53 22 4 -1 7 5 7 13 0 8 6 15 13 15 7 0 23 9 36 21 28
26 41 17 16 -11 -11 -12 -13 -20 -6 -20 7 0 9 -5 6 -10 -5 -8 -11 -8 -19 -1
-9 8 -13 7 -13 -4 0 -8 6 -15 14 -15 7 0 13 -8 13 -17 0 -15 -2 -16 -10 -3
-11 17 -12 4 -2 -22 5 -13 11 -15 22 -8 8 5 10 10 4 10 -7 0 -9 11 -6 25 5 29
25 46 21 19 -1 -11 1 -26 4 -34 13 -34 14 -46 6 -62 -6 -10 -5 -19 1 -23 10
-6 14 19 10 64 -1 15 3 22 12 19 7 -3 13 -11 14 -19 3 -48 4 -49 27 -40 12 4
28 6 35 4 6 -3 12 0 12 6 0 6 8 11 18 11 14 0 15 -2 2 -10 -8 -5 -12 -10 -9
-10 6 0 69 30 69 33 0 1 -24 2 -54 2 -30 0 -54 -4 -53 -9 3 -18 -30 -17 -37 0
-5 14 -4 15 9 4 20 -17 19 -8 -5 32 -19 32 -19 35 -3 58 9 13 17 36 17 50 1
24 4 25 51 23 35 -2 46 0 35 7 -9 6 -10 10 -3 10 21 0 27 -23 10 -35 -10 -7
-17 -22 -17 -33 0 -11 -10 -28 -22 -37 -20 -13 -21 -17 -8 -26 13 -9 12 -10
-2 -5 -10 3 -18 1 -18 -4 0 -11 71 -21 120 -17 19 1 34 6 32 12 -2 10 -50 9
-84 -1 -16 -5 -20 1 -17 24 1 4 5 6 10 4 5 -1 9 5 9 13 0 8 8 15 18 16 25 0
107 11 110 14 1 1 0 10 -4 19 -8 20 -34 21 -34 1 0 -10 -9 -15 -27 -14 -24 2
-25 2 -5 6 24 5 29 18 11 29 -11 6 -8 51 6 87 9 21 -17 24 -34 4z m-141 -57
c0 -5 -8 -10 -17 -10 -15 0 -16 2 -3 10 19 12 20 12 20 0z m150 -34 c0 -3 -4
-8 -10 -11 -5 -3 -10 -1 -10 4 0 6 5 11 10 11 6 0 10 -2 10 -4z m-26 -22 c3
-8 2 -12 -4 -9 -6 3 -10 10 -10 16 0 14 7 11 14 -7z m-157 -47 c-12 -23 -23
-37 -25 -30 -3 12 34 73 43 73 2 0 -6 -19 -18 -43z m-265 -34 c13 -16 13 -20
-4 -35 -17 -17 -18 -17 -18 1 0 11 -3 26 -6 35 -8 21 9 20 28 -1z"/>
<path d="M1448 291 c4 -10 17 -12 50 -7 25 3 51 6 58 6 8 0 14 3 14 8 0 4 -29
7 -64 7 -49 0 -62 -3 -58 -14z"/>
<path d="M2525 300 c-3 -5 -27 -10 -53 -11 -26 0 -41 -3 -35 -6 10 -3 10 -8
-1 -19 -17 -17 -36 -18 -36 -3 0 5 4 8 8 5 5 -3 9 2 9 10 0 13 -44 14 -329 13
-315 -1 -328 -2 -328 -20 0 -16 7 -19 44 -19 25 0 51 6 59 14 9 9 19 11 28 5
11 -7 11 -9 -3 -9 -9 0 -23 -6 -30 -13 -7 -8 -20 -16 -28 -20 -10 -3 -7 -6 8
-6 12 -1 22 4 22 10 0 8 12 10 35 6 20 -3 37 -1 41 5 5 7 1 9 -9 5 -11 -4 -17
-1 -17 6 0 10 21 12 90 9 62 -3 90 -1 90 7 0 6 5 11 10 11 11 0 13 -39 4 -64
-9 -23 -23 -10 -17 17 3 12 1 18 -4 12 -11 -14 -116 -14 -126 -1 -4 6 -5 -2
-1 -18 l7 -28 -89 7 c-148 12 -241 5 -256 -19 -5 -8 -11 -7 -20 2 -13 13 -88
17 -88 5 0 -5 17 -8 37 -8 31 0 38 -4 38 -20 0 -11 -8 -21 -19 -23 -13 -3 -17
0 -14 10 4 9 -1 14 -14 15 -15 2 -18 -3 -12 -20 9 -31 8 -31 59 -16 41 12 61
29 33 29 -14 0 -2 13 15 17 7 1 32 7 56 13 34 8 46 8 52 -2 6 -10 9 -9 14 3 5
13 12 14 40 5 19 -6 35 -14 35 -18 0 -5 4 -8 10 -8 5 0 8 6 6 13 -1 6 -1 9 1
4 3 -4 10 -4 15 -1 7 4 8 2 4 -4 -8 -13 6 -16 18 -4 9 9 56 10 51 1 -3 -3 5
-15 17 -25 l21 -19 -6 33 -6 32 57 -1 c31 0 66 -4 77 -9 13 -5 0 -6 -32 -3
-38 4 -53 2 -53 -6 0 -7 -4 -10 -9 -7 -5 3 -12 -1 -15 -10 -9 -22 -8 -24 9
-24 8 0 15 7 15 15 0 12 18 15 99 15 l100 0 4 -27 4 -28 2 27 1 26 130 -5 c78
-3 130 -2 130 4 0 5 -13 8 -29 5 -17 -2 -39 3 -53 12 -12 9 -32 16 -43 15 -20
0 -20 0 0 -9 13 -6 15 -9 5 -9 -24 -1 -59 34 -55 55 2 10 4 23 4 28 1 5 7 4
14 -2 9 -8 20 -7 40 3 15 8 27 10 27 4 0 -5 -4 -9 -9 -9 -5 0 -11 -7 -14 -14
-4 -10 -1 -13 7 -10 7 3 19 -2 26 -11 9 -11 9 -15 1 -15 -7 0 -9 -4 -6 -10 8
-13 78 -13 91 0 5 5 34 14 64 19 l55 9 -52 1 c-41 1 -55 5 -63 20 -8 16 -6 21
11 26 11 4 23 4 26 1 4 -3 1 -6 -5 -6 -7 0 -12 -4 -12 -10 0 -5 6 -10 14 -10
10 0 14 10 14 30 -1 32 -3 36 -13 20z m-255 -51 c0 -17 4 -28 10 -24 6 3 10 0
10 -8 0 -14 -4 -16 -52 -20 -14 -1 -30 -5 -34 -9 -11 -12 -34 11 -27 28 3 8 0
14 -7 14 -8 0 -10 -8 -6 -24 5 -20 3 -23 -19 -18 -20 3 -25 10 -25 33 0 27 3
29 39 29 22 0 46 2 53 5 9 4 18 -5 25 -22 l11 -28 1 38 c1 44 21 51 21 6z
m198 -10 c1 -27 -2 -30 -25 -27 -36 4 -38 20 -6 40 16 10 28 18 29 18 1 0 1
-14 2 -31z"/>
<path d="M1043 293 c9 -2 25 -2 35 0 9 3 1 5 -18 5 -19 0 -27 -2 -17 -5z"/>
<path d="M2722 293 c-6 -2 -9 -10 -5 -16 4 -7 8 -16 8 -21 0 -5 5 -11 11 -13
7 -2 9 8 6 27 -2 16 -5 30 -6 29 0 0 -7 -3 -14 -6z"/>
<path d="M2876 293 c-13 -13 -5 -23 17 -19 12 3 25 5 30 5 4 1 7 5 7 9 0 10
-45 14 -54 5z"/>
<path d="M510 282 c0 -7 -6 -12 -14 -12 -10 0 -12 -11 -8 -47 6 -57 12 -69 12
-25 0 25 4 32 20 32 11 0 20 6 20 13 -1 16 -30 55 -30 39z"/>
<path d="M943 283 c-18 -6 -16 -23 1 -23 17 0 30 16 19 23 -5 2 -14 2 -20 0z"/>
<path d="M2986 275 c4 -8 8 -15 10 -15 2 0 4 7 4 15 0 8 -4 15 -10 15 -5 0 -7
-7 -4 -15z"/>
<path d="M240 272 c0 -5 -23 -14 -51 -21 l-50 -13 22 -24 c23 -25 49 -32 49
-13 0 5 -4 8 -8 5 -4 -2 -14 -1 -21 3 -9 6 -4 11 15 15 16 4 32 13 36 19 5 8
8 7 8 -4 0 -20 46 -34 63 -21 15 12 127 21 127 11 0 -4 -8 -9 -17 -11 -15 -3
-14 -5 4 -10 18 -5 22 -1 25 28 4 37 -2 40 -35 22 -12 -6 -36 -11 -52 -9 -17
1 -42 -2 -55 -7 -18 -7 -29 -6 -38 4 -18 20 -15 26 8 14 21 -11 40 -6 40 11 0
5 -16 9 -35 9 -19 0 -35 -4 -35 -8z"/>
<path d="M2561 271 c-8 -5 -9 -11 -3 -15 5 -3 12 1 16 9 6 17 6 18 -13 6z"/>
<path d="M1453 258 c-10 -4 6 -7 40 -7 31 -1 57 1 57 3 0 8 -80 11 -97 4z"/>
<path d="M79 256 c-2 -3 -21 -6 -41 -8 -28 -1 -35 -5 -27 -14 6 -8 25 -10 52
-7 l42 6 -21 -21 c-14 -13 -30 -19 -45 -16 -23 4 -23 4 -3 -5 12 -5 24 -19 27
-30 6 -23 -3 -27 -21 -9 -8 8 -15 8 -27 -2 -15 -13 -15 -15 5 -22 30 -11 57 6
75 49 8 19 15 39 15 42 0 12 -25 42 -31 37z m4 -71 c-3 -9 -8 -14 -10 -11 -3
3 -2 9 2 15 9 16 15 13 8 -4z"/>
<path d="M461 244 c0 -11 3 -14 6 -6 3 7 2 16 -1 19 -3 4 -6 -2 -5 -13z"/>
<path d="M1660 240 c0 -5 5 -10 10 -10 6 0 10 5 10 10 0 6 -4 10 -10 10 -5 0
-10 -4 -10 -10z"/>
<path d="M2326 225 c4 -8 9 -15 13 -15 4 0 8 7 8 15 0 8 -6 15 -13 15 -8 0
-11 -6 -8 -15z"/>
<path d="M117 198 c-2 -13 -8 -32 -12 -42 -7 -16 -5 -18 8 -13 9 3 17 2 17 -3
0 -6 -7 -10 -17 -10 -19 0 -9 -13 12 -16 12 -2 15 10 15 52 0 54 -13 73 -23
32z"/>
<path d="M1633 213 c9 -2 23 -2 30 0 6 3 -1 5 -18 5 -16 0 -22 -2 -12 -5z"/>
<path d="M780 200 c-23 -8 -22 -8 8 -7 17 1 32 5 32 9 0 9 -6 9 -40 -2z"/>
<path d="M688 193 c-10 -2 -18 -10 -18 -16 0 -8 -3 -8 -12 1 -9 9 -15 9 -26 0
-10 -9 -15 -9 -21 0 -4 6 -17 9 -29 5 -12 -3 -19 -9 -16 -14 3 -5 1 -9 -5 -9
-5 0 -17 -3 -27 -7 -11 -4 -15 -3 -11 4 5 7 0 9 -13 6 -11 -3 -20 -14 -20 -24
0 -15 5 -17 33 -12 17 3 37 10 44 15 11 9 77 20 116 19 9 0 17 7 17 15 0 8 5
14 12 14 6 0 8 -3 5 -7 -13 -12 16 -33 47 -34 17 -1 23 -3 14 -6 -10 -2 -18
-8 -18 -12 0 -12 29 -47 30 -36 0 6 4 27 9 48 9 36 8 37 -12 31 -32 -10 -42
-10 -44 0 -1 9 -24 26 -33 25 -3 -1 -13 -3 -22 -6z"/>
<path d="M1273 185 c1 -11 -4 -25 -13 -32 -10 -8 -11 -12 -2 -13 6 0 12 -5 12
-11 0 -5 -4 -7 -10 -4 -6 4 -7 -1 -3 -12 6 -14 9 -11 21 17 10 25 11 39 3 54
-11 20 -11 20 -8 1z"/>
<path d="M1485 190 c3 -5 8 -10 11 -10 2 0 4 5 4 10 0 6 -5 10 -11 10 -5 0 -7
-4 -4 -10z"/>
<path d="M161 173 c-1 -12 -3 -27 -6 -35 -4 -11 9 -12 64 -8 38 3 73 8 77 13
4 4 2 7 -4 7 -5 0 -19 3 -29 6 -14 5 -15 4 -4 -4 10 -7 -1 -10 -38 -9 -44 2
-49 4 -34 15 15 11 15 12 1 12 -9 0 -19 6 -21 13 -3 6 -6 2 -6 -10z"/>
<path d="M321 183 c0 -7 -9 -13 -18 -13 -17 -1 -17 -1 0 -11 11 -7 41 -8 78
-4 46 5 59 11 58 23 0 11 -2 12 -6 5 -2 -7 -12 -13 -21 -13 -15 0 -15 2 -2 10
9 6 10 10 3 10 -6 0 -14 -4 -17 -9 -3 -5 -19 -11 -35 -13 -22 -3 -31 0 -34 11
-3 9 -5 10 -6 4z"/>
<path d="M1765 180 c3 -5 10 -10 16 -10 5 0 9 5 9 10 0 6 -7 10 -16 10 -8 0
-12 -4 -9 -10z"/>
<path d="M228 173 c12 -2 30 -2 40 0 9 3 -1 5 -23 4 -22 0 -30 -2 -17 -4z"/>
<path d="M455 149 c6 -43 14 -49 13 -10 -1 18 -5 34 -9 37 -4 2 -6 -10 -4 -27z"/>
<path d="M1300 166 c0 -9 5 -16 10 -16 6 0 10 4 10 9 0 6 -4 13 -10 16 -5 3
-10 -1 -10 -9z"/>
<path d="M1891 171 c-1 -8 -8 -11 -21 -8 -10 3 -21 0 -23 -7 -3 -8 -8 -8 -17
0 -17 17 -50 5 -61 -22 -10 -29 -35 -31 -42 -4 -4 15 0 20 13 20 11 0 22 5 26
12 5 8 0 9 -17 5 -13 -4 -27 -7 -30 -7 -4 0 -9 -11 -11 -25 -3 -13 -1 -22 3
-19 5 3 9 -2 9 -10 0 -24 -18 -28 -25 -6 -3 11 -11 20 -16 20 -13 0 -11 -13 4
-30 6 -8 3 -7 -9 3 -24 20 -34 22 -34 6 0 -5 4 -8 9 -5 5 3 11 -1 15 -9 3 -8
15 -15 26 -15 16 0 20 -6 20 -36 0 -21 4 -33 10 -29 6 3 10 17 10 31 0 17 5
24 20 24 16 0 20 -7 21 -32 l1 -33 8 29 c5 16 15 33 22 37 8 6 -3 9 -29 9 -24
0 -43 5 -43 10 0 6 20 10 45 10 44 0 45 -1 45 -32 0 -44 15 -69 24 -40 4 11 5
25 4 32 -2 7 8 14 21 16 13 2 30 8 38 13 13 7 13 9 -1 14 -10 4 -15 3 -11 -3
4 -6 -5 -10 -20 -10 -15 0 -24 4 -20 10 3 5 1 10 -4 10 -6 0 -11 -6 -11 -12 0
-9 -3 -8 -9 2 -6 8 -7 18 -4 23 3 4 -3 7 -13 5 -11 -2 -20 4 -22 15 -5 25 34
22 41 -3 3 -11 10 -20 15 -20 6 0 8 9 5 20 -4 15 0 20 15 20 11 0 22 -8 25
-21 3 -11 15 -23 26 -26 11 -3 22 -12 23 -22 3 -10 6 -6 10 11 5 24 3 27 -17
22 -18 -4 -23 1 -32 33 -6 21 -11 32 -12 24z"/>
<path d="M1650 159 c0 -5 12 -9 27 -9 30 0 27 9 -6 15 -11 2 -21 0 -21 -6z"/>
<path d="M2750 159 c0 -5 5 -7 10 -4 6 3 10 8 10 11 0 2 -4 4 -10 4 -5 0 -10
-5 -10 -11z"/>
<path d="M408 142 c-16 -2 -28 -8 -28 -14 0 -6 11 -7 27 -3 47 11 47 23 1 17z"/>
<path d="M647 142 c-10 -2 -16 -9 -14 -15 6 -19 25 -19 30 0 4 17 5 17 6 0 1
-13 8 -17 26 -14 28 3 34 22 7 22 -9 0 -21 3 -27 6 -5 3 -18 4 -28 1z"/>
<path d="M1460 134 c0 -17 22 -14 28 4 2 7 -3 12 -12 12 -9 0 -16 -7 -16 -16z"/>
<path d="M1501 134 c0 -11 3 -14 6 -6 3 7 2 16 -1 19 -3 4 -6 -2 -5 -13z"/>
<path d="M1925 139 c-4 -6 -4 -13 -1 -16 3 -4 6 -1 6 6 0 7 5 9 12 5 7 -4 8
-3 4 4 -9 15 -13 15 -21 1z"/>
<path d="M350 130 c0 -5 5 -10 10 -10 6 0 10 5 10 10 0 6 -4 10 -10 10 -5 0
-10 -4 -10 -10z"/>
<path d="M1393 125 c0 -8 4 -15 9 -15 4 0 8 5 8 11 0 6 9 8 20 4 11 -3 20 -3
20 2 0 5 -13 10 -28 11 -20 1 -29 -3 -29 -13z"/>
<path d="M1655 130 c3 -5 8 -10 11 -10 2 0 4 5 4 10 0 6 -5 10 -11 10 -5 0 -7
-4 -4 -10z"/>
<path d="M2051 131 c-10 -6 -10 -10 -1 -16 13 -8 24 -1 19 14 -3 6 -10 7 -18
2z"/>
<path d="M313 116 c19 -19 40 -21 35 -3 -3 6 -15 14 -28 15 -21 4 -22 2 -7
-12z"/>
<path d="M1077 107 c-15 -13 -25 -26 -21 -29 5 -6 54 38 54 48 0 7 -4 4 -33
-19z"/>
<path d="M1592 117 c-12 -6 -22 -17 -21 -26 2 -29 -1 -41 -11 -41 -5 0 -10 15
-11 33 0 17 -3 26 -6 19 -2 -6 -8 -10 -13 -7 -4 3 -6 -4 -3 -15 3 -11 0 -20
-6 -20 -6 0 -11 7 -11 16 0 8 -4 12 -10 9 -5 -3 -10 -1 -10 6 0 7 -3 9 -7 5
-4 -4 -8 -17 -8 -29 0 -19 -6 -22 -45 -24 -53 -2 -90 -12 -90 -24 0 -14 134 3
143 18 7 11 20 13 53 8 32 -4 44 -2 44 7 0 8 5 6 11 -4 5 -10 16 -18 24 -18
10 0 13 11 9 47 -2 25 -5 47 -7 48 -1 2 -12 -2 -25 -8z m22 -38 c-6 -11 -24
-2 -24 11 0 5 7 7 15 4 8 -4 12 -10 9 -15z"/>
<path d="M1977 123 c-4 -3 -7 -11 -7 -17 0 -7 3 -7 8 0 4 7 16 14 27 17 19 5
19 5 -1 6 -11 0 -24 -2 -27 -6z"/>
<path d="M2110 120 c0 -5 5 -10 10 -10 6 0 10 5 10 10 0 6 -4 10 -10 10 -5 0
-10 -4 -10 -10z"/>
<path d="M2170 120 c0 -5 7 -10 15 -10 8 0 15 5 15 10 0 6 -7 10 -15 10 -8 0
-15 -4 -15 -10z"/>
<path d="M2230 120 c0 -5 7 -10 15 -10 8 0 15 5 15 10 0 6 -7 10 -15 10 -8 0
-15 -4 -15 -10z"/>
<path d="M2300 120 c0 -5 5 -10 10 -10 6 0 10 5 10 10 0 6 -4 10 -10 10 -5 0
-10 -4 -10 -10z"/>
<path d="M273 104 c0 -8 6 -14 14 -14 7 0 13 -8 12 -17 0 -11 -3 -13 -6 -5 -2
6 -11 12 -20 12 -8 0 -13 -6 -11 -12 5 -15 116 -24 130 -10 5 5 3 14 -7 22
-12 10 -15 10 -15 -4 0 -12 -9 -16 -32 -15 -31 2 -31 2 -5 6 15 2 27 9 27 15
0 6 -10 8 -25 4 -17 -4 -27 -2 -31 8 -8 20 -31 27 -31 10z"/>
<path d="M433 105 c13 -9 19 -28 20 -57 2 -37 5 -43 26 -46 15 -2 21 0 16 7
-3 6 -11 9 -16 6 -5 -4 -9 -2 -9 3 0 15 28 22 34 9 2 -7 5 -7 5 -1 1 5 -8 20
-20 33 -12 12 -18 25 -15 28 3 3 -6 12 -20 20 -34 17 -44 16 -21 -2z"/>
<path d="M513 104 c-5 -13 -7 -13 -14 -2 -7 10 -9 9 -9 -4 0 -10 7 -18 15 -18
8 0 15 -9 15 -20 0 -11 4 -20 8 -20 14 0 47 28 41 35 -4 3 -14 -1 -23 -10 -13
-14 -16 -14 -16 -2 0 8 10 17 21 20 20 5 20 7 6 21 -20 20 -36 20 -44 0z"/>
<path d="M2360 110 c0 -5 7 -10 15 -10 8 0 15 5 15 10 0 6 -7 10 -15 10 -8 0
-15 -4 -15 -10z"/>
<path d="M2430 110 c0 -5 5 -10 10 -10 6 0 10 5 10 10 0 6 -4 10 -10 10 -5 0
-10 -4 -10 -10z"/>
<path d="M2480 110 c-12 -8 -11 -10 7 -10 12 0 25 5 28 10 8 13 -15 13 -35 0z"/>
<path d="M0 98 c0 -5 13 -8 30 -8 21 0 28 -4 24 -14 -4 -11 7 -14 50 -15 38 0
56 4 56 12 0 8 3 9 8 1 11 -18 82 -25 82 -9 0 7 2 19 5 27 3 8 -3 13 -20 14
-17 1 -25 -3 -26 -15 0 -9 -3 -11 -5 -5 -6 14 -45 6 -56 -10 -5 -8 -8 -7 -8 2
0 7 -14 12 -35 12 -19 0 -35 4 -35 9 0 5 -16 9 -35 8 -19 -1 -35 -5 -35 -9z
m240 -12 c0 -3 -4 -8 -10 -11 -5 -3 -10 -1 -10 4 0 6 5 11 10 11 6 0 10 -2 10
-4z"/>
<path d="M390 104 c0 -17 18 -36 30 -32 7 2 4 10 -9 22 -12 11 -21 15 -21 10z"/>
<path d="M718 104 c-3 -3 -21 -6 -39 -6 -22 -1 -42 -9 -56 -25 -28 -29 -30
-48 -5 -38 9 4 26 10 37 13 18 5 18 6 -5 13 -18 5 -9 7 32 8 72 1 93 8 77 27
-12 14 -31 18 -41 8z m17 -14 c-3 -5 -11 -10 -16 -10 -6 0 -7 5 -4 10 3 6 11
10 16 10 6 0 7 -4 4 -10z"/>
<path d="M1450 91 c0 -11 -6 -22 -12 -24 -7 -3 -3 -6 8 -6 16 -1 22 5 22 24 0
14 -4 25 -9 25 -5 0 -9 -9 -9 -19z"/>
<path d="M1997 103 c-4 -3 -7 -17 -7 -30 0 -29 -17 -30 -23 0 -5 20 -5 20 -5
-3 1 -36 -12 -60 -32 -60 -10 0 -20 9 -23 20 -3 13 0 20 9 20 8 0 14 -4 14
-10 0 -5 5 -10 10 -10 6 0 10 7 10 15 0 8 -9 15 -19 15 -36 0 -48 -10 -43 -36
4 -22 9 -24 43 -22 30 1 39 6 39 20 0 16 18 24 45 18 10 -2 128 -9 172 -10 12
0 24 -8 26 -17 3 -11 5 -7 6 10 l1 27 -103 0 -103 0 -2 27 c-2 30 -6 36 -15
26z"/>
<path d="M2212 85 c0 -16 2 -22 5 -12 2 9 2 23 0 30 -3 6 -5 -1 -5 -18z"/>
<path d="M842 85 l-32 -11 30 -29 c32 -30 38 -28 18 8 -10 20 -10 21 5 8 14
-11 18 -11 23 5 4 11 8 22 10 25 5 9 -17 6 -54 -6z"/>
<path d="M2158 83 c6 -2 18 -2 25 0 6 3 1 5 -13 5 -14 0 -19 -2 -12 -5z"/>
<path d="M2560 75 c0 -8 5 -15 10 -15 6 0 10 7 10 15 0 8 -4 15 -10 15 -5 0
-10 -7 -10 -15z"/>
<path d="M1653 48 c8 -24 12 -28 15 -15 5 23 -4 47 -17 47 -6 0 -5 -13 2 -32z"/>
<path d="M2435 70 c-3 -5 -1 -10 4 -10 6 0 11 5 11 10 0 6 -2 10 -4 10 -3 0
-8 -4 -11 -10z"/>
<path d="M7 63 c7 -2 19 -2 26 0 6 3 1 5 -13 5 -14 0 -19 -2 -13 -5z"/>
<path d="M753 57 c-13 -5 -23 -14 -23 -20 0 -5 -7 -6 -16 -3 -8 3 -12 2 -9 -4
3 -6 23 -10 43 -10 25 0 32 3 23 9 -10 7 -10 10 -1 13 7 2 11 9 9 15 -3 7 -11
7 -26 0z"/>
<path d="M994 54 c-18 -14 -18 -15 4 -4 12 6 22 13 22 15 0 8 -5 6 -26 -11z"/>
<path d="M2955 52 c-16 -9 -32 -18 -34 -19 -2 -1 4 -10 13 -19 16 -16 18 -15
23 5 3 12 13 21 24 21 11 0 19 7 19 15 0 19 -8 19 -45 -3z"/>
<path d="M404 33 c-7 -27 -31 -31 -37 -5 -4 16 -5 16 -6 0 -1 -15 -15 -18 -93
-21 -66 -2 -54 -3 42 -3 74 -1 129 1 123 3 -15 5 -17 33 -3 33 6 0 10 4 10 8
0 20 -31 7 -36 -15z"/>
<path d="M793 40 c-1 -14 4 -20 18 -20 22 0 24 11 7 28 -17 17 -24 15 -25 -8z"/>
<path d="M1030 56 c0 -2 9 -6 20 -9 11 -3 18 -1 14 4 -5 9 -34 13 -34 5z"/>
<path d="M1165 48 c-4 -9 -13 -14 -21 -11 -8 3 -21 -1 -30 -8 -13 -10 -17 -10
-26 2 -8 12 -9 12 -5 -1 3 -11 15 -14 43 -12 43 4 59 14 51 34 -3 10 -6 9 -12
-4z"/>
<path d="M25 40 c-3 -5 -1 -10 4 -10 6 0 11 5 11 10 0 6 -2 10 -4 10 -3 0 -8
-4 -11 -10z"/>
<path d="M880 35 c0 -16 16 -20 24 -6 3 5 -1 11 -9 15 -9 3 -15 0 -15 -9z"/>
<path d="M55 30 c-3 -5 -17 -10 -31 -10 -13 0 -24 -3 -24 -7 0 -5 36 -8 80 -8
74 0 85 13 12 14 -19 1 -31 5 -27 11 3 6 4 10 1 10 -3 0 -8 -4 -11 -10z"/>
<path d="M140 30 c0 -5 5 -10 10 -10 6 0 10 5 10 10 0 6 -4 10 -10 10 -5 0
-10 -4 -10 -10z"/>
<path d="M240 30 c0 -5 5 -10 10 -10 6 0 10 5 10 10 0 6 -4 10 -10 10 -5 0
-10 -4 -10 -10z"/>
<path d="M2230 30 c0 -5 7 -10 15 -10 8 0 15 5 15 10 0 6 -7 10 -15 10 -8 0
-15 -4 -15 -10z"/>
<path d="M2290 30 c0 -5 7 -10 15 -10 8 0 15 5 15 10 0 6 -7 10 -15 10 -8 0
-15 -4 -15 -10z"/>
<path d="M2360 30 c0 -5 7 -10 15 -10 8 0 15 5 15 10 0 6 -7 10 -15 10 -8 0
-15 -4 -15 -10z"/>
<path d="M2427 34 c-8 -8 1 -24 14 -24 5 0 9 7 9 15 0 15 -12 20 -23 9z"/>
<path d="M2825 29 c7 -10 55 -18 55 -9 0 4 -13 10 -29 12 -17 2 -28 1 -26 -3z"/>
<path d="M543 22 c-37 -6 -26 -18 12 -14 19 2 35 5 35 7 0 7 -27 11 -47 7z"/>
<path d="M940 20 c0 -5 11 -10 25 -10 14 0 25 5 25 10 0 6 -11 10 -25 10 -14
0 -25 -4 -25 -10z"/>
<path d="M1505 20 c3 -6 20 -10 37 -10 38 0 34 5 -10 13 -21 4 -31 3 -27 -3z"/>
<path d="M2490 20 c0 -5 5 -10 10 -10 6 0 10 5 10 10 0 6 -4 10 -10 10 -5 0
-10 -4 -10 -10z"/>
<path d="M2550 21 c0 -5 7 -11 15 -15 9 -3 15 0 15 9 0 8 -7 15 -15 15 -8 0
-15 -4 -15 -9z"/>
<path d="M1610 10 c-22 -7 -20 -8 12 -7 20 1 34 5 31 10 -5 8 -9 8 -43 -3z"/>
<path d="M1685 10 c3 -5 8 -10 11 -10 2 0 4 5 4 10 0 6 -5 10 -11 10 -5 0 -7
-4 -4 -10z"/>
<path d="M1995 10 c-3 -5 -2 -10 4 -10 5 0 13 5 16 10 3 6 2 10 -4 10 -5 0
-13 -4 -16 -10z"/>
<path d="M2160 10 c0 -5 7 -10 16 -10 8 0 12 5 9 10 -3 6 -10 10 -16 10 -5 0
-9 -4 -9 -10z"/>
<path d="M658 3 c12 -2 32 -2 45 0 12 2 2 4 -23 4 -25 0 -35 -2 -22 -4z"/>
<path d="M823 3 c9 -2 25 -2 35 0 9 3 1 5 -18 5 -19 0 -27 -2 -17 -5z"/>
<path d="M1798 3 c7 -3 16 -2 19 1 4 3 -2 6 -13 5 -11 0 -14 -3 -6 -6z"/>
<path d="M1858 3 c7 -3 16 -2 19 1 4 3 -2 6 -13 5 -11 0 -14 -3 -6 -6z"/>
</g>
</svg>
